<?xml version="1.0" encoding="utf-8" standalone="no"?>
<!DOCTYPE svg PUBLIC "-//W3C//DTD SVG 1.1//EN"
  "http://www.w3.org/Graphics/SVG/1.1/DTD/svg11.dtd">
<svg xmlns:xlink="http://www.w3.org/1999/xlink" width="460.8pt" height="345.6pt" viewBox="0 0 460.8 345.6" xmlns="http://www.w3.org/2000/svg" version="1.1">
 <metadata>
  <rdf:RDF xmlns:dc="http://purl.org/dc/elements/1.1/" xmlns:cc="http://creativecommons.org/ns#" xmlns:rdf="http://www.w3.org/1999/02/22-rdf-syntax-ns#">
   <cc:Work>
    <dc:type rdf:resource="http://purl.org/dc/dcmitype/StillImage"/>
    <dc:date>2025-02-10T10:28:16.177056</dc:date>
    <dc:format>image/svg+xml</dc:format>
    <dc:creator>
     <cc:Agent>
      <dc:title>Matplotlib v3.10.0, https://matplotlib.org/</dc:title>
     </cc:Agent>
    </dc:creator>
   </cc:Work>
  </rdf:RDF>
 </metadata>
 <defs>
  <style type="text/css">*{stroke-linejoin: round; stroke-linecap: butt}</style>
 </defs>
 <g id="figure_1">
  <g id="patch_1">
   <path d="M 0 345.6 
L 460.8 345.6 
L 460.8 0 
L 0 0 
z
" style="fill: #ffffff"/>
  </g>
  <g id="axes_1">
   <g id="patch_2">
    <path d="M 57.6 307.584 
L 414.72 307.584 
L 414.72 41.472 
L 57.6 41.472 
z
" style="fill: #ffffff"/>
   </g>
   <g id="matplotlib.axis_1">
    <g id="xtick_1">
     <g id="line2d_1">
      <path d="M 73.832727 307.584 
L 73.832727 41.472 
" clip-path="url(#p8372bc41a8)" style="fill: none; stroke: #b0b0b0; stroke-width: 0.8; stroke-linecap: square"/>
     </g>
     <g id="line2d_2">
      <defs>
       <path id="mdc39851425" d="M 0 0 
L 0 3.5 
" style="stroke: #000000; stroke-width: 0.8"/>
      </defs>
      <g>
       <use xlink:href="#mdc39851425" x="73.832727" y="307.584" style="stroke: #000000; stroke-width: 0.8"/>
      </g>
     </g>
     <g id="text_1">
      <!-- $\mathdefault{4.0}$ -->
      <g transform="translate(64.484201 324.961725) scale(0.15 -0.15)">
       <defs>
        <path id="CMR17-34" d="M 2150 4147 
C 2150 4281 2144 4288 2029 4288 
L 128 1254 
L 128 1088 
L 1779 1088 
L 1779 460 
C 1779 230 1766 166 1318 166 
L 1197 166 
L 1197 0 
C 1402 12 1747 12 1965 12 
C 2182 12 2528 12 2733 0 
L 2733 166 
L 2611 166 
C 2163 166 2150 230 2150 460 
L 2150 1088 
L 2803 1088 
L 2803 1254 
L 2150 1254 
L 2150 4147 
z
M 1798 3723 
L 1798 1254 
L 256 1254 
L 1798 3723 
z
" transform="scale(0.015625)"/>
        <path id="CMMI12-3a" d="M 1178 307 
C 1178 492 1024 620 870 620 
C 685 620 557 467 557 313 
C 557 128 710 0 864 0 
C 1050 0 1178 153 1178 307 
z
" transform="scale(0.015625)"/>
        <path id="CMR17-30" d="M 2688 2038 
C 2688 2430 2682 3099 2413 3613 
C 2176 4063 1798 4224 1466 4224 
C 1158 4224 768 4082 525 3620 
C 269 3137 243 2539 243 2038 
C 243 1671 250 1112 448 623 
C 723 -39 1216 -128 1466 -128 
C 1760 -128 2208 -7 2470 604 
C 2662 1048 2688 1568 2688 2038 
z
M 1466 -26 
C 1056 -26 813 328 723 816 
C 653 1196 653 1749 653 2109 
C 653 2604 653 3015 736 3407 
C 858 3954 1216 4121 1466 4121 
C 1728 4121 2067 3947 2189 3420 
C 2272 3054 2278 2623 2278 2109 
C 2278 1691 2278 1176 2202 797 
C 2067 96 1690 -26 1466 -26 
z
" transform="scale(0.015625)"/>
       </defs>
       <use xlink:href="#CMR17-34" transform="scale(0.996264)"/>
       <use xlink:href="#CMMI12-3a" transform="translate(45.690477 0) scale(0.996264)"/>
       <use xlink:href="#CMR17-30" transform="translate(72.787654 0) scale(0.996264)"/>
      </g>
     </g>
    </g>
    <g id="xtick_2">
     <g id="line2d_3">
      <path d="M 154.996364 307.584 
L 154.996364 41.472 
" clip-path="url(#p8372bc41a8)" style="fill: none; stroke: #b0b0b0; stroke-width: 0.8; stroke-linecap: square"/>
     </g>
     <g id="line2d_4">
      <g>
       <use xlink:href="#mdc39851425" x="154.996364" y="307.584" style="stroke: #000000; stroke-width: 0.8"/>
      </g>
     </g>
     <g id="text_2">
      <!-- $\mathdefault{4.5}$ -->
      <g transform="translate(145.647838 324.961725) scale(0.15 -0.15)">
       <defs>
        <path id="CMR17-35" d="M 730 3750 
C 794 3724 1056 3641 1325 3641 
C 1920 3641 2246 3961 2432 4140 
C 2432 4191 2432 4224 2394 4224 
C 2387 4224 2374 4224 2323 4198 
C 2099 4102 1837 4032 1517 4032 
C 1325 4032 1037 4055 723 4191 
C 653 4224 640 4224 634 4224 
C 602 4224 595 4217 595 4090 
L 595 2231 
C 595 2113 595 2080 659 2080 
C 691 2080 704 2093 736 2139 
C 941 2435 1222 2560 1542 2560 
C 1766 2560 2246 2415 2246 1293 
C 2246 1087 2246 716 2054 422 
C 1894 159 1645 25 1370 25 
C 947 25 518 319 403 812 
C 429 806 480 793 506 793 
C 589 793 749 838 749 1036 
C 749 1209 627 1280 506 1280 
C 358 1280 262 1190 262 1011 
C 262 454 704 -128 1382 -128 
C 2042 -128 2669 441 2669 1267 
C 2669 2054 2170 2662 1549 2662 
C 1222 2662 947 2540 730 2304 
L 730 3750 
z
" transform="scale(0.015625)"/>
       </defs>
       <use xlink:href="#CMR17-34" transform="scale(0.996264)"/>
       <use xlink:href="#CMMI12-3a" transform="translate(45.690477 0) scale(0.996264)"/>
       <use xlink:href="#CMR17-35" transform="translate(72.787654 0) scale(0.996264)"/>
      </g>
     </g>
    </g>
    <g id="xtick_3">
     <g id="line2d_5">
      <path d="M 236.16 307.584 
L 236.16 41.472 
" clip-path="url(#p8372bc41a8)" style="fill: none; stroke: #b0b0b0; stroke-width: 0.8; stroke-linecap: square"/>
     </g>
     <g id="line2d_6">
      <g>
       <use xlink:href="#mdc39851425" x="236.16" y="307.584" style="stroke: #000000; stroke-width: 0.8"/>
      </g>
     </g>
     <g id="text_3">
      <!-- $\mathdefault{5.0}$ -->
      <g transform="translate(226.811474 324.961725) scale(0.15 -0.15)">
       <use xlink:href="#CMR17-35" transform="scale(0.996264)"/>
       <use xlink:href="#CMMI12-3a" transform="translate(45.690477 0) scale(0.996264)"/>
       <use xlink:href="#CMR17-30" transform="translate(72.787654 0) scale(0.996264)"/>
      </g>
     </g>
    </g>
    <g id="xtick_4">
     <g id="line2d_7">
      <path d="M 317.323636 307.584 
L 317.323636 41.472 
" clip-path="url(#p8372bc41a8)" style="fill: none; stroke: #b0b0b0; stroke-width: 0.8; stroke-linecap: square"/>
     </g>
     <g id="line2d_8">
      <g>
       <use xlink:href="#mdc39851425" x="317.323636" y="307.584" style="stroke: #000000; stroke-width: 0.8"/>
      </g>
     </g>
     <g id="text_4">
      <!-- $\mathdefault{5.5}$ -->
      <g transform="translate(307.97511 324.961725) scale(0.15 -0.15)">
       <use xlink:href="#CMR17-35" transform="scale(0.996264)"/>
       <use xlink:href="#CMMI12-3a" transform="translate(45.690477 0) scale(0.996264)"/>
       <use xlink:href="#CMR17-35" transform="translate(72.787654 0) scale(0.996264)"/>
      </g>
     </g>
    </g>
    <g id="xtick_5">
     <g id="line2d_9">
      <path d="M 398.487273 307.584 
L 398.487273 41.472 
" clip-path="url(#p8372bc41a8)" style="fill: none; stroke: #b0b0b0; stroke-width: 0.8; stroke-linecap: square"/>
     </g>
     <g id="line2d_10">
      <g>
       <use xlink:href="#mdc39851425" x="398.487273" y="307.584" style="stroke: #000000; stroke-width: 0.8"/>
      </g>
     </g>
     <g id="text_5">
      <!-- $\mathdefault{6.0}$ -->
      <g transform="translate(389.138747 324.961725) scale(0.15 -0.15)">
       <defs>
        <path id="CMR17-36" d="M 678 2198 
C 678 3712 1395 4076 1811 4076 
C 1946 4076 2272 4049 2400 3782 
C 2298 3782 2106 3782 2106 3558 
C 2106 3385 2246 3328 2336 3328 
C 2394 3328 2566 3353 2566 3571 
C 2566 3987 2246 4224 1805 4224 
C 1043 4224 243 3411 243 2011 
C 243 257 966 -128 1478 -128 
C 2099 -128 2688 431 2688 1295 
C 2688 2101 2170 2688 1517 2688 
C 1126 2688 838 2430 678 1979 
L 678 2198 
z
M 1478 25 
C 691 25 691 1212 691 1450 
C 691 1914 909 2585 1504 2585 
C 1613 2585 1926 2585 2138 2140 
C 2253 1889 2253 1624 2253 1302 
C 2253 954 2253 696 2118 438 
C 1978 173 1773 25 1478 25 
z
" transform="scale(0.015625)"/>
       </defs>
       <use xlink:href="#CMR17-36" transform="scale(0.996264)"/>
       <use xlink:href="#CMMI12-3a" transform="translate(45.690477 0) scale(0.996264)"/>
       <use xlink:href="#CMR17-30" transform="translate(72.787654 0) scale(0.996264)"/>
      </g>
     </g>
    </g>
    <g id="text_6">
     <!-- $V_r$ at 12 m (m/s) -->
     <g transform="translate(181.138053 343.07544) scale(0.15 -0.15)">
      <defs>
       <path id="CMMI12-56" d="M 3962 3644 
C 4179 3987 4378 4140 4704 4166 
C 4768 4172 4819 4172 4819 4287 
C 4819 4313 4806 4352 4749 4352 
C 4634 4352 4358 4339 4243 4339 
C 4058 4339 3866 4352 3686 4352 
C 3635 4352 3571 4352 3571 4230 
C 3571 4172 3629 4166 3654 4166 
C 3891 4146 3917 4032 3917 3956 
C 3917 3860 3827 3714 3821 3708 
L 1811 540 
L 1363 3968 
C 1363 4153 1696 4166 1766 4166 
C 1862 4166 1920 4166 1920 4287 
C 1920 4352 1850 4352 1830 4352 
C 1722 4352 1594 4339 1485 4339 
L 1126 4339 
C 659 4339 467 4352 461 4352 
C 422 4352 346 4352 346 4236 
C 346 4166 390 4166 493 4166 
C 819 4166 838 4108 858 3949 
L 1370 25 
C 1389 -109 1389 -128 1478 -128 
C 1555 -128 1587 -109 1651 -7 
L 3962 3644 
z
" transform="scale(0.015625)"/>
       <path id="CMMI12-72" d="M 2490 2633 
C 2291 2598 2189 2457 2189 2316 
C 2189 2163 2310 2111 2400 2111 
C 2579 2111 2726 2265 2726 2457 
C 2726 2651 2528 2816 2208 2816 
C 1952 2816 1658 2700 1389 2335 
C 1344 2660 1088 2816 832 2816 
C 582 2816 454 2642 378 2508 
C 269 2278 173 1892 173 1860 
C 173 1834 198 1801 243 1801 
C 294 1801 301 1808 339 1957 
C 435 2342 557 2687 813 2687 
C 966 2687 1011 2604 1011 2419 
C 1011 2278 947 2028 902 1827 
L 723 1130 
C 698 1007 627 716 595 600 
C 550 432 480 128 480 96 
C 480 6 550 -64 646 -64 
C 717 -64 838 -20 877 109 
C 896 160 1133 1136 1171 1285 
C 1203 1427 1242 1562 1274 1705 
C 1299 1795 1325 1898 1344 1982 
C 1363 2040 1536 2355 1696 2495 
C 1773 2566 1939 2687 2202 2687 
C 2304 2687 2406 2674 2490 2633 
z
" transform="scale(0.015625)"/>
       <path id="CMR17-61" d="M 2304 1656 
C 2304 2048 2304 2275 2035 2534 
C 1798 2751 1523 2816 1306 2816 
C 800 2816 435 2408 435 1977 
C 435 1740 627 1728 666 1728 
C 749 1728 896 1779 896 1958 
C 896 2118 774 2188 666 2188 
C 640 2188 608 2182 589 2176 
C 723 2594 1069 2713 1293 2713 
C 1613 2713 1965 2421 1965 1875 
L 1965 1632 
C 1587 1619 1133 1568 774 1373 
C 371 1147 256 822 256 576 
C 256 77 832 -64 1171 -64 
C 1523 -64 1850 135 1990 505 
C 2003 219 2182 -39 2464 -39 
C 2598 -39 2938 51 2938 563 
L 2938 926 
L 2822 926 
L 2822 557 
C 2822 161 2650 109 2566 109 
C 2304 109 2304 446 2304 732 
L 2304 1656 
z
M 1965 887 
C 1965 323 1568 38 1216 38 
C 896 38 646 278 646 576 
C 646 771 730 1114 1101 1322 
C 1408 1497 1760 1523 1965 1536 
L 1965 887 
z
" transform="scale(0.015625)"/>
       <path id="CMR17-74" d="M 966 2585 
L 1862 2585 
L 1862 2752 
L 966 2752 
L 966 3968 
L 851 3968 
C 838 3292 614 2700 70 2687 
L 70 2585 
L 627 2585 
L 627 778 
C 627 655 627 -64 1370 -64 
C 1747 -64 1965 308 1965 784 
L 1965 1151 
L 1850 1151 
L 1850 790 
C 1850 347 1677 51 1408 51 
C 1222 51 966 179 966 765 
L 966 2585 
z
" transform="scale(0.015625)"/>
       <path id="CMR17-31" d="M 1702 4083 
C 1702 4217 1696 4224 1606 4224 
C 1357 3927 979 3833 621 3820 
C 602 3820 570 3820 563 3808 
C 557 3795 557 3782 557 3648 
C 755 3648 1088 3686 1344 3839 
L 1344 467 
C 1344 243 1331 166 781 166 
L 589 166 
L 589 0 
C 896 6 1216 12 1523 12 
C 1830 12 2150 6 2458 0 
L 2458 166 
L 2266 166 
C 1715 166 1702 236 1702 467 
L 1702 4083 
z
" transform="scale(0.015625)"/>
       <path id="CMR17-32" d="M 2669 990 
L 2554 990 
C 2490 537 2438 460 2413 422 
C 2381 371 1920 371 1830 371 
L 602 371 
C 832 620 1280 1073 1824 1596 
C 2214 1966 2669 2400 2669 3033 
C 2669 3788 2067 4224 1395 4224 
C 691 4224 262 3603 262 3027 
C 262 2777 448 2745 525 2745 
C 589 2745 781 2783 781 3007 
C 781 3206 614 3264 525 3264 
C 486 3264 448 3257 422 3244 
C 544 3788 915 4057 1306 4057 
C 1862 4057 2227 3616 2227 3033 
C 2227 2477 1901 1998 1536 1583 
L 262 147 
L 262 0 
L 2515 0 
L 2669 990 
z
" transform="scale(0.015625)"/>
       <path id="CMR17-6d" d="M 4326 1954 
C 4326 2276 4269 2816 3507 2816 
C 3072 2816 2771 2520 2656 2173 
L 2650 2173 
C 2573 2700 2195 2816 1837 2816 
C 1331 2816 1069 2424 973 2166 
L 966 2166 
L 966 2816 
L 211 2745 
L 211 2578 
C 589 2578 646 2540 646 2231 
L 646 443 
C 646 198 621 166 211 166 
L 211 0 
C 365 12 646 12 813 12 
C 979 12 1267 12 1421 0 
L 1421 166 
C 1011 166 986 192 986 443 
L 986 1678 
C 986 2269 1344 2713 1792 2713 
C 2266 2713 2317 2289 2317 1980 
L 2317 443 
C 2317 198 2291 166 1882 166 
L 1882 0 
C 2035 12 2317 12 2483 12 
C 2650 12 2938 12 3091 0 
L 3091 166 
C 2682 166 2656 192 2656 443 
L 2656 1678 
C 2656 2269 3014 2713 3462 2713 
C 3936 2713 3987 2289 3987 1980 
L 3987 443 
C 3987 198 3962 166 3552 166 
L 3552 0 
C 3706 12 3987 12 4154 12 
C 4320 12 4608 12 4762 0 
L 4762 166 
C 4352 166 4326 192 4326 443 
L 4326 1954 
z
" transform="scale(0.015625)"/>
       <path id="CMR17-28" d="M 1958 -1562 
C 1958 -1556 1958 -1543 1939 -1524 
C 1645 -1223 858 -403 858 1596 
C 858 3595 1632 4408 1946 4729 
C 1946 4735 1958 4748 1958 4767 
C 1958 4787 1939 4800 1914 4800 
C 1843 4800 1299 4325 986 3620 
C 666 2909 576 2218 576 1603 
C 576 1141 621 360 1005 -467 
C 1312 -1133 1837 -1600 1914 -1600 
C 1946 -1600 1958 -1588 1958 -1562 
z
" transform="scale(0.015625)"/>
       <path id="CMR17-2f" d="M 2605 4575 
C 2637 4658 2637 4671 2637 4684 
C 2637 4761 2579 4800 2528 4800 
C 2451 4800 2426 4748 2400 4671 
L 326 -1376 
C 294 -1460 294 -1472 294 -1485 
C 294 -1562 352 -1600 403 -1600 
C 480 -1600 506 -1549 531 -1472 
L 2605 4575 
z
" transform="scale(0.015625)"/>
       <path id="CMR17-73" d="M 1978 2688 
C 1978 2803 1971 2809 1933 2809 
C 1907 2809 1901 2803 1824 2707 
C 1805 2681 1747 2617 1728 2592 
C 1523 2809 1235 2816 1126 2816 
C 416 2816 160 2444 160 2073 
C 160 1497 813 1363 998 1324 
C 1402 1241 1542 1216 1677 1100 
C 1760 1024 1901 883 1901 652 
C 1901 384 1747 38 1158 38 
C 602 38 403 460 288 1024 
C 269 1113 269 1120 218 1120 
C 166 1120 160 1113 160 985 
L 160 64 
C 160 -52 166 -58 205 -58 
C 237 -58 243 -52 275 0 
C 314 57 410 211 448 275 
C 576 102 800 -64 1158 -64 
C 1792 -64 2131 281 2131 780 
C 2131 1107 1958 1280 1875 1356 
C 1683 1555 1459 1600 1190 1651 
C 838 1728 390 1817 390 2208 
C 390 2374 480 2726 1126 2726 
C 1811 2726 1850 2086 1862 1881 
C 1869 1849 1901 1843 1920 1843 
C 1978 1843 1978 1862 1978 1971 
L 1978 2688 
z
" transform="scale(0.015625)"/>
       <path id="CMR17-29" d="M 1683 1596 
C 1683 2057 1638 2839 1254 3665 
C 947 4332 422 4800 346 4800 
C 326 4800 301 4793 301 4761 
C 301 4748 307 4742 314 4729 
C 621 4408 1402 3595 1402 1603 
C 1402 -396 627 -1210 314 -1530 
C 307 -1543 301 -1549 301 -1562 
C 301 -1594 326 -1600 346 -1600 
C 416 -1600 960 -1127 1274 -422 
C 1594 289 1683 981 1683 1596 
z
" transform="scale(0.015625)"/>
      </defs>
      <use xlink:href="#CMMI12-56" transform="scale(0.996264)"/>
      <use xlink:href="#CMMI12-72" transform="translate(56.869579 -14.943915) scale(0.697382)"/>
      <use xlink:href="#CMR17-61" transform="translate(120.112946 0) scale(0.996264)"/>
      <use xlink:href="#CMR17-74" transform="translate(165.803423 0) scale(0.996264)"/>
      <use xlink:href="#CMR17-31" transform="translate(231.160157 0) scale(0.996264)"/>
      <use xlink:href="#CMR17-32" transform="translate(276.850635 0) scale(0.996264)"/>
      <use xlink:href="#CMR17-6d" transform="translate(352.617078 0) scale(0.996264)"/>
      <use xlink:href="#CMR17-28" transform="translate(459.612634 0) scale(0.996264)"/>
      <use xlink:href="#CMR17-6d" transform="translate(494.893402 0) scale(0.996264)"/>
      <use xlink:href="#CMR17-2f" transform="translate(571.812992 0) scale(0.996264)"/>
      <use xlink:href="#CMR17-73" transform="translate(617.503469 0) scale(0.996264)"/>
      <use xlink:href="#CMR17-29" transform="translate(653.304807 0) scale(0.996264)"/>
     </g>
    </g>
   </g>
   <g id="matplotlib.axis_2">
    <g id="ytick_1">
     <g id="line2d_11">
      <path d="M 57.6 307.584 
L 414.72 307.584 
" clip-path="url(#p8372bc41a8)" style="fill: none; stroke: #b0b0b0; stroke-width: 0.8; stroke-linecap: square"/>
     </g>
     <g id="line2d_12">
      <defs>
       <path id="m4bb222fd74" d="M 0 0 
L -3.5 0 
" style="stroke: #000000; stroke-width: 0.8"/>
      </defs>
      <g>
       <use xlink:href="#m4bb222fd74" x="57.6" y="307.584" style="stroke: #000000; stroke-width: 0.8"/>
      </g>
     </g>
     <g id="text_7">
      <!-- $\mathdefault{1}$ -->
      <g transform="translate(43.283762 312.772862) scale(0.15 -0.15)">
       <use xlink:href="#CMR17-31" transform="scale(0.996264)"/>
      </g>
     </g>
    </g>
    <g id="ytick_2">
     <g id="line2d_13">
      <path d="M 57.6 254.3616 
L 414.72 254.3616 
" clip-path="url(#p8372bc41a8)" style="fill: none; stroke: #b0b0b0; stroke-width: 0.8; stroke-linecap: square"/>
     </g>
     <g id="line2d_14">
      <g>
       <use xlink:href="#m4bb222fd74" x="57.6" y="254.3616" style="stroke: #000000; stroke-width: 0.8"/>
      </g>
     </g>
     <g id="text_8">
      <!-- $\mathdefault{2}$ -->
      <g transform="translate(43.283762 259.550462) scale(0.15 -0.15)">
       <use xlink:href="#CMR17-32" transform="scale(0.996264)"/>
      </g>
     </g>
    </g>
    <g id="ytick_3">
     <g id="line2d_15">
      <path d="M 57.6 201.1392 
L 414.72 201.1392 
" clip-path="url(#p8372bc41a8)" style="fill: none; stroke: #b0b0b0; stroke-width: 0.8; stroke-linecap: square"/>
     </g>
     <g id="line2d_16">
      <g>
       <use xlink:href="#m4bb222fd74" x="57.6" y="201.1392" style="stroke: #000000; stroke-width: 0.8"/>
      </g>
     </g>
     <g id="text_9">
      <!-- $\mathdefault{3}$ -->
      <g transform="translate(43.283762 206.328062) scale(0.15 -0.15)">
       <defs>
        <path id="CMR17-33" d="M 1414 2176 
C 1984 2176 2234 1673 2234 1094 
C 2234 322 1824 25 1453 25 
C 1114 25 563 193 390 691 
C 422 678 454 678 486 678 
C 640 678 755 780 755 947 
C 755 1132 614 1216 486 1216 
C 378 1216 211 1164 211 927 
C 211 335 787 -128 1466 -128 
C 2176 -128 2720 432 2720 1087 
C 2720 1718 2208 2176 1600 2246 
C 2086 2347 2554 2776 2554 3353 
C 2554 3856 2048 4224 1472 4224 
C 890 4224 378 3862 378 3347 
C 378 3123 544 3084 627 3084 
C 762 3084 877 3167 877 3334 
C 877 3500 762 3584 627 3584 
C 602 3584 570 3584 544 3571 
C 730 3999 1235 4076 1459 4076 
C 1683 4076 2106 3966 2106 3347 
C 2106 3167 2080 2851 1862 2574 
C 1670 2329 1453 2316 1242 2297 
C 1210 2297 1062 2284 1037 2284 
C 992 2278 966 2272 966 2227 
C 966 2182 973 2176 1101 2176 
L 1414 2176 
z
" transform="scale(0.015625)"/>
       </defs>
       <use xlink:href="#CMR17-33" transform="scale(0.996264)"/>
      </g>
     </g>
    </g>
    <g id="ytick_4">
     <g id="line2d_17">
      <path d="M 57.6 147.9168 
L 414.72 147.9168 
" clip-path="url(#p8372bc41a8)" style="fill: none; stroke: #b0b0b0; stroke-width: 0.8; stroke-linecap: square"/>
     </g>
     <g id="line2d_18">
      <g>
       <use xlink:href="#m4bb222fd74" x="57.6" y="147.9168" style="stroke: #000000; stroke-width: 0.8"/>
      </g>
     </g>
     <g id="text_10">
      <!-- $\mathdefault{4}$ -->
      <g transform="translate(43.283762 153.105662) scale(0.15 -0.15)">
       <use xlink:href="#CMR17-34" transform="scale(0.996264)"/>
      </g>
     </g>
    </g>
    <g id="ytick_5">
     <g id="line2d_19">
      <path d="M 57.6 94.6944 
L 414.72 94.6944 
" clip-path="url(#p8372bc41a8)" style="fill: none; stroke: #b0b0b0; stroke-width: 0.8; stroke-linecap: square"/>
     </g>
     <g id="line2d_20">
      <g>
       <use xlink:href="#m4bb222fd74" x="57.6" y="94.6944" style="stroke: #000000; stroke-width: 0.8"/>
      </g>
     </g>
     <g id="text_11">
      <!-- $\mathdefault{5}$ -->
      <g transform="translate(43.283762 99.883262) scale(0.15 -0.15)">
       <use xlink:href="#CMR17-35" transform="scale(0.996264)"/>
      </g>
     </g>
    </g>
    <g id="ytick_6">
     <g id="line2d_21">
      <path d="M 57.6 41.472 
L 414.72 41.472 
" clip-path="url(#p8372bc41a8)" style="fill: none; stroke: #b0b0b0; stroke-width: 0.8; stroke-linecap: square"/>
     </g>
     <g id="line2d_22">
      <g>
       <use xlink:href="#m4bb222fd74" x="57.6" y="41.472" style="stroke: #000000; stroke-width: 0.8"/>
      </g>
     </g>
     <g id="text_12">
      <!-- $\mathdefault{6}$ -->
      <g transform="translate(43.283762 46.660862) scale(0.15 -0.15)">
       <use xlink:href="#CMR17-36" transform="scale(0.996264)"/>
      </g>
     </g>
    </g>
    <g id="text_13">
     <!-- Optimal daily energy need (kWh) -->
     <g transform="translate(35.547772 283.049595) rotate(-90) scale(0.15 -0.15)">
      <defs>
       <path id="CMR17-4f" d="M 4307 2166 
C 4307 3488 3366 4480 2304 4480 
C 1216 4480 294 3475 294 2166 
C 294 857 1229 -128 2298 -128 
C 3392 -128 4307 876 4307 2166 
z
M 2304 -13 
C 1574 -13 781 722 781 2250 
C 781 3771 1651 4364 2298 4364 
C 2976 4364 3821 3752 3821 2250 
C 3821 696 3008 -13 2304 -13 
z
" transform="scale(0.015625)"/>
       <path id="CMR17-70" d="M 1408 -1114 
C 998 -1114 973 -1088 973 -834 
L 973 380 
C 1158 109 1427 -64 1766 -64 
C 2406 -64 3053 503 3053 1382 
C 3053 2196 2496 2816 1837 2816 
C 1453 2816 1139 2603 960 2345 
L 960 2816 
L 198 2745 
L 198 2577 
C 576 2577 634 2539 634 2228 
L 634 -834 
C 634 -1081 608 -1114 198 -1114 
L 198 -1280 
C 352 -1268 634 -1268 800 -1268 
C 966 -1268 1254 -1268 1408 -1280 
L 1408 -1114 
z
M 973 2015 
C 973 2106 973 2241 1222 2481 
C 1254 2506 1472 2700 1792 2700 
C 2259 2700 2643 2112 2643 1376 
C 2643 639 2234 38 1728 38 
C 1498 38 1248 148 1056 451 
C 973 594 973 632 973 736 
L 973 2015 
z
" transform="scale(0.015625)"/>
       <path id="CMR17-69" d="M 992 3961 
C 992 4102 877 4224 730 4224 
C 589 4224 467 4108 467 3961 
C 467 3820 582 3699 730 3699 
C 870 3699 992 3814 992 3961 
z
M 243 2745 
L 243 2579 
C 602 2579 653 2540 653 2231 
L 653 443 
C 653 198 627 166 218 166 
L 218 0 
C 371 12 646 12 806 12 
C 960 12 1222 12 1370 0 
L 1370 166 
C 992 166 979 205 979 436 
L 979 2816 
L 243 2745 
z
" transform="scale(0.015625)"/>
       <path id="CMR17-6c" d="M 979 4416 
L 218 4345 
L 218 4179 
C 595 4179 653 4141 653 3835 
L 653 439 
C 653 198 627 166 218 166 
L 218 0 
C 371 12 653 12 813 12 
C 979 12 1261 12 1414 0 
L 1414 166 
C 1005 166 979 191 979 439 
L 979 4416 
z
" transform="scale(0.015625)"/>
       <path id="CMR17-64" d="M 1869 4345 
L 1869 4179 
C 2246 4179 2304 4141 2304 3843 
L 2304 2371 
C 2278 2403 2016 2816 1498 2816 
C 845 2816 211 2228 211 1376 
C 211 529 806 -64 1434 -64 
C 1978 -64 2259 361 2291 406 
L 2291 -64 
L 3066 -13 
L 3066 154 
C 2688 154 2630 193 2630 503 
L 2630 4416 
L 1869 4345 
z
M 2291 762 
C 2291 568 2176 393 2029 264 
C 1811 70 1594 38 1472 38 
C 1286 38 621 135 621 1369 
C 621 2636 1363 2713 1530 2713 
C 1824 2713 2061 2545 2208 2313 
C 2291 2177 2291 2157 2291 2041 
L 2291 762 
z
" transform="scale(0.015625)"/>
       <path id="CMR17-79" d="M 2496 2183 
C 2656 2579 2944 2585 3034 2585 
L 3034 2752 
C 2912 2745 2752 2739 2630 2739 
C 2496 2739 2285 2739 2157 2752 
L 2157 2585 
C 2400 2566 2406 2384 2406 2332 
C 2406 2268 2394 2235 2362 2158 
L 1664 409 
L 902 2300 
C 870 2378 870 2423 870 2430 
C 870 2572 1018 2585 1171 2585 
L 1171 2752 
C 1018 2739 742 2739 582 2739 
C 410 2739 205 2739 64 2752 
L 64 2585 
C 410 2585 448 2553 531 2345 
L 1485 -31 
C 1197 -795 1030 -1242 627 -1242 
C 557 -1242 397 -1223 282 -1106 
C 429 -1093 493 -1002 493 -892 
C 493 -782 416 -685 288 -685 
C 147 -685 77 -782 77 -899 
C 77 -1158 339 -1344 627 -1344 
C 998 -1344 1229 -983 1357 -659 
L 2496 2183 
z
" transform="scale(0.015625)"/>
       <path id="CMR17-65" d="M 2438 1503 
C 2464 1529 2464 1542 2464 1606 
C 2464 2251 2118 2816 1389 2816 
C 710 2816 173 2175 173 1394 
C 173 554 781 -64 1459 -64 
C 2176 -64 2458 619 2458 755 
C 2458 800 2419 800 2406 800 
C 2362 800 2355 787 2330 709 
C 2189 270 1837 51 1504 51 
C 1229 51 954 206 781 490 
C 582 819 582 1200 582 1503 
L 2438 1503 
z
M 589 1600 
C 634 2511 1126 2713 1382 2713 
C 1818 2713 2112 2308 2118 1600 
L 589 1600 
z
" transform="scale(0.015625)"/>
       <path id="CMR17-6e" d="M 2656 1954 
C 2656 2282 2592 2816 1837 2816 
C 1331 2816 1069 2424 973 2166 
L 966 2166 
L 966 2816 
L 211 2745 
L 211 2578 
C 589 2578 646 2540 646 2231 
L 646 443 
C 646 198 621 166 211 166 
L 211 0 
C 365 12 646 12 813 12 
C 979 12 1267 12 1421 0 
L 1421 166 
C 1011 166 986 192 986 443 
L 986 1678 
C 986 2269 1344 2713 1792 2713 
C 2266 2713 2317 2289 2317 1980 
L 2317 443 
C 2317 198 2291 166 1882 166 
L 1882 0 
C 2035 12 2317 12 2483 12 
C 2650 12 2938 12 3091 0 
L 3091 166 
C 2682 166 2656 192 2656 443 
L 2656 1954 
z
" transform="scale(0.015625)"/>
       <path id="CMR17-72" d="M 960 1517 
C 960 2134 1222 2713 1702 2713 
C 1747 2713 1792 2707 1837 2687 
C 1837 2687 1696 2642 1696 2475 
C 1696 2321 1818 2257 1914 2257 
C 1990 2257 2131 2302 2131 2482 
C 2131 2687 1926 2816 1709 2816 
C 1222 2816 1011 2340 947 2115 
L 941 2115 
L 941 2816 
L 198 2745 
L 198 2578 
C 576 2578 634 2540 634 2231 
L 634 443 
C 634 198 608 166 198 166 
L 198 0 
C 352 12 646 12 813 12 
C 998 12 1325 12 1498 0 
L 1498 166 
C 1037 166 960 166 960 455 
L 960 1517 
z
" transform="scale(0.015625)"/>
       <path id="CMR17-67" d="M 710 1165 
C 832 1068 1043 960 1299 960 
C 1805 960 2240 1359 2240 1895 
C 2240 2063 2189 2321 1997 2521 
C 2176 2713 2438 2777 2586 2777 
C 2611 2777 2650 2777 2682 2758 
C 2656 2751 2598 2726 2598 2623 
C 2598 2540 2656 2483 2739 2483 
C 2835 2483 2886 2547 2886 2630 
C 2886 2751 2790 2880 2586 2880 
C 2330 2880 2106 2758 1926 2591 
C 1734 2764 1504 2828 1299 2828 
C 794 2828 358 2431 358 1895 
C 358 1527 570 1294 634 1230 
C 442 1004 442 742 442 710 
C 442 544 506 300 723 166 
C 390 82 128 -184 128 -517 
C 128 -996 736 -1344 1466 -1344 
C 2170 -1344 2803 -1009 2803 -510 
C 2803 384 1856 384 1363 384 
C 1216 384 954 384 922 390 
C 723 422 589 601 589 825 
C 589 883 589 1024 710 1165 
z
M 1299 1068 
C 736 1068 736 1766 736 1895 
C 736 2024 736 2719 1299 2719 
C 1862 2719 1862 2024 1862 1895 
C 1862 1766 1862 1068 1299 1068 
z
M 1466 -1236 
C 826 -1236 384 -883 384 -517 
C 384 -311 493 -118 634 -11 
C 794 102 858 102 1293 102 
C 1818 102 2547 102 2547 -517 
C 2547 -883 2106 -1236 1466 -1236 
z
" transform="scale(0.015625)"/>
       <path id="CMR17-6b" d="M 1670 1679 
C 1664 1692 1632 1730 1632 1749 
C 1632 1762 2086 2175 2144 2226 
C 2509 2532 2739 2563 2906 2570 
L 2906 2735 
C 2867 2735 2854 2735 2848 2729 
L 2534 2722 
C 2355 2722 2080 2722 1907 2735 
L 1907 2570 
C 1997 2563 2061 2513 2061 2423 
C 2061 2296 1933 2175 1926 2175 
L 960 1298 
L 960 4416 
L 198 4345 
L 198 4179 
C 576 4179 634 4141 634 3835 
L 634 439 
C 634 198 608 166 198 166 
L 198 0 
C 352 12 634 12 794 12 
C 954 12 1235 12 1389 0 
L 1389 166 
C 979 166 954 191 954 439 
L 954 1139 
L 1395 1540 
L 2042 586 
C 2118 471 2182 382 2182 299 
C 2182 185 2067 166 1990 166 
L 1990 0 
C 2144 12 2419 12 2579 12 
C 2694 12 2931 6 3040 0 
L 3040 166 
C 2739 166 2669 223 2477 503 
L 1670 1679 
z
" transform="scale(0.015625)"/>
       <path id="CMR17-57" d="M 5523 3775 
C 5581 3948 5677 4173 6048 4185 
L 6048 4352 
C 5939 4345 5715 4339 5600 4339 
C 5440 4339 5158 4339 5005 4352 
L 5005 4185 
C 5293 4179 5414 4019 5414 3865 
C 5414 3820 5408 3794 5382 3724 
L 4390 557 
L 3347 3890 
C 3328 3955 3322 3980 3322 4006 
C 3322 4185 3603 4185 3725 4185 
L 3725 4352 
C 3539 4339 3219 4339 3021 4339 
C 2861 4339 2573 4339 2426 4352 
L 2426 4185 
C 2720 4185 2797 4166 2861 4051 
C 2886 3993 2989 3660 2989 3640 
C 2989 3615 2976 3576 2970 3557 
L 2029 564 
L 986 3890 
C 954 3980 954 3993 954 4006 
C 954 4185 1235 4185 1363 4185 
L 1363 4352 
C 1178 4339 858 4339 659 4339 
C 493 4339 211 4339 58 4352 
L 58 4185 
C 442 4185 467 4147 531 3942 
L 1779 -20 
C 1811 -116 1811 -128 1869 -128 
C 1920 -128 1939 -116 1965 -26 
L 3053 3448 
L 4141 -26 
C 4166 -116 4186 -128 4237 -128 
C 4294 -128 4294 -116 4326 -20 
L 5523 3775 
z
" transform="scale(0.015625)"/>
       <path id="CMR17-68" d="M 2656 1954 
C 2656 2282 2592 2816 1837 2816 
C 1312 2816 1056 2392 979 2179 
L 973 2179 
L 973 4416 
L 211 4345 
L 211 4179 
C 589 4179 646 4141 646 3843 
L 646 443 
C 646 198 621 166 211 166 
L 211 0 
C 365 12 646 12 813 12 
C 979 12 1267 12 1421 0 
L 1421 166 
C 1011 166 986 192 986 443 
L 986 1678 
C 986 2269 1344 2713 1792 2713 
C 2266 2713 2317 2289 2317 1980 
L 2317 443 
C 2317 198 2291 166 1882 166 
L 1882 0 
C 2035 12 2317 12 2483 12 
C 2650 12 2938 12 3091 0 
L 3091 166 
C 2682 166 2656 192 2656 443 
L 2656 1954 
z
" transform="scale(0.015625)"/>
      </defs>
      <use xlink:href="#CMR17-4f" transform="scale(0.996264)"/>
      <use xlink:href="#CMR17-70" transform="translate(71.714788 0) scale(0.996264)"/>
      <use xlink:href="#CMR17-74" transform="translate(122.610158 0) scale(0.996264)"/>
      <use xlink:href="#CMR17-69" transform="translate(157.890926 0) scale(0.996264)"/>
      <use xlink:href="#CMR17-6d" transform="translate(182.761984 0) scale(0.996264)"/>
      <use xlink:href="#CMR17-61" transform="translate(259.681574 0) scale(0.996264)"/>
      <use xlink:href="#CMR17-6c" transform="translate(305.372051 0) scale(0.996264)"/>
      <use xlink:href="#CMR17-64" transform="translate(360.319076 0) scale(0.996264)"/>
      <use xlink:href="#CMR17-61" transform="translate(411.214446 0) scale(0.996264)"/>
      <use xlink:href="#CMR17-69" transform="translate(456.904923 0) scale(0.996264)"/>
      <use xlink:href="#CMR17-6c" transform="translate(481.775982 0) scale(0.996264)"/>
      <use xlink:href="#CMR17-79" transform="translate(506.64704 0) scale(0.996264)"/>
      <use xlink:href="#CMR17-65" transform="translate(585.015922 0) scale(0.996264)"/>
      <use xlink:href="#CMR17-6e" transform="translate(625.501583 0) scale(0.996264)"/>
      <use xlink:href="#CMR17-65" transform="translate(676.396953 0) scale(0.996264)"/>
      <use xlink:href="#CMR17-72" transform="translate(716.882613 0) scale(0.996264)"/>
      <use xlink:href="#CMR17-67" transform="translate(752.163381 0) scale(0.996264)"/>
      <use xlink:href="#CMR17-79" transform="translate(797.853858 0) scale(0.996264)"/>
      <use xlink:href="#CMR17-6e" transform="translate(876.22274 0) scale(0.996264)"/>
      <use xlink:href="#CMR17-65" transform="translate(927.11811 0) scale(0.996264)"/>
      <use xlink:href="#CMR17-65" transform="translate(967.60377 0) scale(0.996264)"/>
      <use xlink:href="#CMR17-64" transform="translate(1008.089431 0) scale(0.996264)"/>
      <use xlink:href="#CMR17-28" transform="translate(1089.060767 0) scale(0.996264)"/>
      <use xlink:href="#CMR17-6b" transform="translate(1124.341535 0) scale(0.996264)"/>
      <use xlink:href="#CMR17-57" transform="translate(1172.634451 0) scale(0.996264)"/>
      <use xlink:href="#CMR17-68" transform="translate(1267.731101 0) scale(0.996264)"/>
      <use xlink:href="#CMR17-29" transform="translate(1318.62647 0) scale(0.996264)"/>
     </g>
    </g>
   </g>
   <g id="line2d_23">
    <path d="M 73.832727 293.056624 
L 78.984038 291.867975 
L 84.055507 290.708182 
L 89.05016 289.576727 
L 93.970839 288.437959 
L 98.820225 287.325172 
L 103.600846 286.237904 
L 108.315088 285.157127 
L 112.965208 284.081411 
L 117.553345 283.028604 
L 122.081521 281.978747 
L 126.55166 280.950374 
L 130.965586 279.943121 
L 135.325032 278.936119 
L 139.631651 277.94891 
L 143.887013 276.960035 
L 148.092618 275.989692 
L 152.249894 275.037572 
L 156.360207 274.10338 
L 160.42486 273.053086 
L 164.445102 271.905048 
L 168.422126 270.76941 
L 172.357074 269.645947 
L 176.251043 268.534444 
L 180.105082 267.43469 
L 183.920201 266.34648 
L 187.697366 265.269614 
L 191.437508 264.203899 
L 195.141522 263.149146 
L 198.810267 262.10517 
L 202.444571 261.071794 
L 206.04523 260.048842 
L 209.613014 259.036144 
L 213.148662 258.033535 
L 216.652889 257.040853 
L 220.126383 256.057941 
L 223.569809 255.084645 
L 226.983809 254.120815 
L 230.369006 253.166305 
L 233.725997 252.220973 
L 237.055365 251.284679 
L 240.357669 250.357287 
L 243.633453 249.438664 
L 246.883245 248.528681 
L 250.107552 247.62721 
L 253.306869 246.734127 
L 256.481674 245.849312 
L 259.632432 244.972645 
L 262.759593 244.104012 
L 265.863594 243.243298 
L 268.944859 242.390393 
L 272.0038 241.545189 
L 275.040816 240.707579 
L 278.056297 239.877459 
L 281.05062 239.054728 
L 284.024152 238.239286 
L 286.977251 237.431035 
L 289.910265 236.629881 
L 292.82353 235.835728 
L 295.717377 235.048487 
L 298.592125 234.268066 
L 301.448087 233.494378 
L 304.285567 232.727336 
L 307.10486 231.966856 
L 309.906256 231.212855 
L 312.690036 230.465251 
L 315.456473 229.723964 
L 318.205837 228.988916 
L 320.938387 228.26003 
L 323.654379 227.537231 
L 326.354061 226.820444 
L 329.037675 226.109597 
L 331.70546 225.404619 
L 334.357645 224.705439 
L 336.994458 224.011989 
L 339.616118 223.324201 
L 342.222842 222.642008 
L 344.814841 221.965346 
L 347.392321 221.29415 
L 349.955484 220.628358 
L 352.504526 219.967907 
L 355.039641 219.312737 
L 357.561018 218.662788 
L 360.06884 218.018 
L 362.563289 217.378318 
L 365.044541 216.743682 
L 367.51277 216.114039 
L 369.968146 215.489332 
L 372.410833 214.869508 
L 374.840996 214.254513 
L 377.258793 213.644296 
L 379.66438 213.038804 
L 382.057911 212.437987 
L 384.439535 211.841795 
L 386.8094 211.250179 
L 389.167648 210.663091 
L 391.514423 210.080483 
L 393.849862 209.502309 
L 396.1741 208.928522 
L 398.487273 208.359077 
" clip-path="url(#p8372bc41a8)" style="fill: none; stroke: #1f77b4; stroke-width: 1.5; stroke-linecap: square"/>
   </g>
   <g id="line2d_24">
    <path d="M 73.832727 277.46578 
L 78.984038 276.270289 
L 84.055507 275.093538 
L 89.05016 273.933782 
L 93.970839 272.789323 
L 98.820225 271.65851 
L 103.600846 270.558877 
L 108.315088 269.470344 
L 112.965208 268.411144 
L 117.553345 267.340552 
L 122.081521 266.317323 
L 126.55166 265.279806 
L 130.965586 264.267655 
L 135.325032 263.280388 
L 139.631651 262.295985 
L 143.887013 261.334975 
L 148.092618 260.374803 
L 152.249894 259.436616 
L 156.360207 258.520017 
L 160.42486 257.601661 
L 164.445102 256.703589 
L 168.422126 255.801945 
L 172.357074 254.91935 
L 176.251043 254.055474 
L 180.105082 253.209999 
L 183.920201 252.358063 
L 187.697366 251.523401 
L 191.437508 250.705726 
L 195.141522 249.879446 
L 198.810267 249.094662 
L 202.444571 248.300242 
L 206.04523 247.521246 
L 209.613014 246.73113 
L 213.148662 245.98201 
L 216.652889 245.220823 
L 220.126383 244.473644 
L 223.569809 243.740258 
L 226.983809 242.992978 
L 230.369006 242.286319 
L 233.725997 241.564905 
L 237.055365 240.856021 
L 240.357669 240.159481 
L 243.633453 239.475104 
L 246.883245 238.802713 
L 250.107552 238.113094 
L 253.306869 237.463941 
L 256.481674 236.796796 
L 259.632432 236.140544 
L 262.759593 235.495031 
L 265.863594 234.860107 
L 268.944859 234.235626 
L 272.0038 233.590928 
L 275.040816 232.986699 
L 278.056297 232.361573 
L 281.05062 231.777056 
L 284.024152 231.170974 
L 286.977251 230.574127 
L 289.910265 229.986391 
L 292.82353 229.407648 
L 295.717377 228.837782 
L 298.592125 228.244382 
L 301.448087 227.691732 
L 304.285567 227.114955 
L 307.10486 226.579087 
L 309.906256 226.018507 
L 312.690036 225.499008 
L 315.456473 224.954219 
L 318.205837 224.417089 
L 320.938387 223.887525 
L 323.654379 223.365434 
L 326.354061 222.850725 
L 329.037675 222.343308 
L 331.70546 221.843099 
L 334.357645 221.315351 
L 336.994458 220.829121 
L 339.616118 220.31485 
L 342.222842 219.842275 
L 344.814841 219.341161 
L 347.392321 218.881928 
L 349.955484 218.393664 
L 352.504526 217.911635 
L 355.039641 217.471769 
L 357.561018 217.002154 
L 360.06884 216.538562 
L 362.563289 216.080926 
L 365.044541 215.629178 
L 367.51277 215.183254 
L 369.968146 214.74309 
L 372.410833 214.308624 
L 374.840996 213.842509 
L 377.258793 213.419092 
L 379.66438 213.001191 
L 382.057911 212.437987 
L 384.439535 211.841795 
L 386.8094 211.250179 
L 389.167648 210.663091 
L 391.514423 210.080483 
L 393.849862 209.502309 
L 396.1741 208.928522 
L 398.487273 208.359077 
" clip-path="url(#p8372bc41a8)" style="fill: none; stroke: #ff7f0e; stroke-width: 1.5; stroke-linecap: square"/>
   </g>
   <g id="line2d_25">
    <path d="M 73.832727 262.420928 
L 78.984038 261.203693 
L 84.055507 260.028409 
L 89.05016 258.854958 
L 93.970839 257.720264 
L 98.820225 256.603242 
L 103.600846 255.481605 
L 108.315088 254.415148 
L 112.965208 253.340678 
L 117.553345 252.298487 
L 122.081521 251.266178 
L 126.55166 250.264201 
L 130.965586 249.269639 
L 135.325032 248.281025 
L 139.631651 247.319777 
L 143.887013 246.362219 
L 148.092618 245.430383 
L 152.249894 244.523756 
L 156.360207 243.617914 
L 160.42486 242.735778 
L 164.445102 241.852433 
L 168.422126 240.991376 
L 172.357074 240.127218 
L 176.251043 239.309233 
L 180.105082 238.461367 
L 183.920201 237.658909 
L 187.697366 236.850308 
L 191.437508 236.060687 
L 195.141522 235.289708 
L 198.810267 234.510357 
L 202.444571 233.74853 
L 206.04523 233.003922 
L 209.613014 232.276239 
L 213.148662 231.537581 
L 216.652889 230.814829 
L 220.126383 230.107715 
L 223.569809 229.415983 
L 226.983809 228.710875 
L 230.369006 228.020217 
L 233.725997 227.343772 
L 237.055365 226.681311 
L 240.357669 226.032614 
L 243.633453 225.367902 
L 246.883245 224.745879 
L 250.107552 224.107011 
L 253.306869 223.480667 
L 256.481674 222.866655 
L 259.632432 222.26479 
L 262.759593 221.644104 
L 265.863594 221.034814 
L 268.944859 220.467915 
L 272.0038 219.881098 
L 275.040816 219.305177 
L 278.056297 218.739995 
L 281.05062 218.153464 
L 284.024152 217.60911 
L 286.977251 217.075047 
L 289.910265 216.518636 
L 292.82353 215.971865 
L 295.717377 215.434599 
L 298.592125 214.906707 
L 301.448087 214.38806 
L 304.285567 213.878532 
L 307.10486 213.378003 
L 309.906256 212.886354 
L 312.690036 212.369555 
L 315.456473 211.861065 
L 318.205837 211.395006 
L 320.938387 210.902961 
L 323.654379 210.418897 
L 326.354061 209.94271 
L 329.037675 209.4743 
L 331.70546 209.013567 
L 334.357645 208.560416 
L 336.994458 208.114751 
L 339.616118 207.640929 
L 342.222842 207.209797 
L 344.814841 206.785883 
L 347.392321 206.333066 
L 349.955484 205.886981 
L 352.504526 205.483872 
L 355.039641 205.051151 
L 357.561018 204.624918 
L 360.06884 204.205095 
L 362.563289 203.791606 
L 365.044541 203.384377 
L 367.51277 202.983333 
L 369.968146 202.588405 
L 372.410833 202.199521 
L 374.840996 201.778948 
L 377.258793 201.401798 
L 379.66438 201.030492 
L 382.057911 200.626868 
L 384.439535 200.266903 
L 386.8094 199.874216 
L 389.167648 199.525345 
L 391.514423 199.143348 
L 393.849862 198.766544 
L 396.1741 198.394874 
L 398.487273 198.067328 
" clip-path="url(#p8372bc41a8)" style="fill: none; stroke: #2ca02c; stroke-width: 1.5; stroke-linecap: square"/>
   </g>
   <g id="line2d_26">
    <path d="M 73.832727 252.14366 
L 78.984038 250.936369 
L 84.055507 249.754362 
L 89.05016 248.595539 
L 93.970839 247.457873 
L 98.820225 246.360695 
L 103.600846 245.259841 
L 108.315088 244.196356 
L 112.965208 243.14717 
L 117.553345 242.110558 
L 122.081521 241.107625 
L 126.55166 240.114548 
L 130.965586 239.129747 
L 135.325032 238.175311 
L 139.631651 237.226681 
L 143.887013 236.306571 
L 148.092618 235.389938 
L 152.249894 234.500098 
L 156.360207 233.611535 
L 160.42486 232.74815 
L 164.445102 231.883958 
L 168.422126 231.04343 
L 172.357074 230.226091 
L 176.251043 229.405266 
L 180.105082 228.606244 
L 183.920201 227.828601 
L 187.697366 227.044988 
L 191.437508 226.281478 
L 195.141522 225.537695 
L 198.810267 224.78563 
L 202.444571 224.079986 
L 206.04523 223.336806 
L 209.613014 222.639382 
L 213.148662 221.930979 
L 216.652889 221.239391 
L 220.126383 220.564323 
L 223.569809 219.905489 
L 226.983809 219.233202 
L 230.369006 218.576177 
L 233.725997 217.934155 
L 237.055365 217.306884 
L 240.357669 216.694122 
L 243.633453 216.065186 
L 246.883245 215.449887 
L 250.107552 214.848 
L 253.306869 214.259311 
L 256.481674 213.683611 
L 259.632432 213.089269 
L 262.759593 212.507129 
L 265.863594 211.968799 
L 268.944859 211.410678 
L 272.0038 210.832023 
L 275.040816 210.296821 
L 278.056297 209.772914 
L 281.05062 209.227407 
L 284.024152 208.725405 
L 286.977251 208.201117 
L 289.910265 207.68712 
L 292.82353 207.183262 
L 295.717377 206.655793 
L 298.592125 206.171602 
L 301.448087 205.697125 
L 304.285567 205.198105 
L 307.10486 204.742475 
L 309.906256 204.261702 
L 312.690036 203.789782 
L 315.456473 203.326592 
L 318.205837 202.872013 
L 320.938387 202.425928 
L 323.654379 201.988225 
L 326.354061 201.523366 
L 329.037675 201.101928 
L 331.70546 200.65281 
L 334.357645 200.247216 
L 336.994458 199.813423 
L 339.616118 199.387069 
L 342.222842 198.968058 
L 344.814841 198.556294 
L 347.392321 198.151685 
L 349.955484 197.754141 
L 352.504526 197.363574 
L 355.039641 196.979897 
L 357.561018 196.565797 
L 360.06884 196.195497 
L 362.563289 195.79433 
L 365.044541 195.437084 
L 367.51277 195.048529 
L 369.968146 194.704028 
L 372.410833 194.32778 
L 374.840996 193.957511 
L 377.258793 193.593147 
L 379.66438 193.234619 
L 382.057911 192.881858 
L 384.439535 192.534796 
L 386.8094 192.193368 
L 389.167648 191.85751 
L 391.514423 191.527158 
L 393.849862 191.162976 
L 396.1741 190.843314 
L 398.487273 190.528978 
" clip-path="url(#p8372bc41a8)" style="fill: none; stroke: #d62728; stroke-width: 1.5; stroke-linecap: square"/>
   </g>
   <g id="patch_3">
    <path d="M 57.6 307.584 
L 57.6 41.472 
" style="fill: none; stroke: #000000; stroke-width: 0.8; stroke-linejoin: miter; stroke-linecap: square"/>
   </g>
   <g id="patch_4">
    <path d="M 414.72 307.584 
L 414.72 41.472 
" style="fill: none; stroke: #000000; stroke-width: 0.8; stroke-linejoin: miter; stroke-linecap: square"/>
   </g>
   <g id="patch_5">
    <path d="M 57.6 307.584 
L 414.72 307.584 
" style="fill: none; stroke: #000000; stroke-width: 0.8; stroke-linejoin: miter; stroke-linecap: square"/>
   </g>
   <g id="patch_6">
    <path d="M 57.6 41.472 
L 414.72 41.472 
" style="fill: none; stroke: #000000; stroke-width: 0.8; stroke-linejoin: miter; stroke-linecap: square"/>
   </g>
   <g id="legend_1">
    <g id="patch_7">
     <path d="M 306.300037 137.094979 
L 404.22 137.094979 
Q 407.22 137.094979 407.22 134.094979 
L 407.22 51.972 
Q 407.22 48.972 404.22 48.972 
L 306.300037 48.972 
Q 303.300037 48.972 303.300037 51.972 
L 303.300037 134.094979 
Q 303.300037 137.094979 306.300037 137.094979 
z
" style="fill: #ffffff; opacity: 0.8; stroke: #cccccc; stroke-linejoin: miter"/>
    </g>
    <g id="line2d_27">
     <path d="M 309.300037 60.222 
L 324.300037 60.222 
L 339.300037 60.222 
" style="fill: none; stroke: #1f77b4; stroke-width: 1.5; stroke-linecap: square"/>
    </g>
    <g id="text_14">
     <!-- $z_0$=0.01 -->
     <g transform="translate(351.300037 65.472) scale(0.15 -0.15)">
      <defs>
       <path id="CMMI12-7a" d="M 813 486 
C 1088 809 1312 1015 1632 1313 
C 2016 1657 2182 1822 2272 1922 
C 2720 2371 2944 2713 2944 2764 
C 2944 2816 2893 2816 2880 2816 
C 2835 2816 2822 2790 2790 2745 
C 2630 2470 2477 2368 2310 2368 
C 2176 2368 2106 2403 1984 2547 
C 1850 2707 1741 2816 1555 2816 
C 1088 2816 806 2265 806 2127 
C 806 2107 813 2067 870 2067 
C 922 2067 928 2094 947 2140 
C 1056 2387 1363 2415 1485 2415 
C 1619 2415 1747 2387 1882 2342 
C 2125 2239 2227 2239 2291 2239 
C 2336 2239 2362 2239 2394 2246 
C 2182 1988 1837 1670 1549 1399 
L 902 783 
C 512 380 275 32 275 -13 
C 275 -52 307 -64 346 -64 
C 384 -64 390 -58 435 19 
C 538 179 742 384 979 384 
C 1114 384 1178 356 1306 211 
C 1427 70 1536 -64 1741 -64 
C 2368 -64 2726 723 2726 876 
C 2726 902 2720 942 2656 942 
C 2605 942 2598 915 2579 849 
C 2438 460 2061 336 1811 336 
C 1677 336 1549 364 1414 409 
C 1158 512 1088 512 1005 512 
C 941 512 870 512 813 486 
z
" transform="scale(0.015625)"/>
       <path id="CMR17-3d" d="M 4115 2048 
C 4211 2048 4307 2048 4307 2156 
C 4307 2272 4198 2272 4090 2272 
L 512 2272 
C 403 2272 294 2272 294 2156 
C 294 2048 390 2048 486 2048 
L 4115 2048 
z
M 4090 927 
C 4198 927 4307 927 4307 1043 
C 4307 1152 4211 1152 4115 1152 
L 486 1152 
C 390 1152 294 1152 294 1043 
C 294 927 403 927 512 927 
L 4090 927 
z
" transform="scale(0.015625)"/>
       <path id="CMR17-2e" d="M 1062 262 
C 1062 422 934 524 800 524 
C 672 524 538 422 538 262 
C 538 102 666 0 800 0 
C 928 0 1062 102 1062 262 
z
" transform="scale(0.015625)"/>
      </defs>
      <use xlink:href="#CMMI12-7a" transform="scale(0.996264)"/>
      <use xlink:href="#CMR17-30" transform="translate(45.315753 -14.943915) scale(0.697382)"/>
      <use xlink:href="#CMR17-3d" transform="translate(77.797067 0) scale(0.996264)"/>
      <use xlink:href="#CMR17-30" transform="translate(149.511856 0) scale(0.996264)"/>
      <use xlink:href="#CMR17-2e" transform="translate(195.202333 0) scale(0.996264)"/>
      <use xlink:href="#CMR17-30" transform="translate(220.073391 0) scale(0.996264)"/>
      <use xlink:href="#CMR17-31" transform="translate(265.763868 0) scale(0.996264)"/>
     </g>
    </g>
    <g id="line2d_28">
     <path d="M 309.300037 81.127745 
L 324.300037 81.127745 
L 339.300037 81.127745 
" style="fill: none; stroke: #ff7f0e; stroke-width: 1.5; stroke-linecap: square"/>
    </g>
    <g id="text_15">
     <!-- $z_0$=0.1 -->
     <g transform="translate(351.300037 86.377745) scale(0.15 -0.15)">
      <use xlink:href="#CMMI12-7a" transform="scale(0.996264)"/>
      <use xlink:href="#CMR17-30" transform="translate(45.315753 -14.943915) scale(0.697382)"/>
      <use xlink:href="#CMR17-3d" transform="translate(77.797067 0) scale(0.996264)"/>
      <use xlink:href="#CMR17-30" transform="translate(149.511856 0) scale(0.996264)"/>
      <use xlink:href="#CMR17-2e" transform="translate(195.202333 0) scale(0.996264)"/>
      <use xlink:href="#CMR17-31" transform="translate(220.073391 0) scale(0.996264)"/>
     </g>
    </g>
    <g id="line2d_29">
     <path d="M 309.300037 102.033489 
L 324.300037 102.033489 
L 339.300037 102.033489 
" style="fill: none; stroke: #2ca02c; stroke-width: 1.5; stroke-linecap: square"/>
    </g>
    <g id="text_16">
     <!-- $z_0$=0.3 -->
     <g transform="translate(351.300037 107.283489) scale(0.15 -0.15)">
      <use xlink:href="#CMMI12-7a" transform="scale(0.996264)"/>
      <use xlink:href="#CMR17-30" transform="translate(45.315753 -14.943915) scale(0.697382)"/>
      <use xlink:href="#CMR17-3d" transform="translate(77.797067 0) scale(0.996264)"/>
      <use xlink:href="#CMR17-30" transform="translate(149.511856 0) scale(0.996264)"/>
      <use xlink:href="#CMR17-2e" transform="translate(195.202333 0) scale(0.996264)"/>
      <use xlink:href="#CMR17-33" transform="translate(220.073391 0) scale(0.996264)"/>
     </g>
    </g>
    <g id="line2d_30">
     <path d="M 309.300037 122.939234 
L 324.300037 122.939234 
L 339.300037 122.939234 
" style="fill: none; stroke: #d62728; stroke-width: 1.5; stroke-linecap: square"/>
    </g>
    <g id="text_17">
     <!-- $z_0$=0.5 -->
     <g transform="translate(351.300037 128.189234) scale(0.15 -0.15)">
      <use xlink:href="#CMMI12-7a" transform="scale(0.996264)"/>
      <use xlink:href="#CMR17-30" transform="translate(45.315753 -14.943915) scale(0.697382)"/>
      <use xlink:href="#CMR17-3d" transform="translate(77.797067 0) scale(0.996264)"/>
      <use xlink:href="#CMR17-30" transform="translate(149.511856 0) scale(0.996264)"/>
      <use xlink:href="#CMR17-2e" transform="translate(195.202333 0) scale(0.996264)"/>
      <use xlink:href="#CMR17-35" transform="translate(220.073391 0) scale(0.996264)"/>
     </g>
    </g>
   </g>
  </g>
 </g>
 <defs>
  <clipPath id="p8372bc41a8">
   <rect x="57.6" y="41.472" width="357.12" height="266.112"/>
  </clipPath>
 </defs>
</svg>
