<?xml version="1.0" encoding="utf-8" standalone="no"?>
<!DOCTYPE svg PUBLIC "-//W3C//DTD SVG 1.1//EN"
  "http://www.w3.org/Graphics/SVG/1.1/DTD/svg11.dtd">
<svg xmlns:xlink="http://www.w3.org/1999/xlink" width="460.8pt" height="345.6pt" viewBox="0 0 460.8 345.6" xmlns="http://www.w3.org/2000/svg" version="1.1">
 <metadata>
  <rdf:RDF xmlns:dc="http://purl.org/dc/elements/1.1/" xmlns:cc="http://creativecommons.org/ns#" xmlns:rdf="http://www.w3.org/1999/02/22-rdf-syntax-ns#">
   <cc:Work>
    <dc:type rdf:resource="http://purl.org/dc/dcmitype/StillImage"/>
    <dc:date>2024-07-10T15:13:23.903018</dc:date>
    <dc:format>image/svg+xml</dc:format>
    <dc:creator>
     <cc:Agent>
      <dc:title>Matplotlib v3.8.1, https://matplotlib.org/</dc:title>
     </cc:Agent>
    </dc:creator>
   </cc:Work>
  </rdf:RDF>
 </metadata>
 <defs>
  <style type="text/css">*{stroke-linejoin: round; stroke-linecap: butt}</style>
 </defs>
 <g id="figure_1">
  <g id="patch_1">
   <path d="M 0 345.6 
L 460.8 345.6 
L 460.8 0 
L 0 0 
z
" style="fill: #ffffff"/>
  </g>
  <g id="axes_1">
   <g id="patch_2">
    <path d="M 57.6 307.584 
L 414.72 307.584 
L 414.72 41.472 
L 57.6 41.472 
z
" style="fill: #ffffff"/>
   </g>
   <g id="matplotlib.axis_1">
    <g id="xtick_1">
     <g id="line2d_1">
      <path d="M 57.6 307.584 
L 57.6 41.472 
" clip-path="url(#p5393e1ad27)" style="fill: none; stroke: #b0b0b0; stroke-width: 0.8; stroke-linecap: square"/>
     </g>
     <g id="line2d_2">
      <defs>
       <path id="mbabfa78be4" d="M 0 0 
L 0 3.5 
" style="stroke: #000000; stroke-width: 0.8"/>
      </defs>
      <g>
       <use xlink:href="#mbabfa78be4" x="57.6" y="307.584" style="stroke: #000000; stroke-width: 0.8"/>
      </g>
     </g>
     <g id="text_1">
      <!-- $\mathdefault{1}$ -->
      <g transform="translate(53.941881 324.961725) scale(0.15 -0.15)">
       <defs>
        <path id="CMR17-31" d="M 1702 4083 
C 1702 4217 1696 4224 1606 4224 
C 1357 3927 979 3833 621 3820 
C 602 3820 570 3820 563 3808 
C 557 3795 557 3782 557 3648 
C 755 3648 1088 3686 1344 3839 
L 1344 467 
C 1344 243 1331 166 781 166 
L 589 166 
L 589 0 
C 896 6 1216 12 1523 12 
C 1830 12 2150 6 2458 0 
L 2458 166 
L 2266 166 
C 1715 166 1702 236 1702 467 
L 1702 4083 
z
" transform="scale(0.015625)"/>
       </defs>
       <use xlink:href="#CMR17-31" transform="scale(0.996264)"/>
      </g>
     </g>
    </g>
    <g id="xtick_2">
     <g id="line2d_3">
      <path d="M 129.024 307.584 
L 129.024 41.472 
" clip-path="url(#p5393e1ad27)" style="fill: none; stroke: #b0b0b0; stroke-width: 0.8; stroke-linecap: square"/>
     </g>
     <g id="line2d_4">
      <g>
       <use xlink:href="#mbabfa78be4" x="129.024" y="307.584" style="stroke: #000000; stroke-width: 0.8"/>
      </g>
     </g>
     <g id="text_2">
      <!-- $\mathdefault{2}$ -->
      <g transform="translate(125.365881 324.961725) scale(0.15 -0.15)">
       <defs>
        <path id="CMR17-32" d="M 2669 990 
L 2554 990 
C 2490 537 2438 460 2413 422 
C 2381 371 1920 371 1830 371 
L 602 371 
C 832 620 1280 1073 1824 1596 
C 2214 1966 2669 2400 2669 3033 
C 2669 3788 2067 4224 1395 4224 
C 691 4224 262 3603 262 3027 
C 262 2777 448 2745 525 2745 
C 589 2745 781 2783 781 3007 
C 781 3206 614 3264 525 3264 
C 486 3264 448 3257 422 3244 
C 544 3788 915 4057 1306 4057 
C 1862 4057 2227 3616 2227 3033 
C 2227 2477 1901 1998 1536 1583 
L 262 147 
L 262 0 
L 2515 0 
L 2669 990 
z
" transform="scale(0.015625)"/>
       </defs>
       <use xlink:href="#CMR17-32" transform="scale(0.996264)"/>
      </g>
     </g>
    </g>
    <g id="xtick_3">
     <g id="line2d_5">
      <path d="M 200.448 307.584 
L 200.448 41.472 
" clip-path="url(#p5393e1ad27)" style="fill: none; stroke: #b0b0b0; stroke-width: 0.8; stroke-linecap: square"/>
     </g>
     <g id="line2d_6">
      <g>
       <use xlink:href="#mbabfa78be4" x="200.448" y="307.584" style="stroke: #000000; stroke-width: 0.8"/>
      </g>
     </g>
     <g id="text_3">
      <!-- $\mathdefault{3}$ -->
      <g transform="translate(196.789881 324.961725) scale(0.15 -0.15)">
       <defs>
        <path id="CMR17-33" d="M 1414 2176 
C 1984 2176 2234 1673 2234 1094 
C 2234 322 1824 25 1453 25 
C 1114 25 563 193 390 691 
C 422 678 454 678 486 678 
C 640 678 755 780 755 947 
C 755 1132 614 1216 486 1216 
C 378 1216 211 1164 211 927 
C 211 335 787 -128 1466 -128 
C 2176 -128 2720 432 2720 1087 
C 2720 1718 2208 2176 1600 2246 
C 2086 2347 2554 2776 2554 3353 
C 2554 3856 2048 4224 1472 4224 
C 890 4224 378 3862 378 3347 
C 378 3123 544 3084 627 3084 
C 762 3084 877 3167 877 3334 
C 877 3500 762 3584 627 3584 
C 602 3584 570 3584 544 3571 
C 730 3999 1235 4076 1459 4076 
C 1683 4076 2106 3966 2106 3347 
C 2106 3167 2080 2851 1862 2574 
C 1670 2329 1453 2316 1242 2297 
C 1210 2297 1062 2284 1037 2284 
C 992 2278 966 2272 966 2227 
C 966 2182 973 2176 1101 2176 
L 1414 2176 
z
" transform="scale(0.015625)"/>
       </defs>
       <use xlink:href="#CMR17-33" transform="scale(0.996264)"/>
      </g>
     </g>
    </g>
    <g id="xtick_4">
     <g id="line2d_7">
      <path d="M 271.872 307.584 
L 271.872 41.472 
" clip-path="url(#p5393e1ad27)" style="fill: none; stroke: #b0b0b0; stroke-width: 0.8; stroke-linecap: square"/>
     </g>
     <g id="line2d_8">
      <g>
       <use xlink:href="#mbabfa78be4" x="271.872" y="307.584" style="stroke: #000000; stroke-width: 0.8"/>
      </g>
     </g>
     <g id="text_4">
      <!-- $\mathdefault{4}$ -->
      <g transform="translate(268.213881 324.961725) scale(0.15 -0.15)">
       <defs>
        <path id="CMR17-34" d="M 2150 4147 
C 2150 4281 2144 4288 2029 4288 
L 128 1254 
L 128 1088 
L 1779 1088 
L 1779 460 
C 1779 230 1766 166 1318 166 
L 1197 166 
L 1197 0 
C 1402 12 1747 12 1965 12 
C 2182 12 2528 12 2733 0 
L 2733 166 
L 2611 166 
C 2163 166 2150 230 2150 460 
L 2150 1088 
L 2803 1088 
L 2803 1254 
L 2150 1254 
L 2150 4147 
z
M 1798 3723 
L 1798 1254 
L 256 1254 
L 1798 3723 
z
" transform="scale(0.015625)"/>
       </defs>
       <use xlink:href="#CMR17-34" transform="scale(0.996264)"/>
      </g>
     </g>
    </g>
    <g id="xtick_5">
     <g id="line2d_9">
      <path d="M 343.296 307.584 
L 343.296 41.472 
" clip-path="url(#p5393e1ad27)" style="fill: none; stroke: #b0b0b0; stroke-width: 0.8; stroke-linecap: square"/>
     </g>
     <g id="line2d_10">
      <g>
       <use xlink:href="#mbabfa78be4" x="343.296" y="307.584" style="stroke: #000000; stroke-width: 0.8"/>
      </g>
     </g>
     <g id="text_5">
      <!-- $\mathdefault{5}$ -->
      <g transform="translate(339.637881 324.961725) scale(0.15 -0.15)">
       <defs>
        <path id="CMR17-35" d="M 730 3750 
C 794 3724 1056 3641 1325 3641 
C 1920 3641 2246 3961 2432 4140 
C 2432 4191 2432 4224 2394 4224 
C 2387 4224 2374 4224 2323 4198 
C 2099 4102 1837 4032 1517 4032 
C 1325 4032 1037 4055 723 4191 
C 653 4224 640 4224 634 4224 
C 602 4224 595 4217 595 4090 
L 595 2231 
C 595 2113 595 2080 659 2080 
C 691 2080 704 2093 736 2139 
C 941 2435 1222 2560 1542 2560 
C 1766 2560 2246 2415 2246 1293 
C 2246 1087 2246 716 2054 422 
C 1894 159 1645 25 1370 25 
C 947 25 518 319 403 812 
C 429 806 480 793 506 793 
C 589 793 749 838 749 1036 
C 749 1209 627 1280 506 1280 
C 358 1280 262 1190 262 1011 
C 262 454 704 -128 1382 -128 
C 2042 -128 2669 441 2669 1267 
C 2669 2054 2170 2662 1549 2662 
C 1222 2662 947 2540 730 2304 
L 730 3750 
z
" transform="scale(0.015625)"/>
       </defs>
       <use xlink:href="#CMR17-35" transform="scale(0.996264)"/>
      </g>
     </g>
    </g>
    <g id="xtick_6">
     <g id="line2d_11">
      <path d="M 414.72 307.584 
L 414.72 41.472 
" clip-path="url(#p5393e1ad27)" style="fill: none; stroke: #b0b0b0; stroke-width: 0.8; stroke-linecap: square"/>
     </g>
     <g id="line2d_12">
      <g>
       <use xlink:href="#mbabfa78be4" x="414.72" y="307.584" style="stroke: #000000; stroke-width: 0.8"/>
      </g>
     </g>
     <g id="text_6">
      <!-- $\mathdefault{6}$ -->
      <g transform="translate(411.061881 324.961725) scale(0.15 -0.15)">
       <defs>
        <path id="CMR17-36" d="M 678 2198 
C 678 3712 1395 4076 1811 4076 
C 1946 4076 2272 4049 2400 3782 
C 2298 3782 2106 3782 2106 3558 
C 2106 3385 2246 3328 2336 3328 
C 2394 3328 2566 3353 2566 3571 
C 2566 3987 2246 4224 1805 4224 
C 1043 4224 243 3411 243 2011 
C 243 257 966 -128 1478 -128 
C 2099 -128 2688 431 2688 1295 
C 2688 2101 2170 2688 1517 2688 
C 1126 2688 838 2430 678 1979 
L 678 2198 
z
M 1478 25 
C 691 25 691 1212 691 1450 
C 691 1914 909 2585 1504 2585 
C 1613 2585 1926 2585 2138 2140 
C 2253 1889 2253 1624 2253 1302 
C 2253 954 2253 696 2118 438 
C 1978 173 1773 25 1478 25 
z
" transform="scale(0.015625)"/>
       </defs>
       <use xlink:href="#CMR17-36" transform="scale(0.996264)"/>
      </g>
     </g>
    </g>
    <g id="text_7">
     <!-- Daily energy need (kWh) -->
     <g transform="translate(154.973977 343.07544) scale(0.15 -0.15)">
      <defs>
       <path id="CMR17-44" d="M 333 4352 
L 333 4185 
C 774 4185 845 4185 845 3898 
L 845 453 
C 845 166 774 166 333 166 
L 333 0 
L 2368 0 
C 3398 0 4224 943 4224 2140 
C 4224 3344 3411 4352 2368 4352 
L 333 4352 
z
M 1523 166 
C 1267 166 1254 198 1254 414 
L 1254 3936 
C 1254 4153 1267 4185 1523 4185 
L 2240 4185 
C 2771 4185 3750 3873 3750 2140 
C 3750 1242 3488 879 3366 707 
C 3213 510 2848 166 2240 166 
L 1523 166 
z
" transform="scale(0.015625)"/>
       <path id="CMR17-61" d="M 2304 1656 
C 2304 2048 2304 2275 2035 2534 
C 1798 2751 1523 2816 1306 2816 
C 800 2816 435 2408 435 1977 
C 435 1740 627 1728 666 1728 
C 749 1728 896 1779 896 1958 
C 896 2118 774 2188 666 2188 
C 640 2188 608 2182 589 2176 
C 723 2594 1069 2713 1293 2713 
C 1613 2713 1965 2421 1965 1875 
L 1965 1632 
C 1587 1619 1133 1568 774 1373 
C 371 1147 256 822 256 576 
C 256 77 832 -64 1171 -64 
C 1523 -64 1850 135 1990 505 
C 2003 219 2182 -39 2464 -39 
C 2598 -39 2938 51 2938 563 
L 2938 926 
L 2822 926 
L 2822 557 
C 2822 161 2650 109 2566 109 
C 2304 109 2304 446 2304 732 
L 2304 1656 
z
M 1965 887 
C 1965 323 1568 38 1216 38 
C 896 38 646 278 646 576 
C 646 771 730 1114 1101 1322 
C 1408 1497 1760 1523 1965 1536 
L 1965 887 
z
" transform="scale(0.015625)"/>
       <path id="CMR17-69" d="M 992 3961 
C 992 4102 877 4224 730 4224 
C 589 4224 467 4108 467 3961 
C 467 3820 582 3699 730 3699 
C 870 3699 992 3814 992 3961 
z
M 243 2745 
L 243 2579 
C 602 2579 653 2540 653 2231 
L 653 443 
C 653 198 627 166 218 166 
L 218 0 
C 371 12 646 12 806 12 
C 960 12 1222 12 1370 0 
L 1370 166 
C 992 166 979 205 979 436 
L 979 2816 
L 243 2745 
z
" transform="scale(0.015625)"/>
       <path id="CMR17-6c" d="M 979 4416 
L 218 4345 
L 218 4179 
C 595 4179 653 4141 653 3835 
L 653 439 
C 653 198 627 166 218 166 
L 218 0 
C 371 12 653 12 813 12 
C 979 12 1261 12 1414 0 
L 1414 166 
C 1005 166 979 191 979 439 
L 979 4416 
z
" transform="scale(0.015625)"/>
       <path id="CMR17-79" d="M 2496 2183 
C 2656 2579 2944 2585 3034 2585 
L 3034 2752 
C 2912 2745 2752 2739 2630 2739 
C 2496 2739 2285 2739 2157 2752 
L 2157 2585 
C 2400 2566 2406 2384 2406 2332 
C 2406 2268 2394 2235 2362 2158 
L 1664 409 
L 902 2300 
C 870 2378 870 2423 870 2430 
C 870 2572 1018 2585 1171 2585 
L 1171 2752 
C 1018 2739 742 2739 582 2739 
C 410 2739 205 2739 64 2752 
L 64 2585 
C 410 2585 448 2553 531 2345 
L 1485 -31 
C 1197 -795 1030 -1242 627 -1242 
C 557 -1242 397 -1223 282 -1106 
C 429 -1093 493 -1002 493 -892 
C 493 -782 416 -685 288 -685 
C 147 -685 77 -782 77 -899 
C 77 -1158 339 -1344 627 -1344 
C 998 -1344 1229 -983 1357 -659 
L 2496 2183 
z
" transform="scale(0.015625)"/>
       <path id="CMR17-65" d="M 2438 1503 
C 2464 1529 2464 1542 2464 1606 
C 2464 2251 2118 2816 1389 2816 
C 710 2816 173 2175 173 1394 
C 173 554 781 -64 1459 -64 
C 2176 -64 2458 619 2458 755 
C 2458 800 2419 800 2406 800 
C 2362 800 2355 787 2330 709 
C 2189 270 1837 51 1504 51 
C 1229 51 954 206 781 490 
C 582 819 582 1200 582 1503 
L 2438 1503 
z
M 589 1600 
C 634 2511 1126 2713 1382 2713 
C 1818 2713 2112 2308 2118 1600 
L 589 1600 
z
" transform="scale(0.015625)"/>
       <path id="CMR17-6e" d="M 2656 1954 
C 2656 2282 2592 2816 1837 2816 
C 1331 2816 1069 2424 973 2166 
L 966 2166 
L 966 2816 
L 211 2745 
L 211 2578 
C 589 2578 646 2540 646 2231 
L 646 443 
C 646 198 621 166 211 166 
L 211 0 
C 365 12 646 12 813 12 
C 979 12 1267 12 1421 0 
L 1421 166 
C 1011 166 986 192 986 443 
L 986 1678 
C 986 2269 1344 2713 1792 2713 
C 2266 2713 2317 2289 2317 1980 
L 2317 443 
C 2317 198 2291 166 1882 166 
L 1882 0 
C 2035 12 2317 12 2483 12 
C 2650 12 2938 12 3091 0 
L 3091 166 
C 2682 166 2656 192 2656 443 
L 2656 1954 
z
" transform="scale(0.015625)"/>
       <path id="CMR17-72" d="M 960 1517 
C 960 2134 1222 2713 1702 2713 
C 1747 2713 1792 2707 1837 2687 
C 1837 2687 1696 2642 1696 2475 
C 1696 2321 1818 2257 1914 2257 
C 1990 2257 2131 2302 2131 2482 
C 2131 2687 1926 2816 1709 2816 
C 1222 2816 1011 2340 947 2115 
L 941 2115 
L 941 2816 
L 198 2745 
L 198 2578 
C 576 2578 634 2540 634 2231 
L 634 443 
C 634 198 608 166 198 166 
L 198 0 
C 352 12 646 12 813 12 
C 998 12 1325 12 1498 0 
L 1498 166 
C 1037 166 960 166 960 455 
L 960 1517 
z
" transform="scale(0.015625)"/>
       <path id="CMR17-67" d="M 710 1165 
C 832 1068 1043 960 1299 960 
C 1805 960 2240 1359 2240 1895 
C 2240 2063 2189 2321 1997 2521 
C 2176 2713 2438 2777 2586 2777 
C 2611 2777 2650 2777 2682 2758 
C 2656 2751 2598 2726 2598 2623 
C 2598 2540 2656 2483 2739 2483 
C 2835 2483 2886 2547 2886 2630 
C 2886 2751 2790 2880 2586 2880 
C 2330 2880 2106 2758 1926 2591 
C 1734 2764 1504 2828 1299 2828 
C 794 2828 358 2431 358 1895 
C 358 1527 570 1294 634 1230 
C 442 1004 442 742 442 710 
C 442 544 506 300 723 166 
C 390 82 128 -184 128 -517 
C 128 -996 736 -1344 1466 -1344 
C 2170 -1344 2803 -1009 2803 -510 
C 2803 384 1856 384 1363 384 
C 1216 384 954 384 922 390 
C 723 422 589 601 589 825 
C 589 883 589 1024 710 1165 
z
M 1299 1068 
C 736 1068 736 1766 736 1895 
C 736 2024 736 2719 1299 2719 
C 1862 2719 1862 2024 1862 1895 
C 1862 1766 1862 1068 1299 1068 
z
M 1466 -1236 
C 826 -1236 384 -883 384 -517 
C 384 -311 493 -118 634 -11 
C 794 102 858 102 1293 102 
C 1818 102 2547 102 2547 -517 
C 2547 -883 2106 -1236 1466 -1236 
z
" transform="scale(0.015625)"/>
       <path id="CMR17-64" d="M 1869 4345 
L 1869 4179 
C 2246 4179 2304 4141 2304 3843 
L 2304 2371 
C 2278 2403 2016 2816 1498 2816 
C 845 2816 211 2228 211 1376 
C 211 529 806 -64 1434 -64 
C 1978 -64 2259 361 2291 406 
L 2291 -64 
L 3066 -13 
L 3066 154 
C 2688 154 2630 193 2630 503 
L 2630 4416 
L 1869 4345 
z
M 2291 762 
C 2291 568 2176 393 2029 264 
C 1811 70 1594 38 1472 38 
C 1286 38 621 135 621 1369 
C 621 2636 1363 2713 1530 2713 
C 1824 2713 2061 2545 2208 2313 
C 2291 2177 2291 2157 2291 2041 
L 2291 762 
z
" transform="scale(0.015625)"/>
       <path id="CMR17-28" d="M 1958 -1562 
C 1958 -1556 1958 -1543 1939 -1524 
C 1645 -1223 858 -403 858 1596 
C 858 3595 1632 4408 1946 4729 
C 1946 4735 1958 4748 1958 4767 
C 1958 4787 1939 4800 1914 4800 
C 1843 4800 1299 4325 986 3620 
C 666 2909 576 2218 576 1603 
C 576 1141 621 360 1005 -467 
C 1312 -1133 1837 -1600 1914 -1600 
C 1946 -1600 1958 -1588 1958 -1562 
z
" transform="scale(0.015625)"/>
       <path id="CMR17-6b" d="M 1670 1679 
C 1664 1692 1632 1730 1632 1749 
C 1632 1762 2086 2175 2144 2226 
C 2509 2532 2739 2563 2906 2570 
L 2906 2735 
C 2867 2735 2854 2735 2848 2729 
L 2534 2722 
C 2355 2722 2080 2722 1907 2735 
L 1907 2570 
C 1997 2563 2061 2513 2061 2423 
C 2061 2296 1933 2175 1926 2175 
L 960 1298 
L 960 4416 
L 198 4345 
L 198 4179 
C 576 4179 634 4141 634 3835 
L 634 439 
C 634 198 608 166 198 166 
L 198 0 
C 352 12 634 12 794 12 
C 954 12 1235 12 1389 0 
L 1389 166 
C 979 166 954 191 954 439 
L 954 1139 
L 1395 1540 
L 2042 586 
C 2118 471 2182 382 2182 299 
C 2182 185 2067 166 1990 166 
L 1990 0 
C 2144 12 2419 12 2579 12 
C 2694 12 2931 6 3040 0 
L 3040 166 
C 2739 166 2669 223 2477 503 
L 1670 1679 
z
" transform="scale(0.015625)"/>
       <path id="CMR17-57" d="M 5523 3775 
C 5581 3948 5677 4173 6048 4185 
L 6048 4352 
C 5939 4345 5715 4339 5600 4339 
C 5440 4339 5158 4339 5005 4352 
L 5005 4185 
C 5293 4179 5414 4019 5414 3865 
C 5414 3820 5408 3794 5382 3724 
L 4390 557 
L 3347 3890 
C 3328 3955 3322 3980 3322 4006 
C 3322 4185 3603 4185 3725 4185 
L 3725 4352 
C 3539 4339 3219 4339 3021 4339 
C 2861 4339 2573 4339 2426 4352 
L 2426 4185 
C 2720 4185 2797 4166 2861 4051 
C 2886 3993 2989 3660 2989 3640 
C 2989 3615 2976 3576 2970 3557 
L 2029 564 
L 986 3890 
C 954 3980 954 3993 954 4006 
C 954 4185 1235 4185 1363 4185 
L 1363 4352 
C 1178 4339 858 4339 659 4339 
C 493 4339 211 4339 58 4352 
L 58 4185 
C 442 4185 467 4147 531 3942 
L 1779 -20 
C 1811 -116 1811 -128 1869 -128 
C 1920 -128 1939 -116 1965 -26 
L 3053 3448 
L 4141 -26 
C 4166 -116 4186 -128 4237 -128 
C 4294 -128 4294 -116 4326 -20 
L 5523 3775 
z
" transform="scale(0.015625)"/>
       <path id="CMR17-68" d="M 2656 1954 
C 2656 2282 2592 2816 1837 2816 
C 1312 2816 1056 2392 979 2179 
L 973 2179 
L 973 4416 
L 211 4345 
L 211 4179 
C 589 4179 646 4141 646 3843 
L 646 443 
C 646 198 621 166 211 166 
L 211 0 
C 365 12 646 12 813 12 
C 979 12 1267 12 1421 0 
L 1421 166 
C 1011 166 986 192 986 443 
L 986 1678 
C 986 2269 1344 2713 1792 2713 
C 2266 2713 2317 2289 2317 1980 
L 2317 443 
C 2317 198 2291 166 1882 166 
L 1882 0 
C 2035 12 2317 12 2483 12 
C 2650 12 2938 12 3091 0 
L 3091 166 
C 2682 166 2656 192 2656 443 
L 2656 1954 
z
" transform="scale(0.015625)"/>
       <path id="CMR17-29" d="M 1683 1596 
C 1683 2057 1638 2839 1254 3665 
C 947 4332 422 4800 346 4800 
C 326 4800 301 4793 301 4761 
C 301 4748 307 4742 314 4729 
C 621 4408 1402 3595 1402 1603 
C 1402 -396 627 -1210 314 -1530 
C 307 -1543 301 -1549 301 -1562 
C 301 -1594 326 -1600 346 -1600 
C 416 -1600 960 -1127 1274 -422 
C 1594 289 1683 981 1683 1596 
z
" transform="scale(0.015625)"/>
      </defs>
      <use xlink:href="#CMR17-44" transform="scale(0.996264)"/>
      <use xlink:href="#CMR17-61" transform="translate(70.393556 0) scale(0.996264)"/>
      <use xlink:href="#CMR17-69" transform="translate(116.084033 0) scale(0.996264)"/>
      <use xlink:href="#CMR17-6c" transform="translate(140.955092 0) scale(0.996264)"/>
      <use xlink:href="#CMR17-79" transform="translate(165.82615 0) scale(0.996264)"/>
      <use xlink:href="#CMR17-65" transform="translate(244.195032 0) scale(0.996264)"/>
      <use xlink:href="#CMR17-6e" transform="translate(284.680693 0) scale(0.996264)"/>
      <use xlink:href="#CMR17-65" transform="translate(335.576062 0) scale(0.996264)"/>
      <use xlink:href="#CMR17-72" transform="translate(376.061723 0) scale(0.996264)"/>
      <use xlink:href="#CMR17-67" transform="translate(411.342491 0) scale(0.996264)"/>
      <use xlink:href="#CMR17-79" transform="translate(457.032968 0) scale(0.996264)"/>
      <use xlink:href="#CMR17-6e" transform="translate(535.40185 0) scale(0.996264)"/>
      <use xlink:href="#CMR17-65" transform="translate(586.29722 0) scale(0.996264)"/>
      <use xlink:href="#CMR17-65" transform="translate(626.78288 0) scale(0.996264)"/>
      <use xlink:href="#CMR17-64" transform="translate(667.268541 0) scale(0.996264)"/>
      <use xlink:href="#CMR17-28" transform="translate(748.239877 0) scale(0.996264)"/>
      <use xlink:href="#CMR17-6b" transform="translate(783.520645 0) scale(0.996264)"/>
      <use xlink:href="#CMR17-57" transform="translate(831.81356 0) scale(0.996264)"/>
      <use xlink:href="#CMR17-68" transform="translate(926.91021 0) scale(0.996264)"/>
      <use xlink:href="#CMR17-29" transform="translate(977.80558 0) scale(0.996264)"/>
     </g>
    </g>
   </g>
   <g id="matplotlib.axis_2">
    <g id="ytick_1">
     <g id="line2d_13">
      <path d="M 57.6 295.862402 
L 414.72 295.862402 
" clip-path="url(#p5393e1ad27)" style="fill: none; stroke: #b0b0b0; stroke-width: 0.8; stroke-linecap: square"/>
     </g>
     <g id="line2d_14">
      <defs>
       <path id="md7898b61b2" d="M 0 0 
L -3.5 0 
" style="stroke: #000000; stroke-width: 0.8"/>
      </defs>
      <g>
       <use xlink:href="#md7898b61b2" x="57.6" y="295.862402" style="stroke: #000000; stroke-width: 0.8"/>
      </g>
     </g>
     <g id="text_8">
      <!-- $\mathdefault{0.40}$ -->
      <g transform="translate(24.58671 301.051264) scale(0.15 -0.15)">
       <defs>
        <path id="CMR17-30" d="M 2688 2038 
C 2688 2430 2682 3099 2413 3613 
C 2176 4063 1798 4224 1466 4224 
C 1158 4224 768 4082 525 3620 
C 269 3137 243 2539 243 2038 
C 243 1671 250 1112 448 623 
C 723 -39 1216 -128 1466 -128 
C 1760 -128 2208 -7 2470 604 
C 2662 1048 2688 1568 2688 2038 
z
M 1466 -26 
C 1056 -26 813 328 723 816 
C 653 1196 653 1749 653 2109 
C 653 2604 653 3015 736 3407 
C 858 3954 1216 4121 1466 4121 
C 1728 4121 2067 3947 2189 3420 
C 2272 3054 2278 2623 2278 2109 
C 2278 1691 2278 1176 2202 797 
C 2067 96 1690 -26 1466 -26 
z
" transform="scale(0.015625)"/>
        <path id="CMMI12-3a" d="M 1178 307 
C 1178 492 1024 620 870 620 
C 685 620 557 467 557 313 
C 557 128 710 0 864 0 
C 1050 0 1178 153 1178 307 
z
" transform="scale(0.015625)"/>
       </defs>
       <use xlink:href="#CMR17-30" transform="scale(0.996264)"/>
       <use xlink:href="#CMMI12-3a" transform="translate(45.690477 0) scale(0.996264)"/>
       <use xlink:href="#CMR17-34" transform="translate(72.787654 0) scale(0.996264)"/>
       <use xlink:href="#CMR17-30" transform="translate(118.478131 0) scale(0.996264)"/>
      </g>
     </g>
    </g>
    <g id="ytick_2">
     <g id="line2d_15">
      <path d="M 57.6 237.750096 
L 414.72 237.750096 
" clip-path="url(#p5393e1ad27)" style="fill: none; stroke: #b0b0b0; stroke-width: 0.8; stroke-linecap: square"/>
     </g>
     <g id="line2d_16">
      <g>
       <use xlink:href="#md7898b61b2" x="57.6" y="237.750096" style="stroke: #000000; stroke-width: 0.8"/>
      </g>
     </g>
     <g id="text_9">
      <!-- $\mathdefault{0.45}$ -->
      <g transform="translate(24.58671 242.938958) scale(0.15 -0.15)">
       <use xlink:href="#CMR17-30" transform="scale(0.996264)"/>
       <use xlink:href="#CMMI12-3a" transform="translate(45.690477 0) scale(0.996264)"/>
       <use xlink:href="#CMR17-34" transform="translate(72.787654 0) scale(0.996264)"/>
       <use xlink:href="#CMR17-35" transform="translate(118.478131 0) scale(0.996264)"/>
      </g>
     </g>
    </g>
    <g id="ytick_3">
     <g id="line2d_17">
      <path d="M 57.6 179.63779 
L 414.72 179.63779 
" clip-path="url(#p5393e1ad27)" style="fill: none; stroke: #b0b0b0; stroke-width: 0.8; stroke-linecap: square"/>
     </g>
     <g id="line2d_18">
      <g>
       <use xlink:href="#md7898b61b2" x="57.6" y="179.63779" style="stroke: #000000; stroke-width: 0.8"/>
      </g>
     </g>
     <g id="text_10">
      <!-- $\mathdefault{0.50}$ -->
      <g transform="translate(24.58671 184.826652) scale(0.15 -0.15)">
       <use xlink:href="#CMR17-30" transform="scale(0.996264)"/>
       <use xlink:href="#CMMI12-3a" transform="translate(45.690477 0) scale(0.996264)"/>
       <use xlink:href="#CMR17-35" transform="translate(72.787654 0) scale(0.996264)"/>
       <use xlink:href="#CMR17-30" transform="translate(118.478131 0) scale(0.996264)"/>
      </g>
     </g>
    </g>
    <g id="ytick_4">
     <g id="line2d_19">
      <path d="M 57.6 121.525484 
L 414.72 121.525484 
" clip-path="url(#p5393e1ad27)" style="fill: none; stroke: #b0b0b0; stroke-width: 0.8; stroke-linecap: square"/>
     </g>
     <g id="line2d_20">
      <g>
       <use xlink:href="#md7898b61b2" x="57.6" y="121.525484" style="stroke: #000000; stroke-width: 0.8"/>
      </g>
     </g>
     <g id="text_11">
      <!-- $\mathdefault{0.55}$ -->
      <g transform="translate(24.58671 126.714347) scale(0.15 -0.15)">
       <use xlink:href="#CMR17-30" transform="scale(0.996264)"/>
       <use xlink:href="#CMMI12-3a" transform="translate(45.690477 0) scale(0.996264)"/>
       <use xlink:href="#CMR17-35" transform="translate(72.787654 0) scale(0.996264)"/>
       <use xlink:href="#CMR17-35" transform="translate(118.478131 0) scale(0.996264)"/>
      </g>
     </g>
    </g>
    <g id="ytick_5">
     <g id="line2d_21">
      <path d="M 57.6 63.413178 
L 414.72 63.413178 
" clip-path="url(#p5393e1ad27)" style="fill: none; stroke: #b0b0b0; stroke-width: 0.8; stroke-linecap: square"/>
     </g>
     <g id="line2d_22">
      <g>
       <use xlink:href="#md7898b61b2" x="57.6" y="63.413178" style="stroke: #000000; stroke-width: 0.8"/>
      </g>
     </g>
     <g id="text_12">
      <!-- $\mathdefault{0.60}$ -->
      <g transform="translate(24.58671 68.602041) scale(0.15 -0.15)">
       <use xlink:href="#CMR17-30" transform="scale(0.996264)"/>
       <use xlink:href="#CMMI12-3a" transform="translate(45.690477 0) scale(0.996264)"/>
       <use xlink:href="#CMR17-36" transform="translate(72.787654 0) scale(0.996264)"/>
       <use xlink:href="#CMR17-30" transform="translate(118.478131 0) scale(0.996264)"/>
      </g>
     </g>
    </g>
    <g id="text_13">
     <!-- Score/kWh (p.u.) -->
     <g transform="translate(16.85072 231.023022) rotate(-90) scale(0.15 -0.15)">
      <defs>
       <path id="CMR17-53" d="M 2803 4351 
C 2803 4467 2797 4473 2758 4473 
C 2720 4473 2707 4447 2682 4390 
L 2490 3965 
C 2246 4320 1875 4480 1472 4480 
C 819 4480 294 3958 294 3301 
C 294 3101 339 2817 557 2546 
C 794 2250 1018 2198 1530 2063 
C 1722 2011 2042 1927 2106 1901 
C 2470 1747 2662 1360 2662 999 
C 2662 534 2336 38 1779 38 
C 1094 38 454 425 410 1328 
C 403 1431 397 1437 352 1437 
C 301 1437 294 1431 294 1302 
L 294 0 
C 294 -116 301 -122 339 -122 
C 384 -122 397 -90 486 109 
C 493 128 493 141 614 386 
C 934 -39 1472 -128 1779 -128 
C 2477 -128 2970 457 2970 1141 
C 2970 1476 2848 1734 2778 1850 
C 2509 2263 2221 2340 1914 2417 
C 1869 2437 1856 2437 1498 2527 
C 1152 2617 1005 2662 845 2836 
C 666 3036 602 3243 602 3449 
C 602 3868 934 4326 1478 4326 
C 2157 4326 2579 3842 2675 3036 
C 2694 2920 2701 2914 2746 2914 
C 2803 2914 2803 2933 2803 3043 
L 2803 4351 
z
" transform="scale(0.015625)"/>
       <path id="CMR17-63" d="M 2234 2240 
C 2112 2240 1933 2240 1933 2015 
C 1933 1836 2080 1785 2163 1785 
C 2208 1785 2394 1804 2394 2028 
C 2394 2476 1958 2816 1466 2816 
C 787 2816 211 2201 211 1379 
C 211 521 813 -64 1466 -64 
C 2259 -64 2458 676 2458 747 
C 2458 773 2451 792 2406 792 
C 2362 792 2355 786 2330 702 
C 2163 180 1798 51 1523 51 
C 1114 51 621 431 621 1385 
C 621 2358 1094 2700 1472 2700 
C 1722 2700 2093 2582 2234 2240 
z
" transform="scale(0.015625)"/>
       <path id="CMR17-6f" d="M 2758 1356 
C 2758 2176 2163 2816 1466 2816 
C 768 2816 173 2176 173 1356 
C 173 550 768 -64 1466 -64 
C 2163 -64 2758 550 2758 1356 
z
M 1466 51 
C 1165 51 909 230 762 480 
C 602 768 582 1126 582 1408 
C 582 1676 595 2009 762 2297 
C 890 2508 1139 2713 1466 2713 
C 1754 2713 1997 2553 2150 2329 
C 2349 2028 2349 1606 2349 1408 
C 2349 1158 2336 774 2163 467 
C 1984 172 1709 51 1466 51 
z
" transform="scale(0.015625)"/>
       <path id="CMR17-2f" d="M 2605 4575 
C 2637 4658 2637 4671 2637 4684 
C 2637 4761 2579 4800 2528 4800 
C 2451 4800 2426 4748 2400 4671 
L 326 -1376 
C 294 -1460 294 -1472 294 -1485 
C 294 -1562 352 -1600 403 -1600 
C 480 -1600 506 -1549 531 -1472 
L 2605 4575 
z
" transform="scale(0.015625)"/>
       <path id="CMR17-70" d="M 1408 -1114 
C 998 -1114 973 -1088 973 -834 
L 973 380 
C 1158 109 1427 -64 1766 -64 
C 2406 -64 3053 503 3053 1382 
C 3053 2196 2496 2816 1837 2816 
C 1453 2816 1139 2603 960 2345 
L 960 2816 
L 198 2745 
L 198 2577 
C 576 2577 634 2539 634 2228 
L 634 -834 
C 634 -1081 608 -1114 198 -1114 
L 198 -1280 
C 352 -1268 634 -1268 800 -1268 
C 966 -1268 1254 -1268 1408 -1280 
L 1408 -1114 
z
M 973 2015 
C 973 2106 973 2241 1222 2481 
C 1254 2506 1472 2700 1792 2700 
C 2259 2700 2643 2112 2643 1376 
C 2643 639 2234 38 1728 38 
C 1498 38 1248 148 1056 451 
C 973 594 973 632 973 736 
L 973 2015 
z
" transform="scale(0.015625)"/>
       <path id="CMR17-2e" d="M 1062 262 
C 1062 422 934 524 800 524 
C 672 524 538 422 538 262 
C 538 102 666 0 800 0 
C 928 0 1062 102 1062 262 
z
" transform="scale(0.015625)"/>
       <path id="CMR17-75" d="M 1882 2745 
L 1882 2579 
C 2259 2579 2317 2540 2317 2229 
L 2317 1053 
C 2317 510 2029 38 1555 38 
C 1030 38 986 355 986 691 
L 986 2816 
L 211 2745 
L 211 2579 
C 467 2579 640 2579 646 2320 
L 646 1079 
C 646 646 646 368 813 187 
C 896 103 1056 -64 1517 -64 
C 2061 -64 2272 400 2323 536 
L 2330 536 
L 2330 -64 
L 3091 -13 
L 3091 154 
C 2714 154 2656 193 2656 503 
L 2656 2816 
L 1882 2745 
z
" transform="scale(0.015625)"/>
      </defs>
      <use xlink:href="#CMR17-53" transform="scale(0.996264)"/>
      <use xlink:href="#CMR17-63" transform="translate(50.89537 0) scale(0.996264)"/>
      <use xlink:href="#CMR17-6f" transform="translate(91.38103 0) scale(0.996264)"/>
      <use xlink:href="#CMR17-72" transform="translate(137.071507 0) scale(0.996264)"/>
      <use xlink:href="#CMR17-65" transform="translate(172.352275 0) scale(0.996264)"/>
      <use xlink:href="#CMR17-2f" transform="translate(212.837936 0) scale(0.996264)"/>
      <use xlink:href="#CMR17-6b" transform="translate(258.528413 0) scale(0.996264)"/>
      <use xlink:href="#CMR17-57" transform="translate(306.821329 0) scale(0.996264)"/>
      <use xlink:href="#CMR17-68" transform="translate(401.917978 0) scale(0.996264)"/>
      <use xlink:href="#CMR17-28" transform="translate(482.889315 0) scale(0.996264)"/>
      <use xlink:href="#CMR17-70" transform="translate(518.170082 0) scale(0.996264)"/>
      <use xlink:href="#CMR17-2e" transform="translate(569.065452 0) scale(0.996264)"/>
      <use xlink:href="#CMR17-75" transform="translate(593.936511 0) scale(0.996264)"/>
      <use xlink:href="#CMR17-2e" transform="translate(644.83188 0) scale(0.996264)"/>
      <use xlink:href="#CMR17-29" transform="translate(669.702939 0) scale(0.996264)"/>
     </g>
    </g>
   </g>
   <g id="line2d_23">
    <path d="M 104.034875 87.439209 
L 105.469052 88.06002 
L 106.863433 88.550803 
L 108.220151 88.9226 
L 109.54117 89.185238 
L 110.828305 89.347491 
L 112.083236 89.417222 
L 113.307519 89.401498 
L 114.502601 89.306685 
L 115.669828 89.138538 
L 116.810454 88.902272 
L 117.925652 88.602622 
L 119.016517 88.2439 
L 120.084075 87.830039 
L 121.12929 87.364637 
L 122.153064 86.850989 
L 123.156248 86.292119 
L 124.139643 85.690811 
L 125.104003 85.049626 
L 126.050041 84.370929 
L 126.978429 83.656906 
L 127.889803 82.909581 
L 128.784766 82.13083 
L 129.663891 81.322394 
L 130.527717 80.485892 
L 131.37676 79.622831 
L 132.211508 78.734617 
L 133.032427 77.82256 
L 133.839959 76.887884 
L 134.634527 75.931736 
L 135.416531 74.955189 
L 136.186357 73.959247 
L 136.944369 72.944855 
L 137.69092 71.912899 
L 138.426342 70.864211 
L 139.150958 69.799577 
L 139.865072 68.719734 
L 140.56898 67.625378 
L 141.262963 66.517167 
L 141.94729 65.39572 
L 142.622222 64.261624 
L 143.288008 63.115432 
L 143.944886 61.95767 
L 144.593087 60.788833 
L 145.232832 59.609393 
L 145.864334 58.419796 
L 146.487797 57.220466 
L 147.10342 56.011805 
L 147.711393 54.794195 
L 148.311898 53.568 
" clip-path="url(#p5393e1ad27)" style="fill: none; stroke: #1f77b4; stroke-width: 1.5; stroke-linecap: square"/>
   </g>
   <g id="line2d_24">
    <path d="M 104.034875 87.439209 
L 106.15965 90.075709 
L 108.226943 92.457666 
L 110.239664 94.60918 
L 112.200511 96.551402 
L 114.111987 98.302971 
L 115.97642 99.880374 
L 117.795977 101.298255 
L 119.57268 102.569661 
L 121.308418 103.706256 
L 123.00496 104.718501 
L 124.663961 105.615804 
L 126.286976 106.406651 
L 127.875464 107.098714 
L 129.430801 107.698952 
L 130.954279 108.213684 
L 132.447118 108.648669 
L 133.910472 109.009161 
L 135.345427 109.299968 
L 136.753014 109.525494 
L 138.134208 109.689784 
L 139.489933 109.796557 
L 140.821066 109.849243 
L 142.12844 109.851003 
L 143.412847 109.804764 
L 144.675038 109.713231 
L 145.915732 109.578917 
L 147.135611 109.404151 
L 148.335326 109.1911 
L 149.515499 108.941782 
L 150.676723 108.658078 
L 151.819564 108.341743 
L 152.944565 107.994415 
L 154.052245 107.61763 
L 155.1431 107.212823 
L 156.217605 106.781341 
L 157.276218 106.324448 
L 158.319374 105.843331 
L 159.347495 105.339105 
L 160.360983 104.81282 
L 161.360225 104.265467 
L 162.345593 103.697977 
L 163.317446 103.11123 
L 164.276128 102.506058 
L 165.22197 101.883246 
L 166.155292 101.243536 
L 167.076401 100.587631 
L 167.985595 99.916199 
L 168.883158 99.229869 
L 169.769368 98.52924 
" clip-path="url(#p5393e1ad27)" style="fill: none; stroke: #ff7f0e; stroke-width: 1.5; stroke-linecap: square"/>
   </g>
   <g id="line2d_25">
    <path d="M 104.034875 87.439209 
L 106.793409 91.905187 
L 109.479012 95.969117 
L 112.095121 99.673029 
L 114.644945 103.053299 
L 117.131481 106.141571 
L 119.557536 108.9655 
L 121.925738 111.54936 
L 124.238555 113.914548 
L 126.498303 116.079997 
L 128.707159 118.062519 
L 130.867175 119.877095 
L 132.980282 121.537119 
L 135.048303 123.0546 
L 137.072959 124.440338 
L 139.055878 125.704074 
L 140.998598 126.854613 
L 142.902576 127.899937 
L 144.769196 128.847297 
L 146.599768 129.703297 
L 148.395536 130.473961 
L 150.157684 131.164799 
L 151.887336 131.780859 
L 153.585564 132.326774 
L 155.253386 132.806805 
L 156.891776 133.224876 
L 158.501661 133.584609 
L 160.083926 133.88935 
L 161.639416 134.142197 
L 163.168941 134.346019 
L 164.673272 134.503483 
L 166.153151 134.617064 
L 167.609284 134.689069 
L 169.042352 134.721644 
L 170.453004 134.716794 
L 171.841866 134.676392 
L 173.209536 134.602187 
L 174.55659 134.49582 
L 175.88358 134.358825 
L 177.191039 134.192645 
L 178.479476 133.998631 
L 179.749384 133.778057 
L 181.001237 133.53212 
L 182.235489 133.261946 
L 183.452581 132.968597 
L 184.652936 132.653077 
L 185.836962 132.316331 
L 187.005053 131.959253 
L 188.157589 131.582689 
L 189.294937 131.187439 
" clip-path="url(#p5393e1ad27)" style="fill: none; stroke: #2ca02c; stroke-width: 1.5; stroke-linecap: square"/>
   </g>
   <g id="line2d_26">
    <path d="M 104.034875 87.439209 
L 107.23758 93.175962 
L 110.356952 98.389081 
L 113.39667 103.137022 
L 116.360196 107.469882 
L 119.250787 111.430834 
L 122.07151 115.057283 
L 124.825255 118.381796 
L 127.514746 121.432855 
L 130.142556 124.235483 
L 132.711114 126.811747 
L 135.222717 129.181185 
L 137.679536 131.361155 
L 140.083627 133.367132 
L 142.436939 135.212956 
L 144.741319 136.911042 
L 146.99852 138.472558 
L 149.210205 139.907578 
L 151.377958 141.225213 
L 153.503281 142.433721 
L 155.587607 143.540609 
L 157.632298 144.552711 
L 159.638653 145.476266 
L 161.607912 146.316978 
L 163.541255 147.080076 
L 165.439812 147.770357 
L 167.304661 148.392235 
L 169.136832 148.949775 
L 170.937312 149.446728 
L 172.707045 149.886561 
L 174.446933 150.272483 
L 176.157844 150.607467 
L 177.840606 150.894276 
L 179.496017 151.135473 
L 181.124841 151.333449 
L 182.727812 151.490429 
L 184.305634 151.608489 
L 185.858986 151.689568 
L 187.388518 151.735481 
L 188.894858 151.747926 
L 190.378608 151.728494 
L 191.840351 151.678678 
L 193.280645 151.599881 
L 194.70003 151.49342 
L 196.099026 151.360534 
L 197.478134 151.202393 
L 198.837838 151.020096 
L 200.178605 150.814682 
L 201.500887 150.587131 
L 202.805119 150.33837 
" clip-path="url(#p5393e1ad27)" style="fill: none; stroke: #d62728; stroke-width: 1.5; stroke-linecap: square"/>
   </g>
   <g id="line2d_27">
    <path d="M 189.841918 235.245816 
L 191.649329 234.943346 
L 193.401251 234.591628 
L 195.100816 234.19468 
L 196.750902 233.756097 
L 198.354159 233.279102 
L 199.913031 232.766597 
L 201.429779 232.221199 
L 202.906495 231.645277 
L 204.345123 231.04098 
L 205.747469 230.41026 
L 207.115216 229.754899 
L 208.449934 229.076522 
L 209.75309 228.376618 
L 211.026055 227.656551 
L 212.270115 226.917575 
L 213.486476 226.160845 
L 214.676273 225.387426 
L 215.840571 224.598299 
L 216.980374 223.794374 
L 218.096629 222.976493 
L 219.190231 222.145439 
L 220.262022 221.301936 
L 221.312802 220.446661 
L 222.343328 219.580242 
L 223.354316 218.703267 
L 224.346446 217.816284 
L 225.320364 216.919804 
L 226.276684 216.014307 
L 227.215988 215.100243 
L 228.138833 214.178033 
L 229.045746 213.248072 
L 229.937234 212.310732 
L 230.813777 211.366363 
L 231.675834 210.415294 
L 232.523844 209.457835 
L 233.358226 208.494278 
L 234.179383 207.5249 
L 234.987698 206.549961 
L 235.783539 205.569709 
L 236.567258 204.584375 
L 237.339195 203.594182 
L 238.099672 202.599338 
L 238.849002 201.600041 
L 239.587484 200.59648 
L 240.315406 199.588834 
L 241.033042 198.577271 
L 241.740661 197.561954 
L 242.438516 196.543036 
L 243.126855 195.520662 
" clip-path="url(#p5393e1ad27)" style="fill: none; stroke: #1f77b4; stroke-width: 1.5; stroke-linecap: square"/>
   </g>
   <g id="line2d_28">
    <path d="M 189.841918 235.245816 
L 192.517664 235.798964 
L 195.109312 236.256673 
L 197.621498 236.62742 
L 200.058495 236.918703 
L 202.424247 237.137183 
L 204.722403 237.288791 
L 206.956344 237.378834 
L 209.129211 237.412069 
L 211.243926 237.392774 
L 213.303209 237.324811 
L 215.309599 237.211669 
L 217.26547 237.056515 
L 219.173042 236.862225 
L 221.034397 236.631419 
L 222.851488 236.366491 
L 224.626149 236.069628 
L 226.360107 235.742836 
L 228.054988 235.387959 
L 229.712325 235.00669 
L 231.333564 234.600593 
L 232.920073 234.171108 
L 234.473145 233.71957 
L 235.994003 233.247212 
L 237.483809 232.75518 
L 238.943661 232.244538 
L 240.374606 231.716274 
L 241.777635 231.171309 
L 243.153692 230.610501 
L 244.503675 230.034652 
L 245.82844 229.444511 
L 247.128801 228.840779 
L 248.405536 228.224112 
L 249.659387 227.595125 
L 250.891063 226.954396 
L 252.101241 226.302469 
L 253.29057 225.639852 
L 254.459667 224.967028 
L 255.609129 224.284448 
L 256.739522 223.592539 
L 257.851391 222.891705 
L 258.945261 222.182325 
L 260.021631 221.464759 
L 261.080985 220.739348 
L 262.123785 220.006414 
L 263.150475 219.266262 
L 264.161483 218.519181 
L 265.157221 217.765446 
L 266.138084 217.005318 
L 267.104455 216.239043 
" clip-path="url(#p5393e1ad27)" style="fill: none; stroke: #ff7f0e; stroke-width: 1.5; stroke-linecap: square"/>
   </g>
   <g id="line2d_29">
    <path d="M 189.841918 235.245816 
L 193.313397 236.576745 
L 196.673366 237.757638 
L 199.927775 238.802971 
L 203.08213 239.725411 
L 206.141534 240.536092 
L 209.110726 241.24484 
L 211.994114 241.860357 
L 214.795804 242.390384 
L 217.519628 242.841824 
L 220.169164 243.220855 
L 222.74776 243.533023 
L 225.258553 243.78332 
L 227.704485 243.976255 
L 230.088318 244.115905 
L 232.412651 244.205971 
L 234.679927 244.249817 
L 236.892452 244.250511 
L 239.052398 244.210854 
L 241.161819 244.13341 
L 243.222653 244.020527 
L 245.236736 243.874367 
L 247.205807 243.696916 
L 249.131512 243.490006 
L 251.015414 243.255329 
L 252.858997 242.994449 
L 254.66367 242.708816 
L 256.430773 242.399773 
L 258.161584 242.068568 
L 259.857316 241.716363 
L 261.519127 241.34424 
L 263.148122 240.953206 
L 264.745354 240.544204 
L 266.31183 240.118113 
L 267.848511 239.675758 
L 269.356317 239.217908 
L 270.836128 238.745288 
L 272.288785 238.258578 
L 273.715096 237.758414 
L 275.115833 237.245398 
L 276.491737 236.720094 
L 277.84352 236.183034 
L 279.171865 235.634722 
L 280.477427 235.075631 
L 281.760835 234.506208 
L 283.022696 233.926877 
L 284.263591 233.338039 
L 285.484081 232.740073 
L 286.684706 232.133338 
L 287.865985 231.518175 
" clip-path="url(#p5393e1ad27)" style="fill: none; stroke: #2ca02c; stroke-width: 1.5; stroke-linecap: square"/>
   </g>
   <g id="line2d_30">
    <path d="M 189.841918 235.245816 
L 193.870441 237.117675 
L 197.767556 238.794499 
L 201.54007 240.296204 
L 205.194311 241.640081 
L 208.736164 242.841216 
L 212.171114 243.91283 
L 215.504281 244.866558 
L 218.740446 245.71268 
L 221.884081 246.460314 
L 224.939377 247.117572 
L 227.910261 247.691699 
L 230.800421 248.189184 
L 233.613324 248.615855 
L 236.352229 248.976963 
L 239.020207 249.277251 
L 241.620154 249.521016 
L 244.154802 249.712154 
L 246.626731 249.854213 
L 249.038381 249.950428 
L 251.392062 250.003753 
L 253.689959 250.016895 
L 255.934147 249.992335 
L 258.126591 249.932353 
L 260.269159 249.83905 
L 262.363624 249.714362 
L 264.411675 249.560076 
L 266.414916 249.377848 
L 268.374876 249.169209 
L 270.293011 248.935582 
L 272.170712 248.678288 
L 274.009303 248.398556 
L 275.81005 248.09753 
L 277.574162 247.77628 
L 279.302795 247.435801 
L 280.997053 247.077027 
L 282.657996 246.700828 
L 284.286637 246.308024 
L 285.883945 245.899381 
L 287.450852 245.475618 
L 288.98825 245.037412 
L 290.496995 244.585399 
L 291.977909 244.12018 
L 293.431783 243.642317 
L 294.859374 243.152345 
L 296.261413 242.650766 
L 297.638601 242.138055 
L 298.991613 241.614662 
L 300.3211 241.081011 
L 301.627687 240.537506 
" clip-path="url(#p5393e1ad27)" style="fill: none; stroke: #d62728; stroke-width: 1.5; stroke-linecap: square"/>
   </g>
   <g id="line2d_31">
    <path d="M 270.319039 292.745917 
L 272.212069 292.208863 
L 274.04034 291.645895 
L 275.807701 291.059082 
L 277.517681 290.45028 
L 279.173514 289.821156 
L 280.778179 289.173213 
L 282.334422 288.507809 
L 283.84478 287.826175 
L 285.311599 287.129429 
L 286.737057 286.41859 
L 288.123177 285.694588 
L 289.471842 284.958273 
L 290.784805 284.210423 
L 292.063704 283.451754 
L 293.31007 282.682925 
L 294.525336 281.904542 
L 295.710846 281.117165 
L 296.867859 280.321312 
L 297.997562 279.517461 
L 299.101068 278.706058 
L 300.179429 277.887515 
L 301.233633 277.062217 
L 302.264617 276.23052 
L 303.273263 275.392759 
L 304.260406 274.549245 
L 305.226839 273.700268 
L 306.17331 272.846101 
L 307.100531 271.986998 
L 308.009177 271.123199 
L 308.899889 270.254928 
L 309.773276 269.382396 
L 310.62992 268.505801 
L 311.470373 267.62533 
L 312.295162 266.741159 
L 313.104788 265.853454 
L 313.899732 264.96237 
L 314.680452 264.068057 
L 315.447384 263.170653 
L 316.200948 262.27029 
L 316.941543 261.367095 
L 317.669552 260.461186 
L 318.385344 259.552674 
L 319.08927 258.641667 
L 319.781667 257.728265 
L 320.46286 256.812566 
L 321.133158 255.89466 
L 321.792861 254.974634 
L 322.442256 254.052571 
L 323.081619 253.12855 
" clip-path="url(#p5393e1ad27)" style="fill: none; stroke: #1f77b4; stroke-width: 1.5; stroke-linecap: square"/>
   </g>
   <g id="line2d_32">
    <path d="M 270.319039 292.745917 
L 273.119065 292.670525 
L 275.816521 292.545005 
L 278.417515 292.373664 
L 280.927648 292.160321 
L 283.352069 291.908381 
L 285.695521 291.620888 
L 287.962383 291.30057 
L 290.156702 290.949882 
L 292.282229 290.571037 
L 294.342446 290.166037 
L 296.340589 289.736697 
L 298.279671 289.284666 
L 300.162501 288.811448 
L 301.991703 288.318415 
L 303.769732 287.80682 
L 305.498885 287.277816 
L 307.181315 286.732457 
L 308.819046 286.171718 
L 310.413979 285.596493 
L 311.9679 285.00761 
L 313.482497 284.405835 
L 314.959355 283.791875 
L 316.399977 283.166389 
L 317.805777 282.529986 
L 319.178096 281.883234 
L 320.518203 281.226663 
L 321.827298 280.560765 
L 323.106522 279.886001 
L 324.356957 279.202801 
L 325.579628 278.511569 
L 326.775513 277.812682 
L 327.94554 277.106493 
L 329.090594 276.393335 
L 330.211517 275.673521 
L 331.309112 274.947344 
L 332.384145 274.215081 
L 333.437347 273.476993 
L 334.469417 272.733325 
L 335.481021 271.984311 
L 336.472799 271.230169 
L 337.445361 270.471106 
L 338.399293 269.70732 
L 339.335153 268.938996 
L 340.253479 268.166311 
L 341.154786 267.389432 
L 342.039568 266.608516 
L 342.9083 265.823716 
L 343.761436 265.035175 
L 344.599414 264.243028 
" clip-path="url(#p5393e1ad27)" style="fill: none; stroke: #ff7f0e; stroke-width: 1.5; stroke-linecap: square"/>
   </g>
   <g id="line2d_33">
    <path d="M 270.319039 292.745917 
L 273.948813 293.090319 
L 277.437461 293.355962 
L 280.793331 293.550128 
L 284.024099 293.679217 
L 287.136838 293.748883 
L 290.138077 293.764138 
L 293.033857 293.729438 
L 295.82977 293.648762 
L 298.531011 293.525675 
L 301.142403 293.363375 
L 303.668439 293.164747 
L 306.113307 292.932392 
L 308.480913 292.668669 
L 310.774913 292.375719 
L 312.998726 292.055487 
L 315.155555 291.70975 
L 317.248407 291.340131 
L 319.280106 290.948116 
L 321.253306 290.535068 
L 323.170508 290.102239 
L 325.034065 289.650785 
L 326.846199 289.18177 
L 328.609008 288.696176 
L 330.324472 288.194914 
L 331.994466 287.678828 
L 333.620765 287.1487 
L 335.205049 286.605258 
L 336.748911 286.049179 
L 338.253866 285.481094 
L 339.721348 284.901592 
L 341.152724 284.311222 
L 342.549291 283.710501 
L 343.912284 283.099909 
L 345.242882 282.479898 
L 346.542205 281.850892 
L 347.811322 281.213289 
L 349.051254 280.567463 
L 350.262975 279.913767 
L 351.447415 279.252533 
L 352.605465 278.584075 
L 353.737975 277.908686 
L 354.845759 277.226647 
L 355.929598 276.538222 
L 356.990236 275.84366 
L 358.028391 275.143197 
L 359.044749 274.437058 
L 360.039967 273.725456 
L 361.014678 273.008591 
L 361.969489 272.286656 
" clip-path="url(#p5393e1ad27)" style="fill: none; stroke: #2ca02c; stroke-width: 1.5; stroke-linecap: square"/>
   </g>
   <g id="line2d_34">
    <path d="M 270.319039 292.745917 
L 274.528864 293.382349 
L 278.568317 293.916405 
L 282.447391 294.358049 
L 286.175298 294.715982 
L 289.760548 294.997839 
L 293.211013 295.210345 
L 296.533988 295.359449 
L 299.736242 295.450433 
L 302.824068 295.488 
L 305.803322 295.476356 
L 308.679462 295.41927 
L 311.457581 295.320132 
L 314.14244 295.181998 
L 316.738493 295.007631 
L 319.249909 294.799536 
L 321.680602 294.559989 
L 324.034243 294.29106 
L 326.314283 293.994643 
L 328.52397 293.672465 
L 330.666361 293.326111 
L 332.744338 292.957037 
L 334.760621 292.566581 
L 336.717776 292.155975 
L 338.61823 291.726358 
L 340.46428 291.278782 
L 342.2581 290.814221 
L 344.001747 290.333578 
L 345.697174 289.837693 
L 347.346236 289.327344 
L 348.95069 288.80326 
L 350.512209 288.266117 
L 352.032383 287.716547 
L 353.512725 287.155141 
L 354.954675 286.582454 
L 356.359605 285.999001 
L 357.728825 285.405271 
L 359.063582 284.801719 
L 360.365067 284.188773 
L 361.634419 283.566838 
L 362.872724 282.936294 
L 364.081021 282.297498 
L 365.260306 281.650788 
L 366.411529 280.996485 
L 367.535601 280.334888 
L 368.633396 279.666284 
L 369.705749 278.990943 
L 370.753463 278.309121 
L 371.777307 277.62106 
L 372.77802 276.92699 
" clip-path="url(#p5393e1ad27)" style="fill: none; stroke: #d62728; stroke-width: 1.5; stroke-linecap: square"/>
   </g>
   <g id="line2d_35">
    <path d="M 104.034875 87.439209 
L 105.714513 91.189081 
L 107.394151 94.904747 
L 109.073789 98.586209 
L 110.753427 102.233464 
L 112.433065 105.846515 
L 114.112703 109.425359 
L 115.792341 112.969999 
L 117.471979 116.480433 
L 119.151617 119.956661 
L 120.831255 123.398684 
L 122.510893 126.806502 
L 124.190531 130.180114 
L 125.870169 133.519521 
L 127.549807 136.824722 
L 129.229445 140.095718 
L 130.909083 143.332508 
L 132.588721 146.535093 
L 134.268359 149.703472 
L 135.947997 152.837646 
L 137.627635 155.937615 
L 139.307273 159.003378 
L 140.986911 162.034936 
L 142.666549 165.032288 
L 144.346187 167.995435 
L 146.025825 170.924376 
L 147.705463 173.819112 
L 149.385101 176.679642 
L 151.064739 179.505967 
L 152.744377 182.298087 
L 154.424015 185.056001 
L 156.103653 187.77971 
L 157.783291 190.469213 
L 159.462929 193.124511 
L 161.142568 195.745603 
L 162.822206 198.33249 
L 164.501844 200.885171 
L 166.181482 203.403647 
L 167.86112 205.887918 
L 169.540758 208.337983 
L 171.220396 210.753842 
L 172.900034 213.135496 
L 174.579672 215.482945 
L 176.25931 217.796188 
L 177.938948 220.075226 
L 179.618586 222.320059 
L 181.298224 224.530685 
L 182.977862 226.707107 
L 184.6575 228.849323 
L 186.337138 230.957334 
L 188.016776 233.031139 
L 189.696414 235.070738 
L 191.376052 237.076133 
L 193.05569 239.047321 
L 194.735328 240.984305 
L 196.414966 242.887083 
L 198.094604 244.755655 
L 199.774242 246.590022 
L 201.45388 248.390184 
L 203.133518 250.15614 
L 204.813156 251.88789 
L 206.492794 253.585436 
L 208.172432 255.248775 
L 209.85207 256.87791 
L 211.531708 258.472838 
L 213.211346 260.033562 
L 214.890984 261.56008 
L 216.570622 263.052392 
L 218.25026 264.510499 
L 219.929898 265.934401 
L 221.609536 267.324097 
L 223.289174 268.679588 
L 224.968812 270.000873 
L 226.64845 271.287953 
L 228.328088 272.540828 
L 230.007726 273.759496 
L 231.687364 274.94396 
L 233.367002 276.094218 
L 235.04664 277.210271 
L 236.726278 278.292118 
L 238.405916 279.339759 
L 240.085554 280.353196 
L 241.765193 281.332427 
L 243.444831 282.277452 
L 245.124469 283.188272 
L 246.804107 284.064886 
L 248.483745 284.907295 
L 250.163383 285.715499 
L 251.843021 286.489497 
L 253.522659 287.22929 
L 255.202297 287.934877 
L 256.881935 288.606259 
L 258.561573 289.243435 
L 260.241211 289.846406 
L 261.920849 290.415171 
L 263.600487 290.949731 
L 265.280125 291.450086 
L 266.959763 291.916235 
L 268.639401 292.348179 
L 270.319039 292.745917 
" clip-path="url(#p5393e1ad27)" style="fill: none; stroke-dasharray: 5.55,2.4; stroke-dashoffset: 0; stroke: #808080; stroke-width: 1.5"/>
   </g>
   <g id="line2d_36">
    <path d="M 148.311898 54.680972 
L 150.579232 59.548491 
L 152.846567 64.330648 
L 155.113901 69.028436 
L 157.381236 73.642843 
L 159.648571 78.17486 
L 161.915905 82.625478 
L 164.18324 86.995688 
L 166.450574 91.28648 
L 168.717909 95.498844 
L 170.985243 99.633771 
L 173.252578 103.692251 
L 175.519913 107.675275 
L 177.787247 111.583833 
L 180.054582 115.418916 
L 182.321916 119.181515 
L 184.589251 122.872619 
L 186.856585 126.493219 
L 189.12392 130.044307 
L 191.391254 133.526871 
L 193.658589 136.941903 
L 195.925924 140.290394 
L 198.193258 143.573333 
L 200.460593 146.791711 
L 202.727927 149.946519 
L 204.995262 153.038748 
L 207.262596 156.069387 
L 209.529931 159.039427 
L 211.797266 161.949858 
L 214.0646 164.801672 
L 216.331935 167.595859 
L 218.599269 170.333408 
L 220.866604 173.015312 
L 223.133938 175.642559 
L 225.401273 178.216141 
L 227.668608 180.737048 
L 229.935942 183.20627 
L 232.203277 185.624799 
L 234.470611 187.993624 
L 236.737946 190.313736 
L 239.00528 192.586126 
L 241.272615 194.811784 
L 243.53995 196.9917 
L 245.807284 199.126865 
L 248.074619 201.21827 
L 250.341953 203.266905 
L 252.609288 205.27376 
L 254.876622 207.239826 
L 257.143957 209.166093 
L 259.411292 211.053553 
L 261.678626 212.903194 
L 263.945961 214.716009 
L 266.213295 216.492987 
L 268.48063 218.235119 
L 270.747964 219.943396 
L 273.015299 221.618807 
L 275.282634 223.262343 
L 277.549968 224.874996 
L 279.817303 226.457754 
L 282.084637 228.01161 
L 284.351972 229.537553 
L 286.619306 231.036573 
L 288.886641 232.509662 
L 291.153976 233.95781 
L 293.42131 235.382007 
L 295.688645 236.783244 
L 297.955979 238.16251 
L 300.223314 239.520798 
L 302.490648 240.859097 
L 304.757983 242.178397 
L 307.025318 243.47969 
L 309.292652 244.763966 
L 311.559987 246.032214 
L 313.827321 247.285426 
L 316.094656 248.524593 
L 318.36199 249.750704 
L 320.629325 250.96475 
L 322.89666 252.167722 
L 325.163994 253.36061 
L 327.431329 254.544404 
L 329.698663 255.720096 
L 331.965998 256.888675 
L 334.233332 258.051132 
L 336.500667 259.208458 
L 338.768002 260.361643 
L 341.035336 261.511677 
L 343.302671 262.659551 
L 345.570005 263.806256 
L 347.83734 264.952782 
L 350.104674 266.100119 
L 352.372009 267.249258 
L 354.639344 268.40119 
L 356.906678 269.556905 
L 359.174013 270.717393 
L 361.441347 271.883645 
L 363.708682 273.056651 
L 365.976016 274.237403 
L 368.243351 275.42689 
L 370.510686 276.626102 
L 372.77802 277.836031 
" clip-path="url(#p5393e1ad27)" style="fill: none; stroke-dasharray: 5.55,2.4; stroke-dashoffset: 0; stroke: #808080; stroke-width: 1.5"/>
   </g>
   <g id="line2d_37">
    <path d="M 123.486207 91.974587 
L 125.49618 95.664911 
L 127.506153 99.321141 
L 129.516126 102.943276 
L 131.526099 106.531318 
L 133.536072 110.085265 
L 135.546045 113.605118 
L 137.556018 117.090876 
L 139.565991 120.542541 
L 141.575964 123.960111 
L 143.585937 127.343587 
L 145.59591 130.692969 
L 147.605883 134.008256 
L 149.615856 137.28945 
L 151.625829 140.536549 
L 153.635802 143.749554 
L 155.645775 146.928465 
L 157.655748 150.073281 
L 159.665722 153.184004 
L 161.675695 156.260632 
L 163.685668 159.303166 
L 165.695641 162.311605 
L 167.705614 165.285951 
L 169.715587 168.226202 
L 171.72556 171.132359 
L 173.735533 174.004422 
L 175.745506 176.842391 
L 177.755479 179.646265 
L 179.765452 182.416046 
L 181.775425 185.151732 
L 183.785398 187.853324 
L 185.795371 190.520821 
L 187.805344 193.154225 
L 189.815317 195.753534 
L 191.82529 198.318749 
L 193.835263 200.84987 
L 195.845236 203.346896 
L 197.855209 205.809829 
L 199.865182 208.238667 
L 201.875155 210.633411 
L 203.885128 212.99406 
L 205.895101 215.320616 
L 207.905074 217.613077 
L 209.915047 219.871444 
L 211.92502 222.095717 
L 213.934993 224.285896 
L 215.944966 226.44198 
L 217.954939 228.563971 
L 219.964912 230.651867 
L 221.974885 232.705669 
L 223.984858 234.725376 
L 225.994831 236.71099 
L 228.004804 238.662509 
L 230.014777 240.579934 
L 232.02475 242.463265 
L 234.034723 244.312501 
L 236.044696 246.127644 
L 238.054669 247.908692 
L 240.064642 249.655646 
L 242.074615 251.368506 
L 244.084588 253.047271 
L 246.094561 254.691942 
L 248.104534 256.30252 
L 250.114507 257.879002 
L 252.12448 259.421391 
L 254.134453 260.929686 
L 256.144426 262.403886 
L 258.154399 263.843992 
L 260.164372 265.250004 
L 262.174345 266.621922 
L 264.184318 267.959745 
L 266.194291 269.263474 
L 268.204264 270.533109 
L 270.214237 271.76865 
L 272.22421 272.970097 
L 274.234183 274.137449 
L 276.244156 275.270707 
L 278.254129 276.369871 
L 280.264102 277.434941 
L 282.274075 278.465917 
L 284.284048 279.462798 
L 286.294021 280.425585 
L 288.303994 281.354278 
L 290.313967 282.248877 
L 292.32394 283.109381 
L 294.333913 283.935791 
L 296.343886 284.728108 
L 298.353859 285.486329 
L 300.363832 286.210457 
L 302.373805 286.900491 
L 304.383778 287.55643 
L 306.393751 288.178275 
L 308.403724 288.766026 
L 310.413697 289.319682 
L 312.42367 289.839245 
L 314.433643 290.324713 
L 316.443616 290.776087 
L 318.453589 291.193367 
L 320.463562 291.576552 
L 322.473535 291.925644 
" clip-path="url(#p5393e1ad27)" style="fill: none; stroke-dasharray: 5.55,2.4; stroke-dashoffset: 0; stroke: #808080; stroke-width: 1.5"/>
   </g>
   <g id="line2d_38">
    <path d="M 137.443322 79.519375 
L 139.620901 83.298681 
L 141.79848 87.042979 
L 143.976058 90.752269 
L 146.153637 94.426551 
L 148.331216 98.065826 
L 150.508795 101.670092 
L 152.686373 105.23935 
L 154.863952 108.773601 
L 157.041531 112.272843 
L 159.219109 115.737077 
L 161.396688 119.166304 
L 163.574267 122.560522 
L 165.751845 125.919733 
L 167.929424 129.243936 
L 170.107003 132.533131 
L 172.284581 135.787317 
L 174.46216 139.006496 
L 176.639739 142.190667 
L 178.817318 145.33983 
L 180.994896 148.453985 
L 183.172475 151.533132 
L 185.350054 154.577271 
L 187.527632 157.586402 
L 189.705211 160.560526 
L 191.88279 163.499641 
L 194.060368 166.403748 
L 196.237947 169.272848 
L 198.415526 172.106939 
L 200.593105 174.906023 
L 202.770683 177.670098 
L 204.948262 180.399166 
L 207.125841 183.093226 
L 209.303419 185.752277 
L 211.480998 188.376321 
L 213.658577 190.965357 
L 215.836155 193.519385 
L 218.013734 196.038405 
L 220.191313 198.522417 
L 222.368891 200.971421 
L 224.54647 203.385417 
L 226.724049 205.764405 
L 228.901628 208.108385 
L 231.079206 210.417358 
L 233.256785 212.691322 
L 235.434364 214.930278 
L 237.611942 217.134227 
L 239.789521 219.303167 
L 241.9671 221.4371 
L 244.144678 223.536025 
L 246.322257 225.599941 
L 248.499836 227.62885 
L 250.677415 229.622751 
L 252.854993 231.581644 
L 255.032572 233.505528 
L 257.210151 235.394405 
L 259.387729 237.248274 
L 261.565308 239.067135 
L 263.742887 240.850989 
L 265.920465 242.599834 
L 268.098044 244.313671 
L 270.275623 245.9925 
L 272.453201 247.636322 
L 274.63078 249.245135 
L 276.808359 250.81894 
L 278.985938 252.357738 
L 281.163516 253.861527 
L 283.341095 255.330309 
L 285.518674 256.764083 
L 287.696252 258.162848 
L 289.873831 259.526606 
L 292.05141 260.855356 
L 294.228988 262.149098 
L 296.406567 263.407832 
L 298.584146 264.631558 
L 300.761725 265.820276 
L 302.939303 266.973986 
L 305.116882 268.092688 
L 307.294461 269.176382 
L 309.472039 270.225069 
L 311.649618 271.238747 
L 313.827197 272.217417 
L 316.004775 273.16108 
L 318.182354 274.069734 
L 320.359933 274.943381 
L 322.537512 275.78202 
L 324.71509 276.58565 
L 326.892669 277.354273 
L 329.070248 278.087888 
L 331.247826 278.786494 
L 333.425405 279.450093 
L 335.602984 280.078684 
L 337.780562 280.672267 
L 339.958141 281.230842 
L 342.13572 281.754409 
L 344.313298 282.242969 
L 346.490877 282.69652 
L 348.668456 283.115063 
L 350.846035 283.498598 
L 353.023613 283.847126 
" clip-path="url(#p5393e1ad27)" style="fill: none; stroke-dasharray: 5.55,2.4; stroke-dashoffset: 0; stroke: #808080; stroke-width: 1.5"/>
   </g>
   <g id="patch_3">
    <path d="M 57.6 307.584 
L 57.6 41.472 
" style="fill: none; stroke: #000000; stroke-width: 0.8; stroke-linejoin: miter; stroke-linecap: square"/>
   </g>
   <g id="patch_4">
    <path d="M 414.72 307.584 
L 414.72 41.472 
" style="fill: none; stroke: #000000; stroke-width: 0.8; stroke-linejoin: miter; stroke-linecap: square"/>
   </g>
   <g id="patch_5">
    <path d="M 57.6 307.584 
L 414.72 307.584 
" style="fill: none; stroke: #000000; stroke-width: 0.8; stroke-linejoin: miter; stroke-linecap: square"/>
   </g>
   <g id="patch_6">
    <path d="M 57.6 41.472 
L 414.72 41.472 
" style="fill: none; stroke: #000000; stroke-width: 0.8; stroke-linejoin: miter; stroke-linecap: square"/>
   </g>
   <g id="legend_1">
    <g id="patch_7">
     <path d="M 306.300037 137.094979 
L 404.22 137.094979 
Q 407.22 137.094979 407.22 134.094979 
L 407.22 51.972 
Q 407.22 48.972 404.22 48.972 
L 306.300037 48.972 
Q 303.300037 48.972 303.300037 51.972 
L 303.300037 134.094979 
Q 303.300037 137.094979 306.300037 137.094979 
z
" style="fill: #ffffff; opacity: 0.8; stroke: #cccccc; stroke-linejoin: miter"/>
    </g>
    <g id="line2d_39">
     <path d="M 309.300037 60.222 
L 324.300037 60.222 
L 339.300037 60.222 
" style="fill: none; stroke: #1f77b4; stroke-width: 1.5; stroke-linecap: square"/>
    </g>
    <g id="text_14">
     <!-- $z_0$=0.01 -->
     <g transform="translate(351.300037 65.472) scale(0.15 -0.15)">
      <defs>
       <path id="CMMI12-7a" d="M 813 486 
C 1088 809 1312 1015 1632 1313 
C 2016 1657 2182 1822 2272 1922 
C 2720 2371 2944 2713 2944 2764 
C 2944 2816 2893 2816 2880 2816 
C 2835 2816 2822 2790 2790 2745 
C 2630 2470 2477 2368 2310 2368 
C 2176 2368 2106 2403 1984 2547 
C 1850 2707 1741 2816 1555 2816 
C 1088 2816 806 2265 806 2127 
C 806 2107 813 2067 870 2067 
C 922 2067 928 2094 947 2140 
C 1056 2387 1363 2415 1485 2415 
C 1619 2415 1747 2387 1882 2342 
C 2125 2239 2227 2239 2291 2239 
C 2336 2239 2362 2239 2394 2246 
C 2182 1988 1837 1670 1549 1399 
L 902 783 
C 512 380 275 32 275 -13 
C 275 -52 307 -64 346 -64 
C 384 -64 390 -58 435 19 
C 538 179 742 384 979 384 
C 1114 384 1178 356 1306 211 
C 1427 70 1536 -64 1741 -64 
C 2368 -64 2726 723 2726 876 
C 2726 902 2720 942 2656 942 
C 2605 942 2598 915 2579 849 
C 2438 460 2061 336 1811 336 
C 1677 336 1549 364 1414 409 
C 1158 512 1088 512 1005 512 
C 941 512 870 512 813 486 
z
" transform="scale(0.015625)"/>
       <path id="CMR17-3d" d="M 4115 2048 
C 4211 2048 4307 2048 4307 2156 
C 4307 2272 4198 2272 4090 2272 
L 512 2272 
C 403 2272 294 2272 294 2156 
C 294 2048 390 2048 486 2048 
L 4115 2048 
z
M 4090 927 
C 4198 927 4307 927 4307 1043 
C 4307 1152 4211 1152 4115 1152 
L 486 1152 
C 390 1152 294 1152 294 1043 
C 294 927 403 927 512 927 
L 4090 927 
z
" transform="scale(0.015625)"/>
      </defs>
      <use xlink:href="#CMMI12-7a" transform="scale(0.996264)"/>
      <use xlink:href="#CMR17-30" transform="translate(45.315753 -14.943915) scale(0.697382)"/>
      <use xlink:href="#CMR17-3d" transform="translate(77.797067 0) scale(0.996264)"/>
      <use xlink:href="#CMR17-30" transform="translate(149.511856 0) scale(0.996264)"/>
      <use xlink:href="#CMR17-2e" transform="translate(195.202333 0) scale(0.996264)"/>
      <use xlink:href="#CMR17-30" transform="translate(220.073391 0) scale(0.996264)"/>
      <use xlink:href="#CMR17-31" transform="translate(265.763868 0) scale(0.996264)"/>
     </g>
    </g>
    <g id="line2d_40">
     <path d="M 309.300037 81.127745 
L 324.300037 81.127745 
L 339.300037 81.127745 
" style="fill: none; stroke: #ff7f0e; stroke-width: 1.5; stroke-linecap: square"/>
    </g>
    <g id="text_15">
     <!-- $z_0$=0.1 -->
     <g transform="translate(351.300037 86.377745) scale(0.15 -0.15)">
      <use xlink:href="#CMMI12-7a" transform="scale(0.996264)"/>
      <use xlink:href="#CMR17-30" transform="translate(45.315753 -14.943915) scale(0.697382)"/>
      <use xlink:href="#CMR17-3d" transform="translate(77.797067 0) scale(0.996264)"/>
      <use xlink:href="#CMR17-30" transform="translate(149.511856 0) scale(0.996264)"/>
      <use xlink:href="#CMR17-2e" transform="translate(195.202333 0) scale(0.996264)"/>
      <use xlink:href="#CMR17-31" transform="translate(220.073391 0) scale(0.996264)"/>
     </g>
    </g>
    <g id="line2d_41">
     <path d="M 309.300037 102.033489 
L 324.300037 102.033489 
L 339.300037 102.033489 
" style="fill: none; stroke: #2ca02c; stroke-width: 1.5; stroke-linecap: square"/>
    </g>
    <g id="text_16">
     <!-- $z_0$=0.3 -->
     <g transform="translate(351.300037 107.283489) scale(0.15 -0.15)">
      <use xlink:href="#CMMI12-7a" transform="scale(0.996264)"/>
      <use xlink:href="#CMR17-30" transform="translate(45.315753 -14.943915) scale(0.697382)"/>
      <use xlink:href="#CMR17-3d" transform="translate(77.797067 0) scale(0.996264)"/>
      <use xlink:href="#CMR17-30" transform="translate(149.511856 0) scale(0.996264)"/>
      <use xlink:href="#CMR17-2e" transform="translate(195.202333 0) scale(0.996264)"/>
      <use xlink:href="#CMR17-33" transform="translate(220.073391 0) scale(0.996264)"/>
     </g>
    </g>
    <g id="line2d_42">
     <path d="M 309.300037 122.939234 
L 324.300037 122.939234 
L 339.300037 122.939234 
" style="fill: none; stroke: #d62728; stroke-width: 1.5; stroke-linecap: square"/>
    </g>
    <g id="text_17">
     <!-- $z_0$=0.5 -->
     <g transform="translate(351.300037 128.189234) scale(0.15 -0.15)">
      <use xlink:href="#CMMI12-7a" transform="scale(0.996264)"/>
      <use xlink:href="#CMR17-30" transform="translate(45.315753 -14.943915) scale(0.697382)"/>
      <use xlink:href="#CMR17-3d" transform="translate(77.797067 0) scale(0.996264)"/>
      <use xlink:href="#CMR17-30" transform="translate(149.511856 0) scale(0.996264)"/>
      <use xlink:href="#CMR17-2e" transform="translate(195.202333 0) scale(0.996264)"/>
      <use xlink:href="#CMR17-35" transform="translate(220.073391 0) scale(0.996264)"/>
     </g>
    </g>
   </g>
  </g>
 </g>
 <defs>
  <clipPath id="p5393e1ad27">
   <rect x="57.6" y="41.472" width="357.12" height="266.112"/>
  </clipPath>
 </defs>
</svg>
