<?xml version="1.0" encoding="utf-8" standalone="no"?>
<!DOCTYPE svg PUBLIC "-//W3C//DTD SVG 1.1//EN"
  "http://www.w3.org/Graphics/SVG/1.1/DTD/svg11.dtd">
<svg xmlns:xlink="http://www.w3.org/1999/xlink" width="460.8pt" height="345.6pt" viewBox="0 0 460.8 345.6" xmlns="http://www.w3.org/2000/svg" version="1.1">
 <metadata>
  <rdf:RDF xmlns:dc="http://purl.org/dc/elements/1.1/" xmlns:cc="http://creativecommons.org/ns#" xmlns:rdf="http://www.w3.org/1999/02/22-rdf-syntax-ns#">
   <cc:Work>
    <dc:type rdf:resource="http://purl.org/dc/dcmitype/StillImage"/>
    <dc:date>2023-12-22T14:59:55.083095</dc:date>
    <dc:format>image/svg+xml</dc:format>
    <dc:creator>
     <cc:Agent>
      <dc:title>Matplotlib v3.8.1, https://matplotlib.org/</dc:title>
     </cc:Agent>
    </dc:creator>
   </cc:Work>
  </rdf:RDF>
 </metadata>
 <defs>
  <style type="text/css">*{stroke-linejoin: round; stroke-linecap: butt}</style>
 </defs>
 <g id="figure_1">
  <g id="patch_1">
   <path d="M 0 345.6 
L 460.8 345.6 
L 460.8 0 
L 0 0 
z
" style="fill: #ffffff"/>
  </g>
  <g id="axes_1">
   <g id="patch_2">
    <path d="M 57.6 307.584 
L 414.72 307.584 
L 414.72 41.472 
L 57.6 41.472 
z
" style="fill: #ffffff"/>
   </g>
   <g id="matplotlib.axis_1">
    <g id="xtick_1">
     <g id="line2d_1">
      <path d="M 57.6 307.584 
L 57.6 41.472 
" clip-path="url(#pebe48fb323)" style="fill: none; stroke: #b0b0b0; stroke-width: 0.8; stroke-linecap: square"/>
     </g>
     <g id="line2d_2">
      <defs>
       <path id="m47f387ab56" d="M 0 0 
L 0 3.5 
" style="stroke: #000000; stroke-width: 0.8"/>
      </defs>
      <g>
       <use xlink:href="#m47f387ab56" x="57.6" y="307.584" style="stroke: #000000; stroke-width: 0.8"/>
      </g>
     </g>
     <g id="text_1">
      <!-- $\mathdefault{1}$ -->
      <g transform="translate(53.941881 324.961725) scale(0.15 -0.15)">
       <defs>
        <path id="CMR17-31" d="M 1702 4083 
C 1702 4217 1696 4224 1606 4224 
C 1357 3927 979 3833 621 3820 
C 602 3820 570 3820 563 3808 
C 557 3795 557 3782 557 3648 
C 755 3648 1088 3686 1344 3839 
L 1344 467 
C 1344 243 1331 166 781 166 
L 589 166 
L 589 0 
C 896 6 1216 12 1523 12 
C 1830 12 2150 6 2458 0 
L 2458 166 
L 2266 166 
C 1715 166 1702 236 1702 467 
L 1702 4083 
z
" transform="scale(0.015625)"/>
       </defs>
       <use xlink:href="#CMR17-31" transform="scale(0.996264)"/>
      </g>
     </g>
    </g>
    <g id="xtick_2">
     <g id="line2d_3">
      <path d="M 146.88 307.584 
L 146.88 41.472 
" clip-path="url(#pebe48fb323)" style="fill: none; stroke: #b0b0b0; stroke-width: 0.8; stroke-linecap: square"/>
     </g>
     <g id="line2d_4">
      <g>
       <use xlink:href="#m47f387ab56" x="146.88" y="307.584" style="stroke: #000000; stroke-width: 0.8"/>
      </g>
     </g>
     <g id="text_2">
      <!-- $\mathdefault{2}$ -->
      <g transform="translate(143.221881 324.961725) scale(0.15 -0.15)">
       <defs>
        <path id="CMR17-32" d="M 2669 990 
L 2554 990 
C 2490 537 2438 460 2413 422 
C 2381 371 1920 371 1830 371 
L 602 371 
C 832 620 1280 1073 1824 1596 
C 2214 1966 2669 2400 2669 3033 
C 2669 3788 2067 4224 1395 4224 
C 691 4224 262 3603 262 3027 
C 262 2777 448 2745 525 2745 
C 589 2745 781 2783 781 3007 
C 781 3206 614 3264 525 3264 
C 486 3264 448 3257 422 3244 
C 544 3788 915 4057 1306 4057 
C 1862 4057 2227 3616 2227 3033 
C 2227 2477 1901 1998 1536 1583 
L 262 147 
L 262 0 
L 2515 0 
L 2669 990 
z
" transform="scale(0.015625)"/>
       </defs>
       <use xlink:href="#CMR17-32" transform="scale(0.996264)"/>
      </g>
     </g>
    </g>
    <g id="xtick_3">
     <g id="line2d_5">
      <path d="M 236.16 307.584 
L 236.16 41.472 
" clip-path="url(#pebe48fb323)" style="fill: none; stroke: #b0b0b0; stroke-width: 0.8; stroke-linecap: square"/>
     </g>
     <g id="line2d_6">
      <g>
       <use xlink:href="#m47f387ab56" x="236.16" y="307.584" style="stroke: #000000; stroke-width: 0.8"/>
      </g>
     </g>
     <g id="text_3">
      <!-- $\mathdefault{3}$ -->
      <g transform="translate(232.501881 324.961725) scale(0.15 -0.15)">
       <defs>
        <path id="CMR17-33" d="M 1414 2176 
C 1984 2176 2234 1673 2234 1094 
C 2234 322 1824 25 1453 25 
C 1114 25 563 193 390 691 
C 422 678 454 678 486 678 
C 640 678 755 780 755 947 
C 755 1132 614 1216 486 1216 
C 378 1216 211 1164 211 927 
C 211 335 787 -128 1466 -128 
C 2176 -128 2720 432 2720 1087 
C 2720 1718 2208 2176 1600 2246 
C 2086 2347 2554 2776 2554 3353 
C 2554 3856 2048 4224 1472 4224 
C 890 4224 378 3862 378 3347 
C 378 3123 544 3084 627 3084 
C 762 3084 877 3167 877 3334 
C 877 3500 762 3584 627 3584 
C 602 3584 570 3584 544 3571 
C 730 3999 1235 4076 1459 4076 
C 1683 4076 2106 3966 2106 3347 
C 2106 3167 2080 2851 1862 2574 
C 1670 2329 1453 2316 1242 2297 
C 1210 2297 1062 2284 1037 2284 
C 992 2278 966 2272 966 2227 
C 966 2182 973 2176 1101 2176 
L 1414 2176 
z
" transform="scale(0.015625)"/>
       </defs>
       <use xlink:href="#CMR17-33" transform="scale(0.996264)"/>
      </g>
     </g>
    </g>
    <g id="xtick_4">
     <g id="line2d_7">
      <path d="M 325.44 307.584 
L 325.44 41.472 
" clip-path="url(#pebe48fb323)" style="fill: none; stroke: #b0b0b0; stroke-width: 0.8; stroke-linecap: square"/>
     </g>
     <g id="line2d_8">
      <g>
       <use xlink:href="#m47f387ab56" x="325.44" y="307.584" style="stroke: #000000; stroke-width: 0.8"/>
      </g>
     </g>
     <g id="text_4">
      <!-- $\mathdefault{4}$ -->
      <g transform="translate(321.781881 324.961725) scale(0.15 -0.15)">
       <defs>
        <path id="CMR17-34" d="M 2150 4147 
C 2150 4281 2144 4288 2029 4288 
L 128 1254 
L 128 1088 
L 1779 1088 
L 1779 460 
C 1779 230 1766 166 1318 166 
L 1197 166 
L 1197 0 
C 1402 12 1747 12 1965 12 
C 2182 12 2528 12 2733 0 
L 2733 166 
L 2611 166 
C 2163 166 2150 230 2150 460 
L 2150 1088 
L 2803 1088 
L 2803 1254 
L 2150 1254 
L 2150 4147 
z
M 1798 3723 
L 1798 1254 
L 256 1254 
L 1798 3723 
z
" transform="scale(0.015625)"/>
       </defs>
       <use xlink:href="#CMR17-34" transform="scale(0.996264)"/>
      </g>
     </g>
    </g>
    <g id="xtick_5">
     <g id="line2d_9">
      <path d="M 414.72 307.584 
L 414.72 41.472 
" clip-path="url(#pebe48fb323)" style="fill: none; stroke: #b0b0b0; stroke-width: 0.8; stroke-linecap: square"/>
     </g>
     <g id="line2d_10">
      <g>
       <use xlink:href="#m47f387ab56" x="414.72" y="307.584" style="stroke: #000000; stroke-width: 0.8"/>
      </g>
     </g>
     <g id="text_5">
      <!-- $\mathdefault{5}$ -->
      <g transform="translate(411.061881 324.961725) scale(0.15 -0.15)">
       <defs>
        <path id="CMR17-35" d="M 730 3750 
C 794 3724 1056 3641 1325 3641 
C 1920 3641 2246 3961 2432 4140 
C 2432 4191 2432 4224 2394 4224 
C 2387 4224 2374 4224 2323 4198 
C 2099 4102 1837 4032 1517 4032 
C 1325 4032 1037 4055 723 4191 
C 653 4224 640 4224 634 4224 
C 602 4224 595 4217 595 4090 
L 595 2231 
C 595 2113 595 2080 659 2080 
C 691 2080 704 2093 736 2139 
C 941 2435 1222 2560 1542 2560 
C 1766 2560 2246 2415 2246 1293 
C 2246 1087 2246 716 2054 422 
C 1894 159 1645 25 1370 25 
C 947 25 518 319 403 812 
C 429 806 480 793 506 793 
C 589 793 749 838 749 1036 
C 749 1209 627 1280 506 1280 
C 358 1280 262 1190 262 1011 
C 262 454 704 -128 1382 -128 
C 2042 -128 2669 441 2669 1267 
C 2669 2054 2170 2662 1549 2662 
C 1222 2662 947 2540 730 2304 
L 730 3750 
z
" transform="scale(0.015625)"/>
       </defs>
       <use xlink:href="#CMR17-35" transform="scale(0.996264)"/>
      </g>
     </g>
    </g>
    <g id="text_6">
     <!-- Daily energy need (kWh) -->
     <g transform="translate(154.973977 343.07544) scale(0.15 -0.15)">
      <defs>
       <path id="CMR17-44" d="M 333 4352 
L 333 4185 
C 774 4185 845 4185 845 3898 
L 845 453 
C 845 166 774 166 333 166 
L 333 0 
L 2368 0 
C 3398 0 4224 943 4224 2140 
C 4224 3344 3411 4352 2368 4352 
L 333 4352 
z
M 1523 166 
C 1267 166 1254 198 1254 414 
L 1254 3936 
C 1254 4153 1267 4185 1523 4185 
L 2240 4185 
C 2771 4185 3750 3873 3750 2140 
C 3750 1242 3488 879 3366 707 
C 3213 510 2848 166 2240 166 
L 1523 166 
z
" transform="scale(0.015625)"/>
       <path id="CMR17-61" d="M 2304 1656 
C 2304 2048 2304 2275 2035 2534 
C 1798 2751 1523 2816 1306 2816 
C 800 2816 435 2408 435 1977 
C 435 1740 627 1728 666 1728 
C 749 1728 896 1779 896 1958 
C 896 2118 774 2188 666 2188 
C 640 2188 608 2182 589 2176 
C 723 2594 1069 2713 1293 2713 
C 1613 2713 1965 2421 1965 1875 
L 1965 1632 
C 1587 1619 1133 1568 774 1373 
C 371 1147 256 822 256 576 
C 256 77 832 -64 1171 -64 
C 1523 -64 1850 135 1990 505 
C 2003 219 2182 -39 2464 -39 
C 2598 -39 2938 51 2938 563 
L 2938 926 
L 2822 926 
L 2822 557 
C 2822 161 2650 109 2566 109 
C 2304 109 2304 446 2304 732 
L 2304 1656 
z
M 1965 887 
C 1965 323 1568 38 1216 38 
C 896 38 646 278 646 576 
C 646 771 730 1114 1101 1322 
C 1408 1497 1760 1523 1965 1536 
L 1965 887 
z
" transform="scale(0.015625)"/>
       <path id="CMR17-69" d="M 992 3961 
C 992 4102 877 4224 730 4224 
C 589 4224 467 4108 467 3961 
C 467 3820 582 3699 730 3699 
C 870 3699 992 3814 992 3961 
z
M 243 2745 
L 243 2579 
C 602 2579 653 2540 653 2231 
L 653 443 
C 653 198 627 166 218 166 
L 218 0 
C 371 12 646 12 806 12 
C 960 12 1222 12 1370 0 
L 1370 166 
C 992 166 979 205 979 436 
L 979 2816 
L 243 2745 
z
" transform="scale(0.015625)"/>
       <path id="CMR17-6c" d="M 979 4416 
L 218 4345 
L 218 4179 
C 595 4179 653 4141 653 3835 
L 653 439 
C 653 198 627 166 218 166 
L 218 0 
C 371 12 653 12 813 12 
C 979 12 1261 12 1414 0 
L 1414 166 
C 1005 166 979 191 979 439 
L 979 4416 
z
" transform="scale(0.015625)"/>
       <path id="CMR17-79" d="M 2496 2183 
C 2656 2579 2944 2585 3034 2585 
L 3034 2752 
C 2912 2745 2752 2739 2630 2739 
C 2496 2739 2285 2739 2157 2752 
L 2157 2585 
C 2400 2566 2406 2384 2406 2332 
C 2406 2268 2394 2235 2362 2158 
L 1664 409 
L 902 2300 
C 870 2378 870 2423 870 2430 
C 870 2572 1018 2585 1171 2585 
L 1171 2752 
C 1018 2739 742 2739 582 2739 
C 410 2739 205 2739 64 2752 
L 64 2585 
C 410 2585 448 2553 531 2345 
L 1485 -31 
C 1197 -795 1030 -1242 627 -1242 
C 557 -1242 397 -1223 282 -1106 
C 429 -1093 493 -1002 493 -892 
C 493 -782 416 -685 288 -685 
C 147 -685 77 -782 77 -899 
C 77 -1158 339 -1344 627 -1344 
C 998 -1344 1229 -983 1357 -659 
L 2496 2183 
z
" transform="scale(0.015625)"/>
       <path id="CMR17-65" d="M 2438 1503 
C 2464 1529 2464 1542 2464 1606 
C 2464 2251 2118 2816 1389 2816 
C 710 2816 173 2175 173 1394 
C 173 554 781 -64 1459 -64 
C 2176 -64 2458 619 2458 755 
C 2458 800 2419 800 2406 800 
C 2362 800 2355 787 2330 709 
C 2189 270 1837 51 1504 51 
C 1229 51 954 206 781 490 
C 582 819 582 1200 582 1503 
L 2438 1503 
z
M 589 1600 
C 634 2511 1126 2713 1382 2713 
C 1818 2713 2112 2308 2118 1600 
L 589 1600 
z
" transform="scale(0.015625)"/>
       <path id="CMR17-6e" d="M 2656 1954 
C 2656 2282 2592 2816 1837 2816 
C 1331 2816 1069 2424 973 2166 
L 966 2166 
L 966 2816 
L 211 2745 
L 211 2578 
C 589 2578 646 2540 646 2231 
L 646 443 
C 646 198 621 166 211 166 
L 211 0 
C 365 12 646 12 813 12 
C 979 12 1267 12 1421 0 
L 1421 166 
C 1011 166 986 192 986 443 
L 986 1678 
C 986 2269 1344 2713 1792 2713 
C 2266 2713 2317 2289 2317 1980 
L 2317 443 
C 2317 198 2291 166 1882 166 
L 1882 0 
C 2035 12 2317 12 2483 12 
C 2650 12 2938 12 3091 0 
L 3091 166 
C 2682 166 2656 192 2656 443 
L 2656 1954 
z
" transform="scale(0.015625)"/>
       <path id="CMR17-72" d="M 960 1517 
C 960 2134 1222 2713 1702 2713 
C 1747 2713 1792 2707 1837 2687 
C 1837 2687 1696 2642 1696 2475 
C 1696 2321 1818 2257 1914 2257 
C 1990 2257 2131 2302 2131 2482 
C 2131 2687 1926 2816 1709 2816 
C 1222 2816 1011 2340 947 2115 
L 941 2115 
L 941 2816 
L 198 2745 
L 198 2578 
C 576 2578 634 2540 634 2231 
L 634 443 
C 634 198 608 166 198 166 
L 198 0 
C 352 12 646 12 813 12 
C 998 12 1325 12 1498 0 
L 1498 166 
C 1037 166 960 166 960 455 
L 960 1517 
z
" transform="scale(0.015625)"/>
       <path id="CMR17-67" d="M 710 1165 
C 832 1068 1043 960 1299 960 
C 1805 960 2240 1359 2240 1895 
C 2240 2063 2189 2321 1997 2521 
C 2176 2713 2438 2777 2586 2777 
C 2611 2777 2650 2777 2682 2758 
C 2656 2751 2598 2726 2598 2623 
C 2598 2540 2656 2483 2739 2483 
C 2835 2483 2886 2547 2886 2630 
C 2886 2751 2790 2880 2586 2880 
C 2330 2880 2106 2758 1926 2591 
C 1734 2764 1504 2828 1299 2828 
C 794 2828 358 2431 358 1895 
C 358 1527 570 1294 634 1230 
C 442 1004 442 742 442 710 
C 442 544 506 300 723 166 
C 390 82 128 -184 128 -517 
C 128 -996 736 -1344 1466 -1344 
C 2170 -1344 2803 -1009 2803 -510 
C 2803 384 1856 384 1363 384 
C 1216 384 954 384 922 390 
C 723 422 589 601 589 825 
C 589 883 589 1024 710 1165 
z
M 1299 1068 
C 736 1068 736 1766 736 1895 
C 736 2024 736 2719 1299 2719 
C 1862 2719 1862 2024 1862 1895 
C 1862 1766 1862 1068 1299 1068 
z
M 1466 -1236 
C 826 -1236 384 -883 384 -517 
C 384 -311 493 -118 634 -11 
C 794 102 858 102 1293 102 
C 1818 102 2547 102 2547 -517 
C 2547 -883 2106 -1236 1466 -1236 
z
" transform="scale(0.015625)"/>
       <path id="CMR17-64" d="M 1869 4345 
L 1869 4179 
C 2246 4179 2304 4141 2304 3843 
L 2304 2371 
C 2278 2403 2016 2816 1498 2816 
C 845 2816 211 2228 211 1376 
C 211 529 806 -64 1434 -64 
C 1978 -64 2259 361 2291 406 
L 2291 -64 
L 3066 -13 
L 3066 154 
C 2688 154 2630 193 2630 503 
L 2630 4416 
L 1869 4345 
z
M 2291 762 
C 2291 568 2176 393 2029 264 
C 1811 70 1594 38 1472 38 
C 1286 38 621 135 621 1369 
C 621 2636 1363 2713 1530 2713 
C 1824 2713 2061 2545 2208 2313 
C 2291 2177 2291 2157 2291 2041 
L 2291 762 
z
" transform="scale(0.015625)"/>
       <path id="CMR17-28" d="M 1958 -1562 
C 1958 -1556 1958 -1543 1939 -1524 
C 1645 -1223 858 -403 858 1596 
C 858 3595 1632 4408 1946 4729 
C 1946 4735 1958 4748 1958 4767 
C 1958 4787 1939 4800 1914 4800 
C 1843 4800 1299 4325 986 3620 
C 666 2909 576 2218 576 1603 
C 576 1141 621 360 1005 -467 
C 1312 -1133 1837 -1600 1914 -1600 
C 1946 -1600 1958 -1588 1958 -1562 
z
" transform="scale(0.015625)"/>
       <path id="CMR17-6b" d="M 1670 1679 
C 1664 1692 1632 1730 1632 1749 
C 1632 1762 2086 2175 2144 2226 
C 2509 2532 2739 2563 2906 2570 
L 2906 2735 
C 2867 2735 2854 2735 2848 2729 
L 2534 2722 
C 2355 2722 2080 2722 1907 2735 
L 1907 2570 
C 1997 2563 2061 2513 2061 2423 
C 2061 2296 1933 2175 1926 2175 
L 960 1298 
L 960 4416 
L 198 4345 
L 198 4179 
C 576 4179 634 4141 634 3835 
L 634 439 
C 634 198 608 166 198 166 
L 198 0 
C 352 12 634 12 794 12 
C 954 12 1235 12 1389 0 
L 1389 166 
C 979 166 954 191 954 439 
L 954 1139 
L 1395 1540 
L 2042 586 
C 2118 471 2182 382 2182 299 
C 2182 185 2067 166 1990 166 
L 1990 0 
C 2144 12 2419 12 2579 12 
C 2694 12 2931 6 3040 0 
L 3040 166 
C 2739 166 2669 223 2477 503 
L 1670 1679 
z
" transform="scale(0.015625)"/>
       <path id="CMR17-57" d="M 5523 3775 
C 5581 3948 5677 4173 6048 4185 
L 6048 4352 
C 5939 4345 5715 4339 5600 4339 
C 5440 4339 5158 4339 5005 4352 
L 5005 4185 
C 5293 4179 5414 4019 5414 3865 
C 5414 3820 5408 3794 5382 3724 
L 4390 557 
L 3347 3890 
C 3328 3955 3322 3980 3322 4006 
C 3322 4185 3603 4185 3725 4185 
L 3725 4352 
C 3539 4339 3219 4339 3021 4339 
C 2861 4339 2573 4339 2426 4352 
L 2426 4185 
C 2720 4185 2797 4166 2861 4051 
C 2886 3993 2989 3660 2989 3640 
C 2989 3615 2976 3576 2970 3557 
L 2029 564 
L 986 3890 
C 954 3980 954 3993 954 4006 
C 954 4185 1235 4185 1363 4185 
L 1363 4352 
C 1178 4339 858 4339 659 4339 
C 493 4339 211 4339 58 4352 
L 58 4185 
C 442 4185 467 4147 531 3942 
L 1779 -20 
C 1811 -116 1811 -128 1869 -128 
C 1920 -128 1939 -116 1965 -26 
L 3053 3448 
L 4141 -26 
C 4166 -116 4186 -128 4237 -128 
C 4294 -128 4294 -116 4326 -20 
L 5523 3775 
z
" transform="scale(0.015625)"/>
       <path id="CMR17-68" d="M 2656 1954 
C 2656 2282 2592 2816 1837 2816 
C 1312 2816 1056 2392 979 2179 
L 973 2179 
L 973 4416 
L 211 4345 
L 211 4179 
C 589 4179 646 4141 646 3843 
L 646 443 
C 646 198 621 166 211 166 
L 211 0 
C 365 12 646 12 813 12 
C 979 12 1267 12 1421 0 
L 1421 166 
C 1011 166 986 192 986 443 
L 986 1678 
C 986 2269 1344 2713 1792 2713 
C 2266 2713 2317 2289 2317 1980 
L 2317 443 
C 2317 198 2291 166 1882 166 
L 1882 0 
C 2035 12 2317 12 2483 12 
C 2650 12 2938 12 3091 0 
L 3091 166 
C 2682 166 2656 192 2656 443 
L 2656 1954 
z
" transform="scale(0.015625)"/>
       <path id="CMR17-29" d="M 1683 1596 
C 1683 2057 1638 2839 1254 3665 
C 947 4332 422 4800 346 4800 
C 326 4800 301 4793 301 4761 
C 301 4748 307 4742 314 4729 
C 621 4408 1402 3595 1402 1603 
C 1402 -396 627 -1210 314 -1530 
C 307 -1543 301 -1549 301 -1562 
C 301 -1594 326 -1600 346 -1600 
C 416 -1600 960 -1127 1274 -422 
C 1594 289 1683 981 1683 1596 
z
" transform="scale(0.015625)"/>
      </defs>
      <use xlink:href="#CMR17-44" transform="scale(0.996264)"/>
      <use xlink:href="#CMR17-61" transform="translate(70.393556 0) scale(0.996264)"/>
      <use xlink:href="#CMR17-69" transform="translate(116.084033 0) scale(0.996264)"/>
      <use xlink:href="#CMR17-6c" transform="translate(140.955092 0) scale(0.996264)"/>
      <use xlink:href="#CMR17-79" transform="translate(165.82615 0) scale(0.996264)"/>
      <use xlink:href="#CMR17-65" transform="translate(244.195032 0) scale(0.996264)"/>
      <use xlink:href="#CMR17-6e" transform="translate(284.680693 0) scale(0.996264)"/>
      <use xlink:href="#CMR17-65" transform="translate(335.576062 0) scale(0.996264)"/>
      <use xlink:href="#CMR17-72" transform="translate(376.061723 0) scale(0.996264)"/>
      <use xlink:href="#CMR17-67" transform="translate(411.342491 0) scale(0.996264)"/>
      <use xlink:href="#CMR17-79" transform="translate(457.032968 0) scale(0.996264)"/>
      <use xlink:href="#CMR17-6e" transform="translate(535.40185 0) scale(0.996264)"/>
      <use xlink:href="#CMR17-65" transform="translate(586.29722 0) scale(0.996264)"/>
      <use xlink:href="#CMR17-65" transform="translate(626.78288 0) scale(0.996264)"/>
      <use xlink:href="#CMR17-64" transform="translate(667.268541 0) scale(0.996264)"/>
      <use xlink:href="#CMR17-28" transform="translate(748.239877 0) scale(0.996264)"/>
      <use xlink:href="#CMR17-6b" transform="translate(783.520645 0) scale(0.996264)"/>
      <use xlink:href="#CMR17-57" transform="translate(831.81356 0) scale(0.996264)"/>
      <use xlink:href="#CMR17-68" transform="translate(926.91021 0) scale(0.996264)"/>
      <use xlink:href="#CMR17-29" transform="translate(977.80558 0) scale(0.996264)"/>
     </g>
    </g>
   </g>
   <g id="matplotlib.axis_2">
    <g id="ytick_1">
     <g id="line2d_11">
      <path d="M 57.6 302.733256 
L 414.72 302.733256 
" clip-path="url(#pebe48fb323)" style="fill: none; stroke: #b0b0b0; stroke-width: 0.8; stroke-linecap: square"/>
     </g>
     <g id="line2d_12">
      <defs>
       <path id="m4c5fc346ea" d="M 0 0 
L -3.5 0 
" style="stroke: #000000; stroke-width: 0.8"/>
      </defs>
      <g>
       <use xlink:href="#m4c5fc346ea" x="57.6" y="302.733256" style="stroke: #000000; stroke-width: 0.8"/>
      </g>
     </g>
     <g id="text_7">
      <!-- $\mathdefault{0.75}$ -->
      <g transform="translate(24.58671 307.922119) scale(0.15 -0.15)">
       <defs>
        <path id="CMR17-30" d="M 2688 2038 
C 2688 2430 2682 3099 2413 3613 
C 2176 4063 1798 4224 1466 4224 
C 1158 4224 768 4082 525 3620 
C 269 3137 243 2539 243 2038 
C 243 1671 250 1112 448 623 
C 723 -39 1216 -128 1466 -128 
C 1760 -128 2208 -7 2470 604 
C 2662 1048 2688 1568 2688 2038 
z
M 1466 -26 
C 1056 -26 813 328 723 816 
C 653 1196 653 1749 653 2109 
C 653 2604 653 3015 736 3407 
C 858 3954 1216 4121 1466 4121 
C 1728 4121 2067 3947 2189 3420 
C 2272 3054 2278 2623 2278 2109 
C 2278 1691 2278 1176 2202 797 
C 2067 96 1690 -26 1466 -26 
z
" transform="scale(0.015625)"/>
        <path id="CMMI12-3a" d="M 1178 307 
C 1178 492 1024 620 870 620 
C 685 620 557 467 557 313 
C 557 128 710 0 864 0 
C 1050 0 1178 153 1178 307 
z
" transform="scale(0.015625)"/>
        <path id="CMR17-37" d="M 2886 3955 
L 2886 4096 
L 1382 4096 
C 634 4096 621 4166 595 4288 
L 480 4288 
L 294 3104 
L 410 3104 
C 429 3226 474 3552 550 3673 
C 589 3724 1062 3724 1171 3724 
L 2579 3724 
L 1869 2670 
C 1395 1961 1069 1003 1069 166 
C 1069 89 1069 -128 1299 -128 
C 1530 -128 1530 89 1530 172 
L 1530 466 
C 1530 1514 1709 2204 2003 2644 
L 2886 3955 
z
" transform="scale(0.015625)"/>
       </defs>
       <use xlink:href="#CMR17-30" transform="scale(0.996264)"/>
       <use xlink:href="#CMMI12-3a" transform="translate(45.690477 0) scale(0.996264)"/>
       <use xlink:href="#CMR17-37" transform="translate(72.787654 0) scale(0.996264)"/>
       <use xlink:href="#CMR17-35" transform="translate(118.478131 0) scale(0.996264)"/>
      </g>
     </g>
    </g>
    <g id="ytick_2">
     <g id="line2d_13">
      <path d="M 57.6 259.674852 
L 414.72 259.674852 
" clip-path="url(#pebe48fb323)" style="fill: none; stroke: #b0b0b0; stroke-width: 0.8; stroke-linecap: square"/>
     </g>
     <g id="line2d_14">
      <g>
       <use xlink:href="#m4c5fc346ea" x="57.6" y="259.674852" style="stroke: #000000; stroke-width: 0.8"/>
      </g>
     </g>
     <g id="text_8">
      <!-- $\mathdefault{0.80}$ -->
      <g transform="translate(24.58671 264.863714) scale(0.15 -0.15)">
       <defs>
        <path id="CMR17-38" d="M 1741 2289 
C 2144 2494 2554 2803 2554 3298 
C 2554 3884 1990 4224 1472 4224 
C 890 4224 378 3800 378 3215 
C 378 3054 416 2777 666 2533 
C 730 2469 998 2276 1171 2154 
C 883 2006 211 1652 211 945 
C 211 282 838 -128 1459 -128 
C 2144 -128 2720 366 2720 1022 
C 2720 1607 2330 1877 2074 2051 
L 1741 2289 
z
M 902 2855 
C 851 2887 595 3086 595 3388 
C 595 3781 998 4076 1459 4076 
C 1965 4076 2336 3716 2336 3298 
C 2336 2700 1670 2359 1638 2359 
C 1632 2359 1626 2359 1574 2398 
L 902 2855 
z
M 2080 1536 
C 2176 1466 2483 1253 2483 861 
C 2483 385 2010 25 1472 25 
C 890 25 448 443 448 951 
C 448 1459 838 1884 1280 2083 
L 2080 1536 
z
" transform="scale(0.015625)"/>
       </defs>
       <use xlink:href="#CMR17-30" transform="scale(0.996264)"/>
       <use xlink:href="#CMMI12-3a" transform="translate(45.690477 0) scale(0.996264)"/>
       <use xlink:href="#CMR17-38" transform="translate(72.787654 0) scale(0.996264)"/>
       <use xlink:href="#CMR17-30" transform="translate(118.478131 0) scale(0.996264)"/>
      </g>
     </g>
    </g>
    <g id="ytick_3">
     <g id="line2d_15">
      <path d="M 57.6 216.616447 
L 414.72 216.616447 
" clip-path="url(#pebe48fb323)" style="fill: none; stroke: #b0b0b0; stroke-width: 0.8; stroke-linecap: square"/>
     </g>
     <g id="line2d_16">
      <g>
       <use xlink:href="#m4c5fc346ea" x="57.6" y="216.616447" style="stroke: #000000; stroke-width: 0.8"/>
      </g>
     </g>
     <g id="text_9">
      <!-- $\mathdefault{0.85}$ -->
      <g transform="translate(24.58671 221.805309) scale(0.15 -0.15)">
       <use xlink:href="#CMR17-30" transform="scale(0.996264)"/>
       <use xlink:href="#CMMI12-3a" transform="translate(45.690477 0) scale(0.996264)"/>
       <use xlink:href="#CMR17-38" transform="translate(72.787654 0) scale(0.996264)"/>
       <use xlink:href="#CMR17-35" transform="translate(118.478131 0) scale(0.996264)"/>
      </g>
     </g>
    </g>
    <g id="ytick_4">
     <g id="line2d_17">
      <path d="M 57.6 173.558042 
L 414.72 173.558042 
" clip-path="url(#pebe48fb323)" style="fill: none; stroke: #b0b0b0; stroke-width: 0.8; stroke-linecap: square"/>
     </g>
     <g id="line2d_18">
      <g>
       <use xlink:href="#m4c5fc346ea" x="57.6" y="173.558042" style="stroke: #000000; stroke-width: 0.8"/>
      </g>
     </g>
     <g id="text_10">
      <!-- $\mathdefault{0.90}$ -->
      <g transform="translate(24.58671 178.746905) scale(0.15 -0.15)">
       <defs>
        <path id="CMR17-39" d="M 2253 1871 
C 2253 448 1670 25 1190 25 
C 1043 25 685 43 538 281 
C 704 256 826 345 826 505 
C 826 678 685 736 595 736 
C 538 736 365 710 365 492 
C 365 68 742 -128 1203 -128 
C 1939 -128 2688 665 2688 2090 
C 2688 3857 1971 4224 1485 4224 
C 851 4224 243 3664 243 2800 
C 243 2000 762 1408 1414 1408 
C 1952 1408 2189 1910 2253 2122 
L 2253 1871 
z
M 1427 1510 
C 1254 1510 1011 1542 813 1929 
C 678 2181 678 2477 678 2793 
C 678 3174 678 3438 858 3722 
C 947 3857 1114 4076 1485 4076 
C 2240 4076 2240 2909 2240 2651 
C 2240 2193 2035 1510 1427 1510 
z
" transform="scale(0.015625)"/>
       </defs>
       <use xlink:href="#CMR17-30" transform="scale(0.996264)"/>
       <use xlink:href="#CMMI12-3a" transform="translate(45.690477 0) scale(0.996264)"/>
       <use xlink:href="#CMR17-39" transform="translate(72.787654 0) scale(0.996264)"/>
       <use xlink:href="#CMR17-30" transform="translate(118.478131 0) scale(0.996264)"/>
      </g>
     </g>
    </g>
    <g id="ytick_5">
     <g id="line2d_19">
      <path d="M 57.6 130.499638 
L 414.72 130.499638 
" clip-path="url(#pebe48fb323)" style="fill: none; stroke: #b0b0b0; stroke-width: 0.8; stroke-linecap: square"/>
     </g>
     <g id="line2d_20">
      <g>
       <use xlink:href="#m4c5fc346ea" x="57.6" y="130.499638" style="stroke: #000000; stroke-width: 0.8"/>
      </g>
     </g>
     <g id="text_11">
      <!-- $\mathdefault{0.95}$ -->
      <g transform="translate(24.58671 135.6885) scale(0.15 -0.15)">
       <use xlink:href="#CMR17-30" transform="scale(0.996264)"/>
       <use xlink:href="#CMMI12-3a" transform="translate(45.690477 0) scale(0.996264)"/>
       <use xlink:href="#CMR17-39" transform="translate(72.787654 0) scale(0.996264)"/>
       <use xlink:href="#CMR17-35" transform="translate(118.478131 0) scale(0.996264)"/>
      </g>
     </g>
    </g>
    <g id="ytick_6">
     <g id="line2d_21">
      <path d="M 57.6 87.441233 
L 414.72 87.441233 
" clip-path="url(#pebe48fb323)" style="fill: none; stroke: #b0b0b0; stroke-width: 0.8; stroke-linecap: square"/>
     </g>
     <g id="line2d_22">
      <g>
       <use xlink:href="#m4c5fc346ea" x="57.6" y="87.441233" style="stroke: #000000; stroke-width: 0.8"/>
      </g>
     </g>
     <g id="text_12">
      <!-- $\mathdefault{1.00}$ -->
      <g transform="translate(24.58671 92.630095) scale(0.15 -0.15)">
       <use xlink:href="#CMR17-31" transform="scale(0.996264)"/>
       <use xlink:href="#CMMI12-3a" transform="translate(45.690477 0) scale(0.996264)"/>
       <use xlink:href="#CMR17-30" transform="translate(72.787654 0) scale(0.996264)"/>
       <use xlink:href="#CMR17-30" transform="translate(118.478131 0) scale(0.996264)"/>
      </g>
     </g>
    </g>
    <g id="ytick_7">
     <g id="line2d_23">
      <path d="M 57.6 44.382828 
L 414.72 44.382828 
" clip-path="url(#pebe48fb323)" style="fill: none; stroke: #b0b0b0; stroke-width: 0.8; stroke-linecap: square"/>
     </g>
     <g id="line2d_24">
      <g>
       <use xlink:href="#m4c5fc346ea" x="57.6" y="44.382828" style="stroke: #000000; stroke-width: 0.8"/>
      </g>
     </g>
     <g id="text_13">
      <!-- $\mathdefault{1.05}$ -->
      <g transform="translate(24.58671 49.571691) scale(0.15 -0.15)">
       <use xlink:href="#CMR17-31" transform="scale(0.996264)"/>
       <use xlink:href="#CMMI12-3a" transform="translate(45.690477 0) scale(0.996264)"/>
       <use xlink:href="#CMR17-30" transform="translate(72.787654 0) scale(0.996264)"/>
       <use xlink:href="#CMR17-35" transform="translate(118.478131 0) scale(0.996264)"/>
      </g>
     </g>
    </g>
    <g id="text_14">
     <!-- Score/kWh (p.u.) -->
     <g transform="translate(16.85072 231.023022) rotate(-90) scale(0.15 -0.15)">
      <defs>
       <path id="CMR17-53" d="M 2803 4351 
C 2803 4467 2797 4473 2758 4473 
C 2720 4473 2707 4447 2682 4390 
L 2490 3965 
C 2246 4320 1875 4480 1472 4480 
C 819 4480 294 3958 294 3301 
C 294 3101 339 2817 557 2546 
C 794 2250 1018 2198 1530 2063 
C 1722 2011 2042 1927 2106 1901 
C 2470 1747 2662 1360 2662 999 
C 2662 534 2336 38 1779 38 
C 1094 38 454 425 410 1328 
C 403 1431 397 1437 352 1437 
C 301 1437 294 1431 294 1302 
L 294 0 
C 294 -116 301 -122 339 -122 
C 384 -122 397 -90 486 109 
C 493 128 493 141 614 386 
C 934 -39 1472 -128 1779 -128 
C 2477 -128 2970 457 2970 1141 
C 2970 1476 2848 1734 2778 1850 
C 2509 2263 2221 2340 1914 2417 
C 1869 2437 1856 2437 1498 2527 
C 1152 2617 1005 2662 845 2836 
C 666 3036 602 3243 602 3449 
C 602 3868 934 4326 1478 4326 
C 2157 4326 2579 3842 2675 3036 
C 2694 2920 2701 2914 2746 2914 
C 2803 2914 2803 2933 2803 3043 
L 2803 4351 
z
" transform="scale(0.015625)"/>
       <path id="CMR17-63" d="M 2234 2240 
C 2112 2240 1933 2240 1933 2015 
C 1933 1836 2080 1785 2163 1785 
C 2208 1785 2394 1804 2394 2028 
C 2394 2476 1958 2816 1466 2816 
C 787 2816 211 2201 211 1379 
C 211 521 813 -64 1466 -64 
C 2259 -64 2458 676 2458 747 
C 2458 773 2451 792 2406 792 
C 2362 792 2355 786 2330 702 
C 2163 180 1798 51 1523 51 
C 1114 51 621 431 621 1385 
C 621 2358 1094 2700 1472 2700 
C 1722 2700 2093 2582 2234 2240 
z
" transform="scale(0.015625)"/>
       <path id="CMR17-6f" d="M 2758 1356 
C 2758 2176 2163 2816 1466 2816 
C 768 2816 173 2176 173 1356 
C 173 550 768 -64 1466 -64 
C 2163 -64 2758 550 2758 1356 
z
M 1466 51 
C 1165 51 909 230 762 480 
C 602 768 582 1126 582 1408 
C 582 1676 595 2009 762 2297 
C 890 2508 1139 2713 1466 2713 
C 1754 2713 1997 2553 2150 2329 
C 2349 2028 2349 1606 2349 1408 
C 2349 1158 2336 774 2163 467 
C 1984 172 1709 51 1466 51 
z
" transform="scale(0.015625)"/>
       <path id="CMR17-2f" d="M 2605 4575 
C 2637 4658 2637 4671 2637 4684 
C 2637 4761 2579 4800 2528 4800 
C 2451 4800 2426 4748 2400 4671 
L 326 -1376 
C 294 -1460 294 -1472 294 -1485 
C 294 -1562 352 -1600 403 -1600 
C 480 -1600 506 -1549 531 -1472 
L 2605 4575 
z
" transform="scale(0.015625)"/>
       <path id="CMR17-70" d="M 1408 -1114 
C 998 -1114 973 -1088 973 -834 
L 973 380 
C 1158 109 1427 -64 1766 -64 
C 2406 -64 3053 503 3053 1382 
C 3053 2196 2496 2816 1837 2816 
C 1453 2816 1139 2603 960 2345 
L 960 2816 
L 198 2745 
L 198 2577 
C 576 2577 634 2539 634 2228 
L 634 -834 
C 634 -1081 608 -1114 198 -1114 
L 198 -1280 
C 352 -1268 634 -1268 800 -1268 
C 966 -1268 1254 -1268 1408 -1280 
L 1408 -1114 
z
M 973 2015 
C 973 2106 973 2241 1222 2481 
C 1254 2506 1472 2700 1792 2700 
C 2259 2700 2643 2112 2643 1376 
C 2643 639 2234 38 1728 38 
C 1498 38 1248 148 1056 451 
C 973 594 973 632 973 736 
L 973 2015 
z
" transform="scale(0.015625)"/>
       <path id="CMR17-2e" d="M 1062 262 
C 1062 422 934 524 800 524 
C 672 524 538 422 538 262 
C 538 102 666 0 800 0 
C 928 0 1062 102 1062 262 
z
" transform="scale(0.015625)"/>
       <path id="CMR17-75" d="M 1882 2745 
L 1882 2579 
C 2259 2579 2317 2540 2317 2229 
L 2317 1053 
C 2317 510 2029 38 1555 38 
C 1030 38 986 355 986 691 
L 986 2816 
L 211 2745 
L 211 2579 
C 467 2579 640 2579 646 2320 
L 646 1079 
C 646 646 646 368 813 187 
C 896 103 1056 -64 1517 -64 
C 2061 -64 2272 400 2323 536 
L 2330 536 
L 2330 -64 
L 3091 -13 
L 3091 154 
C 2714 154 2656 193 2656 503 
L 2656 2816 
L 1882 2745 
z
" transform="scale(0.015625)"/>
      </defs>
      <use xlink:href="#CMR17-53" transform="scale(0.996264)"/>
      <use xlink:href="#CMR17-63" transform="translate(50.89537 0) scale(0.996264)"/>
      <use xlink:href="#CMR17-6f" transform="translate(91.38103 0) scale(0.996264)"/>
      <use xlink:href="#CMR17-72" transform="translate(137.071507 0) scale(0.996264)"/>
      <use xlink:href="#CMR17-65" transform="translate(172.352275 0) scale(0.996264)"/>
      <use xlink:href="#CMR17-2f" transform="translate(212.837936 0) scale(0.996264)"/>
      <use xlink:href="#CMR17-6b" transform="translate(258.528413 0) scale(0.996264)"/>
      <use xlink:href="#CMR17-57" transform="translate(306.821329 0) scale(0.996264)"/>
      <use xlink:href="#CMR17-68" transform="translate(401.917978 0) scale(0.996264)"/>
      <use xlink:href="#CMR17-28" transform="translate(482.889315 0) scale(0.996264)"/>
      <use xlink:href="#CMR17-70" transform="translate(518.170082 0) scale(0.996264)"/>
      <use xlink:href="#CMR17-2e" transform="translate(569.065452 0) scale(0.996264)"/>
      <use xlink:href="#CMR17-75" transform="translate(593.936511 0) scale(0.996264)"/>
      <use xlink:href="#CMR17-2e" transform="translate(644.83188 0) scale(0.996264)"/>
      <use xlink:href="#CMR17-29" transform="translate(669.702939 0) scale(0.996264)"/>
     </g>
    </g>
   </g>
   <g id="line2d_25">
    <path d="M 92.071819 87.441233 
L 94.591762 88.413797 
L 96.996794 89.036693 
L 99.296861 89.357322 
L 101.500666 89.414904 
L 103.615869 89.242183 
L 105.649249 88.866714 
L 107.606834 88.31186 
L 109.494006 87.597564 
L 111.315596 86.740954 
L 113.075948 85.756826 
L 114.778993 84.658028 
L 116.428291 83.455773 
L 118.027081 82.159892 
L 119.578318 80.779037 
L 121.084704 79.320859 
L 122.548718 77.792143 
L 123.972637 76.198932 
L 125.358562 74.546622 
L 126.708431 72.840049 
L 128.024037 71.083558 
L 129.307045 69.281065 
L 130.558999 67.436104 
L 131.781338 65.551882 
L 132.975401 63.631303 
L 134.142441 61.677016 
L 135.283628 59.69143 
L 136.400057 57.676749 
L 137.492757 55.634989 
L 138.562693 53.568 
" clip-path="url(#pebe48fb323)" style="fill: none; stroke: #1f77b4; stroke-width: 1.5; stroke-linecap: square"/>
   </g>
   <g id="line2d_26">
    <path d="M 92.071819 87.441233 
L 95.806108 91.746442 
L 99.374071 95.371957 
L 102.789356 98.419846 
L 106.06401 100.972715 
L 109.208713 103.098142 
L 112.232983 104.851956 
L 115.145331 106.28069 
L 117.953404 107.423441 
L 120.664098 108.313303 
L 123.283647 108.978478 
L 125.817711 109.44315 
L 128.271442 109.728176 
L 130.649543 109.851641 
L 132.956319 109.829306 
L 135.19572 109.674966 
L 137.371378 109.400752 
L 139.486644 109.017371 
L 141.544612 108.534312 
L 143.548145 107.960014 
L 145.4999 107.302004 
L 147.402347 106.567022 
L 149.257783 105.761118 
L 151.068349 104.889738 
L 152.836047 103.957798 
L 154.562748 102.969748 
L 156.250202 101.929624 
L 157.900055 100.841096 
L 159.513849 99.707508 
L 161.093036 98.531913 
" clip-path="url(#pebe48fb323)" style="fill: none; stroke: #ff7f0e; stroke-width: 1.5; stroke-linecap: square"/>
   </g>
   <g id="line2d_27">
    <path d="M 92.071819 87.441233 
L 96.920999 94.750726 
L 101.558629 100.994319 
L 106.000941 106.347662 
L 110.262428 110.949876 
L 114.356074 114.912572 
L 118.293549 118.326329 
L 122.08538 121.265427 
L 125.741091 123.791351 
L 129.269322 125.955437 
L 132.677937 127.800879 
L 135.97411 129.364282 
L 139.164403 130.676876 
L 142.254833 131.765461 
L 145.25093 132.653173 
L 148.157787 133.360083 
L 150.980105 133.903694 
L 153.722229 134.299334 
L 156.388188 134.560486 
L 158.98172 134.699056 
L 161.506301 134.725601 
L 163.965166 134.649507 
L 166.361337 134.479155 
L 168.697634 134.222046 
L 170.976695 133.884917 
L 173.200992 133.473834 
L 175.372845 132.994273 
L 177.494433 132.451192 
L 179.567802 131.849089 
L 181.594884 131.192053 
" clip-path="url(#pebe48fb323)" style="fill: none; stroke: #2ca02c; stroke-width: 1.5; stroke-linecap: square"/>
   </g>
   <g id="line2d_28">
    <path d="M 92.071819 87.441233 
L 97.70264 96.826131 
L 103.091232 104.829964 
L 108.255106 111.69474 
L 113.210068 117.609196 
L 117.97042 122.722664 
L 122.549122 127.15483 
L 126.957952 131.002729 
L 131.207632 134.345856 
L 135.307948 137.249951 
L 139.267848 139.769849 
L 143.095534 141.951645 
L 146.79854 143.834371 
L 150.383798 145.451295 
L 153.857699 146.830946 
L 157.226149 147.997928 
L 160.494612 148.973573 
L 163.668154 149.776466 
L 166.751481 150.422872 
L 169.748966 150.927089 
L 172.664688 151.301735 
L 175.502447 151.557986 
L 178.265799 151.705779 
L 180.958065 151.753977 
L 183.582361 151.71051 
L 186.141607 151.582495 
L 188.638547 151.376337 
L 191.075759 151.097817 
L 193.455673 150.752165 
L 195.780575 150.344122 
" clip-path="url(#pebe48fb323)" style="fill: none; stroke: #d62728; stroke-width: 1.5; stroke-linecap: square"/>
   </g>
   <g id="line2d_29">
    <path d="M 182.169214 235.256621 
L 185.34166 234.716574 
L 188.354206 234.043773 
L 191.221419 233.255551 
L 193.95598 232.36636 
L 196.568996 231.388348 
L 199.070251 230.331804 
L 201.468407 229.205503 
L 203.771166 228.016978 
L 205.98541 226.77273 
L 208.11731 225.478401 
L 210.172422 224.138914 
L 212.155765 222.758581 
L 214.071889 221.341197 
L 215.924928 219.890118 
L 217.718653 218.408315 
L 219.456512 216.898438 
L 221.141664 215.362849 
L 222.777011 213.803666 
L 224.365226 212.222791 
L 225.908776 210.621938 
L 227.409941 209.002654 
L 228.870836 207.36634 
L 230.293421 205.714268 
L 231.67952 204.047594 
L 233.030832 202.367374 
L 234.348942 200.674569 
L 235.63533 198.970061 
L 236.891383 197.254657 
L 238.118398 195.5291 
" clip-path="url(#pebe48fb323)" style="fill: none; stroke: #1f77b4; stroke-width: 1.5; stroke-linecap: square"/>
   </g>
   <g id="line2d_30">
    <path d="M 182.169214 235.256621 
L 186.864606 236.135165 
L 191.317433 236.757778 
L 195.549314 237.160639 
L 199.579165 237.373403 
L 203.423622 237.420609 
L 207.097393 237.322743 
L 210.613544 237.097048 
L 213.983729 236.758138 
L 217.218386 236.318489 
L 220.3269 235.78881 
L 223.317739 235.178353 
L 226.198566 234.495149 
L 228.97634 233.746206 
L 231.657397 232.937665 
L 234.24752 232.074933 
L 236.752005 231.162788 
L 239.175711 230.205467 
L 241.523106 229.206743 
L 243.798308 228.169985 
L 246.00512 227.098213 
L 248.147062 225.994139 
L 250.227397 224.860208 
L 252.249154 223.698628 
L 254.215154 222.511399 
L 256.128022 221.300337 
L 257.990209 220.067094 
L 259.804007 218.813177 
L 261.57156 217.539963 
L 263.294877 216.248713 
" clip-path="url(#pebe48fb323)" style="fill: none; stroke: #ff7f0e; stroke-width: 1.5; stroke-linecap: square"/>
   </g>
   <g id="line2d_31">
    <path d="M 182.169214 235.256621 
L 188.259492 237.417233 
L 194.027736 239.177733 
L 199.501807 240.599261 
L 204.706242 241.731079 
L 209.662751 242.613329 
L 214.390626 243.27905 
L 218.907083 243.755687 
L 223.227542 244.066225 
L 227.365863 244.230065 
L 231.334546 244.263695 
L 235.144904 244.181217 
L 238.807199 243.994765 
L 242.330771 243.714841 
L 245.724142 243.350572 
L 248.995105 242.909938 
L 252.150806 242.39994 
L 255.197812 241.826749 
L 258.142168 241.195825 
L 260.989453 240.512017 
L 263.744824 239.779645 
L 266.413058 239.002571 
L 268.998586 238.18426 
L 271.505526 237.327825 
L 273.937712 236.436076 
L 276.298715 235.511554 
L 278.591874 234.55656 
L 280.820305 233.573186 
L 282.98693 232.563338 
L 285.094484 231.528753 
" clip-path="url(#pebe48fb323)" style="fill: none; stroke: #2ca02c; stroke-width: 1.5; stroke-linecap: square"/>
   </g>
   <g id="line2d_32">
    <path d="M 182.169214 235.256621 
L 189.235536 238.304708 
L 195.921944 240.834805 
L 202.26045 242.930398 
L 208.27942 244.657932 
L 214.00409 246.070947 
L 219.456991 247.213065 
L 224.65831 248.120185 
L 229.626191 248.822119 
L 234.376997 249.343829 
L 238.925526 249.706376 
L 243.285198 249.927654 
L 247.468218 250.022963 
L 251.485715 250.005463 
L 255.347857 249.886535 
L 259.063959 249.676075 
L 262.642573 249.382725 
L 266.091565 249.014068 
L 269.418187 248.576784 
L 272.629134 248.076781 
L 275.730602 247.519306 
L 278.728333 246.909031 
L 281.627656 246.250132 
L 284.433526 245.546353 
L 287.150558 244.801061 
L 289.783055 244.017291 
L 292.335036 243.197787 
L 294.810256 242.345034 
L 297.212235 241.461293 
L 299.544271 240.54862 
" clip-path="url(#pebe48fb323)" style="fill: none; stroke: #d62728; stroke-width: 1.5; stroke-linecap: square"/>
   </g>
   <g id="line2d_33">
    <path d="M 266.670191 292.760139 
L 269.988818 291.83742 
L 273.121232 290.84476 
L 276.08528 289.791104 
L 278.896425 288.683933 
L 281.568148 287.529556 
L 284.112268 286.333329 
L 286.539203 285.099833 
L 288.858181 283.833006 
L 291.077411 282.536258 
L 293.204227 281.212553 
L 295.245205 279.864483 
L 297.206266 278.494321 
L 299.092757 277.104073 
L 300.90952 275.695513 
L 302.660958 274.270217 
L 304.35108 272.829592 
L 305.983551 271.374892 
L 307.561726 269.907246 
L 309.088686 268.427667 
L 310.567265 266.93707 
L 312.000077 265.436282 
L 313.389536 263.926053 
L 314.737877 262.407064 
L 316.047172 260.879935 
L 317.319347 259.345232 
L 318.556193 257.803474 
L 319.759379 256.255133 
L 320.930462 254.700646 
L 322.0709 253.140412 
" clip-path="url(#pebe48fb323)" style="fill: none; stroke: #1f77b4; stroke-width: 1.5; stroke-linecap: square"/>
   </g>
   <g id="line2d_34">
    <path d="M 266.670191 292.760139 
L 271.574676 292.603267 
L 276.184244 292.311687 
L 280.527245 291.903833 
L 284.628299 291.394898 
L 288.508908 290.797517 
L 292.187956 290.12229 
L 295.682107 289.378174 
L 299.006136 288.572795 
L 302.173196 287.712684 
L 305.195046 286.803469 
L 308.082234 285.850029 
L 310.844258 284.85661 
L 313.489693 283.826931 
L 316.02631 282.764257 
L 318.461167 281.671474 
L 320.800695 280.551136 
L 323.050766 279.405514 
L 325.216755 278.236638 
L 327.303594 277.04632 
L 329.315819 275.836192 
L 331.257608 274.607721 
L 333.132818 273.362231 
L 334.945017 272.100923 
L 336.69751 270.824886 
L 338.393365 269.535109 
L 340.035433 268.232496 
L 341.62637 266.917873 
L 343.16865 265.591993 
L 344.664585 264.255551 
" clip-path="url(#pebe48fb323)" style="fill: none; stroke: #ff7f0e; stroke-width: 1.5; stroke-linecap: square"/>
   </g>
   <g id="line2d_35">
    <path d="M 266.670191 292.760139 
L 273.023031 293.295746 
L 278.969983 293.620705 
L 284.549894 293.765909 
L 289.796635 293.756447 
L 294.739887 293.612903 
L 299.405789 293.352333 
L 303.817465 292.988988 
L 307.995456 292.534872 
L 311.958078 292.000167 
L 315.721727 291.39357 
L 319.301128 290.722551 
L 322.709546 289.993569 
L 325.958972 289.212233 
L 329.06027 288.383438 
L 332.023313 287.511481 
L 334.857097 286.600142 
L 337.569834 285.652768 
L 340.169042 284.672327 
L 342.661618 283.661464 
L 345.053898 282.622544 
L 347.351718 281.557686 
L 349.560465 280.468797 
L 351.685114 279.357596 
L 353.730274 278.225639 
L 355.700216 277.074336 
L 357.59891 275.904969 
L 359.430045 274.718704 
L 361.197061 273.516608 
L 362.903163 272.299658 
" clip-path="url(#pebe48fb323)" style="fill: none; stroke: #2ca02c; stroke-width: 1.5; stroke-linecap: square"/>
   </g>
   <g id="line2d_36">
    <path d="M 266.670191 292.760139 
L 274.034123 293.775274 
L 280.907882 294.517562 
L 287.33809 295.029005 
L 293.365551 295.343344 
L 299.026143 295.488 
L 304.351545 295.485486 
L 309.369846 295.354462 
L 314.106046 295.110528 
L 318.582475 294.766823 
L 322.819144 294.3345 
L 326.834047 293.823082 
L 330.643407 293.240757 
L 334.261897 292.594597 
L 337.702818 291.89075 
L 340.978264 291.134583 
L 344.099252 290.330802 
L 347.075843 289.483556 
L 349.917248 288.596512 
L 352.631911 287.672926 
L 355.227593 286.7157 
L 357.711438 285.727428 
L 360.090033 284.710437 
L 362.369466 283.66682 
L 364.555368 282.598467 
L 366.652957 281.507086 
L 368.667079 280.394227 
L 370.602234 279.261299 
L 372.462613 278.109588 
L 374.252121 276.940268 
" clip-path="url(#pebe48fb323)" style="fill: none; stroke: #d62728; stroke-width: 1.5; stroke-linecap: square"/>
   </g>
   <g id="line2d_37">
    <path d="M 92.071819 87.441233 
L 93.835438 91.191328 
L 95.599058 94.907215 
L 97.362678 98.588895 
L 99.126298 102.236368 
L 100.889918 105.849632 
L 102.653538 109.42869 
L 104.417158 112.97354 
L 106.180778 116.484182 
L 107.944398 119.960617 
L 109.708018 123.402845 
L 111.471638 126.810865 
L 113.235258 130.184678 
L 114.998878 133.524283 
L 116.762497 136.82968 
L 118.526117 140.10087 
L 120.289737 143.337853 
L 122.053357 146.540628 
L 123.816977 149.709196 
L 125.580597 152.843556 
L 127.344217 155.943709 
L 129.107837 159.009654 
L 130.871457 162.041392 
L 132.635077 165.038922 
L 134.398697 168.002245 
L 136.162317 170.93136 
L 137.925937 173.826268 
L 139.689556 176.686969 
L 141.453176 179.513462 
L 143.216796 182.305747 
L 144.980416 185.063825 
L 146.744036 187.787695 
L 148.507656 190.477358 
L 150.271276 193.132814 
L 152.034896 195.754062 
L 153.798516 198.341102 
L 155.562136 200.893935 
L 157.325756 203.412561 
L 159.089376 205.896979 
L 160.852995 208.34719 
L 162.616615 210.763193 
L 164.380235 213.144989 
L 166.143855 215.492577 
L 167.907475 217.805957 
L 169.671095 220.085131 
L 171.434715 222.330096 
L 173.198335 224.540855 
L 174.961955 226.717405 
L 176.725575 228.859749 
L 178.489195 230.967885 
L 180.252815 233.041813 
L 182.016435 235.081534 
L 183.780054 237.087047 
L 185.543674 239.058353 
L 187.307294 240.995451 
L 189.070914 242.898342 
L 190.834534 244.767026 
L 192.598154 246.601502 
L 194.361774 248.40177 
L 196.125394 250.167831 
L 197.889014 251.899685 
L 199.652634 253.597331 
L 201.416254 255.26077 
L 203.179874 256.890001 
L 204.943494 258.485024 
L 206.707113 260.04584 
L 208.470733 261.572449 
L 210.234353 263.06485 
L 211.997973 264.523044 
L 213.761593 265.94703 
L 215.525213 267.336809 
L 217.288833 268.69238 
L 219.052453 270.013744 
L 220.816073 271.3009 
L 222.579693 272.553849 
L 224.343313 273.77259 
L 226.106933 274.957124 
L 227.870553 276.107451 
L 229.634172 277.22357 
L 231.397792 278.305481 
L 233.161412 279.353185 
L 234.925032 280.366681 
L 236.688652 281.34597 
L 238.452272 282.291052 
L 240.215892 283.201926 
L 241.979512 284.078593 
L 243.743132 284.921052 
L 245.506752 285.729303 
L 247.270372 286.503347 
L 249.033992 287.243184 
L 250.797612 287.948813 
L 252.561231 288.620235 
L 254.324851 289.257449 
L 256.088471 289.860456 
L 257.852091 290.429255 
L 259.615711 290.963847 
L 261.379331 291.464231 
L 263.142951 291.930408 
L 264.906571 292.362377 
L 266.670191 292.760139 
" clip-path="url(#pebe48fb323)" style="fill: none; stroke-dasharray: 5.55,2.4; stroke-dashoffset: 0; stroke: #808080; stroke-width: 1.5"/>
   </g>
   <g id="line2d_38">
    <path d="M 138.562693 54.681038 
L 140.943394 59.548846 
L 143.324095 64.331288 
L 145.704796 69.029355 
L 148.085498 73.644036 
L 150.466199 78.176323 
L 152.8469 82.627206 
L 155.227602 86.997675 
L 157.608303 91.288722 
L 159.989004 95.501336 
L 162.369706 99.636509 
L 164.750407 103.69523 
L 167.131108 107.678491 
L 169.511809 111.587282 
L 171.892511 115.422593 
L 174.273212 119.185415 
L 176.653913 122.876739 
L 179.034615 126.497554 
L 181.415316 130.048853 
L 183.796017 133.531624 
L 186.176719 136.946859 
L 188.55742 140.295549 
L 190.938121 143.578683 
L 193.318822 146.797253 
L 195.699524 149.952248 
L 198.080225 153.04466 
L 200.460926 156.07548 
L 202.841628 159.045696 
L 205.222329 161.956301 
L 207.60303 164.808284 
L 209.983731 167.602637 
L 212.364433 170.340349 
L 214.745134 173.022412 
L 217.125835 175.649815 
L 219.506537 178.22355 
L 221.887238 180.744607 
L 224.267939 183.213977 
L 226.648641 185.632649 
L 229.029342 188.001615 
L 231.410043 190.321865 
L 233.790744 192.59439 
L 236.171446 194.82018 
L 238.552147 197.000226 
L 240.932848 199.135518 
L 243.31355 201.227047 
L 245.694251 203.275803 
L 248.074952 205.282778 
L 250.455654 207.248961 
L 252.836355 209.175343 
L 255.217056 211.062914 
L 257.597757 212.912666 
L 259.978459 214.725588 
L 262.35916 216.502672 
L 264.739861 218.244908 
L 267.120563 219.953286 
L 269.501264 221.628796 
L 271.881965 223.272431 
L 274.262667 224.885179 
L 276.643368 226.468032 
L 279.024069 228.02198 
L 281.40477 229.548013 
L 283.785472 231.047123 
L 286.166173 232.520299 
L 288.546874 233.968533 
L 290.927576 235.392815 
L 293.308277 236.794134 
L 295.688978 238.173483 
L 298.06968 239.531852 
L 300.450381 240.87023 
L 302.831082 242.189609 
L 305.211783 243.490979 
L 307.592485 244.775331 
L 309.973186 246.043655 
L 312.353887 247.296942 
L 314.734589 248.536182 
L 317.11529 249.762366 
L 319.495991 250.976484 
L 321.876693 252.179527 
L 324.257394 253.372486 
L 326.638095 254.556351 
L 329.018796 255.732112 
L 331.399498 256.900761 
L 333.780199 258.063287 
L 336.1609 259.220682 
L 338.541602 260.373935 
L 340.922303 261.524038 
L 343.303004 262.67198 
L 345.683705 263.818753 
L 348.064407 264.965347 
L 350.445108 266.112753 
L 352.825809 267.26196 
L 355.206511 268.41396 
L 357.587212 269.569744 
L 359.967913 270.730301 
L 362.348615 271.896622 
L 364.729316 273.069699 
L 367.110017 274.25052 
L 369.490718 275.440078 
L 371.87142 276.639362 
L 374.252121 277.849362 
" clip-path="url(#pebe48fb323)" style="fill: none; stroke-dasharray: 5.55,2.4; stroke-dashoffset: 0; stroke: #808080; stroke-width: 1.5"/>
   </g>
   <g id="line2d_39">
    <path d="M 112.495718 91.976876 
L 114.606189 95.667419 
L 116.716661 99.323866 
L 118.827133 102.946217 
L 120.937604 106.534472 
L 123.048076 110.08863 
L 125.158548 113.608692 
L 127.269019 117.094658 
L 129.379491 120.546527 
L 131.489963 123.964301 
L 133.600434 127.347978 
L 135.710906 130.697559 
L 137.821378 134.013043 
L 139.931849 137.294432 
L 142.042321 140.541724 
L 144.152793 143.75492 
L 146.263264 146.93402 
L 148.373736 150.079023 
L 150.484208 153.18993 
L 152.594679 156.266741 
L 154.705151 159.309456 
L 156.815623 162.318074 
L 158.926094 165.292597 
L 161.036566 168.233023 
L 163.147038 171.139353 
L 165.257509 174.011586 
L 167.367981 176.849723 
L 169.478452 179.653765 
L 171.588924 182.423709 
L 173.699396 185.159558 
L 175.809867 187.86131 
L 177.920339 190.528967 
L 180.030811 193.162526 
L 182.141282 195.76199 
L 184.251754 198.327358 
L 186.362226 200.858629 
L 188.472697 203.355804 
L 190.583169 205.818882 
L 192.693641 208.247865 
L 194.804112 210.642751 
L 196.914584 213.003541 
L 199.025056 215.330235 
L 201.135527 217.622833 
L 203.245999 219.881334 
L 205.356471 222.105739 
L 207.466942 224.296048 
L 209.577414 226.45226 
L 211.687886 228.574377 
L 213.798357 230.662397 
L 215.908829 232.716321 
L 218.019301 234.736148 
L 220.129772 236.72188 
L 222.240244 238.673515 
L 224.350716 240.591054 
L 226.461187 242.474497 
L 228.571659 244.323843 
L 230.682131 246.139093 
L 232.792602 247.920247 
L 234.903074 249.667305 
L 237.013546 251.380267 
L 239.124017 253.059132 
L 241.234489 254.703901 
L 243.34496 256.314574 
L 245.455432 257.891151 
L 247.565904 259.433631 
L 249.676375 260.942015 
L 251.786847 262.416303 
L 253.897319 263.856495 
L 256.00779 265.26259 
L 258.118262 266.634589 
L 260.228734 267.972492 
L 262.339205 269.276299 
L 264.449677 270.546009 
L 266.560149 271.781624 
L 268.67062 272.983142 
L 270.781092 274.150563 
L 272.891564 275.283889 
L 275.002035 276.383118 
L 277.112507 277.448251 
L 279.222979 278.479288 
L 281.33345 279.476229 
L 283.443922 280.439073 
L 285.554394 281.367821 
L 287.664865 282.262473 
L 289.775337 283.123029 
L 291.885809 283.949488 
L 293.99628 284.741851 
L 296.106752 285.500118 
L 298.217224 286.224289 
L 300.327695 286.914363 
L 302.438167 287.570341 
L 304.548639 288.192223 
L 306.65911 288.780009 
L 308.769582 289.333699 
L 310.880054 289.853292 
L 312.990525 290.338789 
L 315.100997 290.79019 
L 317.211468 291.207494 
L 319.32194 291.590703 
L 321.432412 291.939815 
" clip-path="url(#pebe48fb323)" style="fill: none; stroke-dasharray: 5.55,2.4; stroke-dashoffset: 0; stroke: #808080; stroke-width: 1.5"/>
   </g>
   <g id="line2d_40">
    <path d="M 127.150688 79.520921 
L 129.437146 83.300451 
L 131.723604 87.044972 
L 134.010061 90.754482 
L 136.296519 94.428983 
L 138.582977 98.068473 
L 140.869434 101.672954 
L 143.155892 105.242424 
L 145.442349 108.776885 
L 147.728807 112.276335 
L 150.015265 115.740775 
L 152.301722 119.170206 
L 154.58818 122.564626 
L 156.874638 125.924036 
L 159.161095 129.248437 
L 161.447553 132.537827 
L 163.734011 135.792207 
L 166.020468 139.011577 
L 168.306926 142.195937 
L 170.593383 145.345288 
L 172.879841 148.459628 
L 175.166299 151.538958 
L 177.452756 154.583278 
L 179.739214 157.592588 
L 182.025672 160.566888 
L 184.312129 163.506178 
L 186.598587 166.410458 
L 188.885044 169.279728 
L 191.171502 172.113988 
L 193.45796 174.913237 
L 195.744417 177.677477 
L 198.030875 180.406707 
L 200.317333 183.100927 
L 202.60379 185.760137 
L 204.890248 188.384336 
L 207.176706 190.973526 
L 209.463163 193.527706 
L 211.749621 196.046876 
L 214.036078 198.531035 
L 216.322536 200.980185 
L 218.608994 203.394324 
L 220.895451 205.773454 
L 223.181909 208.117574 
L 225.468367 210.426683 
L 227.754824 212.700783 
L 230.041282 214.939872 
L 232.327739 217.143951 
L 234.614197 219.313021 
L 236.900655 221.44708 
L 239.187112 223.54613 
L 241.47357 225.610169 
L 243.760028 227.639198 
L 246.046485 229.633218 
L 248.332943 231.592227 
L 250.619401 233.516226 
L 252.905858 235.405215 
L 255.192316 237.259194 
L 257.478773 239.078164 
L 259.765231 240.862123 
L 262.051689 242.611072 
L 264.338146 244.325011 
L 266.624604 246.00394 
L 268.911062 247.647859 
L 271.197519 249.256768 
L 273.483977 250.830667 
L 275.770434 252.369556 
L 278.056892 253.873435 
L 280.34335 255.342304 
L 282.629807 256.776163 
L 284.916265 258.175012 
L 287.202723 259.53885 
L 289.48918 260.867679 
L 291.775638 262.161498 
L 294.062096 263.420307 
L 296.348553 264.644106 
L 298.635011 265.832894 
L 300.921468 266.986673 
L 303.207926 268.105442 
L 305.494384 269.1892 
L 307.780841 270.237949 
L 310.067299 271.251687 
L 312.353757 272.230416 
L 314.640214 273.174134 
L 316.926672 274.082843 
L 319.213129 274.956541 
L 321.499587 275.79523 
L 323.786045 276.598908 
L 326.072502 277.367577 
L 328.35896 278.101235 
L 330.645418 278.799883 
L 332.931875 279.463522 
L 335.218333 280.09215 
L 337.50479 280.685768 
L 339.791248 281.244377 
L 342.077706 281.767975 
L 344.364163 282.256563 
L 346.650621 282.710141 
L 348.937079 283.128709 
L 351.223536 283.512267 
L 353.509994 283.860816 
" clip-path="url(#pebe48fb323)" style="fill: none; stroke-dasharray: 5.55,2.4; stroke-dashoffset: 0; stroke: #808080; stroke-width: 1.5"/>
   </g>
   <g id="patch_3">
    <path d="M 57.6 307.584 
L 57.6 41.472 
" style="fill: none; stroke: #000000; stroke-width: 0.8; stroke-linejoin: miter; stroke-linecap: square"/>
   </g>
   <g id="patch_4">
    <path d="M 414.72 307.584 
L 414.72 41.472 
" style="fill: none; stroke: #000000; stroke-width: 0.8; stroke-linejoin: miter; stroke-linecap: square"/>
   </g>
   <g id="patch_5">
    <path d="M 57.6 307.584 
L 414.72 307.584 
" style="fill: none; stroke: #000000; stroke-width: 0.8; stroke-linejoin: miter; stroke-linecap: square"/>
   </g>
   <g id="patch_6">
    <path d="M 57.6 41.472 
L 414.72 41.472 
" style="fill: none; stroke: #000000; stroke-width: 0.8; stroke-linejoin: miter; stroke-linecap: square"/>
   </g>
   <g id="legend_1">
    <g id="patch_7">
     <path d="M 306.300037 137.094979 
L 404.22 137.094979 
Q 407.22 137.094979 407.22 134.094979 
L 407.22 51.972 
Q 407.22 48.972 404.22 48.972 
L 306.300037 48.972 
Q 303.300037 48.972 303.300037 51.972 
L 303.300037 134.094979 
Q 303.300037 137.094979 306.300037 137.094979 
z
" style="fill: #ffffff; opacity: 0.8; stroke: #cccccc; stroke-linejoin: miter"/>
    </g>
    <g id="line2d_41">
     <path d="M 309.300037 60.222 
L 324.300037 60.222 
L 339.300037 60.222 
" style="fill: none; stroke: #1f77b4; stroke-width: 1.5; stroke-linecap: square"/>
    </g>
    <g id="text_15">
     <!-- $z_0$=0.01 -->
     <g transform="translate(351.300037 65.472) scale(0.15 -0.15)">
      <defs>
       <path id="CMMI12-7a" d="M 813 486 
C 1088 809 1312 1015 1632 1313 
C 2016 1657 2182 1822 2272 1922 
C 2720 2371 2944 2713 2944 2764 
C 2944 2816 2893 2816 2880 2816 
C 2835 2816 2822 2790 2790 2745 
C 2630 2470 2477 2368 2310 2368 
C 2176 2368 2106 2403 1984 2547 
C 1850 2707 1741 2816 1555 2816 
C 1088 2816 806 2265 806 2127 
C 806 2107 813 2067 870 2067 
C 922 2067 928 2094 947 2140 
C 1056 2387 1363 2415 1485 2415 
C 1619 2415 1747 2387 1882 2342 
C 2125 2239 2227 2239 2291 2239 
C 2336 2239 2362 2239 2394 2246 
C 2182 1988 1837 1670 1549 1399 
L 902 783 
C 512 380 275 32 275 -13 
C 275 -52 307 -64 346 -64 
C 384 -64 390 -58 435 19 
C 538 179 742 384 979 384 
C 1114 384 1178 356 1306 211 
C 1427 70 1536 -64 1741 -64 
C 2368 -64 2726 723 2726 876 
C 2726 902 2720 942 2656 942 
C 2605 942 2598 915 2579 849 
C 2438 460 2061 336 1811 336 
C 1677 336 1549 364 1414 409 
C 1158 512 1088 512 1005 512 
C 941 512 870 512 813 486 
z
" transform="scale(0.015625)"/>
       <path id="CMR17-3d" d="M 4115 2048 
C 4211 2048 4307 2048 4307 2156 
C 4307 2272 4198 2272 4090 2272 
L 512 2272 
C 403 2272 294 2272 294 2156 
C 294 2048 390 2048 486 2048 
L 4115 2048 
z
M 4090 927 
C 4198 927 4307 927 4307 1043 
C 4307 1152 4211 1152 4115 1152 
L 486 1152 
C 390 1152 294 1152 294 1043 
C 294 927 403 927 512 927 
L 4090 927 
z
" transform="scale(0.015625)"/>
      </defs>
      <use xlink:href="#CMMI12-7a" transform="scale(0.996264)"/>
      <use xlink:href="#CMR17-30" transform="translate(45.315753 -14.943915) scale(0.697382)"/>
      <use xlink:href="#CMR17-3d" transform="translate(77.797067 0) scale(0.996264)"/>
      <use xlink:href="#CMR17-30" transform="translate(149.511856 0) scale(0.996264)"/>
      <use xlink:href="#CMR17-2e" transform="translate(195.202333 0) scale(0.996264)"/>
      <use xlink:href="#CMR17-30" transform="translate(220.073391 0) scale(0.996264)"/>
      <use xlink:href="#CMR17-31" transform="translate(265.763868 0) scale(0.996264)"/>
     </g>
    </g>
    <g id="line2d_42">
     <path d="M 309.300037 81.127745 
L 324.300037 81.127745 
L 339.300037 81.127745 
" style="fill: none; stroke: #ff7f0e; stroke-width: 1.5; stroke-linecap: square"/>
    </g>
    <g id="text_16">
     <!-- $z_0$=0.1 -->
     <g transform="translate(351.300037 86.377745) scale(0.15 -0.15)">
      <use xlink:href="#CMMI12-7a" transform="scale(0.996264)"/>
      <use xlink:href="#CMR17-30" transform="translate(45.315753 -14.943915) scale(0.697382)"/>
      <use xlink:href="#CMR17-3d" transform="translate(77.797067 0) scale(0.996264)"/>
      <use xlink:href="#CMR17-30" transform="translate(149.511856 0) scale(0.996264)"/>
      <use xlink:href="#CMR17-2e" transform="translate(195.202333 0) scale(0.996264)"/>
      <use xlink:href="#CMR17-31" transform="translate(220.073391 0) scale(0.996264)"/>
     </g>
    </g>
    <g id="line2d_43">
     <path d="M 309.300037 102.033489 
L 324.300037 102.033489 
L 339.300037 102.033489 
" style="fill: none; stroke: #2ca02c; stroke-width: 1.5; stroke-linecap: square"/>
    </g>
    <g id="text_17">
     <!-- $z_0$=0.3 -->
     <g transform="translate(351.300037 107.283489) scale(0.15 -0.15)">
      <use xlink:href="#CMMI12-7a" transform="scale(0.996264)"/>
      <use xlink:href="#CMR17-30" transform="translate(45.315753 -14.943915) scale(0.697382)"/>
      <use xlink:href="#CMR17-3d" transform="translate(77.797067 0) scale(0.996264)"/>
      <use xlink:href="#CMR17-30" transform="translate(149.511856 0) scale(0.996264)"/>
      <use xlink:href="#CMR17-2e" transform="translate(195.202333 0) scale(0.996264)"/>
      <use xlink:href="#CMR17-33" transform="translate(220.073391 0) scale(0.996264)"/>
     </g>
    </g>
    <g id="line2d_44">
     <path d="M 309.300037 122.939234 
L 324.300037 122.939234 
L 339.300037 122.939234 
" style="fill: none; stroke: #d62728; stroke-width: 1.5; stroke-linecap: square"/>
    </g>
    <g id="text_18">
     <!-- $z_0$=0.5 -->
     <g transform="translate(351.300037 128.189234) scale(0.15 -0.15)">
      <use xlink:href="#CMMI12-7a" transform="scale(0.996264)"/>
      <use xlink:href="#CMR17-30" transform="translate(45.315753 -14.943915) scale(0.697382)"/>
      <use xlink:href="#CMR17-3d" transform="translate(77.797067 0) scale(0.996264)"/>
      <use xlink:href="#CMR17-30" transform="translate(149.511856 0) scale(0.996264)"/>
      <use xlink:href="#CMR17-2e" transform="translate(195.202333 0) scale(0.996264)"/>
      <use xlink:href="#CMR17-35" transform="translate(220.073391 0) scale(0.996264)"/>
     </g>
    </g>
   </g>
  </g>
 </g>
 <defs>
  <clipPath id="pebe48fb323">
   <rect x="57.6" y="41.472" width="357.12" height="266.112"/>
  </clipPath>
 </defs>
</svg>
