<?xml version="1.0" encoding="utf-8" standalone="no"?>
<!DOCTYPE svg PUBLIC "-//W3C//DTD SVG 1.1//EN"
  "http://www.w3.org/Graphics/SVG/1.1/DTD/svg11.dtd">
<svg xmlns:xlink="http://www.w3.org/1999/xlink" width="460.8pt" height="345.6pt" viewBox="0 0 460.8 345.6" xmlns="http://www.w3.org/2000/svg" version="1.1">
 <metadata>
  <rdf:RDF xmlns:dc="http://purl.org/dc/elements/1.1/" xmlns:cc="http://creativecommons.org/ns#" xmlns:rdf="http://www.w3.org/1999/02/22-rdf-syntax-ns#">
   <cc:Work>
    <dc:type rdf:resource="http://purl.org/dc/dcmitype/StillImage"/>
    <dc:date>2024-07-10T15:13:07.461106</dc:date>
    <dc:format>image/svg+xml</dc:format>
    <dc:creator>
     <cc:Agent>
      <dc:title>Matplotlib v3.8.1, https://matplotlib.org/</dc:title>
     </cc:Agent>
    </dc:creator>
   </cc:Work>
  </rdf:RDF>
 </metadata>
 <defs>
  <style type="text/css">*{stroke-linejoin: round; stroke-linecap: butt}</style>
 </defs>
 <g id="figure_1">
  <g id="patch_1">
   <path d="M 0 345.6 
L 460.8 345.6 
L 460.8 0 
L 0 0 
z
" style="fill: #ffffff"/>
  </g>
  <g id="axes_1">
   <g id="patch_2">
    <path d="M 57.6 307.584 
L 414.72 307.584 
L 414.72 41.472 
L 57.6 41.472 
z
" style="fill: #ffffff"/>
   </g>
   <g id="matplotlib.axis_1">
    <g id="xtick_1">
     <g id="line2d_1">
      <path d="M 57.6 307.584 
L 57.6 41.472 
" clip-path="url(#p4b66368660)" style="fill: none; stroke: #b0b0b0; stroke-width: 0.8; stroke-linecap: square"/>
     </g>
     <g id="line2d_2">
      <defs>
       <path id="m8311880d2a" d="M 0 0 
L 0 3.5 
" style="stroke: #000000; stroke-width: 0.8"/>
      </defs>
      <g>
       <use xlink:href="#m8311880d2a" x="57.6" y="307.584" style="stroke: #000000; stroke-width: 0.8"/>
      </g>
     </g>
     <g id="text_1">
      <!-- $\mathdefault{1}$ -->
      <g transform="translate(53.941881 324.961725) scale(0.15 -0.15)">
       <defs>
        <path id="CMR17-31" d="M 1702 4083 
C 1702 4217 1696 4224 1606 4224 
C 1357 3927 979 3833 621 3820 
C 602 3820 570 3820 563 3808 
C 557 3795 557 3782 557 3648 
C 755 3648 1088 3686 1344 3839 
L 1344 467 
C 1344 243 1331 166 781 166 
L 589 166 
L 589 0 
C 896 6 1216 12 1523 12 
C 1830 12 2150 6 2458 0 
L 2458 166 
L 2266 166 
C 1715 166 1702 236 1702 467 
L 1702 4083 
z
" transform="scale(0.015625)"/>
       </defs>
       <use xlink:href="#CMR17-31" transform="scale(0.996264)"/>
      </g>
     </g>
    </g>
    <g id="xtick_2">
     <g id="line2d_3">
      <path d="M 146.88 307.584 
L 146.88 41.472 
" clip-path="url(#p4b66368660)" style="fill: none; stroke: #b0b0b0; stroke-width: 0.8; stroke-linecap: square"/>
     </g>
     <g id="line2d_4">
      <g>
       <use xlink:href="#m8311880d2a" x="146.88" y="307.584" style="stroke: #000000; stroke-width: 0.8"/>
      </g>
     </g>
     <g id="text_2">
      <!-- $\mathdefault{2}$ -->
      <g transform="translate(143.221881 324.961725) scale(0.15 -0.15)">
       <defs>
        <path id="CMR17-32" d="M 2669 990 
L 2554 990 
C 2490 537 2438 460 2413 422 
C 2381 371 1920 371 1830 371 
L 602 371 
C 832 620 1280 1073 1824 1596 
C 2214 1966 2669 2400 2669 3033 
C 2669 3788 2067 4224 1395 4224 
C 691 4224 262 3603 262 3027 
C 262 2777 448 2745 525 2745 
C 589 2745 781 2783 781 3007 
C 781 3206 614 3264 525 3264 
C 486 3264 448 3257 422 3244 
C 544 3788 915 4057 1306 4057 
C 1862 4057 2227 3616 2227 3033 
C 2227 2477 1901 1998 1536 1583 
L 262 147 
L 262 0 
L 2515 0 
L 2669 990 
z
" transform="scale(0.015625)"/>
       </defs>
       <use xlink:href="#CMR17-32" transform="scale(0.996264)"/>
      </g>
     </g>
    </g>
    <g id="xtick_3">
     <g id="line2d_5">
      <path d="M 236.16 307.584 
L 236.16 41.472 
" clip-path="url(#p4b66368660)" style="fill: none; stroke: #b0b0b0; stroke-width: 0.8; stroke-linecap: square"/>
     </g>
     <g id="line2d_6">
      <g>
       <use xlink:href="#m8311880d2a" x="236.16" y="307.584" style="stroke: #000000; stroke-width: 0.8"/>
      </g>
     </g>
     <g id="text_3">
      <!-- $\mathdefault{3}$ -->
      <g transform="translate(232.501881 324.961725) scale(0.15 -0.15)">
       <defs>
        <path id="CMR17-33" d="M 1414 2176 
C 1984 2176 2234 1673 2234 1094 
C 2234 322 1824 25 1453 25 
C 1114 25 563 193 390 691 
C 422 678 454 678 486 678 
C 640 678 755 780 755 947 
C 755 1132 614 1216 486 1216 
C 378 1216 211 1164 211 927 
C 211 335 787 -128 1466 -128 
C 2176 -128 2720 432 2720 1087 
C 2720 1718 2208 2176 1600 2246 
C 2086 2347 2554 2776 2554 3353 
C 2554 3856 2048 4224 1472 4224 
C 890 4224 378 3862 378 3347 
C 378 3123 544 3084 627 3084 
C 762 3084 877 3167 877 3334 
C 877 3500 762 3584 627 3584 
C 602 3584 570 3584 544 3571 
C 730 3999 1235 4076 1459 4076 
C 1683 4076 2106 3966 2106 3347 
C 2106 3167 2080 2851 1862 2574 
C 1670 2329 1453 2316 1242 2297 
C 1210 2297 1062 2284 1037 2284 
C 992 2278 966 2272 966 2227 
C 966 2182 973 2176 1101 2176 
L 1414 2176 
z
" transform="scale(0.015625)"/>
       </defs>
       <use xlink:href="#CMR17-33" transform="scale(0.996264)"/>
      </g>
     </g>
    </g>
    <g id="xtick_4">
     <g id="line2d_7">
      <path d="M 325.44 307.584 
L 325.44 41.472 
" clip-path="url(#p4b66368660)" style="fill: none; stroke: #b0b0b0; stroke-width: 0.8; stroke-linecap: square"/>
     </g>
     <g id="line2d_8">
      <g>
       <use xlink:href="#m8311880d2a" x="325.44" y="307.584" style="stroke: #000000; stroke-width: 0.8"/>
      </g>
     </g>
     <g id="text_4">
      <!-- $\mathdefault{4}$ -->
      <g transform="translate(321.781881 324.961725) scale(0.15 -0.15)">
       <defs>
        <path id="CMR17-34" d="M 2150 4147 
C 2150 4281 2144 4288 2029 4288 
L 128 1254 
L 128 1088 
L 1779 1088 
L 1779 460 
C 1779 230 1766 166 1318 166 
L 1197 166 
L 1197 0 
C 1402 12 1747 12 1965 12 
C 2182 12 2528 12 2733 0 
L 2733 166 
L 2611 166 
C 2163 166 2150 230 2150 460 
L 2150 1088 
L 2803 1088 
L 2803 1254 
L 2150 1254 
L 2150 4147 
z
M 1798 3723 
L 1798 1254 
L 256 1254 
L 1798 3723 
z
" transform="scale(0.015625)"/>
       </defs>
       <use xlink:href="#CMR17-34" transform="scale(0.996264)"/>
      </g>
     </g>
    </g>
    <g id="xtick_5">
     <g id="line2d_9">
      <path d="M 414.72 307.584 
L 414.72 41.472 
" clip-path="url(#p4b66368660)" style="fill: none; stroke: #b0b0b0; stroke-width: 0.8; stroke-linecap: square"/>
     </g>
     <g id="line2d_10">
      <g>
       <use xlink:href="#m8311880d2a" x="414.72" y="307.584" style="stroke: #000000; stroke-width: 0.8"/>
      </g>
     </g>
     <g id="text_5">
      <!-- $\mathdefault{5}$ -->
      <g transform="translate(411.061881 324.961725) scale(0.15 -0.15)">
       <defs>
        <path id="CMR17-35" d="M 730 3750 
C 794 3724 1056 3641 1325 3641 
C 1920 3641 2246 3961 2432 4140 
C 2432 4191 2432 4224 2394 4224 
C 2387 4224 2374 4224 2323 4198 
C 2099 4102 1837 4032 1517 4032 
C 1325 4032 1037 4055 723 4191 
C 653 4224 640 4224 634 4224 
C 602 4224 595 4217 595 4090 
L 595 2231 
C 595 2113 595 2080 659 2080 
C 691 2080 704 2093 736 2139 
C 941 2435 1222 2560 1542 2560 
C 1766 2560 2246 2415 2246 1293 
C 2246 1087 2246 716 2054 422 
C 1894 159 1645 25 1370 25 
C 947 25 518 319 403 812 
C 429 806 480 793 506 793 
C 589 793 749 838 749 1036 
C 749 1209 627 1280 506 1280 
C 358 1280 262 1190 262 1011 
C 262 454 704 -128 1382 -128 
C 2042 -128 2669 441 2669 1267 
C 2669 2054 2170 2662 1549 2662 
C 1222 2662 947 2540 730 2304 
L 730 3750 
z
" transform="scale(0.015625)"/>
       </defs>
       <use xlink:href="#CMR17-35" transform="scale(0.996264)"/>
      </g>
     </g>
    </g>
    <g id="text_6">
     <!-- Daily energy need (kWh) -->
     <g transform="translate(154.973977 343.07544) scale(0.15 -0.15)">
      <defs>
       <path id="CMR17-44" d="M 333 4352 
L 333 4185 
C 774 4185 845 4185 845 3898 
L 845 453 
C 845 166 774 166 333 166 
L 333 0 
L 2368 0 
C 3398 0 4224 943 4224 2140 
C 4224 3344 3411 4352 2368 4352 
L 333 4352 
z
M 1523 166 
C 1267 166 1254 198 1254 414 
L 1254 3936 
C 1254 4153 1267 4185 1523 4185 
L 2240 4185 
C 2771 4185 3750 3873 3750 2140 
C 3750 1242 3488 879 3366 707 
C 3213 510 2848 166 2240 166 
L 1523 166 
z
" transform="scale(0.015625)"/>
       <path id="CMR17-61" d="M 2304 1656 
C 2304 2048 2304 2275 2035 2534 
C 1798 2751 1523 2816 1306 2816 
C 800 2816 435 2408 435 1977 
C 435 1740 627 1728 666 1728 
C 749 1728 896 1779 896 1958 
C 896 2118 774 2188 666 2188 
C 640 2188 608 2182 589 2176 
C 723 2594 1069 2713 1293 2713 
C 1613 2713 1965 2421 1965 1875 
L 1965 1632 
C 1587 1619 1133 1568 774 1373 
C 371 1147 256 822 256 576 
C 256 77 832 -64 1171 -64 
C 1523 -64 1850 135 1990 505 
C 2003 219 2182 -39 2464 -39 
C 2598 -39 2938 51 2938 563 
L 2938 926 
L 2822 926 
L 2822 557 
C 2822 161 2650 109 2566 109 
C 2304 109 2304 446 2304 732 
L 2304 1656 
z
M 1965 887 
C 1965 323 1568 38 1216 38 
C 896 38 646 278 646 576 
C 646 771 730 1114 1101 1322 
C 1408 1497 1760 1523 1965 1536 
L 1965 887 
z
" transform="scale(0.015625)"/>
       <path id="CMR17-69" d="M 992 3961 
C 992 4102 877 4224 730 4224 
C 589 4224 467 4108 467 3961 
C 467 3820 582 3699 730 3699 
C 870 3699 992 3814 992 3961 
z
M 243 2745 
L 243 2579 
C 602 2579 653 2540 653 2231 
L 653 443 
C 653 198 627 166 218 166 
L 218 0 
C 371 12 646 12 806 12 
C 960 12 1222 12 1370 0 
L 1370 166 
C 992 166 979 205 979 436 
L 979 2816 
L 243 2745 
z
" transform="scale(0.015625)"/>
       <path id="CMR17-6c" d="M 979 4416 
L 218 4345 
L 218 4179 
C 595 4179 653 4141 653 3835 
L 653 439 
C 653 198 627 166 218 166 
L 218 0 
C 371 12 653 12 813 12 
C 979 12 1261 12 1414 0 
L 1414 166 
C 1005 166 979 191 979 439 
L 979 4416 
z
" transform="scale(0.015625)"/>
       <path id="CMR17-79" d="M 2496 2183 
C 2656 2579 2944 2585 3034 2585 
L 3034 2752 
C 2912 2745 2752 2739 2630 2739 
C 2496 2739 2285 2739 2157 2752 
L 2157 2585 
C 2400 2566 2406 2384 2406 2332 
C 2406 2268 2394 2235 2362 2158 
L 1664 409 
L 902 2300 
C 870 2378 870 2423 870 2430 
C 870 2572 1018 2585 1171 2585 
L 1171 2752 
C 1018 2739 742 2739 582 2739 
C 410 2739 205 2739 64 2752 
L 64 2585 
C 410 2585 448 2553 531 2345 
L 1485 -31 
C 1197 -795 1030 -1242 627 -1242 
C 557 -1242 397 -1223 282 -1106 
C 429 -1093 493 -1002 493 -892 
C 493 -782 416 -685 288 -685 
C 147 -685 77 -782 77 -899 
C 77 -1158 339 -1344 627 -1344 
C 998 -1344 1229 -983 1357 -659 
L 2496 2183 
z
" transform="scale(0.015625)"/>
       <path id="CMR17-65" d="M 2438 1503 
C 2464 1529 2464 1542 2464 1606 
C 2464 2251 2118 2816 1389 2816 
C 710 2816 173 2175 173 1394 
C 173 554 781 -64 1459 -64 
C 2176 -64 2458 619 2458 755 
C 2458 800 2419 800 2406 800 
C 2362 800 2355 787 2330 709 
C 2189 270 1837 51 1504 51 
C 1229 51 954 206 781 490 
C 582 819 582 1200 582 1503 
L 2438 1503 
z
M 589 1600 
C 634 2511 1126 2713 1382 2713 
C 1818 2713 2112 2308 2118 1600 
L 589 1600 
z
" transform="scale(0.015625)"/>
       <path id="CMR17-6e" d="M 2656 1954 
C 2656 2282 2592 2816 1837 2816 
C 1331 2816 1069 2424 973 2166 
L 966 2166 
L 966 2816 
L 211 2745 
L 211 2578 
C 589 2578 646 2540 646 2231 
L 646 443 
C 646 198 621 166 211 166 
L 211 0 
C 365 12 646 12 813 12 
C 979 12 1267 12 1421 0 
L 1421 166 
C 1011 166 986 192 986 443 
L 986 1678 
C 986 2269 1344 2713 1792 2713 
C 2266 2713 2317 2289 2317 1980 
L 2317 443 
C 2317 198 2291 166 1882 166 
L 1882 0 
C 2035 12 2317 12 2483 12 
C 2650 12 2938 12 3091 0 
L 3091 166 
C 2682 166 2656 192 2656 443 
L 2656 1954 
z
" transform="scale(0.015625)"/>
       <path id="CMR17-72" d="M 960 1517 
C 960 2134 1222 2713 1702 2713 
C 1747 2713 1792 2707 1837 2687 
C 1837 2687 1696 2642 1696 2475 
C 1696 2321 1818 2257 1914 2257 
C 1990 2257 2131 2302 2131 2482 
C 2131 2687 1926 2816 1709 2816 
C 1222 2816 1011 2340 947 2115 
L 941 2115 
L 941 2816 
L 198 2745 
L 198 2578 
C 576 2578 634 2540 634 2231 
L 634 443 
C 634 198 608 166 198 166 
L 198 0 
C 352 12 646 12 813 12 
C 998 12 1325 12 1498 0 
L 1498 166 
C 1037 166 960 166 960 455 
L 960 1517 
z
" transform="scale(0.015625)"/>
       <path id="CMR17-67" d="M 710 1165 
C 832 1068 1043 960 1299 960 
C 1805 960 2240 1359 2240 1895 
C 2240 2063 2189 2321 1997 2521 
C 2176 2713 2438 2777 2586 2777 
C 2611 2777 2650 2777 2682 2758 
C 2656 2751 2598 2726 2598 2623 
C 2598 2540 2656 2483 2739 2483 
C 2835 2483 2886 2547 2886 2630 
C 2886 2751 2790 2880 2586 2880 
C 2330 2880 2106 2758 1926 2591 
C 1734 2764 1504 2828 1299 2828 
C 794 2828 358 2431 358 1895 
C 358 1527 570 1294 634 1230 
C 442 1004 442 742 442 710 
C 442 544 506 300 723 166 
C 390 82 128 -184 128 -517 
C 128 -996 736 -1344 1466 -1344 
C 2170 -1344 2803 -1009 2803 -510 
C 2803 384 1856 384 1363 384 
C 1216 384 954 384 922 390 
C 723 422 589 601 589 825 
C 589 883 589 1024 710 1165 
z
M 1299 1068 
C 736 1068 736 1766 736 1895 
C 736 2024 736 2719 1299 2719 
C 1862 2719 1862 2024 1862 1895 
C 1862 1766 1862 1068 1299 1068 
z
M 1466 -1236 
C 826 -1236 384 -883 384 -517 
C 384 -311 493 -118 634 -11 
C 794 102 858 102 1293 102 
C 1818 102 2547 102 2547 -517 
C 2547 -883 2106 -1236 1466 -1236 
z
" transform="scale(0.015625)"/>
       <path id="CMR17-64" d="M 1869 4345 
L 1869 4179 
C 2246 4179 2304 4141 2304 3843 
L 2304 2371 
C 2278 2403 2016 2816 1498 2816 
C 845 2816 211 2228 211 1376 
C 211 529 806 -64 1434 -64 
C 1978 -64 2259 361 2291 406 
L 2291 -64 
L 3066 -13 
L 3066 154 
C 2688 154 2630 193 2630 503 
L 2630 4416 
L 1869 4345 
z
M 2291 762 
C 2291 568 2176 393 2029 264 
C 1811 70 1594 38 1472 38 
C 1286 38 621 135 621 1369 
C 621 2636 1363 2713 1530 2713 
C 1824 2713 2061 2545 2208 2313 
C 2291 2177 2291 2157 2291 2041 
L 2291 762 
z
" transform="scale(0.015625)"/>
       <path id="CMR17-28" d="M 1958 -1562 
C 1958 -1556 1958 -1543 1939 -1524 
C 1645 -1223 858 -403 858 1596 
C 858 3595 1632 4408 1946 4729 
C 1946 4735 1958 4748 1958 4767 
C 1958 4787 1939 4800 1914 4800 
C 1843 4800 1299 4325 986 3620 
C 666 2909 576 2218 576 1603 
C 576 1141 621 360 1005 -467 
C 1312 -1133 1837 -1600 1914 -1600 
C 1946 -1600 1958 -1588 1958 -1562 
z
" transform="scale(0.015625)"/>
       <path id="CMR17-6b" d="M 1670 1679 
C 1664 1692 1632 1730 1632 1749 
C 1632 1762 2086 2175 2144 2226 
C 2509 2532 2739 2563 2906 2570 
L 2906 2735 
C 2867 2735 2854 2735 2848 2729 
L 2534 2722 
C 2355 2722 2080 2722 1907 2735 
L 1907 2570 
C 1997 2563 2061 2513 2061 2423 
C 2061 2296 1933 2175 1926 2175 
L 960 1298 
L 960 4416 
L 198 4345 
L 198 4179 
C 576 4179 634 4141 634 3835 
L 634 439 
C 634 198 608 166 198 166 
L 198 0 
C 352 12 634 12 794 12 
C 954 12 1235 12 1389 0 
L 1389 166 
C 979 166 954 191 954 439 
L 954 1139 
L 1395 1540 
L 2042 586 
C 2118 471 2182 382 2182 299 
C 2182 185 2067 166 1990 166 
L 1990 0 
C 2144 12 2419 12 2579 12 
C 2694 12 2931 6 3040 0 
L 3040 166 
C 2739 166 2669 223 2477 503 
L 1670 1679 
z
" transform="scale(0.015625)"/>
       <path id="CMR17-57" d="M 5523 3775 
C 5581 3948 5677 4173 6048 4185 
L 6048 4352 
C 5939 4345 5715 4339 5600 4339 
C 5440 4339 5158 4339 5005 4352 
L 5005 4185 
C 5293 4179 5414 4019 5414 3865 
C 5414 3820 5408 3794 5382 3724 
L 4390 557 
L 3347 3890 
C 3328 3955 3322 3980 3322 4006 
C 3322 4185 3603 4185 3725 4185 
L 3725 4352 
C 3539 4339 3219 4339 3021 4339 
C 2861 4339 2573 4339 2426 4352 
L 2426 4185 
C 2720 4185 2797 4166 2861 4051 
C 2886 3993 2989 3660 2989 3640 
C 2989 3615 2976 3576 2970 3557 
L 2029 564 
L 986 3890 
C 954 3980 954 3993 954 4006 
C 954 4185 1235 4185 1363 4185 
L 1363 4352 
C 1178 4339 858 4339 659 4339 
C 493 4339 211 4339 58 4352 
L 58 4185 
C 442 4185 467 4147 531 3942 
L 1779 -20 
C 1811 -116 1811 -128 1869 -128 
C 1920 -128 1939 -116 1965 -26 
L 3053 3448 
L 4141 -26 
C 4166 -116 4186 -128 4237 -128 
C 4294 -128 4294 -116 4326 -20 
L 5523 3775 
z
" transform="scale(0.015625)"/>
       <path id="CMR17-68" d="M 2656 1954 
C 2656 2282 2592 2816 1837 2816 
C 1312 2816 1056 2392 979 2179 
L 973 2179 
L 973 4416 
L 211 4345 
L 211 4179 
C 589 4179 646 4141 646 3843 
L 646 443 
C 646 198 621 166 211 166 
L 211 0 
C 365 12 646 12 813 12 
C 979 12 1267 12 1421 0 
L 1421 166 
C 1011 166 986 192 986 443 
L 986 1678 
C 986 2269 1344 2713 1792 2713 
C 2266 2713 2317 2289 2317 1980 
L 2317 443 
C 2317 198 2291 166 1882 166 
L 1882 0 
C 2035 12 2317 12 2483 12 
C 2650 12 2938 12 3091 0 
L 3091 166 
C 2682 166 2656 192 2656 443 
L 2656 1954 
z
" transform="scale(0.015625)"/>
       <path id="CMR17-29" d="M 1683 1596 
C 1683 2057 1638 2839 1254 3665 
C 947 4332 422 4800 346 4800 
C 326 4800 301 4793 301 4761 
C 301 4748 307 4742 314 4729 
C 621 4408 1402 3595 1402 1603 
C 1402 -396 627 -1210 314 -1530 
C 307 -1543 301 -1549 301 -1562 
C 301 -1594 326 -1600 346 -1600 
C 416 -1600 960 -1127 1274 -422 
C 1594 289 1683 981 1683 1596 
z
" transform="scale(0.015625)"/>
      </defs>
      <use xlink:href="#CMR17-44" transform="scale(0.996264)"/>
      <use xlink:href="#CMR17-61" transform="translate(70.393556 0) scale(0.996264)"/>
      <use xlink:href="#CMR17-69" transform="translate(116.084033 0) scale(0.996264)"/>
      <use xlink:href="#CMR17-6c" transform="translate(140.955092 0) scale(0.996264)"/>
      <use xlink:href="#CMR17-79" transform="translate(165.82615 0) scale(0.996264)"/>
      <use xlink:href="#CMR17-65" transform="translate(244.195032 0) scale(0.996264)"/>
      <use xlink:href="#CMR17-6e" transform="translate(284.680693 0) scale(0.996264)"/>
      <use xlink:href="#CMR17-65" transform="translate(335.576062 0) scale(0.996264)"/>
      <use xlink:href="#CMR17-72" transform="translate(376.061723 0) scale(0.996264)"/>
      <use xlink:href="#CMR17-67" transform="translate(411.342491 0) scale(0.996264)"/>
      <use xlink:href="#CMR17-79" transform="translate(457.032968 0) scale(0.996264)"/>
      <use xlink:href="#CMR17-6e" transform="translate(535.40185 0) scale(0.996264)"/>
      <use xlink:href="#CMR17-65" transform="translate(586.29722 0) scale(0.996264)"/>
      <use xlink:href="#CMR17-65" transform="translate(626.78288 0) scale(0.996264)"/>
      <use xlink:href="#CMR17-64" transform="translate(667.268541 0) scale(0.996264)"/>
      <use xlink:href="#CMR17-28" transform="translate(748.239877 0) scale(0.996264)"/>
      <use xlink:href="#CMR17-6b" transform="translate(783.520645 0) scale(0.996264)"/>
      <use xlink:href="#CMR17-57" transform="translate(831.81356 0) scale(0.996264)"/>
      <use xlink:href="#CMR17-68" transform="translate(926.91021 0) scale(0.996264)"/>
      <use xlink:href="#CMR17-29" transform="translate(977.80558 0) scale(0.996264)"/>
     </g>
    </g>
   </g>
   <g id="matplotlib.axis_2">
    <g id="ytick_1">
     <g id="line2d_11">
      <path d="M 57.6 296.657964 
L 414.72 296.657964 
" clip-path="url(#p4b66368660)" style="fill: none; stroke: #b0b0b0; stroke-width: 0.8; stroke-linecap: square"/>
     </g>
     <g id="line2d_12">
      <defs>
       <path id="mc46da94fe0" d="M 0 0 
L -3.5 0 
" style="stroke: #000000; stroke-width: 0.8"/>
      </defs>
      <g>
       <use xlink:href="#mc46da94fe0" x="57.6" y="296.657964" style="stroke: #000000; stroke-width: 0.8"/>
      </g>
     </g>
     <g id="text_7">
      <!-- $\mathdefault{0.75}$ -->
      <g transform="translate(24.58671 301.846827) scale(0.15 -0.15)">
       <defs>
        <path id="CMR17-30" d="M 2688 2038 
C 2688 2430 2682 3099 2413 3613 
C 2176 4063 1798 4224 1466 4224 
C 1158 4224 768 4082 525 3620 
C 269 3137 243 2539 243 2038 
C 243 1671 250 1112 448 623 
C 723 -39 1216 -128 1466 -128 
C 1760 -128 2208 -7 2470 604 
C 2662 1048 2688 1568 2688 2038 
z
M 1466 -26 
C 1056 -26 813 328 723 816 
C 653 1196 653 1749 653 2109 
C 653 2604 653 3015 736 3407 
C 858 3954 1216 4121 1466 4121 
C 1728 4121 2067 3947 2189 3420 
C 2272 3054 2278 2623 2278 2109 
C 2278 1691 2278 1176 2202 797 
C 2067 96 1690 -26 1466 -26 
z
" transform="scale(0.015625)"/>
        <path id="CMMI12-3a" d="M 1178 307 
C 1178 492 1024 620 870 620 
C 685 620 557 467 557 313 
C 557 128 710 0 864 0 
C 1050 0 1178 153 1178 307 
z
" transform="scale(0.015625)"/>
        <path id="CMR17-37" d="M 2886 3955 
L 2886 4096 
L 1382 4096 
C 634 4096 621 4166 595 4288 
L 480 4288 
L 294 3104 
L 410 3104 
C 429 3226 474 3552 550 3673 
C 589 3724 1062 3724 1171 3724 
L 2579 3724 
L 1869 2670 
C 1395 1961 1069 1003 1069 166 
C 1069 89 1069 -128 1299 -128 
C 1530 -128 1530 89 1530 172 
L 1530 466 
C 1530 1514 1709 2204 2003 2644 
L 2886 3955 
z
" transform="scale(0.015625)"/>
       </defs>
       <use xlink:href="#CMR17-30" transform="scale(0.996264)"/>
       <use xlink:href="#CMMI12-3a" transform="translate(45.690477 0) scale(0.996264)"/>
       <use xlink:href="#CMR17-37" transform="translate(72.787654 0) scale(0.996264)"/>
       <use xlink:href="#CMR17-35" transform="translate(118.478131 0) scale(0.996264)"/>
      </g>
     </g>
    </g>
    <g id="ytick_2">
     <g id="line2d_13">
      <path d="M 57.6 254.814616 
L 414.72 254.814616 
" clip-path="url(#p4b66368660)" style="fill: none; stroke: #b0b0b0; stroke-width: 0.8; stroke-linecap: square"/>
     </g>
     <g id="line2d_14">
      <g>
       <use xlink:href="#mc46da94fe0" x="57.6" y="254.814616" style="stroke: #000000; stroke-width: 0.8"/>
      </g>
     </g>
     <g id="text_8">
      <!-- $\mathdefault{0.80}$ -->
      <g transform="translate(24.58671 260.003479) scale(0.15 -0.15)">
       <defs>
        <path id="CMR17-38" d="M 1741 2289 
C 2144 2494 2554 2803 2554 3298 
C 2554 3884 1990 4224 1472 4224 
C 890 4224 378 3800 378 3215 
C 378 3054 416 2777 666 2533 
C 730 2469 998 2276 1171 2154 
C 883 2006 211 1652 211 945 
C 211 282 838 -128 1459 -128 
C 2144 -128 2720 366 2720 1022 
C 2720 1607 2330 1877 2074 2051 
L 1741 2289 
z
M 902 2855 
C 851 2887 595 3086 595 3388 
C 595 3781 998 4076 1459 4076 
C 1965 4076 2336 3716 2336 3298 
C 2336 2700 1670 2359 1638 2359 
C 1632 2359 1626 2359 1574 2398 
L 902 2855 
z
M 2080 1536 
C 2176 1466 2483 1253 2483 861 
C 2483 385 2010 25 1472 25 
C 890 25 448 443 448 951 
C 448 1459 838 1884 1280 2083 
L 2080 1536 
z
" transform="scale(0.015625)"/>
       </defs>
       <use xlink:href="#CMR17-30" transform="scale(0.996264)"/>
       <use xlink:href="#CMMI12-3a" transform="translate(45.690477 0) scale(0.996264)"/>
       <use xlink:href="#CMR17-38" transform="translate(72.787654 0) scale(0.996264)"/>
       <use xlink:href="#CMR17-30" transform="translate(118.478131 0) scale(0.996264)"/>
      </g>
     </g>
    </g>
    <g id="ytick_3">
     <g id="line2d_15">
      <path d="M 57.6 212.971268 
L 414.72 212.971268 
" clip-path="url(#p4b66368660)" style="fill: none; stroke: #b0b0b0; stroke-width: 0.8; stroke-linecap: square"/>
     </g>
     <g id="line2d_16">
      <g>
       <use xlink:href="#mc46da94fe0" x="57.6" y="212.971268" style="stroke: #000000; stroke-width: 0.8"/>
      </g>
     </g>
     <g id="text_9">
      <!-- $\mathdefault{0.85}$ -->
      <g transform="translate(24.58671 218.160131) scale(0.15 -0.15)">
       <use xlink:href="#CMR17-30" transform="scale(0.996264)"/>
       <use xlink:href="#CMMI12-3a" transform="translate(45.690477 0) scale(0.996264)"/>
       <use xlink:href="#CMR17-38" transform="translate(72.787654 0) scale(0.996264)"/>
       <use xlink:href="#CMR17-35" transform="translate(118.478131 0) scale(0.996264)"/>
      </g>
     </g>
    </g>
    <g id="ytick_4">
     <g id="line2d_17">
      <path d="M 57.6 171.12792 
L 414.72 171.12792 
" clip-path="url(#p4b66368660)" style="fill: none; stroke: #b0b0b0; stroke-width: 0.8; stroke-linecap: square"/>
     </g>
     <g id="line2d_18">
      <g>
       <use xlink:href="#mc46da94fe0" x="57.6" y="171.12792" style="stroke: #000000; stroke-width: 0.8"/>
      </g>
     </g>
     <g id="text_10">
      <!-- $\mathdefault{0.90}$ -->
      <g transform="translate(24.58671 176.316782) scale(0.15 -0.15)">
       <defs>
        <path id="CMR17-39" d="M 2253 1871 
C 2253 448 1670 25 1190 25 
C 1043 25 685 43 538 281 
C 704 256 826 345 826 505 
C 826 678 685 736 595 736 
C 538 736 365 710 365 492 
C 365 68 742 -128 1203 -128 
C 1939 -128 2688 665 2688 2090 
C 2688 3857 1971 4224 1485 4224 
C 851 4224 243 3664 243 2800 
C 243 2000 762 1408 1414 1408 
C 1952 1408 2189 1910 2253 2122 
L 2253 1871 
z
M 1427 1510 
C 1254 1510 1011 1542 813 1929 
C 678 2181 678 2477 678 2793 
C 678 3174 678 3438 858 3722 
C 947 3857 1114 4076 1485 4076 
C 2240 4076 2240 2909 2240 2651 
C 2240 2193 2035 1510 1427 1510 
z
" transform="scale(0.015625)"/>
       </defs>
       <use xlink:href="#CMR17-30" transform="scale(0.996264)"/>
       <use xlink:href="#CMMI12-3a" transform="translate(45.690477 0) scale(0.996264)"/>
       <use xlink:href="#CMR17-39" transform="translate(72.787654 0) scale(0.996264)"/>
       <use xlink:href="#CMR17-30" transform="translate(118.478131 0) scale(0.996264)"/>
      </g>
     </g>
    </g>
    <g id="ytick_5">
     <g id="line2d_19">
      <path d="M 57.6 129.284572 
L 414.72 129.284572 
" clip-path="url(#p4b66368660)" style="fill: none; stroke: #b0b0b0; stroke-width: 0.8; stroke-linecap: square"/>
     </g>
     <g id="line2d_20">
      <g>
       <use xlink:href="#mc46da94fe0" x="57.6" y="129.284572" style="stroke: #000000; stroke-width: 0.8"/>
      </g>
     </g>
     <g id="text_11">
      <!-- $\mathdefault{0.95}$ -->
      <g transform="translate(24.58671 134.473434) scale(0.15 -0.15)">
       <use xlink:href="#CMR17-30" transform="scale(0.996264)"/>
       <use xlink:href="#CMMI12-3a" transform="translate(45.690477 0) scale(0.996264)"/>
       <use xlink:href="#CMR17-39" transform="translate(72.787654 0) scale(0.996264)"/>
       <use xlink:href="#CMR17-35" transform="translate(118.478131 0) scale(0.996264)"/>
      </g>
     </g>
    </g>
    <g id="ytick_6">
     <g id="line2d_21">
      <path d="M 57.6 87.441224 
L 414.72 87.441224 
" clip-path="url(#p4b66368660)" style="fill: none; stroke: #b0b0b0; stroke-width: 0.8; stroke-linecap: square"/>
     </g>
     <g id="line2d_22">
      <g>
       <use xlink:href="#mc46da94fe0" x="57.6" y="87.441224" style="stroke: #000000; stroke-width: 0.8"/>
      </g>
     </g>
     <g id="text_12">
      <!-- $\mathdefault{1.00}$ -->
      <g transform="translate(24.58671 92.630086) scale(0.15 -0.15)">
       <use xlink:href="#CMR17-31" transform="scale(0.996264)"/>
       <use xlink:href="#CMMI12-3a" transform="translate(45.690477 0) scale(0.996264)"/>
       <use xlink:href="#CMR17-30" transform="translate(72.787654 0) scale(0.996264)"/>
       <use xlink:href="#CMR17-30" transform="translate(118.478131 0) scale(0.996264)"/>
      </g>
     </g>
    </g>
    <g id="ytick_7">
     <g id="line2d_23">
      <path d="M 57.6 45.597876 
L 414.72 45.597876 
" clip-path="url(#p4b66368660)" style="fill: none; stroke: #b0b0b0; stroke-width: 0.8; stroke-linecap: square"/>
     </g>
     <g id="line2d_24">
      <g>
       <use xlink:href="#mc46da94fe0" x="57.6" y="45.597876" style="stroke: #000000; stroke-width: 0.8"/>
      </g>
     </g>
     <g id="text_13">
      <!-- $\mathdefault{1.05}$ -->
      <g transform="translate(24.58671 50.786738) scale(0.15 -0.15)">
       <use xlink:href="#CMR17-31" transform="scale(0.996264)"/>
       <use xlink:href="#CMMI12-3a" transform="translate(45.690477 0) scale(0.996264)"/>
       <use xlink:href="#CMR17-30" transform="translate(72.787654 0) scale(0.996264)"/>
       <use xlink:href="#CMR17-35" transform="translate(118.478131 0) scale(0.996264)"/>
      </g>
     </g>
    </g>
    <g id="text_14">
     <!-- Score/kWh (p.u.) -->
     <g transform="translate(16.85072 231.023022) rotate(-90) scale(0.15 -0.15)">
      <defs>
       <path id="CMR17-53" d="M 2803 4351 
C 2803 4467 2797 4473 2758 4473 
C 2720 4473 2707 4447 2682 4390 
L 2490 3965 
C 2246 4320 1875 4480 1472 4480 
C 819 4480 294 3958 294 3301 
C 294 3101 339 2817 557 2546 
C 794 2250 1018 2198 1530 2063 
C 1722 2011 2042 1927 2106 1901 
C 2470 1747 2662 1360 2662 999 
C 2662 534 2336 38 1779 38 
C 1094 38 454 425 410 1328 
C 403 1431 397 1437 352 1437 
C 301 1437 294 1431 294 1302 
L 294 0 
C 294 -116 301 -122 339 -122 
C 384 -122 397 -90 486 109 
C 493 128 493 141 614 386 
C 934 -39 1472 -128 1779 -128 
C 2477 -128 2970 457 2970 1141 
C 2970 1476 2848 1734 2778 1850 
C 2509 2263 2221 2340 1914 2417 
C 1869 2437 1856 2437 1498 2527 
C 1152 2617 1005 2662 845 2836 
C 666 3036 602 3243 602 3449 
C 602 3868 934 4326 1478 4326 
C 2157 4326 2579 3842 2675 3036 
C 2694 2920 2701 2914 2746 2914 
C 2803 2914 2803 2933 2803 3043 
L 2803 4351 
z
" transform="scale(0.015625)"/>
       <path id="CMR17-63" d="M 2234 2240 
C 2112 2240 1933 2240 1933 2015 
C 1933 1836 2080 1785 2163 1785 
C 2208 1785 2394 1804 2394 2028 
C 2394 2476 1958 2816 1466 2816 
C 787 2816 211 2201 211 1379 
C 211 521 813 -64 1466 -64 
C 2259 -64 2458 676 2458 747 
C 2458 773 2451 792 2406 792 
C 2362 792 2355 786 2330 702 
C 2163 180 1798 51 1523 51 
C 1114 51 621 431 621 1385 
C 621 2358 1094 2700 1472 2700 
C 1722 2700 2093 2582 2234 2240 
z
" transform="scale(0.015625)"/>
       <path id="CMR17-6f" d="M 2758 1356 
C 2758 2176 2163 2816 1466 2816 
C 768 2816 173 2176 173 1356 
C 173 550 768 -64 1466 -64 
C 2163 -64 2758 550 2758 1356 
z
M 1466 51 
C 1165 51 909 230 762 480 
C 602 768 582 1126 582 1408 
C 582 1676 595 2009 762 2297 
C 890 2508 1139 2713 1466 2713 
C 1754 2713 1997 2553 2150 2329 
C 2349 2028 2349 1606 2349 1408 
C 2349 1158 2336 774 2163 467 
C 1984 172 1709 51 1466 51 
z
" transform="scale(0.015625)"/>
       <path id="CMR17-2f" d="M 2605 4575 
C 2637 4658 2637 4671 2637 4684 
C 2637 4761 2579 4800 2528 4800 
C 2451 4800 2426 4748 2400 4671 
L 326 -1376 
C 294 -1460 294 -1472 294 -1485 
C 294 -1562 352 -1600 403 -1600 
C 480 -1600 506 -1549 531 -1472 
L 2605 4575 
z
" transform="scale(0.015625)"/>
       <path id="CMR17-70" d="M 1408 -1114 
C 998 -1114 973 -1088 973 -834 
L 973 380 
C 1158 109 1427 -64 1766 -64 
C 2406 -64 3053 503 3053 1382 
C 3053 2196 2496 2816 1837 2816 
C 1453 2816 1139 2603 960 2345 
L 960 2816 
L 198 2745 
L 198 2577 
C 576 2577 634 2539 634 2228 
L 634 -834 
C 634 -1081 608 -1114 198 -1114 
L 198 -1280 
C 352 -1268 634 -1268 800 -1268 
C 966 -1268 1254 -1268 1408 -1280 
L 1408 -1114 
z
M 973 2015 
C 973 2106 973 2241 1222 2481 
C 1254 2506 1472 2700 1792 2700 
C 2259 2700 2643 2112 2643 1376 
C 2643 639 2234 38 1728 38 
C 1498 38 1248 148 1056 451 
C 973 594 973 632 973 736 
L 973 2015 
z
" transform="scale(0.015625)"/>
       <path id="CMR17-2e" d="M 1062 262 
C 1062 422 934 524 800 524 
C 672 524 538 422 538 262 
C 538 102 666 0 800 0 
C 928 0 1062 102 1062 262 
z
" transform="scale(0.015625)"/>
       <path id="CMR17-75" d="M 1882 2745 
L 1882 2579 
C 2259 2579 2317 2540 2317 2229 
L 2317 1053 
C 2317 510 2029 38 1555 38 
C 1030 38 986 355 986 691 
L 986 2816 
L 211 2745 
L 211 2579 
C 467 2579 640 2579 646 2320 
L 646 1079 
C 646 646 646 368 813 187 
C 896 103 1056 -64 1517 -64 
C 2061 -64 2272 400 2323 536 
L 2330 536 
L 2330 -64 
L 3091 -13 
L 3091 154 
C 2714 154 2656 193 2656 503 
L 2656 2816 
L 1882 2745 
z
" transform="scale(0.015625)"/>
      </defs>
      <use xlink:href="#CMR17-53" transform="scale(0.996264)"/>
      <use xlink:href="#CMR17-63" transform="translate(50.89537 0) scale(0.996264)"/>
      <use xlink:href="#CMR17-6f" transform="translate(91.38103 0) scale(0.996264)"/>
      <use xlink:href="#CMR17-72" transform="translate(137.071507 0) scale(0.996264)"/>
      <use xlink:href="#CMR17-65" transform="translate(172.352275 0) scale(0.996264)"/>
      <use xlink:href="#CMR17-2f" transform="translate(212.837936 0) scale(0.996264)"/>
      <use xlink:href="#CMR17-6b" transform="translate(258.528413 0) scale(0.996264)"/>
      <use xlink:href="#CMR17-57" transform="translate(306.821329 0) scale(0.996264)"/>
      <use xlink:href="#CMR17-68" transform="translate(401.917978 0) scale(0.996264)"/>
      <use xlink:href="#CMR17-28" transform="translate(482.889315 0) scale(0.996264)"/>
      <use xlink:href="#CMR17-70" transform="translate(518.170082 0) scale(0.996264)"/>
      <use xlink:href="#CMR17-2e" transform="translate(569.065452 0) scale(0.996264)"/>
      <use xlink:href="#CMR17-75" transform="translate(593.936511 0) scale(0.996264)"/>
      <use xlink:href="#CMR17-2e" transform="translate(644.83188 0) scale(0.996264)"/>
      <use xlink:href="#CMR17-29" transform="translate(669.702939 0) scale(0.996264)"/>
     </g>
    </g>
   </g>
   <g id="line2d_25">
    <path d="M 74.392987 87.441224 
L 76.552939 88.413788 
L 78.614395 89.036685 
L 80.585881 89.357314 
L 82.474856 89.414897 
L 84.287887 89.242176 
L 86.030785 88.866707 
L 87.708715 88.311854 
L 89.326291 87.597558 
L 90.887653 86.740948 
L 92.396527 85.756821 
L 93.85628 84.658023 
L 95.269964 83.455769 
L 96.640355 82.159888 
L 97.969987 80.779033 
L 99.261175 79.320855 
L 100.516044 77.79214 
L 101.736546 76.198929 
L 102.924482 74.54662 
L 104.081512 72.840047 
L 105.209175 71.083556 
L 106.308896 69.281063 
L 107.381999 67.436103 
L 108.429718 65.55188 
L 109.453201 63.631302 
L 110.453521 61.677015 
L 111.431681 59.691429 
L 112.38862 57.676748 
L 113.32522 55.634989 
L 114.242308 53.568 
" clip-path="url(#p4b66368660)" style="fill: none; stroke: #1f77b4; stroke-width: 1.5; stroke-linecap: square"/>
   </g>
   <g id="line2d_26">
    <path d="M 74.392987 87.441224 
L 77.593807 91.746433 
L 80.65206 95.371949 
L 83.579448 98.419839 
L 86.386294 100.972708 
L 89.081754 103.098135 
L 91.673985 104.85195 
L 94.170283 106.280684 
L 96.577204 107.423436 
L 98.900655 108.313298 
L 101.145983 108.978474 
L 103.318038 109.443146 
L 105.421236 109.728172 
L 107.459609 109.851638 
L 109.436845 109.829303 
L 111.356331 109.674963 
L 113.221182 109.400749 
L 115.034267 109.017369 
L 116.798238 108.53431 
L 118.515553 107.960012 
L 120.188486 107.302003 
L 121.819155 106.567021 
L 123.409528 105.761117 
L 124.961442 104.889737 
L 126.476612 103.957797 
L 127.956641 102.969748 
L 129.403031 101.929624 
L 130.81719 100.841096 
L 132.200442 99.707508 
L 133.554031 98.531914 
" clip-path="url(#p4b66368660)" style="fill: none; stroke: #ff7f0e; stroke-width: 1.5; stroke-linecap: square"/>
   </g>
   <g id="line2d_27">
    <path d="M 74.392987 87.441224 
L 78.549428 94.750718 
L 82.524539 100.994311 
L 86.332235 106.347655 
L 89.984938 110.94987 
L 93.493778 114.912566 
L 96.868756 118.326323 
L 100.118897 121.265422 
L 103.252364 123.791347 
L 106.276562 125.955433 
L 109.198232 127.800875 
L 112.023523 129.364279 
L 114.75806 130.676872 
L 117.407 131.765458 
L 119.975083 132.65317 
L 122.466675 133.360081 
L 124.885804 133.903692 
L 127.236196 134.299332 
L 129.521304 134.560484 
L 131.744332 134.699055 
L 133.908258 134.7256 
L 136.015857 134.649506 
L 138.069718 134.479154 
L 140.072257 134.222046 
L 142.025738 133.884917 
L 143.932279 133.473834 
L 145.793867 132.994273 
L 147.612371 132.451193 
L 149.389545 131.849089 
L 151.127043 131.192054 
" clip-path="url(#p4b66368660)" style="fill: none; stroke: #2ca02c; stroke-width: 1.5; stroke-linecap: square"/>
   </g>
   <g id="line2d_28">
    <path d="M 74.392987 87.441224 
L 79.219406 96.826123 
L 83.838199 104.829956 
L 88.264376 111.694733 
L 92.511487 117.609189 
L 96.591788 122.722659 
L 100.516391 127.154825 
L 104.295388 131.002725 
L 107.937971 134.345852 
L 111.452527 137.249947 
L 114.846727 139.769845 
L 118.127601 141.951642 
L 121.301606 143.834368 
L 124.374684 145.451293 
L 127.352313 146.830944 
L 130.239556 147.997926 
L 133.041096 148.973572 
L 135.761275 149.776465 
L 138.404126 150.422871 
L 140.9734 150.927088 
L 143.472589 151.301734 
L 145.904955 151.557986 
L 148.273542 151.705779 
L 150.581199 151.753977 
L 152.830595 151.71051 
L 155.024235 151.582495 
L 157.164469 151.376338 
L 159.253508 151.097818 
L 161.293434 150.752166 
L 163.286207 150.344123 
" clip-path="url(#p4b66368660)" style="fill: none; stroke: #d62728; stroke-width: 1.5; stroke-linecap: square"/>
   </g>
   <g id="line2d_29">
    <path d="M 151.619326 235.256618 
L 154.338566 234.716571 
L 156.920748 234.04377 
L 159.378359 233.255549 
L 161.722268 232.366358 
L 163.961996 231.388346 
L 166.10593 230.331802 
L 168.161492 229.205502 
L 170.135285 228.016977 
L 172.033209 226.772728 
L 173.860552 225.4784 
L 175.622076 224.138913 
L 177.322085 222.75858 
L 178.964476 221.341197 
L 180.552795 219.890117 
L 182.090274 218.408315 
L 183.579867 216.898438 
L 185.024283 215.362849 
L 186.426009 213.803666 
L 187.787336 212.222792 
L 189.110379 210.621938 
L 190.397093 209.002654 
L 191.649288 207.36634 
L 192.868646 205.714269 
L 194.056731 204.047595 
L 195.214999 202.367375 
L 196.344807 200.67457 
L 197.447426 198.970062 
L 198.524043 197.254659 
L 199.57577 195.529102 
" clip-path="url(#p4b66368660)" style="fill: none; stroke: #1f77b4; stroke-width: 1.5; stroke-linecap: square"/>
   </g>
   <g id="line2d_30">
    <path d="M 151.619326 235.256618 
L 155.643948 236.135162 
L 159.460656 236.757775 
L 163.087984 237.160637 
L 166.542141 237.373401 
L 169.83739 237.420607 
L 172.986337 237.322742 
L 176.000181 237.097046 
L 178.88891 236.758137 
L 181.661473 236.318488 
L 184.325914 235.788809 
L 186.889491 235.178352 
L 189.358771 234.495148 
L 191.73972 233.746206 
L 194.037769 232.937665 
L 196.257874 232.074933 
L 198.404576 231.162788 
L 200.482038 230.205467 
L 202.494091 229.206743 
L 204.444264 228.169986 
L 206.335817 227.098214 
L 208.171768 225.99414 
L 209.954912 224.860209 
L 211.687847 223.698629 
L 213.372989 222.5114 
L 215.01259 221.300338 
L 216.608751 220.067095 
L 218.163435 218.813179 
L 219.67848 217.539965 
L 221.155609 216.248715 
" clip-path="url(#p4b66368660)" style="fill: none; stroke: #ff7f0e; stroke-width: 1.5; stroke-linecap: square"/>
   </g>
   <g id="line2d_31">
    <path d="M 151.619326 235.256618 
L 156.839564 237.41723 
L 161.783773 239.177731 
L 166.475835 240.599259 
L 170.936779 241.731077 
L 175.185215 242.613327 
L 179.23768 243.279049 
L 183.108929 243.755686 
L 186.812179 244.066224 
L 190.359311 244.230065 
L 193.76104 244.263694 
L 197.027061 244.181216 
L 200.166171 243.994765 
L 203.186375 243.714841 
L 206.094979 243.350572 
L 208.898661 242.909938 
L 211.603548 242.39994 
L 214.215267 241.82675 
L 216.739001 241.195826 
L 219.179531 240.512018 
L 221.541278 239.779646 
L 223.828336 239.002573 
L 226.044503 238.184261 
L 228.193308 237.327826 
L 230.278038 236.436078 
L 232.301756 235.511556 
L 234.26732 234.556562 
L 236.177405 233.573188 
L 238.034511 232.56334 
L 239.840986 231.528755 
" clip-path="url(#p4b66368660)" style="fill: none; stroke: #2ca02c; stroke-width: 1.5; stroke-linecap: square"/>
   </g>
   <g id="line2d_32">
    <path d="M 151.619326 235.256618 
L 157.676174 238.304705 
L 163.407381 240.834802 
L 168.840385 242.930396 
L 173.999503 244.65793 
L 178.906363 246.070945 
L 183.580278 247.213064 
L 188.038551 248.120184 
L 192.296735 248.822118 
L 196.368855 249.343828 
L 200.267593 249.706376 
L 204.004455 249.927654 
L 207.589902 250.022963 
L 211.03347 250.005463 
L 214.343877 249.886536 
L 217.529108 249.676076 
L 220.596491 249.382726 
L 223.55277 249.014069 
L 226.40416 248.576785 
L 229.156401 248.076782 
L 231.814802 247.519307 
L 234.384285 246.909032 
L 236.869419 246.250133 
L 239.274451 245.546355 
L 241.603336 244.801063 
L 243.859762 244.017293 
L 246.047173 243.197789 
L 248.168791 242.345036 
L 250.22763 241.461296 
L 252.226518 240.548622 
" clip-path="url(#p4b66368660)" style="fill: none; stroke: #d62728; stroke-width: 1.5; stroke-linecap: square"/>
   </g>
   <g id="line2d_33">
    <path d="M 224.048735 292.760138 
L 226.893273 291.837419 
L 229.578199 290.844759 
L 232.118812 289.791103 
L 234.528364 288.683933 
L 236.818412 287.529556 
L 238.999087 286.333329 
L 241.079317 285.099833 
L 243.067013 283.833006 
L 244.96921 282.536258 
L 246.792194 281.212554 
L 248.541604 279.864484 
L 250.222514 278.494322 
L 251.839506 277.104074 
L 253.396732 275.695514 
L 254.897964 274.270218 
L 256.34664 272.829593 
L 257.745901 271.374893 
L 259.098622 269.907248 
L 260.407445 268.427669 
L 261.674798 266.937072 
L 262.902923 265.436284 
L 264.093888 263.926055 
L 265.249609 262.407066 
L 266.371862 260.879937 
L 267.462298 259.345234 
L 268.522451 257.803476 
L 269.553753 256.255135 
L 270.557539 254.700649 
L 271.535057 253.140415 
" clip-path="url(#p4b66368660)" style="fill: none; stroke: #1f77b4; stroke-width: 1.5; stroke-linecap: square"/>
   </g>
   <g id="line2d_34">
    <path d="M 224.048735 292.760138 
L 228.252579 292.603266 
L 232.203638 292.311686 
L 235.92621 291.903832 
L 239.441399 291.394897 
L 242.767636 290.797517 
L 245.921105 290.12229 
L 248.916092 289.378174 
L 251.765259 288.572795 
L 254.479882 287.712684 
L 257.070039 286.80347 
L 259.544772 285.850029 
L 261.912221 284.856611 
L 264.179737 283.826931 
L 266.35398 282.764258 
L 268.441001 281.671475 
L 270.44631 280.551137 
L 272.374942 279.405516 
L 274.231504 278.236639 
L 276.020224 277.046322 
L 277.744988 275.836194 
L 279.409378 274.607722 
L 281.016701 273.362233 
L 282.570014 272.100925 
L 284.072151 270.824888 
L 285.525741 269.535111 
L 286.933228 268.232499 
L 288.296888 266.917875 
L 289.618843 265.591996 
L 290.901073 264.255554 
" clip-path="url(#p4b66368660)" style="fill: none; stroke: #ff7f0e; stroke-width: 1.5; stroke-linecap: square"/>
   </g>
   <g id="line2d_35">
    <path d="M 224.048735 292.760138 
L 229.494027 293.295745 
L 234.591414 293.620704 
L 239.374195 293.765909 
L 243.871401 293.756446 
L 248.108474 293.612903 
L 252.107819 293.352333 
L 255.889256 292.988988 
L 259.47039 292.534872 
L 262.866924 292.000168 
L 266.092909 291.39357 
L 269.160967 290.722552 
L 272.082468 289.99357 
L 274.86769 289.212234 
L 277.525946 288.383439 
L 280.065697 287.511482 
L 282.494654 286.600144 
L 284.819857 285.652769 
L 287.04775 284.672328 
L 289.184244 283.661466 
L 291.234769 282.622546 
L 293.20433 281.557688 
L 295.097541 280.468799 
L 296.918669 279.357598 
L 298.671663 278.225642 
L 300.360185 277.074339 
L 301.987637 275.904971 
L 303.557182 274.718707 
L 305.071767 273.516611 
L 306.53414 272.29966 
" clip-path="url(#p4b66368660)" style="fill: none; stroke: #2ca02c; stroke-width: 1.5; stroke-linecap: square"/>
   </g>
   <g id="line2d_36">
    <path d="M 224.048735 292.760138 
L 230.360677 293.775273 
L 236.25247 294.517562 
L 241.764077 295.029005 
L 246.930473 295.343344 
L 251.782408 295.488 
L 256.347039 295.485486 
L 260.64844 295.354463 
L 264.70804 295.110528 
L 268.544978 294.766824 
L 272.176409 294.334501 
L 275.617755 293.823083 
L 278.882921 293.240758 
L 281.984483 292.594598 
L 284.933844 291.890751 
L 287.741369 291.134584 
L 290.416501 290.330804 
L 292.967866 289.483558 
L 295.403356 288.596514 
L 297.73021 287.672928 
L 299.95508 286.715702 
L 302.084089 285.72743 
L 304.122885 284.710439 
L 306.076685 283.666823 
L 307.950315 282.598469 
L 309.748249 281.507088 
L 311.474639 280.394229 
L 313.133344 279.261302 
L 314.727954 278.109591 
L 316.261818 276.94027 
" clip-path="url(#p4b66368660)" style="fill: none; stroke: #d62728; stroke-width: 1.5; stroke-linecap: square"/>
   </g>
   <g id="line2d_37">
    <path d="M 74.392987 87.441224 
L 75.904662 91.191319 
L 77.416336 94.907206 
L 78.92801 98.588886 
L 80.439684 102.236359 
L 81.951358 105.849624 
L 83.463033 109.428682 
L 84.974707 112.973532 
L 86.486381 116.484174 
L 87.998055 119.960609 
L 89.50973 123.402837 
L 91.021404 126.810857 
L 92.533078 130.18467 
L 94.044752 133.524275 
L 95.556426 136.829673 
L 97.068101 140.100863 
L 98.579775 143.337846 
L 100.091449 146.540621 
L 101.603123 149.709189 
L 103.114797 152.84355 
L 104.626472 155.943702 
L 106.138146 159.009648 
L 107.64982 162.041386 
L 109.161494 165.038916 
L 110.673169 168.002239 
L 112.184843 170.931354 
L 113.696517 173.826262 
L 115.208191 176.686963 
L 116.719865 179.513456 
L 118.23154 182.305741 
L 119.743214 185.06382 
L 121.254888 187.78769 
L 122.766562 190.477353 
L 124.278237 193.132809 
L 125.789911 195.754057 
L 127.301585 198.341098 
L 128.813259 200.893931 
L 130.324933 203.412556 
L 131.836608 205.896975 
L 133.348282 208.347185 
L 134.859956 210.763189 
L 136.37163 213.144984 
L 137.883305 215.492573 
L 139.394979 217.805953 
L 140.906653 220.085127 
L 142.418327 222.330092 
L 143.930001 224.540851 
L 145.441676 226.717402 
L 146.95335 228.859745 
L 148.465024 230.967881 
L 149.976698 233.041809 
L 151.488372 235.08153 
L 153.000047 237.087044 
L 154.511721 239.05835 
L 156.023395 240.995448 
L 157.535069 242.898339 
L 159.046744 244.767023 
L 160.558418 246.601499 
L 162.070092 248.401767 
L 163.581766 250.167829 
L 165.09344 251.899682 
L 166.605115 253.597328 
L 168.116789 255.260767 
L 169.628463 256.889998 
L 171.140137 258.485022 
L 172.651812 260.045838 
L 174.163486 261.572447 
L 175.67516 263.064848 
L 177.186834 264.523042 
L 178.698508 265.947028 
L 180.210183 267.336807 
L 181.721857 268.692378 
L 183.233531 270.013742 
L 184.745205 271.300898 
L 186.25688 272.553847 
L 187.768554 273.772589 
L 189.280228 274.957123 
L 190.791902 276.107449 
L 192.303576 277.223568 
L 193.815251 278.305479 
L 195.326925 279.353183 
L 196.838599 280.36668 
L 198.350273 281.345969 
L 199.861947 282.29105 
L 201.373622 283.201925 
L 202.885296 284.078591 
L 204.39697 284.92105 
L 205.908644 285.729302 
L 207.420319 286.503346 
L 208.931993 287.243183 
L 210.443667 287.948812 
L 211.955341 288.620233 
L 213.467015 289.257448 
L 214.97869 289.860454 
L 216.490364 290.429254 
L 218.002038 290.963845 
L 219.513712 291.46423 
L 221.025387 291.930407 
L 222.537061 292.362376 
L 224.048735 292.760138 
" clip-path="url(#p4b66368660)" style="fill: none; stroke-dasharray: 5.55,2.4; stroke-dashoffset: 0; stroke: #808080; stroke-width: 1.5"/>
   </g>
   <g id="line2d_38">
    <path d="M 114.242308 54.681038 
L 116.282909 59.548846 
L 118.32351 64.331288 
L 120.364111 69.029355 
L 122.404712 73.644036 
L 124.445313 78.176323 
L 126.485915 82.627206 
L 128.526516 86.997676 
L 130.567117 91.288722 
L 132.607718 95.501337 
L 134.648319 99.63651 
L 136.68892 103.695231 
L 138.729521 107.678492 
L 140.770122 111.587283 
L 142.810723 115.422594 
L 144.851325 119.185416 
L 146.891926 122.876739 
L 148.932527 126.497555 
L 150.973128 130.048854 
L 153.013729 133.531625 
L 155.05433 136.94686 
L 157.094931 140.29555 
L 159.135532 143.578684 
L 161.176133 146.797254 
L 163.216735 149.95225 
L 165.257336 153.044662 
L 167.297937 156.075481 
L 169.338538 159.045697 
L 171.379139 161.956302 
L 173.41974 164.808286 
L 175.460341 167.602638 
L 177.500942 170.340351 
L 179.541544 173.022413 
L 181.582145 175.649817 
L 183.622746 178.223552 
L 185.663347 180.744609 
L 187.703948 183.213978 
L 189.744549 185.632651 
L 191.78515 188.001617 
L 193.825751 190.321867 
L 195.866352 192.594392 
L 197.906954 194.820182 
L 199.947555 197.000227 
L 201.988156 199.13552 
L 204.028757 201.227049 
L 206.069358 203.275805 
L 208.109959 205.28278 
L 210.15056 207.248962 
L 212.191161 209.175344 
L 214.231762 211.062916 
L 216.272364 212.912668 
L 218.312965 214.72559 
L 220.353566 216.502674 
L 222.394167 218.24491 
L 224.434768 219.953288 
L 226.475369 221.628798 
L 228.51597 223.272433 
L 230.556571 224.885181 
L 232.597172 226.468034 
L 234.637774 228.021982 
L 236.678375 229.548015 
L 238.718976 231.047125 
L 240.759577 232.520301 
L 242.800178 233.968535 
L 244.840779 235.392817 
L 246.88138 236.794137 
L 248.921981 238.173486 
L 250.962582 239.531854 
L 253.003184 240.870232 
L 255.043785 242.189611 
L 257.084386 243.490982 
L 259.124987 244.775333 
L 261.165588 246.043657 
L 263.206189 247.296944 
L 265.24679 248.536184 
L 267.287391 249.762368 
L 269.327992 250.976486 
L 271.368594 252.17953 
L 273.409195 253.372488 
L 275.449796 254.556353 
L 277.490397 255.732115 
L 279.530998 256.900763 
L 281.571599 258.06329 
L 283.6122 259.220684 
L 285.652801 260.373938 
L 287.693402 261.52404 
L 289.734004 262.671983 
L 291.774605 263.818756 
L 293.815206 264.96535 
L 295.855807 266.112755 
L 297.896408 267.261963 
L 299.937009 268.413963 
L 301.97761 269.569747 
L 304.018211 270.730304 
L 306.058813 271.896625 
L 308.099414 273.069701 
L 310.140015 274.250523 
L 312.180616 275.44008 
L 314.221217 276.639364 
L 316.261818 277.849365 
" clip-path="url(#p4b66368660)" style="fill: none; stroke-dasharray: 5.55,2.4; stroke-dashoffset: 0; stroke: #808080; stroke-width: 1.5"/>
   </g>
   <g id="line2d_39">
    <path d="M 91.899187 91.976871 
L 93.708162 95.667415 
L 95.517138 99.323862 
L 97.326114 102.946213 
L 99.135089 106.534467 
L 100.944065 110.088626 
L 102.753041 113.608688 
L 104.562017 117.094654 
L 106.370992 120.546523 
L 108.179968 123.964297 
L 109.988944 127.347974 
L 111.797919 130.697555 
L 113.606895 134.01304 
L 115.415871 137.294428 
L 117.224847 140.54172 
L 119.033822 143.754916 
L 120.842798 146.934016 
L 122.651774 150.07902 
L 124.460749 153.189927 
L 126.269725 156.266738 
L 128.078701 159.309453 
L 129.887676 162.318071 
L 131.696652 165.292594 
L 133.505628 168.23302 
L 135.314604 171.13935 
L 137.123579 174.011583 
L 138.932555 176.849721 
L 140.741531 179.653762 
L 142.550506 182.423707 
L 144.359482 185.159556 
L 146.168458 187.861308 
L 147.977434 190.528964 
L 149.786409 193.162524 
L 151.595385 195.761988 
L 153.404361 198.327356 
L 155.213336 200.858627 
L 157.022312 203.355802 
L 158.831288 205.818881 
L 160.640263 208.247863 
L 162.449239 210.64275 
L 164.258215 213.00354 
L 166.067191 215.330233 
L 167.876166 217.622831 
L 169.685142 219.881332 
L 171.494118 222.105738 
L 173.303093 224.296047 
L 175.112069 226.452259 
L 176.921045 228.574376 
L 178.730021 230.662396 
L 180.538996 232.71632 
L 182.347972 234.736147 
L 184.156948 236.721879 
L 185.965923 238.673514 
L 187.774899 240.591053 
L 189.583875 242.474496 
L 191.39285 244.323843 
L 193.201826 246.139093 
L 195.010802 247.920247 
L 196.819778 249.667305 
L 198.628753 251.380266 
L 200.437729 253.059132 
L 202.246705 254.703901 
L 204.05568 256.314574 
L 205.864656 257.89115 
L 207.673632 259.433631 
L 209.482608 260.942015 
L 211.291583 262.416303 
L 213.100559 263.856494 
L 214.909535 265.26259 
L 216.71851 266.634589 
L 218.527486 267.972492 
L 220.336462 269.276299 
L 222.145437 270.546009 
L 223.954413 271.781624 
L 225.763389 272.983142 
L 227.572365 274.150563 
L 229.38134 275.283889 
L 231.190316 276.383118 
L 232.999292 277.448251 
L 234.808267 278.479288 
L 236.617243 279.476229 
L 238.426219 280.439073 
L 240.235195 281.367821 
L 242.04417 282.262473 
L 243.853146 283.123029 
L 245.662122 283.949488 
L 247.471097 284.741852 
L 249.280073 285.500119 
L 251.089049 286.224289 
L 252.898024 286.914364 
L 254.707 287.570342 
L 256.515976 288.192224 
L 258.324952 288.78001 
L 260.133927 289.333699 
L 261.942903 289.853293 
L 263.751879 290.33879 
L 265.560854 290.79019 
L 267.36983 291.207495 
L 269.178806 291.590703 
L 270.987782 291.939816 
" clip-path="url(#p4b66368660)" style="fill: none; stroke-dasharray: 5.55,2.4; stroke-dashoffset: 0; stroke: #808080; stroke-width: 1.5"/>
   </g>
   <g id="line2d_40">
    <path d="M 104.46059 79.520919 
L 106.420411 83.300449 
L 108.380232 87.04497 
L 110.340053 90.75448 
L 112.299873 94.428981 
L 114.259694 98.068472 
L 116.219515 101.672952 
L 118.179336 105.242423 
L 120.139157 108.776883 
L 122.098978 112.276334 
L 124.058798 115.740774 
L 126.018619 119.170204 
L 127.97844 122.564625 
L 129.938261 125.924035 
L 131.898082 129.248435 
L 133.857902 132.537826 
L 135.817723 135.792206 
L 137.777544 139.011576 
L 139.737365 142.195936 
L 141.697186 145.345287 
L 143.657007 148.459627 
L 145.616827 151.538957 
L 147.576648 154.583277 
L 149.536469 157.592587 
L 151.49629 160.566887 
L 153.456111 163.506177 
L 155.415932 166.410457 
L 157.375752 169.279727 
L 159.335573 172.113987 
L 161.295394 174.913237 
L 163.255215 177.677477 
L 165.215036 180.406707 
L 167.174857 183.100927 
L 169.134677 185.760137 
L 171.094498 188.384336 
L 173.054319 190.973526 
L 175.01414 193.527706 
L 176.973961 196.046876 
L 178.933782 198.531035 
L 180.893602 200.980185 
L 182.853423 203.394325 
L 184.813244 205.773454 
L 186.773065 208.117574 
L 188.732886 210.426683 
L 190.692706 212.700783 
L 192.652527 214.939872 
L 194.612348 217.143952 
L 196.572169 219.313021 
L 198.53199 221.447081 
L 200.491811 223.54613 
L 202.451631 225.61017 
L 204.411452 227.639199 
L 206.371273 229.633218 
L 208.331094 231.592228 
L 210.290915 233.516227 
L 212.250736 235.405216 
L 214.210556 237.259195 
L 216.170377 239.078165 
L 218.130198 240.862124 
L 220.090019 242.611073 
L 222.04984 244.325012 
L 224.009661 246.003941 
L 225.969481 247.64786 
L 227.929302 249.256769 
L 229.889123 250.830668 
L 231.848944 252.369557 
L 233.808765 253.873436 
L 235.768585 255.342305 
L 237.728406 256.776164 
L 239.688227 258.175013 
L 241.648048 259.538852 
L 243.607869 260.867681 
L 245.56769 262.161499 
L 247.52751 263.420308 
L 249.487331 264.644107 
L 251.447152 265.832896 
L 253.406973 266.986674 
L 255.366794 268.105443 
L 257.326615 269.189202 
L 259.286435 270.23795 
L 261.246256 271.251689 
L 263.206077 272.230418 
L 265.165898 273.174136 
L 267.125719 274.082845 
L 269.08554 274.956543 
L 271.04536 275.795232 
L 273.005181 276.59891 
L 274.965002 277.367578 
L 276.924823 278.101237 
L 278.884644 278.799885 
L 280.844464 279.463523 
L 282.804285 280.092152 
L 284.764106 280.68577 
L 286.723927 281.244378 
L 288.683748 281.767977 
L 290.643569 282.256565 
L 292.603389 282.710143 
L 294.56321 283.128711 
L 296.523031 283.512269 
L 298.482852 283.860817 
" clip-path="url(#p4b66368660)" style="fill: none; stroke-dasharray: 5.55,2.4; stroke-dashoffset: 0; stroke: #808080; stroke-width: 1.5"/>
   </g>
   <g id="patch_3">
    <path d="M 57.6 307.584 
L 57.6 41.472 
" style="fill: none; stroke: #000000; stroke-width: 0.8; stroke-linejoin: miter; stroke-linecap: square"/>
   </g>
   <g id="patch_4">
    <path d="M 414.72 307.584 
L 414.72 41.472 
" style="fill: none; stroke: #000000; stroke-width: 0.8; stroke-linejoin: miter; stroke-linecap: square"/>
   </g>
   <g id="patch_5">
    <path d="M 57.6 307.584 
L 414.72 307.584 
" style="fill: none; stroke: #000000; stroke-width: 0.8; stroke-linejoin: miter; stroke-linecap: square"/>
   </g>
   <g id="patch_6">
    <path d="M 57.6 41.472 
L 414.72 41.472 
" style="fill: none; stroke: #000000; stroke-width: 0.8; stroke-linejoin: miter; stroke-linecap: square"/>
   </g>
   <g id="legend_1">
    <g id="patch_7">
     <path d="M 306.300037 137.094979 
L 404.22 137.094979 
Q 407.22 137.094979 407.22 134.094979 
L 407.22 51.972 
Q 407.22 48.972 404.22 48.972 
L 306.300037 48.972 
Q 303.300037 48.972 303.300037 51.972 
L 303.300037 134.094979 
Q 303.300037 137.094979 306.300037 137.094979 
z
" style="fill: #ffffff; opacity: 0.8; stroke: #cccccc; stroke-linejoin: miter"/>
    </g>
    <g id="line2d_41">
     <path d="M 309.300037 60.222 
L 324.300037 60.222 
L 339.300037 60.222 
" style="fill: none; stroke: #1f77b4; stroke-width: 1.5; stroke-linecap: square"/>
    </g>
    <g id="text_15">
     <!-- $z_0$=0.01 -->
     <g transform="translate(351.300037 65.472) scale(0.15 -0.15)">
      <defs>
       <path id="CMMI12-7a" d="M 813 486 
C 1088 809 1312 1015 1632 1313 
C 2016 1657 2182 1822 2272 1922 
C 2720 2371 2944 2713 2944 2764 
C 2944 2816 2893 2816 2880 2816 
C 2835 2816 2822 2790 2790 2745 
C 2630 2470 2477 2368 2310 2368 
C 2176 2368 2106 2403 1984 2547 
C 1850 2707 1741 2816 1555 2816 
C 1088 2816 806 2265 806 2127 
C 806 2107 813 2067 870 2067 
C 922 2067 928 2094 947 2140 
C 1056 2387 1363 2415 1485 2415 
C 1619 2415 1747 2387 1882 2342 
C 2125 2239 2227 2239 2291 2239 
C 2336 2239 2362 2239 2394 2246 
C 2182 1988 1837 1670 1549 1399 
L 902 783 
C 512 380 275 32 275 -13 
C 275 -52 307 -64 346 -64 
C 384 -64 390 -58 435 19 
C 538 179 742 384 979 384 
C 1114 384 1178 356 1306 211 
C 1427 70 1536 -64 1741 -64 
C 2368 -64 2726 723 2726 876 
C 2726 902 2720 942 2656 942 
C 2605 942 2598 915 2579 849 
C 2438 460 2061 336 1811 336 
C 1677 336 1549 364 1414 409 
C 1158 512 1088 512 1005 512 
C 941 512 870 512 813 486 
z
" transform="scale(0.015625)"/>
       <path id="CMR17-3d" d="M 4115 2048 
C 4211 2048 4307 2048 4307 2156 
C 4307 2272 4198 2272 4090 2272 
L 512 2272 
C 403 2272 294 2272 294 2156 
C 294 2048 390 2048 486 2048 
L 4115 2048 
z
M 4090 927 
C 4198 927 4307 927 4307 1043 
C 4307 1152 4211 1152 4115 1152 
L 486 1152 
C 390 1152 294 1152 294 1043 
C 294 927 403 927 512 927 
L 4090 927 
z
" transform="scale(0.015625)"/>
      </defs>
      <use xlink:href="#CMMI12-7a" transform="scale(0.996264)"/>
      <use xlink:href="#CMR17-30" transform="translate(45.315753 -14.943915) scale(0.697382)"/>
      <use xlink:href="#CMR17-3d" transform="translate(77.797067 0) scale(0.996264)"/>
      <use xlink:href="#CMR17-30" transform="translate(149.511856 0) scale(0.996264)"/>
      <use xlink:href="#CMR17-2e" transform="translate(195.202333 0) scale(0.996264)"/>
      <use xlink:href="#CMR17-30" transform="translate(220.073391 0) scale(0.996264)"/>
      <use xlink:href="#CMR17-31" transform="translate(265.763868 0) scale(0.996264)"/>
     </g>
    </g>
    <g id="line2d_42">
     <path d="M 309.300037 81.127745 
L 324.300037 81.127745 
L 339.300037 81.127745 
" style="fill: none; stroke: #ff7f0e; stroke-width: 1.5; stroke-linecap: square"/>
    </g>
    <g id="text_16">
     <!-- $z_0$=0.1 -->
     <g transform="translate(351.300037 86.377745) scale(0.15 -0.15)">
      <use xlink:href="#CMMI12-7a" transform="scale(0.996264)"/>
      <use xlink:href="#CMR17-30" transform="translate(45.315753 -14.943915) scale(0.697382)"/>
      <use xlink:href="#CMR17-3d" transform="translate(77.797067 0) scale(0.996264)"/>
      <use xlink:href="#CMR17-30" transform="translate(149.511856 0) scale(0.996264)"/>
      <use xlink:href="#CMR17-2e" transform="translate(195.202333 0) scale(0.996264)"/>
      <use xlink:href="#CMR17-31" transform="translate(220.073391 0) scale(0.996264)"/>
     </g>
    </g>
    <g id="line2d_43">
     <path d="M 309.300037 102.033489 
L 324.300037 102.033489 
L 339.300037 102.033489 
" style="fill: none; stroke: #2ca02c; stroke-width: 1.5; stroke-linecap: square"/>
    </g>
    <g id="text_17">
     <!-- $z_0$=0.3 -->
     <g transform="translate(351.300037 107.283489) scale(0.15 -0.15)">
      <use xlink:href="#CMMI12-7a" transform="scale(0.996264)"/>
      <use xlink:href="#CMR17-30" transform="translate(45.315753 -14.943915) scale(0.697382)"/>
      <use xlink:href="#CMR17-3d" transform="translate(77.797067 0) scale(0.996264)"/>
      <use xlink:href="#CMR17-30" transform="translate(149.511856 0) scale(0.996264)"/>
      <use xlink:href="#CMR17-2e" transform="translate(195.202333 0) scale(0.996264)"/>
      <use xlink:href="#CMR17-33" transform="translate(220.073391 0) scale(0.996264)"/>
     </g>
    </g>
    <g id="line2d_44">
     <path d="M 309.300037 122.939234 
L 324.300037 122.939234 
L 339.300037 122.939234 
" style="fill: none; stroke: #d62728; stroke-width: 1.5; stroke-linecap: square"/>
    </g>
    <g id="text_18">
     <!-- $z_0$=0.5 -->
     <g transform="translate(351.300037 128.189234) scale(0.15 -0.15)">
      <use xlink:href="#CMMI12-7a" transform="scale(0.996264)"/>
      <use xlink:href="#CMR17-30" transform="translate(45.315753 -14.943915) scale(0.697382)"/>
      <use xlink:href="#CMR17-3d" transform="translate(77.797067 0) scale(0.996264)"/>
      <use xlink:href="#CMR17-30" transform="translate(149.511856 0) scale(0.996264)"/>
      <use xlink:href="#CMR17-2e" transform="translate(195.202333 0) scale(0.996264)"/>
      <use xlink:href="#CMR17-35" transform="translate(220.073391 0) scale(0.996264)"/>
     </g>
    </g>
   </g>
  </g>
 </g>
 <defs>
  <clipPath id="p4b66368660">
   <rect x="57.6" y="41.472" width="357.12" height="266.112"/>
  </clipPath>
 </defs>
</svg>
