<?xml version="1.0" encoding="utf-8" standalone="no"?>
<!DOCTYPE svg PUBLIC "-//W3C//DTD SVG 1.1//EN"
  "http://www.w3.org/Graphics/SVG/1.1/DTD/svg11.dtd">
<svg xmlns:xlink="http://www.w3.org/1999/xlink" width="460.8pt" height="345.6pt" viewBox="0 0 460.8 345.6" xmlns="http://www.w3.org/2000/svg" version="1.1">
 <metadata>
  <rdf:RDF xmlns:dc="http://purl.org/dc/elements/1.1/" xmlns:cc="http://creativecommons.org/ns#" xmlns:rdf="http://www.w3.org/1999/02/22-rdf-syntax-ns#">
   <cc:Work>
    <dc:type rdf:resource="http://purl.org/dc/dcmitype/StillImage"/>
    <dc:date>2023-12-22T14:59:54.461068</dc:date>
    <dc:format>image/svg+xml</dc:format>
    <dc:creator>
     <cc:Agent>
      <dc:title>Matplotlib v3.8.1, https://matplotlib.org/</dc:title>
     </cc:Agent>
    </dc:creator>
   </cc:Work>
  </rdf:RDF>
 </metadata>
 <defs>
  <style type="text/css">*{stroke-linejoin: round; stroke-linecap: butt}</style>
 </defs>
 <g id="figure_1">
  <g id="patch_1">
   <path d="M 0 345.6 
L 460.8 345.6 
L 460.8 0 
L 0 0 
z
" style="fill: #ffffff"/>
  </g>
  <g id="axes_1">
   <g id="patch_2">
    <path d="M 57.6 307.584 
L 414.72 307.584 
L 414.72 41.472 
L 57.6 41.472 
z
" style="fill: #ffffff"/>
   </g>
   <g id="matplotlib.axis_1">
    <g id="xtick_1">
     <g id="line2d_1">
      <path d="M 57.6 307.584 
L 57.6 41.472 
" clip-path="url(#pf815641f53)" style="fill: none; stroke: #b0b0b0; stroke-width: 0.8; stroke-linecap: square"/>
     </g>
     <g id="line2d_2">
      <defs>
       <path id="me288b0f463" d="M 0 0 
L 0 3.5 
" style="stroke: #000000; stroke-width: 0.8"/>
      </defs>
      <g>
       <use xlink:href="#me288b0f463" x="57.6" y="307.584" style="stroke: #000000; stroke-width: 0.8"/>
      </g>
     </g>
     <g id="text_1">
      <!-- $\mathdefault{1}$ -->
      <g transform="translate(53.941881 324.961725) scale(0.15 -0.15)">
       <defs>
        <path id="CMR17-31" d="M 1702 4083 
C 1702 4217 1696 4224 1606 4224 
C 1357 3927 979 3833 621 3820 
C 602 3820 570 3820 563 3808 
C 557 3795 557 3782 557 3648 
C 755 3648 1088 3686 1344 3839 
L 1344 467 
C 1344 243 1331 166 781 166 
L 589 166 
L 589 0 
C 896 6 1216 12 1523 12 
C 1830 12 2150 6 2458 0 
L 2458 166 
L 2266 166 
C 1715 166 1702 236 1702 467 
L 1702 4083 
z
" transform="scale(0.015625)"/>
       </defs>
       <use xlink:href="#CMR17-31" transform="scale(0.996264)"/>
      </g>
     </g>
    </g>
    <g id="xtick_2">
     <g id="line2d_3">
      <path d="M 146.88 307.584 
L 146.88 41.472 
" clip-path="url(#pf815641f53)" style="fill: none; stroke: #b0b0b0; stroke-width: 0.8; stroke-linecap: square"/>
     </g>
     <g id="line2d_4">
      <g>
       <use xlink:href="#me288b0f463" x="146.88" y="307.584" style="stroke: #000000; stroke-width: 0.8"/>
      </g>
     </g>
     <g id="text_2">
      <!-- $\mathdefault{2}$ -->
      <g transform="translate(143.221881 324.961725) scale(0.15 -0.15)">
       <defs>
        <path id="CMR17-32" d="M 2669 990 
L 2554 990 
C 2490 537 2438 460 2413 422 
C 2381 371 1920 371 1830 371 
L 602 371 
C 832 620 1280 1073 1824 1596 
C 2214 1966 2669 2400 2669 3033 
C 2669 3788 2067 4224 1395 4224 
C 691 4224 262 3603 262 3027 
C 262 2777 448 2745 525 2745 
C 589 2745 781 2783 781 3007 
C 781 3206 614 3264 525 3264 
C 486 3264 448 3257 422 3244 
C 544 3788 915 4057 1306 4057 
C 1862 4057 2227 3616 2227 3033 
C 2227 2477 1901 1998 1536 1583 
L 262 147 
L 262 0 
L 2515 0 
L 2669 990 
z
" transform="scale(0.015625)"/>
       </defs>
       <use xlink:href="#CMR17-32" transform="scale(0.996264)"/>
      </g>
     </g>
    </g>
    <g id="xtick_3">
     <g id="line2d_5">
      <path d="M 236.16 307.584 
L 236.16 41.472 
" clip-path="url(#pf815641f53)" style="fill: none; stroke: #b0b0b0; stroke-width: 0.8; stroke-linecap: square"/>
     </g>
     <g id="line2d_6">
      <g>
       <use xlink:href="#me288b0f463" x="236.16" y="307.584" style="stroke: #000000; stroke-width: 0.8"/>
      </g>
     </g>
     <g id="text_3">
      <!-- $\mathdefault{3}$ -->
      <g transform="translate(232.501881 324.961725) scale(0.15 -0.15)">
       <defs>
        <path id="CMR17-33" d="M 1414 2176 
C 1984 2176 2234 1673 2234 1094 
C 2234 322 1824 25 1453 25 
C 1114 25 563 193 390 691 
C 422 678 454 678 486 678 
C 640 678 755 780 755 947 
C 755 1132 614 1216 486 1216 
C 378 1216 211 1164 211 927 
C 211 335 787 -128 1466 -128 
C 2176 -128 2720 432 2720 1087 
C 2720 1718 2208 2176 1600 2246 
C 2086 2347 2554 2776 2554 3353 
C 2554 3856 2048 4224 1472 4224 
C 890 4224 378 3862 378 3347 
C 378 3123 544 3084 627 3084 
C 762 3084 877 3167 877 3334 
C 877 3500 762 3584 627 3584 
C 602 3584 570 3584 544 3571 
C 730 3999 1235 4076 1459 4076 
C 1683 4076 2106 3966 2106 3347 
C 2106 3167 2080 2851 1862 2574 
C 1670 2329 1453 2316 1242 2297 
C 1210 2297 1062 2284 1037 2284 
C 992 2278 966 2272 966 2227 
C 966 2182 973 2176 1101 2176 
L 1414 2176 
z
" transform="scale(0.015625)"/>
       </defs>
       <use xlink:href="#CMR17-33" transform="scale(0.996264)"/>
      </g>
     </g>
    </g>
    <g id="xtick_4">
     <g id="line2d_7">
      <path d="M 325.44 307.584 
L 325.44 41.472 
" clip-path="url(#pf815641f53)" style="fill: none; stroke: #b0b0b0; stroke-width: 0.8; stroke-linecap: square"/>
     </g>
     <g id="line2d_8">
      <g>
       <use xlink:href="#me288b0f463" x="325.44" y="307.584" style="stroke: #000000; stroke-width: 0.8"/>
      </g>
     </g>
     <g id="text_4">
      <!-- $\mathdefault{4}$ -->
      <g transform="translate(321.781881 324.961725) scale(0.15 -0.15)">
       <defs>
        <path id="CMR17-34" d="M 2150 4147 
C 2150 4281 2144 4288 2029 4288 
L 128 1254 
L 128 1088 
L 1779 1088 
L 1779 460 
C 1779 230 1766 166 1318 166 
L 1197 166 
L 1197 0 
C 1402 12 1747 12 1965 12 
C 2182 12 2528 12 2733 0 
L 2733 166 
L 2611 166 
C 2163 166 2150 230 2150 460 
L 2150 1088 
L 2803 1088 
L 2803 1254 
L 2150 1254 
L 2150 4147 
z
M 1798 3723 
L 1798 1254 
L 256 1254 
L 1798 3723 
z
" transform="scale(0.015625)"/>
       </defs>
       <use xlink:href="#CMR17-34" transform="scale(0.996264)"/>
      </g>
     </g>
    </g>
    <g id="xtick_5">
     <g id="line2d_9">
      <path d="M 414.72 307.584 
L 414.72 41.472 
" clip-path="url(#pf815641f53)" style="fill: none; stroke: #b0b0b0; stroke-width: 0.8; stroke-linecap: square"/>
     </g>
     <g id="line2d_10">
      <g>
       <use xlink:href="#me288b0f463" x="414.72" y="307.584" style="stroke: #000000; stroke-width: 0.8"/>
      </g>
     </g>
     <g id="text_5">
      <!-- $\mathdefault{5}$ -->
      <g transform="translate(411.061881 324.961725) scale(0.15 -0.15)">
       <defs>
        <path id="CMR17-35" d="M 730 3750 
C 794 3724 1056 3641 1325 3641 
C 1920 3641 2246 3961 2432 4140 
C 2432 4191 2432 4224 2394 4224 
C 2387 4224 2374 4224 2323 4198 
C 2099 4102 1837 4032 1517 4032 
C 1325 4032 1037 4055 723 4191 
C 653 4224 640 4224 634 4224 
C 602 4224 595 4217 595 4090 
L 595 2231 
C 595 2113 595 2080 659 2080 
C 691 2080 704 2093 736 2139 
C 941 2435 1222 2560 1542 2560 
C 1766 2560 2246 2415 2246 1293 
C 2246 1087 2246 716 2054 422 
C 1894 159 1645 25 1370 25 
C 947 25 518 319 403 812 
C 429 806 480 793 506 793 
C 589 793 749 838 749 1036 
C 749 1209 627 1280 506 1280 
C 358 1280 262 1190 262 1011 
C 262 454 704 -128 1382 -128 
C 2042 -128 2669 441 2669 1267 
C 2669 2054 2170 2662 1549 2662 
C 1222 2662 947 2540 730 2304 
L 730 3750 
z
" transform="scale(0.015625)"/>
       </defs>
       <use xlink:href="#CMR17-35" transform="scale(0.996264)"/>
      </g>
     </g>
    </g>
    <g id="text_6">
     <!-- Daily energy need (kWh) -->
     <g transform="translate(154.973977 343.07544) scale(0.15 -0.15)">
      <defs>
       <path id="CMR17-44" d="M 333 4352 
L 333 4185 
C 774 4185 845 4185 845 3898 
L 845 453 
C 845 166 774 166 333 166 
L 333 0 
L 2368 0 
C 3398 0 4224 943 4224 2140 
C 4224 3344 3411 4352 2368 4352 
L 333 4352 
z
M 1523 166 
C 1267 166 1254 198 1254 414 
L 1254 3936 
C 1254 4153 1267 4185 1523 4185 
L 2240 4185 
C 2771 4185 3750 3873 3750 2140 
C 3750 1242 3488 879 3366 707 
C 3213 510 2848 166 2240 166 
L 1523 166 
z
" transform="scale(0.015625)"/>
       <path id="CMR17-61" d="M 2304 1656 
C 2304 2048 2304 2275 2035 2534 
C 1798 2751 1523 2816 1306 2816 
C 800 2816 435 2408 435 1977 
C 435 1740 627 1728 666 1728 
C 749 1728 896 1779 896 1958 
C 896 2118 774 2188 666 2188 
C 640 2188 608 2182 589 2176 
C 723 2594 1069 2713 1293 2713 
C 1613 2713 1965 2421 1965 1875 
L 1965 1632 
C 1587 1619 1133 1568 774 1373 
C 371 1147 256 822 256 576 
C 256 77 832 -64 1171 -64 
C 1523 -64 1850 135 1990 505 
C 2003 219 2182 -39 2464 -39 
C 2598 -39 2938 51 2938 563 
L 2938 926 
L 2822 926 
L 2822 557 
C 2822 161 2650 109 2566 109 
C 2304 109 2304 446 2304 732 
L 2304 1656 
z
M 1965 887 
C 1965 323 1568 38 1216 38 
C 896 38 646 278 646 576 
C 646 771 730 1114 1101 1322 
C 1408 1497 1760 1523 1965 1536 
L 1965 887 
z
" transform="scale(0.015625)"/>
       <path id="CMR17-69" d="M 992 3961 
C 992 4102 877 4224 730 4224 
C 589 4224 467 4108 467 3961 
C 467 3820 582 3699 730 3699 
C 870 3699 992 3814 992 3961 
z
M 243 2745 
L 243 2579 
C 602 2579 653 2540 653 2231 
L 653 443 
C 653 198 627 166 218 166 
L 218 0 
C 371 12 646 12 806 12 
C 960 12 1222 12 1370 0 
L 1370 166 
C 992 166 979 205 979 436 
L 979 2816 
L 243 2745 
z
" transform="scale(0.015625)"/>
       <path id="CMR17-6c" d="M 979 4416 
L 218 4345 
L 218 4179 
C 595 4179 653 4141 653 3835 
L 653 439 
C 653 198 627 166 218 166 
L 218 0 
C 371 12 653 12 813 12 
C 979 12 1261 12 1414 0 
L 1414 166 
C 1005 166 979 191 979 439 
L 979 4416 
z
" transform="scale(0.015625)"/>
       <path id="CMR17-79" d="M 2496 2183 
C 2656 2579 2944 2585 3034 2585 
L 3034 2752 
C 2912 2745 2752 2739 2630 2739 
C 2496 2739 2285 2739 2157 2752 
L 2157 2585 
C 2400 2566 2406 2384 2406 2332 
C 2406 2268 2394 2235 2362 2158 
L 1664 409 
L 902 2300 
C 870 2378 870 2423 870 2430 
C 870 2572 1018 2585 1171 2585 
L 1171 2752 
C 1018 2739 742 2739 582 2739 
C 410 2739 205 2739 64 2752 
L 64 2585 
C 410 2585 448 2553 531 2345 
L 1485 -31 
C 1197 -795 1030 -1242 627 -1242 
C 557 -1242 397 -1223 282 -1106 
C 429 -1093 493 -1002 493 -892 
C 493 -782 416 -685 288 -685 
C 147 -685 77 -782 77 -899 
C 77 -1158 339 -1344 627 -1344 
C 998 -1344 1229 -983 1357 -659 
L 2496 2183 
z
" transform="scale(0.015625)"/>
       <path id="CMR17-65" d="M 2438 1503 
C 2464 1529 2464 1542 2464 1606 
C 2464 2251 2118 2816 1389 2816 
C 710 2816 173 2175 173 1394 
C 173 554 781 -64 1459 -64 
C 2176 -64 2458 619 2458 755 
C 2458 800 2419 800 2406 800 
C 2362 800 2355 787 2330 709 
C 2189 270 1837 51 1504 51 
C 1229 51 954 206 781 490 
C 582 819 582 1200 582 1503 
L 2438 1503 
z
M 589 1600 
C 634 2511 1126 2713 1382 2713 
C 1818 2713 2112 2308 2118 1600 
L 589 1600 
z
" transform="scale(0.015625)"/>
       <path id="CMR17-6e" d="M 2656 1954 
C 2656 2282 2592 2816 1837 2816 
C 1331 2816 1069 2424 973 2166 
L 966 2166 
L 966 2816 
L 211 2745 
L 211 2578 
C 589 2578 646 2540 646 2231 
L 646 443 
C 646 198 621 166 211 166 
L 211 0 
C 365 12 646 12 813 12 
C 979 12 1267 12 1421 0 
L 1421 166 
C 1011 166 986 192 986 443 
L 986 1678 
C 986 2269 1344 2713 1792 2713 
C 2266 2713 2317 2289 2317 1980 
L 2317 443 
C 2317 198 2291 166 1882 166 
L 1882 0 
C 2035 12 2317 12 2483 12 
C 2650 12 2938 12 3091 0 
L 3091 166 
C 2682 166 2656 192 2656 443 
L 2656 1954 
z
" transform="scale(0.015625)"/>
       <path id="CMR17-72" d="M 960 1517 
C 960 2134 1222 2713 1702 2713 
C 1747 2713 1792 2707 1837 2687 
C 1837 2687 1696 2642 1696 2475 
C 1696 2321 1818 2257 1914 2257 
C 1990 2257 2131 2302 2131 2482 
C 2131 2687 1926 2816 1709 2816 
C 1222 2816 1011 2340 947 2115 
L 941 2115 
L 941 2816 
L 198 2745 
L 198 2578 
C 576 2578 634 2540 634 2231 
L 634 443 
C 634 198 608 166 198 166 
L 198 0 
C 352 12 646 12 813 12 
C 998 12 1325 12 1498 0 
L 1498 166 
C 1037 166 960 166 960 455 
L 960 1517 
z
" transform="scale(0.015625)"/>
       <path id="CMR17-67" d="M 710 1165 
C 832 1068 1043 960 1299 960 
C 1805 960 2240 1359 2240 1895 
C 2240 2063 2189 2321 1997 2521 
C 2176 2713 2438 2777 2586 2777 
C 2611 2777 2650 2777 2682 2758 
C 2656 2751 2598 2726 2598 2623 
C 2598 2540 2656 2483 2739 2483 
C 2835 2483 2886 2547 2886 2630 
C 2886 2751 2790 2880 2586 2880 
C 2330 2880 2106 2758 1926 2591 
C 1734 2764 1504 2828 1299 2828 
C 794 2828 358 2431 358 1895 
C 358 1527 570 1294 634 1230 
C 442 1004 442 742 442 710 
C 442 544 506 300 723 166 
C 390 82 128 -184 128 -517 
C 128 -996 736 -1344 1466 -1344 
C 2170 -1344 2803 -1009 2803 -510 
C 2803 384 1856 384 1363 384 
C 1216 384 954 384 922 390 
C 723 422 589 601 589 825 
C 589 883 589 1024 710 1165 
z
M 1299 1068 
C 736 1068 736 1766 736 1895 
C 736 2024 736 2719 1299 2719 
C 1862 2719 1862 2024 1862 1895 
C 1862 1766 1862 1068 1299 1068 
z
M 1466 -1236 
C 826 -1236 384 -883 384 -517 
C 384 -311 493 -118 634 -11 
C 794 102 858 102 1293 102 
C 1818 102 2547 102 2547 -517 
C 2547 -883 2106 -1236 1466 -1236 
z
" transform="scale(0.015625)"/>
       <path id="CMR17-64" d="M 1869 4345 
L 1869 4179 
C 2246 4179 2304 4141 2304 3843 
L 2304 2371 
C 2278 2403 2016 2816 1498 2816 
C 845 2816 211 2228 211 1376 
C 211 529 806 -64 1434 -64 
C 1978 -64 2259 361 2291 406 
L 2291 -64 
L 3066 -13 
L 3066 154 
C 2688 154 2630 193 2630 503 
L 2630 4416 
L 1869 4345 
z
M 2291 762 
C 2291 568 2176 393 2029 264 
C 1811 70 1594 38 1472 38 
C 1286 38 621 135 621 1369 
C 621 2636 1363 2713 1530 2713 
C 1824 2713 2061 2545 2208 2313 
C 2291 2177 2291 2157 2291 2041 
L 2291 762 
z
" transform="scale(0.015625)"/>
       <path id="CMR17-28" d="M 1958 -1562 
C 1958 -1556 1958 -1543 1939 -1524 
C 1645 -1223 858 -403 858 1596 
C 858 3595 1632 4408 1946 4729 
C 1946 4735 1958 4748 1958 4767 
C 1958 4787 1939 4800 1914 4800 
C 1843 4800 1299 4325 986 3620 
C 666 2909 576 2218 576 1603 
C 576 1141 621 360 1005 -467 
C 1312 -1133 1837 -1600 1914 -1600 
C 1946 -1600 1958 -1588 1958 -1562 
z
" transform="scale(0.015625)"/>
       <path id="CMR17-6b" d="M 1670 1679 
C 1664 1692 1632 1730 1632 1749 
C 1632 1762 2086 2175 2144 2226 
C 2509 2532 2739 2563 2906 2570 
L 2906 2735 
C 2867 2735 2854 2735 2848 2729 
L 2534 2722 
C 2355 2722 2080 2722 1907 2735 
L 1907 2570 
C 1997 2563 2061 2513 2061 2423 
C 2061 2296 1933 2175 1926 2175 
L 960 1298 
L 960 4416 
L 198 4345 
L 198 4179 
C 576 4179 634 4141 634 3835 
L 634 439 
C 634 198 608 166 198 166 
L 198 0 
C 352 12 634 12 794 12 
C 954 12 1235 12 1389 0 
L 1389 166 
C 979 166 954 191 954 439 
L 954 1139 
L 1395 1540 
L 2042 586 
C 2118 471 2182 382 2182 299 
C 2182 185 2067 166 1990 166 
L 1990 0 
C 2144 12 2419 12 2579 12 
C 2694 12 2931 6 3040 0 
L 3040 166 
C 2739 166 2669 223 2477 503 
L 1670 1679 
z
" transform="scale(0.015625)"/>
       <path id="CMR17-57" d="M 5523 3775 
C 5581 3948 5677 4173 6048 4185 
L 6048 4352 
C 5939 4345 5715 4339 5600 4339 
C 5440 4339 5158 4339 5005 4352 
L 5005 4185 
C 5293 4179 5414 4019 5414 3865 
C 5414 3820 5408 3794 5382 3724 
L 4390 557 
L 3347 3890 
C 3328 3955 3322 3980 3322 4006 
C 3322 4185 3603 4185 3725 4185 
L 3725 4352 
C 3539 4339 3219 4339 3021 4339 
C 2861 4339 2573 4339 2426 4352 
L 2426 4185 
C 2720 4185 2797 4166 2861 4051 
C 2886 3993 2989 3660 2989 3640 
C 2989 3615 2976 3576 2970 3557 
L 2029 564 
L 986 3890 
C 954 3980 954 3993 954 4006 
C 954 4185 1235 4185 1363 4185 
L 1363 4352 
C 1178 4339 858 4339 659 4339 
C 493 4339 211 4339 58 4352 
L 58 4185 
C 442 4185 467 4147 531 3942 
L 1779 -20 
C 1811 -116 1811 -128 1869 -128 
C 1920 -128 1939 -116 1965 -26 
L 3053 3448 
L 4141 -26 
C 4166 -116 4186 -128 4237 -128 
C 4294 -128 4294 -116 4326 -20 
L 5523 3775 
z
" transform="scale(0.015625)"/>
       <path id="CMR17-68" d="M 2656 1954 
C 2656 2282 2592 2816 1837 2816 
C 1312 2816 1056 2392 979 2179 
L 973 2179 
L 973 4416 
L 211 4345 
L 211 4179 
C 589 4179 646 4141 646 3843 
L 646 443 
C 646 198 621 166 211 166 
L 211 0 
C 365 12 646 12 813 12 
C 979 12 1267 12 1421 0 
L 1421 166 
C 1011 166 986 192 986 443 
L 986 1678 
C 986 2269 1344 2713 1792 2713 
C 2266 2713 2317 2289 2317 1980 
L 2317 443 
C 2317 198 2291 166 1882 166 
L 1882 0 
C 2035 12 2317 12 2483 12 
C 2650 12 2938 12 3091 0 
L 3091 166 
C 2682 166 2656 192 2656 443 
L 2656 1954 
z
" transform="scale(0.015625)"/>
       <path id="CMR17-29" d="M 1683 1596 
C 1683 2057 1638 2839 1254 3665 
C 947 4332 422 4800 346 4800 
C 326 4800 301 4793 301 4761 
C 301 4748 307 4742 314 4729 
C 621 4408 1402 3595 1402 1603 
C 1402 -396 627 -1210 314 -1530 
C 307 -1543 301 -1549 301 -1562 
C 301 -1594 326 -1600 346 -1600 
C 416 -1600 960 -1127 1274 -422 
C 1594 289 1683 981 1683 1596 
z
" transform="scale(0.015625)"/>
      </defs>
      <use xlink:href="#CMR17-44" transform="scale(0.996264)"/>
      <use xlink:href="#CMR17-61" transform="translate(70.393556 0) scale(0.996264)"/>
      <use xlink:href="#CMR17-69" transform="translate(116.084033 0) scale(0.996264)"/>
      <use xlink:href="#CMR17-6c" transform="translate(140.955092 0) scale(0.996264)"/>
      <use xlink:href="#CMR17-79" transform="translate(165.82615 0) scale(0.996264)"/>
      <use xlink:href="#CMR17-65" transform="translate(244.195032 0) scale(0.996264)"/>
      <use xlink:href="#CMR17-6e" transform="translate(284.680693 0) scale(0.996264)"/>
      <use xlink:href="#CMR17-65" transform="translate(335.576062 0) scale(0.996264)"/>
      <use xlink:href="#CMR17-72" transform="translate(376.061723 0) scale(0.996264)"/>
      <use xlink:href="#CMR17-67" transform="translate(411.342491 0) scale(0.996264)"/>
      <use xlink:href="#CMR17-79" transform="translate(457.032968 0) scale(0.996264)"/>
      <use xlink:href="#CMR17-6e" transform="translate(535.40185 0) scale(0.996264)"/>
      <use xlink:href="#CMR17-65" transform="translate(586.29722 0) scale(0.996264)"/>
      <use xlink:href="#CMR17-65" transform="translate(626.78288 0) scale(0.996264)"/>
      <use xlink:href="#CMR17-64" transform="translate(667.268541 0) scale(0.996264)"/>
      <use xlink:href="#CMR17-28" transform="translate(748.239877 0) scale(0.996264)"/>
      <use xlink:href="#CMR17-6b" transform="translate(783.520645 0) scale(0.996264)"/>
      <use xlink:href="#CMR17-57" transform="translate(831.81356 0) scale(0.996264)"/>
      <use xlink:href="#CMR17-68" transform="translate(926.91021 0) scale(0.996264)"/>
      <use xlink:href="#CMR17-29" transform="translate(977.80558 0) scale(0.996264)"/>
     </g>
    </g>
   </g>
   <g id="matplotlib.axis_2">
    <g id="ytick_1">
     <g id="line2d_11">
      <path d="M 57.6 254.894286 
L 414.72 254.894286 
" clip-path="url(#pf815641f53)" style="fill: none; stroke: #b0b0b0; stroke-width: 0.8; stroke-linecap: square"/>
     </g>
     <g id="line2d_12">
      <defs>
       <path id="mcd2fdaa858" d="M 0 0 
L -3.5 0 
" style="stroke: #000000; stroke-width: 0.8"/>
      </defs>
      <g>
       <use xlink:href="#mcd2fdaa858" x="57.6" y="254.894286" style="stroke: #000000; stroke-width: 0.8"/>
      </g>
     </g>
     <g id="text_7">
      <!-- $\mathdefault{1.5}$ -->
      <g transform="translate(31.902948 260.083148) scale(0.15 -0.15)">
       <defs>
        <path id="CMMI12-3a" d="M 1178 307 
C 1178 492 1024 620 870 620 
C 685 620 557 467 557 313 
C 557 128 710 0 864 0 
C 1050 0 1178 153 1178 307 
z
" transform="scale(0.015625)"/>
       </defs>
       <use xlink:href="#CMR17-31" transform="scale(0.996264)"/>
       <use xlink:href="#CMMI12-3a" transform="translate(45.690477 0) scale(0.996264)"/>
       <use xlink:href="#CMR17-35" transform="translate(72.787654 0) scale(0.996264)"/>
      </g>
     </g>
    </g>
    <g id="ytick_2">
     <g id="line2d_13">
      <path d="M 57.6 189.617823 
L 414.72 189.617823 
" clip-path="url(#pf815641f53)" style="fill: none; stroke: #b0b0b0; stroke-width: 0.8; stroke-linecap: square"/>
     </g>
     <g id="line2d_14">
      <g>
       <use xlink:href="#mcd2fdaa858" x="57.6" y="189.617823" style="stroke: #000000; stroke-width: 0.8"/>
      </g>
     </g>
     <g id="text_8">
      <!-- $\mathdefault{2.0}$ -->
      <g transform="translate(31.902948 194.806685) scale(0.15 -0.15)">
       <defs>
        <path id="CMR17-30" d="M 2688 2038 
C 2688 2430 2682 3099 2413 3613 
C 2176 4063 1798 4224 1466 4224 
C 1158 4224 768 4082 525 3620 
C 269 3137 243 2539 243 2038 
C 243 1671 250 1112 448 623 
C 723 -39 1216 -128 1466 -128 
C 1760 -128 2208 -7 2470 604 
C 2662 1048 2688 1568 2688 2038 
z
M 1466 -26 
C 1056 -26 813 328 723 816 
C 653 1196 653 1749 653 2109 
C 653 2604 653 3015 736 3407 
C 858 3954 1216 4121 1466 4121 
C 1728 4121 2067 3947 2189 3420 
C 2272 3054 2278 2623 2278 2109 
C 2278 1691 2278 1176 2202 797 
C 2067 96 1690 -26 1466 -26 
z
" transform="scale(0.015625)"/>
       </defs>
       <use xlink:href="#CMR17-32" transform="scale(0.996264)"/>
       <use xlink:href="#CMMI12-3a" transform="translate(45.690477 0) scale(0.996264)"/>
       <use xlink:href="#CMR17-30" transform="translate(72.787654 0) scale(0.996264)"/>
      </g>
     </g>
    </g>
    <g id="ytick_3">
     <g id="line2d_15">
      <path d="M 57.6 124.34136 
L 414.72 124.34136 
" clip-path="url(#pf815641f53)" style="fill: none; stroke: #b0b0b0; stroke-width: 0.8; stroke-linecap: square"/>
     </g>
     <g id="line2d_16">
      <g>
       <use xlink:href="#mcd2fdaa858" x="57.6" y="124.34136" style="stroke: #000000; stroke-width: 0.8"/>
      </g>
     </g>
     <g id="text_9">
      <!-- $\mathdefault{2.5}$ -->
      <g transform="translate(31.902948 129.530223) scale(0.15 -0.15)">
       <use xlink:href="#CMR17-32" transform="scale(0.996264)"/>
       <use xlink:href="#CMMI12-3a" transform="translate(45.690477 0) scale(0.996264)"/>
       <use xlink:href="#CMR17-35" transform="translate(72.787654 0) scale(0.996264)"/>
      </g>
     </g>
    </g>
    <g id="ytick_4">
     <g id="line2d_17">
      <path d="M 57.6 59.064898 
L 414.72 59.064898 
" clip-path="url(#pf815641f53)" style="fill: none; stroke: #b0b0b0; stroke-width: 0.8; stroke-linecap: square"/>
     </g>
     <g id="line2d_18">
      <g>
       <use xlink:href="#mcd2fdaa858" x="57.6" y="59.064898" style="stroke: #000000; stroke-width: 0.8"/>
      </g>
     </g>
     <g id="text_10">
      <!-- $\mathdefault{3.0}$ -->
      <g transform="translate(31.902948 64.25376) scale(0.15 -0.15)">
       <use xlink:href="#CMR17-33" transform="scale(0.996264)"/>
       <use xlink:href="#CMMI12-3a" transform="translate(45.690477 0) scale(0.996264)"/>
       <use xlink:href="#CMR17-30" transform="translate(72.787654 0) scale(0.996264)"/>
      </g>
     </g>
    </g>
    <g id="text_11">
     <!-- Score (Pt) -->
     <g transform="translate(24.166958 207.551394) rotate(-90) scale(0.15 -0.15)">
      <defs>
       <path id="CMR17-53" d="M 2803 4351 
C 2803 4467 2797 4473 2758 4473 
C 2720 4473 2707 4447 2682 4390 
L 2490 3965 
C 2246 4320 1875 4480 1472 4480 
C 819 4480 294 3958 294 3301 
C 294 3101 339 2817 557 2546 
C 794 2250 1018 2198 1530 2063 
C 1722 2011 2042 1927 2106 1901 
C 2470 1747 2662 1360 2662 999 
C 2662 534 2336 38 1779 38 
C 1094 38 454 425 410 1328 
C 403 1431 397 1437 352 1437 
C 301 1437 294 1431 294 1302 
L 294 0 
C 294 -116 301 -122 339 -122 
C 384 -122 397 -90 486 109 
C 493 128 493 141 614 386 
C 934 -39 1472 -128 1779 -128 
C 2477 -128 2970 457 2970 1141 
C 2970 1476 2848 1734 2778 1850 
C 2509 2263 2221 2340 1914 2417 
C 1869 2437 1856 2437 1498 2527 
C 1152 2617 1005 2662 845 2836 
C 666 3036 602 3243 602 3449 
C 602 3868 934 4326 1478 4326 
C 2157 4326 2579 3842 2675 3036 
C 2694 2920 2701 2914 2746 2914 
C 2803 2914 2803 2933 2803 3043 
L 2803 4351 
z
" transform="scale(0.015625)"/>
       <path id="CMR17-63" d="M 2234 2240 
C 2112 2240 1933 2240 1933 2015 
C 1933 1836 2080 1785 2163 1785 
C 2208 1785 2394 1804 2394 2028 
C 2394 2476 1958 2816 1466 2816 
C 787 2816 211 2201 211 1379 
C 211 521 813 -64 1466 -64 
C 2259 -64 2458 676 2458 747 
C 2458 773 2451 792 2406 792 
C 2362 792 2355 786 2330 702 
C 2163 180 1798 51 1523 51 
C 1114 51 621 431 621 1385 
C 621 2358 1094 2700 1472 2700 
C 1722 2700 2093 2582 2234 2240 
z
" transform="scale(0.015625)"/>
       <path id="CMR17-6f" d="M 2758 1356 
C 2758 2176 2163 2816 1466 2816 
C 768 2816 173 2176 173 1356 
C 173 550 768 -64 1466 -64 
C 2163 -64 2758 550 2758 1356 
z
M 1466 51 
C 1165 51 909 230 762 480 
C 602 768 582 1126 582 1408 
C 582 1676 595 2009 762 2297 
C 890 2508 1139 2713 1466 2713 
C 1754 2713 1997 2553 2150 2329 
C 2349 2028 2349 1606 2349 1408 
C 2349 1158 2336 774 2163 467 
C 1984 172 1709 51 1466 51 
z
" transform="scale(0.015625)"/>
       <path id="CMR17-50" d="M 1267 2048 
L 2291 2048 
C 3117 2048 3718 2583 3718 3187 
C 3718 3791 3130 4352 2291 4352 
L 333 4352 
L 333 4185 
C 774 4185 845 4185 845 3899 
L 845 453 
C 845 166 774 166 333 166 
L 333 0 
C 518 12 858 12 1056 12 
C 1254 12 1594 12 1779 0 
L 1779 166 
C 1338 166 1267 166 1267 453 
L 1267 2048 
z
M 1254 2182 
L 1254 3937 
C 1254 4153 1267 4185 1523 4185 
L 2170 4185 
C 2995 4185 3232 3715 3232 3187 
C 3232 2608 2950 2182 2170 2182 
L 1254 2182 
z
" transform="scale(0.015625)"/>
       <path id="CMR17-74" d="M 966 2585 
L 1862 2585 
L 1862 2752 
L 966 2752 
L 966 3968 
L 851 3968 
C 838 3292 614 2700 70 2687 
L 70 2585 
L 627 2585 
L 627 778 
C 627 655 627 -64 1370 -64 
C 1747 -64 1965 308 1965 784 
L 1965 1151 
L 1850 1151 
L 1850 790 
C 1850 347 1677 51 1408 51 
C 1222 51 966 179 966 765 
L 966 2585 
z
" transform="scale(0.015625)"/>
      </defs>
      <use xlink:href="#CMR17-53" transform="scale(0.996264)"/>
      <use xlink:href="#CMR17-63" transform="translate(50.89537 0) scale(0.996264)"/>
      <use xlink:href="#CMR17-6f" transform="translate(91.38103 0) scale(0.996264)"/>
      <use xlink:href="#CMR17-72" transform="translate(137.071507 0) scale(0.996264)"/>
      <use xlink:href="#CMR17-65" transform="translate(172.352275 0) scale(0.996264)"/>
      <use xlink:href="#CMR17-28" transform="translate(242.913902 0) scale(0.996264)"/>
      <use xlink:href="#CMR17-50" transform="translate(278.19467 0) scale(0.996264)"/>
      <use xlink:href="#CMR17-74" transform="translate(340.78097 0) scale(0.996264)"/>
      <use xlink:href="#CMR17-29" transform="translate(376.061738 0) scale(0.996264)"/>
     </g>
    </g>
   </g>
   <g id="line2d_19">
    <path d="M 92.071819 295.488 
L 94.591762 292.50584 
L 96.996794 289.609101 
L 99.296861 286.790388 
L 101.500666 284.043233 
L 103.615869 281.36194 
L 105.649249 278.741471 
L 107.606834 276.177344 
L 109.494006 273.665559 
L 111.315596 271.202526 
L 113.075948 268.785014 
L 114.778993 266.410101 
L 116.428291 264.075142 
L 118.027081 261.777729 
L 119.578318 259.515664 
L 121.084704 257.286939 
L 122.548718 255.089712 
L 123.972637 252.92229 
L 125.358562 250.783111 
L 126.708431 248.670735 
L 128.024037 246.583827 
L 129.307045 244.521153 
L 130.558999 242.481562 
L 131.781338 240.463986 
L 132.975401 238.467428 
L 134.142441 236.490959 
L 135.283628 234.533708 
L 136.400057 232.59486 
L 137.492757 230.673652 
L 138.562693 228.769366 
" clip-path="url(#pf815641f53)" style="fill: none; stroke: #1f77b4; stroke-width: 1.5; stroke-linecap: square"/>
   </g>
   <g id="line2d_20">
    <path d="M 92.071819 295.488 
L 95.806108 291.603148 
L 99.374071 287.841936 
L 102.789356 284.194218 
L 106.06401 280.651039 
L 109.208713 277.20446 
L 112.232983 273.847407 
L 115.145331 270.57355 
L 117.953404 267.377207 
L 120.664098 264.253253 
L 123.283647 261.197051 
L 125.817711 258.204394 
L 128.271442 255.271454 
L 130.649543 252.394734 
L 132.956319 249.571034 
L 135.19572 246.797418 
L 137.371378 244.071185 
L 139.486644 241.389846 
L 141.544612 238.751099 
L 143.548145 236.152817 
L 145.4999 233.593024 
L 147.402347 231.069885 
L 149.257783 228.581692 
L 151.068349 226.126852 
L 152.836047 223.70388 
L 154.562748 221.311383 
L 156.250202 218.94806 
L 157.900055 216.612688 
L 159.513849 214.304121 
L 161.093036 212.021279 
" clip-path="url(#pf815641f53)" style="fill: none; stroke: #ff7f0e; stroke-width: 1.5; stroke-linecap: square"/>
   </g>
   <g id="line2d_21">
    <path d="M 92.071819 295.488 
L 96.920999 290.774386 
L 101.558629 286.21803 
L 106.000941 281.806864 
L 110.262428 277.530116 
L 114.356074 273.378134 
L 118.293549 269.342243 
L 122.08538 265.414617 
L 125.741091 261.588177 
L 129.269322 257.8565 
L 132.677937 254.21374 
L 135.97411 250.654565 
L 139.164403 247.174096 
L 142.254833 243.767862 
L 145.25093 240.43175 
L 148.157787 237.161976 
L 150.980105 233.955044 
L 153.722229 230.807725 
L 156.388188 227.717024 
L 158.98172 224.680162 
L 161.506301 221.694555 
L 163.965166 218.757798 
L 166.361337 215.867646 
L 168.697634 213.022002 
L 170.976695 210.218904 
L 173.200992 207.456515 
L 175.372845 204.733111 
L 177.494433 202.047072 
L 179.567802 199.396876 
L 181.594884 196.781089 
" clip-path="url(#pf815641f53)" style="fill: none; stroke: #2ca02c; stroke-width: 1.5; stroke-linecap: square"/>
   </g>
   <g id="line2d_22">
    <path d="M 92.071819 295.488 
L 97.70264 290.193347 
L 103.091232 285.078758 
L 108.255106 280.131215 
L 113.210068 275.338967 
L 117.97042 270.691385 
L 122.549122 266.178833 
L 126.957952 261.792557 
L 131.207632 257.524585 
L 135.307948 253.367645 
L 139.267848 249.315084 
L 143.095534 245.360805 
L 146.79854 241.499208 
L 150.383798 237.72514 
L 153.857699 234.033849 
L 157.226149 230.420946 
L 160.494612 226.88237 
L 163.668154 223.414353 
L 166.751481 220.013399 
L 169.748966 216.676255 
L 172.664688 213.399891 
L 175.502447 210.181481 
L 178.265799 207.018383 
L 180.958065 203.908125 
L 183.582361 200.848395 
L 186.141607 197.837019 
L 188.638547 194.87196 
L 191.075759 191.951299 
L 193.455673 189.073232 
L 195.780575 186.236058 
" clip-path="url(#pf815641f53)" style="fill: none; stroke: #d62728; stroke-width: 1.5; stroke-linecap: square"/>
   </g>
   <g id="line2d_23">
    <path d="M 182.169214 228.513478 
L 185.34166 225.046276 
L 188.354206 221.697937 
L 191.221419 218.457633 
L 193.95598 215.315936 
L 196.568996 212.26459 
L 199.070251 209.296323 
L 201.468407 206.404695 
L 203.771166 203.583981 
L 205.98541 200.829065 
L 208.11731 198.13536 
L 210.172422 195.498736 
L 212.155765 192.915463 
L 214.071889 190.382157 
L 215.924928 187.895745 
L 217.718653 185.453425 
L 219.456512 183.052634 
L 221.141664 180.691022 
L 222.777011 178.366434 
L 224.365226 176.076881 
L 225.908776 173.82053 
L 227.409941 171.595686 
L 228.870836 169.400778 
L 230.293421 167.234348 
L 231.67952 165.095039 
L 233.030832 162.98159 
L 234.348942 160.892822 
L 235.63533 158.827634 
L 236.891383 156.784996 
L 238.118398 154.763944 
" clip-path="url(#pf815641f53)" style="fill: none; stroke: #1f77b4; stroke-width: 1.5; stroke-linecap: square"/>
   </g>
   <g id="line2d_24">
    <path d="M 182.169214 228.513478 
L 186.864606 223.914184 
L 191.317433 219.495203 
L 195.549314 215.240462 
L 199.579165 211.135902 
L 203.423622 207.169157 
L 207.097393 203.329291 
L 210.613544 199.606594 
L 213.983729 195.992402 
L 217.218386 192.478955 
L 220.3269 189.059277 
L 223.317739 185.727074 
L 226.198566 182.476649 
L 228.97634 179.30283 
L 231.657397 176.200906 
L 234.24752 173.166578 
L 236.752005 170.195909 
L 239.175711 167.285288 
L 241.523106 164.431394 
L 243.798308 161.631165 
L 246.00512 158.881774 
L 248.147062 156.180604 
L 250.227397 153.525231 
L 252.249154 150.913401 
L 254.215154 148.34302 
L 256.128022 145.812134 
L 257.990209 143.318922 
L 259.804007 140.861681 
L 261.57156 138.438816 
L 263.294877 136.048834 
" clip-path="url(#pf815641f53)" style="fill: none; stroke: #ff7f0e; stroke-width: 1.5; stroke-linecap: square"/>
   </g>
   <g id="line2d_25">
    <path d="M 182.169214 228.513478 
L 188.259492 222.877286 
L 194.027736 217.48048 
L 199.501807 212.302349 
L 204.706242 207.324654 
L 209.662751 202.531257 
L 214.390626 197.907816 
L 218.907083 193.441534 
L 223.227542 189.120949 
L 227.365863 184.935758 
L 231.334546 180.876667 
L 235.144904 176.93527 
L 238.807199 173.103935 
L 242.330771 169.375721 
L 245.724142 165.744294 
L 248.995105 162.203859 
L 252.150806 158.749104 
L 255.197812 155.375149 
L 258.142168 152.0775 
L 260.989453 148.852008 
L 263.744824 145.694842 
L 266.413058 142.60245 
L 268.998586 139.571537 
L 271.505526 136.599044 
L 273.937712 133.68212 
L 276.298715 130.81811 
L 278.591874 128.004533 
L 280.820305 125.23907 
L 282.98693 122.519553 
L 285.094484 119.843946 
" clip-path="url(#pf815641f53)" style="fill: none; stroke: #2ca02c; stroke-width: 1.5; stroke-linecap: square"/>
   </g>
   <g id="line2d_26">
    <path d="M 182.169214 228.513478 
L 189.235536 222.151737 
L 195.921944 216.072407 
L 202.26045 210.251693 
L 208.27942 204.668508 
L 214.00409 199.304093 
L 219.456991 194.141699 
L 224.65831 189.16632 
L 229.626191 184.364469 
L 234.376997 179.723983 
L 238.925526 175.233861 
L 243.285198 170.884126 
L 247.468218 166.665706 
L 251.485715 162.57033 
L 255.347857 158.590438 
L 259.063959 154.719106 
L 262.642573 150.949977 
L 266.091565 147.277202 
L 269.418187 143.695393 
L 272.629134 140.199571 
L 275.730602 136.785131 
L 278.728333 133.447805 
L 281.627656 130.183631 
L 284.433526 126.988926 
L 287.150558 123.860259 
L 289.783055 120.794432 
L 292.335036 117.788458 
L 294.810256 114.839544 
L 297.212235 111.945074 
L 299.544271 109.102597 
" clip-path="url(#pf815641f53)" style="fill: none; stroke: #d62728; stroke-width: 1.5; stroke-linecap: square"/>
   </g>
   <g id="line2d_27">
    <path d="M 266.670191 165.699093 
L 269.988818 162.123226 
L 273.121232 158.685782 
L 276.08528 155.373495 
L 278.896425 152.174869 
L 281.568148 149.079883 
L 284.112268 146.079752 
L 286.539203 143.16673 
L 288.858181 140.33396 
L 291.077411 137.575338 
L 293.204227 134.885413 
L 295.245205 132.259295 
L 297.206266 129.692585 
L 299.092757 127.181307 
L 300.90952 124.721861 
L 302.660958 122.310976 
L 304.35108 119.94567 
L 305.983551 117.623219 
L 307.561726 115.34113 
L 309.088686 113.097111 
L 310.567265 110.889057 
L 312.000077 108.715024 
L 313.389536 106.573218 
L 314.737877 104.461977 
L 316.047172 102.379762 
L 317.319347 100.325139 
L 318.556193 98.296779 
L 319.759379 96.293441 
L 320.930462 94.313966 
L 322.0709 92.357271 
" clip-path="url(#pf815641f53)" style="fill: none; stroke: #1f77b4; stroke-width: 1.5; stroke-linecap: square"/>
   </g>
   <g id="line2d_28">
    <path d="M 266.670191 165.699093 
L 271.574676 160.944368 
L 276.184244 156.408872 
L 280.527245 152.071529 
L 284.628299 147.914041 
L 288.508908 143.920421 
L 292.187956 140.076633 
L 295.682107 136.37029 
L 299.006136 132.790408 
L 302.173196 129.32721 
L 305.195046 125.971954 
L 308.082234 122.716801 
L 310.844258 119.55469 
L 313.489693 116.479245 
L 316.02631 113.484691 
L 318.461167 110.565781 
L 320.800695 107.717734 
L 323.050766 104.936187 
L 325.216755 102.217142 
L 327.303594 99.556933 
L 329.315819 96.95219 
L 331.257608 94.399806 
L 333.132818 91.896913 
L 334.945017 89.44086 
L 336.69751 87.02919 
L 338.393365 84.659623 
L 340.035433 82.330038 
L 341.62637 80.038462 
L 343.16865 77.783055 
L 344.664585 75.5621 
" clip-path="url(#pf815641f53)" style="fill: none; stroke: #ff7f0e; stroke-width: 1.5; stroke-linecap: square"/>
   </g>
   <g id="line2d_29">
    <path d="M 266.670191 165.699093 
L 273.023031 159.867723 
L 278.969983 154.338073 
L 284.549894 149.081265 
L 289.796635 144.072122 
L 294.739887 139.28858 
L 299.405789 134.711207 
L 303.817465 130.322815 
L 307.995456 126.108135 
L 311.958078 122.05355 
L 315.721727 118.146873 
L 319.301128 114.377159 
L 322.709546 110.734545 
L 325.958972 107.21012 
L 329.06027 103.795807 
L 332.023313 100.484266 
L 334.857097 97.268811 
L 337.569834 94.143337 
L 340.169042 91.102256 
L 342.661618 88.14044 
L 345.053898 85.25318 
L 347.351718 82.436137 
L 349.560465 79.685308 
L 351.685114 76.996993 
L 353.730274 74.367768 
L 355.700216 71.794455 
L 357.59891 69.274106 
L 359.430045 66.803977 
L 361.197061 64.381511 
L 362.903163 62.004326 
" clip-path="url(#pf815641f53)" style="fill: none; stroke: #2ca02c; stroke-width: 1.5; stroke-linecap: square"/>
   </g>
   <g id="line2d_30">
    <path d="M 266.670191 165.699093 
L 274.034123 159.116121 
L 280.907882 152.897523 
L 287.33809 147.008641 
L 293.365551 141.419144 
L 299.026143 136.102362 
L 304.351545 131.034745 
L 309.369846 126.195414 
L 314.106046 121.565785 
L 318.582475 117.129259 
L 322.819144 112.870959 
L 326.834047 108.777511 
L 330.643407 104.836855 
L 334.261897 101.038084 
L 337.702818 97.371309 
L 340.978264 93.827541 
L 344.099252 90.398592 
L 347.075843 87.076979 
L 349.917248 83.855859 
L 352.631911 80.728954 
L 355.227593 77.690493 
L 357.711438 74.735168 
L 360.090033 71.858081 
L 362.369466 69.054707 
L 364.555368 66.320859 
L 366.652957 63.652659 
L 368.667079 61.046506 
L 370.602234 58.499053 
L 372.462613 56.007185 
L 374.252121 53.568 
" clip-path="url(#pf815641f53)" style="fill: none; stroke: #d62728; stroke-width: 1.5; stroke-linecap: square"/>
   </g>
   <g id="line2d_31">
    <path d="M 92.071819 295.488 
L 93.835438 294.177001 
L 95.599058 292.866002 
L 97.362678 291.555003 
L 99.126298 290.244004 
L 100.889918 288.933005 
L 102.653538 287.622006 
L 104.417158 286.311007 
L 106.180778 285.000008 
L 107.944398 283.689008 
L 109.708018 282.378009 
L 111.471638 281.06701 
L 113.235258 279.756011 
L 114.998878 278.445012 
L 116.762497 277.134013 
L 118.526117 275.823014 
L 120.289737 274.512015 
L 122.053357 273.201016 
L 123.816977 271.890017 
L 125.580597 270.579018 
L 127.344217 269.268019 
L 129.107837 267.95702 
L 130.871457 266.646021 
L 132.635077 265.335022 
L 134.398697 264.024023 
L 136.162317 262.713023 
L 137.925937 261.402024 
L 139.689556 260.091025 
L 141.453176 258.780026 
L 143.216796 257.469027 
L 144.980416 256.158028 
L 146.744036 254.847029 
L 148.507656 253.53603 
L 150.271276 252.225031 
L 152.034896 250.914032 
L 153.798516 249.603033 
L 155.562136 248.292034 
L 157.325756 246.981035 
L 159.089376 245.670036 
L 160.852995 244.359037 
L 162.616615 243.048038 
L 164.380235 241.737039 
L 166.143855 240.426039 
L 167.907475 239.11504 
L 169.671095 237.804041 
L 171.434715 236.493042 
L 173.198335 235.182043 
L 174.961955 233.871044 
L 176.725575 232.560045 
L 178.489195 231.249046 
L 180.252815 229.938047 
L 182.016435 228.627048 
L 183.780054 227.316049 
L 185.543674 226.00505 
L 187.307294 224.694051 
L 189.070914 223.383052 
L 190.834534 222.072053 
L 192.598154 220.761054 
L 194.361774 219.450054 
L 196.125394 218.139055 
L 197.889014 216.828056 
L 199.652634 215.517057 
L 201.416254 214.206058 
L 203.179874 212.895059 
L 204.943494 211.58406 
L 206.707113 210.273061 
L 208.470733 208.962062 
L 210.234353 207.651063 
L 211.997973 206.340064 
L 213.761593 205.029065 
L 215.525213 203.718066 
L 217.288833 202.407067 
L 219.052453 201.096068 
L 220.816073 199.785069 
L 222.579693 198.47407 
L 224.343313 197.16307 
L 226.106933 195.852071 
L 227.870553 194.541072 
L 229.634172 193.230073 
L 231.397792 191.919074 
L 233.161412 190.608075 
L 234.925032 189.297076 
L 236.688652 187.986077 
L 238.452272 186.675078 
L 240.215892 185.364079 
L 241.979512 184.05308 
L 243.743132 182.742081 
L 245.506752 181.431082 
L 247.270372 180.120083 
L 249.033992 178.809084 
L 250.797612 177.498085 
L 252.561231 176.187085 
L 254.324851 174.876086 
L 256.088471 173.565087 
L 257.852091 172.254088 
L 259.615711 170.943089 
L 261.379331 169.63209 
L 263.142951 168.321091 
L 264.906571 167.010092 
L 266.670191 165.699093 
" clip-path="url(#pf815641f53)" style="fill: none; stroke-dasharray: 5.55,2.4; stroke-dashoffset: 0; stroke: #808080; stroke-width: 1.5"/>
   </g>
   <g id="line2d_32">
    <path d="M 138.562693 228.769366 
L 140.943394 226.999655 
L 143.324095 225.229944 
L 145.704796 223.460234 
L 148.085498 221.690523 
L 150.466199 219.920812 
L 152.8469 218.151101 
L 155.227602 216.381391 
L 157.608303 214.61168 
L 159.989004 212.841969 
L 162.369706 211.072258 
L 164.750407 209.302548 
L 167.131108 207.532837 
L 169.511809 205.763126 
L 171.892511 203.993415 
L 174.273212 202.223704 
L 176.653913 200.453994 
L 179.034615 198.684283 
L 181.415316 196.914572 
L 183.796017 195.144861 
L 186.176719 193.375151 
L 188.55742 191.60544 
L 190.938121 189.835729 
L 193.318822 188.066018 
L 195.699524 186.296308 
L 198.080225 184.526597 
L 200.460926 182.756886 
L 202.841628 180.987175 
L 205.222329 179.217464 
L 207.60303 177.447754 
L 209.983731 175.678043 
L 212.364433 173.908332 
L 214.745134 172.138621 
L 217.125835 170.368911 
L 219.506537 168.5992 
L 221.887238 166.829489 
L 224.267939 165.059778 
L 226.648641 163.290068 
L 229.029342 161.520357 
L 231.410043 159.750646 
L 233.790744 157.980935 
L 236.171446 156.211225 
L 238.552147 154.441514 
L 240.932848 152.671803 
L 243.31355 150.902092 
L 245.694251 149.132381 
L 248.074952 147.362671 
L 250.455654 145.59296 
L 252.836355 143.823249 
L 255.217056 142.053538 
L 257.597757 140.283828 
L 259.978459 138.514117 
L 262.35916 136.744406 
L 264.739861 134.974695 
L 267.120563 133.204985 
L 269.501264 131.435274 
L 271.881965 129.665563 
L 274.262667 127.895852 
L 276.643368 126.126141 
L 279.024069 124.356431 
L 281.40477 122.58672 
L 283.785472 120.817009 
L 286.166173 119.047298 
L 288.546874 117.277588 
L 290.927576 115.507877 
L 293.308277 113.738166 
L 295.688978 111.968455 
L 298.06968 110.198745 
L 300.450381 108.429034 
L 302.831082 106.659323 
L 305.211783 104.889612 
L 307.592485 103.119901 
L 309.973186 101.350191 
L 312.353887 99.58048 
L 314.734589 97.810769 
L 317.11529 96.041058 
L 319.495991 94.271348 
L 321.876693 92.501637 
L 324.257394 90.731926 
L 326.638095 88.962215 
L 329.018796 87.192505 
L 331.399498 85.422794 
L 333.780199 83.653083 
L 336.1609 81.883372 
L 338.541602 80.113662 
L 340.922303 78.343951 
L 343.303004 76.57424 
L 345.683705 74.804529 
L 348.064407 73.034818 
L 350.445108 71.265108 
L 352.825809 69.495397 
L 355.206511 67.725686 
L 357.587212 65.955975 
L 359.967913 64.186265 
L 362.348615 62.416554 
L 364.729316 60.646843 
L 367.110017 58.877132 
L 369.490718 57.107422 
L 371.87142 55.337711 
L 374.252121 53.568 
" clip-path="url(#pf815641f53)" style="fill: none; stroke-dasharray: 5.55,2.4; stroke-dashoffset: 0; stroke: #808080; stroke-width: 1.5"/>
   </g>
   <g id="patch_3">
    <path d="M 57.6 307.584 
L 57.6 41.472 
" style="fill: none; stroke: #000000; stroke-width: 0.8; stroke-linejoin: miter; stroke-linecap: square"/>
   </g>
   <g id="patch_4">
    <path d="M 414.72 307.584 
L 414.72 41.472 
" style="fill: none; stroke: #000000; stroke-width: 0.8; stroke-linejoin: miter; stroke-linecap: square"/>
   </g>
   <g id="patch_5">
    <path d="M 57.6 307.584 
L 414.72 307.584 
" style="fill: none; stroke: #000000; stroke-width: 0.8; stroke-linejoin: miter; stroke-linecap: square"/>
   </g>
   <g id="patch_6">
    <path d="M 57.6 41.472 
L 414.72 41.472 
" style="fill: none; stroke: #000000; stroke-width: 0.8; stroke-linejoin: miter; stroke-linecap: square"/>
   </g>
   <g id="legend_1">
    <g id="patch_7">
     <path d="M 68.1 137.094979 
L 166.019963 137.094979 
Q 169.019963 137.094979 169.019963 134.094979 
L 169.019963 51.972 
Q 169.019963 48.972 166.019963 48.972 
L 68.1 48.972 
Q 65.1 48.972 65.1 51.972 
L 65.1 134.094979 
Q 65.1 137.094979 68.1 137.094979 
z
" style="fill: #ffffff; opacity: 0.8; stroke: #cccccc; stroke-linejoin: miter"/>
    </g>
    <g id="line2d_33">
     <path d="M 71.1 60.222 
L 86.1 60.222 
L 101.1 60.222 
" style="fill: none; stroke: #1f77b4; stroke-width: 1.5; stroke-linecap: square"/>
    </g>
    <g id="text_12">
     <!-- $z_0$=0.01 -->
     <g transform="translate(113.1 65.472) scale(0.15 -0.15)">
      <defs>
       <path id="CMMI12-7a" d="M 813 486 
C 1088 809 1312 1015 1632 1313 
C 2016 1657 2182 1822 2272 1922 
C 2720 2371 2944 2713 2944 2764 
C 2944 2816 2893 2816 2880 2816 
C 2835 2816 2822 2790 2790 2745 
C 2630 2470 2477 2368 2310 2368 
C 2176 2368 2106 2403 1984 2547 
C 1850 2707 1741 2816 1555 2816 
C 1088 2816 806 2265 806 2127 
C 806 2107 813 2067 870 2067 
C 922 2067 928 2094 947 2140 
C 1056 2387 1363 2415 1485 2415 
C 1619 2415 1747 2387 1882 2342 
C 2125 2239 2227 2239 2291 2239 
C 2336 2239 2362 2239 2394 2246 
C 2182 1988 1837 1670 1549 1399 
L 902 783 
C 512 380 275 32 275 -13 
C 275 -52 307 -64 346 -64 
C 384 -64 390 -58 435 19 
C 538 179 742 384 979 384 
C 1114 384 1178 356 1306 211 
C 1427 70 1536 -64 1741 -64 
C 2368 -64 2726 723 2726 876 
C 2726 902 2720 942 2656 942 
C 2605 942 2598 915 2579 849 
C 2438 460 2061 336 1811 336 
C 1677 336 1549 364 1414 409 
C 1158 512 1088 512 1005 512 
C 941 512 870 512 813 486 
z
" transform="scale(0.015625)"/>
       <path id="CMR17-3d" d="M 4115 2048 
C 4211 2048 4307 2048 4307 2156 
C 4307 2272 4198 2272 4090 2272 
L 512 2272 
C 403 2272 294 2272 294 2156 
C 294 2048 390 2048 486 2048 
L 4115 2048 
z
M 4090 927 
C 4198 927 4307 927 4307 1043 
C 4307 1152 4211 1152 4115 1152 
L 486 1152 
C 390 1152 294 1152 294 1043 
C 294 927 403 927 512 927 
L 4090 927 
z
" transform="scale(0.015625)"/>
       <path id="CMR17-2e" d="M 1062 262 
C 1062 422 934 524 800 524 
C 672 524 538 422 538 262 
C 538 102 666 0 800 0 
C 928 0 1062 102 1062 262 
z
" transform="scale(0.015625)"/>
      </defs>
      <use xlink:href="#CMMI12-7a" transform="scale(0.996264)"/>
      <use xlink:href="#CMR17-30" transform="translate(45.315753 -14.943915) scale(0.697382)"/>
      <use xlink:href="#CMR17-3d" transform="translate(77.797067 0) scale(0.996264)"/>
      <use xlink:href="#CMR17-30" transform="translate(149.511856 0) scale(0.996264)"/>
      <use xlink:href="#CMR17-2e" transform="translate(195.202333 0) scale(0.996264)"/>
      <use xlink:href="#CMR17-30" transform="translate(220.073391 0) scale(0.996264)"/>
      <use xlink:href="#CMR17-31" transform="translate(265.763868 0) scale(0.996264)"/>
     </g>
    </g>
    <g id="line2d_34">
     <path d="M 71.1 81.127745 
L 86.1 81.127745 
L 101.1 81.127745 
" style="fill: none; stroke: #ff7f0e; stroke-width: 1.5; stroke-linecap: square"/>
    </g>
    <g id="text_13">
     <!-- $z_0$=0.1 -->
     <g transform="translate(113.1 86.377745) scale(0.15 -0.15)">
      <use xlink:href="#CMMI12-7a" transform="scale(0.996264)"/>
      <use xlink:href="#CMR17-30" transform="translate(45.315753 -14.943915) scale(0.697382)"/>
      <use xlink:href="#CMR17-3d" transform="translate(77.797067 0) scale(0.996264)"/>
      <use xlink:href="#CMR17-30" transform="translate(149.511856 0) scale(0.996264)"/>
      <use xlink:href="#CMR17-2e" transform="translate(195.202333 0) scale(0.996264)"/>
      <use xlink:href="#CMR17-31" transform="translate(220.073391 0) scale(0.996264)"/>
     </g>
    </g>
    <g id="line2d_35">
     <path d="M 71.1 102.033489 
L 86.1 102.033489 
L 101.1 102.033489 
" style="fill: none; stroke: #2ca02c; stroke-width: 1.5; stroke-linecap: square"/>
    </g>
    <g id="text_14">
     <!-- $z_0$=0.3 -->
     <g transform="translate(113.1 107.283489) scale(0.15 -0.15)">
      <use xlink:href="#CMMI12-7a" transform="scale(0.996264)"/>
      <use xlink:href="#CMR17-30" transform="translate(45.315753 -14.943915) scale(0.697382)"/>
      <use xlink:href="#CMR17-3d" transform="translate(77.797067 0) scale(0.996264)"/>
      <use xlink:href="#CMR17-30" transform="translate(149.511856 0) scale(0.996264)"/>
      <use xlink:href="#CMR17-2e" transform="translate(195.202333 0) scale(0.996264)"/>
      <use xlink:href="#CMR17-33" transform="translate(220.073391 0) scale(0.996264)"/>
     </g>
    </g>
    <g id="line2d_36">
     <path d="M 71.1 122.939234 
L 86.1 122.939234 
L 101.1 122.939234 
" style="fill: none; stroke: #d62728; stroke-width: 1.5; stroke-linecap: square"/>
    </g>
    <g id="text_15">
     <!-- $z_0$=0.5 -->
     <g transform="translate(113.1 128.189234) scale(0.15 -0.15)">
      <use xlink:href="#CMMI12-7a" transform="scale(0.996264)"/>
      <use xlink:href="#CMR17-30" transform="translate(45.315753 -14.943915) scale(0.697382)"/>
      <use xlink:href="#CMR17-3d" transform="translate(77.797067 0) scale(0.996264)"/>
      <use xlink:href="#CMR17-30" transform="translate(149.511856 0) scale(0.996264)"/>
      <use xlink:href="#CMR17-2e" transform="translate(195.202333 0) scale(0.996264)"/>
      <use xlink:href="#CMR17-35" transform="translate(220.073391 0) scale(0.996264)"/>
     </g>
    </g>
   </g>
  </g>
 </g>
 <defs>
  <clipPath id="pf815641f53">
   <rect x="57.6" y="41.472" width="357.12" height="266.112"/>
  </clipPath>
 </defs>
</svg>
