<?xml version="1.0" encoding="utf-8" standalone="no"?>
<!DOCTYPE svg PUBLIC "-//W3C//DTD SVG 1.1//EN"
  "http://www.w3.org/Graphics/SVG/1.1/DTD/svg11.dtd">
<svg xmlns:xlink="http://www.w3.org/1999/xlink" width="460.8pt" height="345.6pt" viewBox="0 0 460.8 345.6" xmlns="http://www.w3.org/2000/svg" version="1.1">
 <metadata>
  <rdf:RDF xmlns:dc="http://purl.org/dc/elements/1.1/" xmlns:cc="http://creativecommons.org/ns#" xmlns:rdf="http://www.w3.org/1999/02/22-rdf-syntax-ns#">
   <cc:Work>
    <dc:type rdf:resource="http://purl.org/dc/dcmitype/StillImage"/>
    <dc:date>2023-12-22T15:00:10.424800</dc:date>
    <dc:format>image/svg+xml</dc:format>
    <dc:creator>
     <cc:Agent>
      <dc:title>Matplotlib v3.8.1, https://matplotlib.org/</dc:title>
     </cc:Agent>
    </dc:creator>
   </cc:Work>
  </rdf:RDF>
 </metadata>
 <defs>
  <style type="text/css">*{stroke-linejoin: round; stroke-linecap: butt}</style>
 </defs>
 <g id="figure_1">
  <g id="patch_1">
   <path d="M 0 345.6 
L 460.8 345.6 
L 460.8 0 
L 0 0 
z
" style="fill: #ffffff"/>
  </g>
  <g id="axes_1">
   <g id="patch_2">
    <path d="M 57.6 307.584 
L 414.72 307.584 
L 414.72 41.472 
L 57.6 41.472 
z
" style="fill: #ffffff"/>
   </g>
   <g id="matplotlib.axis_1">
    <g id="xtick_1">
     <g id="line2d_1">
      <path d="M 57.6 307.584 
L 57.6 41.472 
" clip-path="url(#p87c0fed08f)" style="fill: none; stroke: #b0b0b0; stroke-width: 0.8; stroke-linecap: square"/>
     </g>
     <g id="line2d_2">
      <defs>
       <path id="m8bc1397208" d="M 0 0 
L 0 3.5 
" style="stroke: #000000; stroke-width: 0.8"/>
      </defs>
      <g>
       <use xlink:href="#m8bc1397208" x="57.6" y="307.584" style="stroke: #000000; stroke-width: 0.8"/>
      </g>
     </g>
     <g id="text_1">
      <!-- $\mathdefault{1}$ -->
      <g transform="translate(53.941881 324.961725) scale(0.15 -0.15)">
       <defs>
        <path id="CMR17-31" d="M 1702 4083 
C 1702 4217 1696 4224 1606 4224 
C 1357 3927 979 3833 621 3820 
C 602 3820 570 3820 563 3808 
C 557 3795 557 3782 557 3648 
C 755 3648 1088 3686 1344 3839 
L 1344 467 
C 1344 243 1331 166 781 166 
L 589 166 
L 589 0 
C 896 6 1216 12 1523 12 
C 1830 12 2150 6 2458 0 
L 2458 166 
L 2266 166 
C 1715 166 1702 236 1702 467 
L 1702 4083 
z
" transform="scale(0.015625)"/>
       </defs>
       <use xlink:href="#CMR17-31" transform="scale(0.996264)"/>
      </g>
     </g>
    </g>
    <g id="xtick_2">
     <g id="line2d_3">
      <path d="M 129.024 307.584 
L 129.024 41.472 
" clip-path="url(#p87c0fed08f)" style="fill: none; stroke: #b0b0b0; stroke-width: 0.8; stroke-linecap: square"/>
     </g>
     <g id="line2d_4">
      <g>
       <use xlink:href="#m8bc1397208" x="129.024" y="307.584" style="stroke: #000000; stroke-width: 0.8"/>
      </g>
     </g>
     <g id="text_2">
      <!-- $\mathdefault{2}$ -->
      <g transform="translate(125.365881 324.961725) scale(0.15 -0.15)">
       <defs>
        <path id="CMR17-32" d="M 2669 990 
L 2554 990 
C 2490 537 2438 460 2413 422 
C 2381 371 1920 371 1830 371 
L 602 371 
C 832 620 1280 1073 1824 1596 
C 2214 1966 2669 2400 2669 3033 
C 2669 3788 2067 4224 1395 4224 
C 691 4224 262 3603 262 3027 
C 262 2777 448 2745 525 2745 
C 589 2745 781 2783 781 3007 
C 781 3206 614 3264 525 3264 
C 486 3264 448 3257 422 3244 
C 544 3788 915 4057 1306 4057 
C 1862 4057 2227 3616 2227 3033 
C 2227 2477 1901 1998 1536 1583 
L 262 147 
L 262 0 
L 2515 0 
L 2669 990 
z
" transform="scale(0.015625)"/>
       </defs>
       <use xlink:href="#CMR17-32" transform="scale(0.996264)"/>
      </g>
     </g>
    </g>
    <g id="xtick_3">
     <g id="line2d_5">
      <path d="M 200.448 307.584 
L 200.448 41.472 
" clip-path="url(#p87c0fed08f)" style="fill: none; stroke: #b0b0b0; stroke-width: 0.8; stroke-linecap: square"/>
     </g>
     <g id="line2d_6">
      <g>
       <use xlink:href="#m8bc1397208" x="200.448" y="307.584" style="stroke: #000000; stroke-width: 0.8"/>
      </g>
     </g>
     <g id="text_3">
      <!-- $\mathdefault{3}$ -->
      <g transform="translate(196.789881 324.961725) scale(0.15 -0.15)">
       <defs>
        <path id="CMR17-33" d="M 1414 2176 
C 1984 2176 2234 1673 2234 1094 
C 2234 322 1824 25 1453 25 
C 1114 25 563 193 390 691 
C 422 678 454 678 486 678 
C 640 678 755 780 755 947 
C 755 1132 614 1216 486 1216 
C 378 1216 211 1164 211 927 
C 211 335 787 -128 1466 -128 
C 2176 -128 2720 432 2720 1087 
C 2720 1718 2208 2176 1600 2246 
C 2086 2347 2554 2776 2554 3353 
C 2554 3856 2048 4224 1472 4224 
C 890 4224 378 3862 378 3347 
C 378 3123 544 3084 627 3084 
C 762 3084 877 3167 877 3334 
C 877 3500 762 3584 627 3584 
C 602 3584 570 3584 544 3571 
C 730 3999 1235 4076 1459 4076 
C 1683 4076 2106 3966 2106 3347 
C 2106 3167 2080 2851 1862 2574 
C 1670 2329 1453 2316 1242 2297 
C 1210 2297 1062 2284 1037 2284 
C 992 2278 966 2272 966 2227 
C 966 2182 973 2176 1101 2176 
L 1414 2176 
z
" transform="scale(0.015625)"/>
       </defs>
       <use xlink:href="#CMR17-33" transform="scale(0.996264)"/>
      </g>
     </g>
    </g>
    <g id="xtick_4">
     <g id="line2d_7">
      <path d="M 271.872 307.584 
L 271.872 41.472 
" clip-path="url(#p87c0fed08f)" style="fill: none; stroke: #b0b0b0; stroke-width: 0.8; stroke-linecap: square"/>
     </g>
     <g id="line2d_8">
      <g>
       <use xlink:href="#m8bc1397208" x="271.872" y="307.584" style="stroke: #000000; stroke-width: 0.8"/>
      </g>
     </g>
     <g id="text_4">
      <!-- $\mathdefault{4}$ -->
      <g transform="translate(268.213881 324.961725) scale(0.15 -0.15)">
       <defs>
        <path id="CMR17-34" d="M 2150 4147 
C 2150 4281 2144 4288 2029 4288 
L 128 1254 
L 128 1088 
L 1779 1088 
L 1779 460 
C 1779 230 1766 166 1318 166 
L 1197 166 
L 1197 0 
C 1402 12 1747 12 1965 12 
C 2182 12 2528 12 2733 0 
L 2733 166 
L 2611 166 
C 2163 166 2150 230 2150 460 
L 2150 1088 
L 2803 1088 
L 2803 1254 
L 2150 1254 
L 2150 4147 
z
M 1798 3723 
L 1798 1254 
L 256 1254 
L 1798 3723 
z
" transform="scale(0.015625)"/>
       </defs>
       <use xlink:href="#CMR17-34" transform="scale(0.996264)"/>
      </g>
     </g>
    </g>
    <g id="xtick_5">
     <g id="line2d_9">
      <path d="M 343.296 307.584 
L 343.296 41.472 
" clip-path="url(#p87c0fed08f)" style="fill: none; stroke: #b0b0b0; stroke-width: 0.8; stroke-linecap: square"/>
     </g>
     <g id="line2d_10">
      <g>
       <use xlink:href="#m8bc1397208" x="343.296" y="307.584" style="stroke: #000000; stroke-width: 0.8"/>
      </g>
     </g>
     <g id="text_5">
      <!-- $\mathdefault{5}$ -->
      <g transform="translate(339.637881 324.961725) scale(0.15 -0.15)">
       <defs>
        <path id="CMR17-35" d="M 730 3750 
C 794 3724 1056 3641 1325 3641 
C 1920 3641 2246 3961 2432 4140 
C 2432 4191 2432 4224 2394 4224 
C 2387 4224 2374 4224 2323 4198 
C 2099 4102 1837 4032 1517 4032 
C 1325 4032 1037 4055 723 4191 
C 653 4224 640 4224 634 4224 
C 602 4224 595 4217 595 4090 
L 595 2231 
C 595 2113 595 2080 659 2080 
C 691 2080 704 2093 736 2139 
C 941 2435 1222 2560 1542 2560 
C 1766 2560 2246 2415 2246 1293 
C 2246 1087 2246 716 2054 422 
C 1894 159 1645 25 1370 25 
C 947 25 518 319 403 812 
C 429 806 480 793 506 793 
C 589 793 749 838 749 1036 
C 749 1209 627 1280 506 1280 
C 358 1280 262 1190 262 1011 
C 262 454 704 -128 1382 -128 
C 2042 -128 2669 441 2669 1267 
C 2669 2054 2170 2662 1549 2662 
C 1222 2662 947 2540 730 2304 
L 730 3750 
z
" transform="scale(0.015625)"/>
       </defs>
       <use xlink:href="#CMR17-35" transform="scale(0.996264)"/>
      </g>
     </g>
    </g>
    <g id="xtick_6">
     <g id="line2d_11">
      <path d="M 414.72 307.584 
L 414.72 41.472 
" clip-path="url(#p87c0fed08f)" style="fill: none; stroke: #b0b0b0; stroke-width: 0.8; stroke-linecap: square"/>
     </g>
     <g id="line2d_12">
      <g>
       <use xlink:href="#m8bc1397208" x="414.72" y="307.584" style="stroke: #000000; stroke-width: 0.8"/>
      </g>
     </g>
     <g id="text_6">
      <!-- $\mathdefault{6}$ -->
      <g transform="translate(411.061881 324.961725) scale(0.15 -0.15)">
       <defs>
        <path id="CMR17-36" d="M 678 2198 
C 678 3712 1395 4076 1811 4076 
C 1946 4076 2272 4049 2400 3782 
C 2298 3782 2106 3782 2106 3558 
C 2106 3385 2246 3328 2336 3328 
C 2394 3328 2566 3353 2566 3571 
C 2566 3987 2246 4224 1805 4224 
C 1043 4224 243 3411 243 2011 
C 243 257 966 -128 1478 -128 
C 2099 -128 2688 431 2688 1295 
C 2688 2101 2170 2688 1517 2688 
C 1126 2688 838 2430 678 1979 
L 678 2198 
z
M 1478 25 
C 691 25 691 1212 691 1450 
C 691 1914 909 2585 1504 2585 
C 1613 2585 1926 2585 2138 2140 
C 2253 1889 2253 1624 2253 1302 
C 2253 954 2253 696 2118 438 
C 1978 173 1773 25 1478 25 
z
" transform="scale(0.015625)"/>
       </defs>
       <use xlink:href="#CMR17-36" transform="scale(0.996264)"/>
      </g>
     </g>
    </g>
    <g id="text_7">
     <!-- Daily energy need (kWh) -->
     <g transform="translate(154.973977 343.07544) scale(0.15 -0.15)">
      <defs>
       <path id="CMR17-44" d="M 333 4352 
L 333 4185 
C 774 4185 845 4185 845 3898 
L 845 453 
C 845 166 774 166 333 166 
L 333 0 
L 2368 0 
C 3398 0 4224 943 4224 2140 
C 4224 3344 3411 4352 2368 4352 
L 333 4352 
z
M 1523 166 
C 1267 166 1254 198 1254 414 
L 1254 3936 
C 1254 4153 1267 4185 1523 4185 
L 2240 4185 
C 2771 4185 3750 3873 3750 2140 
C 3750 1242 3488 879 3366 707 
C 3213 510 2848 166 2240 166 
L 1523 166 
z
" transform="scale(0.015625)"/>
       <path id="CMR17-61" d="M 2304 1656 
C 2304 2048 2304 2275 2035 2534 
C 1798 2751 1523 2816 1306 2816 
C 800 2816 435 2408 435 1977 
C 435 1740 627 1728 666 1728 
C 749 1728 896 1779 896 1958 
C 896 2118 774 2188 666 2188 
C 640 2188 608 2182 589 2176 
C 723 2594 1069 2713 1293 2713 
C 1613 2713 1965 2421 1965 1875 
L 1965 1632 
C 1587 1619 1133 1568 774 1373 
C 371 1147 256 822 256 576 
C 256 77 832 -64 1171 -64 
C 1523 -64 1850 135 1990 505 
C 2003 219 2182 -39 2464 -39 
C 2598 -39 2938 51 2938 563 
L 2938 926 
L 2822 926 
L 2822 557 
C 2822 161 2650 109 2566 109 
C 2304 109 2304 446 2304 732 
L 2304 1656 
z
M 1965 887 
C 1965 323 1568 38 1216 38 
C 896 38 646 278 646 576 
C 646 771 730 1114 1101 1322 
C 1408 1497 1760 1523 1965 1536 
L 1965 887 
z
" transform="scale(0.015625)"/>
       <path id="CMR17-69" d="M 992 3961 
C 992 4102 877 4224 730 4224 
C 589 4224 467 4108 467 3961 
C 467 3820 582 3699 730 3699 
C 870 3699 992 3814 992 3961 
z
M 243 2745 
L 243 2579 
C 602 2579 653 2540 653 2231 
L 653 443 
C 653 198 627 166 218 166 
L 218 0 
C 371 12 646 12 806 12 
C 960 12 1222 12 1370 0 
L 1370 166 
C 992 166 979 205 979 436 
L 979 2816 
L 243 2745 
z
" transform="scale(0.015625)"/>
       <path id="CMR17-6c" d="M 979 4416 
L 218 4345 
L 218 4179 
C 595 4179 653 4141 653 3835 
L 653 439 
C 653 198 627 166 218 166 
L 218 0 
C 371 12 653 12 813 12 
C 979 12 1261 12 1414 0 
L 1414 166 
C 1005 166 979 191 979 439 
L 979 4416 
z
" transform="scale(0.015625)"/>
       <path id="CMR17-79" d="M 2496 2183 
C 2656 2579 2944 2585 3034 2585 
L 3034 2752 
C 2912 2745 2752 2739 2630 2739 
C 2496 2739 2285 2739 2157 2752 
L 2157 2585 
C 2400 2566 2406 2384 2406 2332 
C 2406 2268 2394 2235 2362 2158 
L 1664 409 
L 902 2300 
C 870 2378 870 2423 870 2430 
C 870 2572 1018 2585 1171 2585 
L 1171 2752 
C 1018 2739 742 2739 582 2739 
C 410 2739 205 2739 64 2752 
L 64 2585 
C 410 2585 448 2553 531 2345 
L 1485 -31 
C 1197 -795 1030 -1242 627 -1242 
C 557 -1242 397 -1223 282 -1106 
C 429 -1093 493 -1002 493 -892 
C 493 -782 416 -685 288 -685 
C 147 -685 77 -782 77 -899 
C 77 -1158 339 -1344 627 -1344 
C 998 -1344 1229 -983 1357 -659 
L 2496 2183 
z
" transform="scale(0.015625)"/>
       <path id="CMR17-65" d="M 2438 1503 
C 2464 1529 2464 1542 2464 1606 
C 2464 2251 2118 2816 1389 2816 
C 710 2816 173 2175 173 1394 
C 173 554 781 -64 1459 -64 
C 2176 -64 2458 619 2458 755 
C 2458 800 2419 800 2406 800 
C 2362 800 2355 787 2330 709 
C 2189 270 1837 51 1504 51 
C 1229 51 954 206 781 490 
C 582 819 582 1200 582 1503 
L 2438 1503 
z
M 589 1600 
C 634 2511 1126 2713 1382 2713 
C 1818 2713 2112 2308 2118 1600 
L 589 1600 
z
" transform="scale(0.015625)"/>
       <path id="CMR17-6e" d="M 2656 1954 
C 2656 2282 2592 2816 1837 2816 
C 1331 2816 1069 2424 973 2166 
L 966 2166 
L 966 2816 
L 211 2745 
L 211 2578 
C 589 2578 646 2540 646 2231 
L 646 443 
C 646 198 621 166 211 166 
L 211 0 
C 365 12 646 12 813 12 
C 979 12 1267 12 1421 0 
L 1421 166 
C 1011 166 986 192 986 443 
L 986 1678 
C 986 2269 1344 2713 1792 2713 
C 2266 2713 2317 2289 2317 1980 
L 2317 443 
C 2317 198 2291 166 1882 166 
L 1882 0 
C 2035 12 2317 12 2483 12 
C 2650 12 2938 12 3091 0 
L 3091 166 
C 2682 166 2656 192 2656 443 
L 2656 1954 
z
" transform="scale(0.015625)"/>
       <path id="CMR17-72" d="M 960 1517 
C 960 2134 1222 2713 1702 2713 
C 1747 2713 1792 2707 1837 2687 
C 1837 2687 1696 2642 1696 2475 
C 1696 2321 1818 2257 1914 2257 
C 1990 2257 2131 2302 2131 2482 
C 2131 2687 1926 2816 1709 2816 
C 1222 2816 1011 2340 947 2115 
L 941 2115 
L 941 2816 
L 198 2745 
L 198 2578 
C 576 2578 634 2540 634 2231 
L 634 443 
C 634 198 608 166 198 166 
L 198 0 
C 352 12 646 12 813 12 
C 998 12 1325 12 1498 0 
L 1498 166 
C 1037 166 960 166 960 455 
L 960 1517 
z
" transform="scale(0.015625)"/>
       <path id="CMR17-67" d="M 710 1165 
C 832 1068 1043 960 1299 960 
C 1805 960 2240 1359 2240 1895 
C 2240 2063 2189 2321 1997 2521 
C 2176 2713 2438 2777 2586 2777 
C 2611 2777 2650 2777 2682 2758 
C 2656 2751 2598 2726 2598 2623 
C 2598 2540 2656 2483 2739 2483 
C 2835 2483 2886 2547 2886 2630 
C 2886 2751 2790 2880 2586 2880 
C 2330 2880 2106 2758 1926 2591 
C 1734 2764 1504 2828 1299 2828 
C 794 2828 358 2431 358 1895 
C 358 1527 570 1294 634 1230 
C 442 1004 442 742 442 710 
C 442 544 506 300 723 166 
C 390 82 128 -184 128 -517 
C 128 -996 736 -1344 1466 -1344 
C 2170 -1344 2803 -1009 2803 -510 
C 2803 384 1856 384 1363 384 
C 1216 384 954 384 922 390 
C 723 422 589 601 589 825 
C 589 883 589 1024 710 1165 
z
M 1299 1068 
C 736 1068 736 1766 736 1895 
C 736 2024 736 2719 1299 2719 
C 1862 2719 1862 2024 1862 1895 
C 1862 1766 1862 1068 1299 1068 
z
M 1466 -1236 
C 826 -1236 384 -883 384 -517 
C 384 -311 493 -118 634 -11 
C 794 102 858 102 1293 102 
C 1818 102 2547 102 2547 -517 
C 2547 -883 2106 -1236 1466 -1236 
z
" transform="scale(0.015625)"/>
       <path id="CMR17-64" d="M 1869 4345 
L 1869 4179 
C 2246 4179 2304 4141 2304 3843 
L 2304 2371 
C 2278 2403 2016 2816 1498 2816 
C 845 2816 211 2228 211 1376 
C 211 529 806 -64 1434 -64 
C 1978 -64 2259 361 2291 406 
L 2291 -64 
L 3066 -13 
L 3066 154 
C 2688 154 2630 193 2630 503 
L 2630 4416 
L 1869 4345 
z
M 2291 762 
C 2291 568 2176 393 2029 264 
C 1811 70 1594 38 1472 38 
C 1286 38 621 135 621 1369 
C 621 2636 1363 2713 1530 2713 
C 1824 2713 2061 2545 2208 2313 
C 2291 2177 2291 2157 2291 2041 
L 2291 762 
z
" transform="scale(0.015625)"/>
       <path id="CMR17-28" d="M 1958 -1562 
C 1958 -1556 1958 -1543 1939 -1524 
C 1645 -1223 858 -403 858 1596 
C 858 3595 1632 4408 1946 4729 
C 1946 4735 1958 4748 1958 4767 
C 1958 4787 1939 4800 1914 4800 
C 1843 4800 1299 4325 986 3620 
C 666 2909 576 2218 576 1603 
C 576 1141 621 360 1005 -467 
C 1312 -1133 1837 -1600 1914 -1600 
C 1946 -1600 1958 -1588 1958 -1562 
z
" transform="scale(0.015625)"/>
       <path id="CMR17-6b" d="M 1670 1679 
C 1664 1692 1632 1730 1632 1749 
C 1632 1762 2086 2175 2144 2226 
C 2509 2532 2739 2563 2906 2570 
L 2906 2735 
C 2867 2735 2854 2735 2848 2729 
L 2534 2722 
C 2355 2722 2080 2722 1907 2735 
L 1907 2570 
C 1997 2563 2061 2513 2061 2423 
C 2061 2296 1933 2175 1926 2175 
L 960 1298 
L 960 4416 
L 198 4345 
L 198 4179 
C 576 4179 634 4141 634 3835 
L 634 439 
C 634 198 608 166 198 166 
L 198 0 
C 352 12 634 12 794 12 
C 954 12 1235 12 1389 0 
L 1389 166 
C 979 166 954 191 954 439 
L 954 1139 
L 1395 1540 
L 2042 586 
C 2118 471 2182 382 2182 299 
C 2182 185 2067 166 1990 166 
L 1990 0 
C 2144 12 2419 12 2579 12 
C 2694 12 2931 6 3040 0 
L 3040 166 
C 2739 166 2669 223 2477 503 
L 1670 1679 
z
" transform="scale(0.015625)"/>
       <path id="CMR17-57" d="M 5523 3775 
C 5581 3948 5677 4173 6048 4185 
L 6048 4352 
C 5939 4345 5715 4339 5600 4339 
C 5440 4339 5158 4339 5005 4352 
L 5005 4185 
C 5293 4179 5414 4019 5414 3865 
C 5414 3820 5408 3794 5382 3724 
L 4390 557 
L 3347 3890 
C 3328 3955 3322 3980 3322 4006 
C 3322 4185 3603 4185 3725 4185 
L 3725 4352 
C 3539 4339 3219 4339 3021 4339 
C 2861 4339 2573 4339 2426 4352 
L 2426 4185 
C 2720 4185 2797 4166 2861 4051 
C 2886 3993 2989 3660 2989 3640 
C 2989 3615 2976 3576 2970 3557 
L 2029 564 
L 986 3890 
C 954 3980 954 3993 954 4006 
C 954 4185 1235 4185 1363 4185 
L 1363 4352 
C 1178 4339 858 4339 659 4339 
C 493 4339 211 4339 58 4352 
L 58 4185 
C 442 4185 467 4147 531 3942 
L 1779 -20 
C 1811 -116 1811 -128 1869 -128 
C 1920 -128 1939 -116 1965 -26 
L 3053 3448 
L 4141 -26 
C 4166 -116 4186 -128 4237 -128 
C 4294 -128 4294 -116 4326 -20 
L 5523 3775 
z
" transform="scale(0.015625)"/>
       <path id="CMR17-68" d="M 2656 1954 
C 2656 2282 2592 2816 1837 2816 
C 1312 2816 1056 2392 979 2179 
L 973 2179 
L 973 4416 
L 211 4345 
L 211 4179 
C 589 4179 646 4141 646 3843 
L 646 443 
C 646 198 621 166 211 166 
L 211 0 
C 365 12 646 12 813 12 
C 979 12 1267 12 1421 0 
L 1421 166 
C 1011 166 986 192 986 443 
L 986 1678 
C 986 2269 1344 2713 1792 2713 
C 2266 2713 2317 2289 2317 1980 
L 2317 443 
C 2317 198 2291 166 1882 166 
L 1882 0 
C 2035 12 2317 12 2483 12 
C 2650 12 2938 12 3091 0 
L 3091 166 
C 2682 166 2656 192 2656 443 
L 2656 1954 
z
" transform="scale(0.015625)"/>
       <path id="CMR17-29" d="M 1683 1596 
C 1683 2057 1638 2839 1254 3665 
C 947 4332 422 4800 346 4800 
C 326 4800 301 4793 301 4761 
C 301 4748 307 4742 314 4729 
C 621 4408 1402 3595 1402 1603 
C 1402 -396 627 -1210 314 -1530 
C 307 -1543 301 -1549 301 -1562 
C 301 -1594 326 -1600 346 -1600 
C 416 -1600 960 -1127 1274 -422 
C 1594 289 1683 981 1683 1596 
z
" transform="scale(0.015625)"/>
      </defs>
      <use xlink:href="#CMR17-44" transform="scale(0.996264)"/>
      <use xlink:href="#CMR17-61" transform="translate(70.393556 0) scale(0.996264)"/>
      <use xlink:href="#CMR17-69" transform="translate(116.084033 0) scale(0.996264)"/>
      <use xlink:href="#CMR17-6c" transform="translate(140.955092 0) scale(0.996264)"/>
      <use xlink:href="#CMR17-79" transform="translate(165.82615 0) scale(0.996264)"/>
      <use xlink:href="#CMR17-65" transform="translate(244.195032 0) scale(0.996264)"/>
      <use xlink:href="#CMR17-6e" transform="translate(284.680693 0) scale(0.996264)"/>
      <use xlink:href="#CMR17-65" transform="translate(335.576062 0) scale(0.996264)"/>
      <use xlink:href="#CMR17-72" transform="translate(376.061723 0) scale(0.996264)"/>
      <use xlink:href="#CMR17-67" transform="translate(411.342491 0) scale(0.996264)"/>
      <use xlink:href="#CMR17-79" transform="translate(457.032968 0) scale(0.996264)"/>
      <use xlink:href="#CMR17-6e" transform="translate(535.40185 0) scale(0.996264)"/>
      <use xlink:href="#CMR17-65" transform="translate(586.29722 0) scale(0.996264)"/>
      <use xlink:href="#CMR17-65" transform="translate(626.78288 0) scale(0.996264)"/>
      <use xlink:href="#CMR17-64" transform="translate(667.268541 0) scale(0.996264)"/>
      <use xlink:href="#CMR17-28" transform="translate(748.239877 0) scale(0.996264)"/>
      <use xlink:href="#CMR17-6b" transform="translate(783.520645 0) scale(0.996264)"/>
      <use xlink:href="#CMR17-57" transform="translate(831.81356 0) scale(0.996264)"/>
      <use xlink:href="#CMR17-68" transform="translate(926.91021 0) scale(0.996264)"/>
      <use xlink:href="#CMR17-29" transform="translate(977.80558 0) scale(0.996264)"/>
     </g>
    </g>
   </g>
   <g id="matplotlib.axis_2">
    <g id="ytick_1">
     <g id="line2d_13">
      <path d="M 57.6 293.437513 
L 414.72 293.437513 
" clip-path="url(#p87c0fed08f)" style="fill: none; stroke: #b0b0b0; stroke-width: 0.8; stroke-linecap: square"/>
     </g>
     <g id="line2d_14">
      <defs>
       <path id="m998f3bcd0d" d="M 0 0 
L -3.5 0 
" style="stroke: #000000; stroke-width: 0.8"/>
      </defs>
      <g>
       <use xlink:href="#m998f3bcd0d" x="57.6" y="293.437513" style="stroke: #000000; stroke-width: 0.8"/>
      </g>
     </g>
     <g id="text_8">
      <!-- $\mathdefault{0.6}$ -->
      <g transform="translate(31.902948 298.626375) scale(0.15 -0.15)">
       <defs>
        <path id="CMR17-30" d="M 2688 2038 
C 2688 2430 2682 3099 2413 3613 
C 2176 4063 1798 4224 1466 4224 
C 1158 4224 768 4082 525 3620 
C 269 3137 243 2539 243 2038 
C 243 1671 250 1112 448 623 
C 723 -39 1216 -128 1466 -128 
C 1760 -128 2208 -7 2470 604 
C 2662 1048 2688 1568 2688 2038 
z
M 1466 -26 
C 1056 -26 813 328 723 816 
C 653 1196 653 1749 653 2109 
C 653 2604 653 3015 736 3407 
C 858 3954 1216 4121 1466 4121 
C 1728 4121 2067 3947 2189 3420 
C 2272 3054 2278 2623 2278 2109 
C 2278 1691 2278 1176 2202 797 
C 2067 96 1690 -26 1466 -26 
z
" transform="scale(0.015625)"/>
        <path id="CMMI12-3a" d="M 1178 307 
C 1178 492 1024 620 870 620 
C 685 620 557 467 557 313 
C 557 128 710 0 864 0 
C 1050 0 1178 153 1178 307 
z
" transform="scale(0.015625)"/>
       </defs>
       <use xlink:href="#CMR17-30" transform="scale(0.996264)"/>
       <use xlink:href="#CMMI12-3a" transform="translate(45.690477 0) scale(0.996264)"/>
       <use xlink:href="#CMR17-36" transform="translate(72.787654 0) scale(0.996264)"/>
      </g>
     </g>
    </g>
    <g id="ytick_2">
     <g id="line2d_15">
      <path d="M 57.6 245.071503 
L 414.72 245.071503 
" clip-path="url(#p87c0fed08f)" style="fill: none; stroke: #b0b0b0; stroke-width: 0.8; stroke-linecap: square"/>
     </g>
     <g id="line2d_16">
      <g>
       <use xlink:href="#m998f3bcd0d" x="57.6" y="245.071503" style="stroke: #000000; stroke-width: 0.8"/>
      </g>
     </g>
     <g id="text_9">
      <!-- $\mathdefault{0.7}$ -->
      <g transform="translate(31.902948 250.260365) scale(0.15 -0.15)">
       <defs>
        <path id="CMR17-37" d="M 2886 3955 
L 2886 4096 
L 1382 4096 
C 634 4096 621 4166 595 4288 
L 480 4288 
L 294 3104 
L 410 3104 
C 429 3226 474 3552 550 3673 
C 589 3724 1062 3724 1171 3724 
L 2579 3724 
L 1869 2670 
C 1395 1961 1069 1003 1069 166 
C 1069 89 1069 -128 1299 -128 
C 1530 -128 1530 89 1530 172 
L 1530 466 
C 1530 1514 1709 2204 2003 2644 
L 2886 3955 
z
" transform="scale(0.015625)"/>
       </defs>
       <use xlink:href="#CMR17-30" transform="scale(0.996264)"/>
       <use xlink:href="#CMMI12-3a" transform="translate(45.690477 0) scale(0.996264)"/>
       <use xlink:href="#CMR17-37" transform="translate(72.787654 0) scale(0.996264)"/>
      </g>
     </g>
    </g>
    <g id="ytick_3">
     <g id="line2d_17">
      <path d="M 57.6 196.705492 
L 414.72 196.705492 
" clip-path="url(#p87c0fed08f)" style="fill: none; stroke: #b0b0b0; stroke-width: 0.8; stroke-linecap: square"/>
     </g>
     <g id="line2d_18">
      <g>
       <use xlink:href="#m998f3bcd0d" x="57.6" y="196.705492" style="stroke: #000000; stroke-width: 0.8"/>
      </g>
     </g>
     <g id="text_10">
      <!-- $\mathdefault{0.8}$ -->
      <g transform="translate(31.902948 201.894355) scale(0.15 -0.15)">
       <defs>
        <path id="CMR17-38" d="M 1741 2289 
C 2144 2494 2554 2803 2554 3298 
C 2554 3884 1990 4224 1472 4224 
C 890 4224 378 3800 378 3215 
C 378 3054 416 2777 666 2533 
C 730 2469 998 2276 1171 2154 
C 883 2006 211 1652 211 945 
C 211 282 838 -128 1459 -128 
C 2144 -128 2720 366 2720 1022 
C 2720 1607 2330 1877 2074 2051 
L 1741 2289 
z
M 902 2855 
C 851 2887 595 3086 595 3388 
C 595 3781 998 4076 1459 4076 
C 1965 4076 2336 3716 2336 3298 
C 2336 2700 1670 2359 1638 2359 
C 1632 2359 1626 2359 1574 2398 
L 902 2855 
z
M 2080 1536 
C 2176 1466 2483 1253 2483 861 
C 2483 385 2010 25 1472 25 
C 890 25 448 443 448 951 
C 448 1459 838 1884 1280 2083 
L 2080 1536 
z
" transform="scale(0.015625)"/>
       </defs>
       <use xlink:href="#CMR17-30" transform="scale(0.996264)"/>
       <use xlink:href="#CMMI12-3a" transform="translate(45.690477 0) scale(0.996264)"/>
       <use xlink:href="#CMR17-38" transform="translate(72.787654 0) scale(0.996264)"/>
      </g>
     </g>
    </g>
    <g id="ytick_4">
     <g id="line2d_19">
      <path d="M 57.6 148.339482 
L 414.72 148.339482 
" clip-path="url(#p87c0fed08f)" style="fill: none; stroke: #b0b0b0; stroke-width: 0.8; stroke-linecap: square"/>
     </g>
     <g id="line2d_20">
      <g>
       <use xlink:href="#m998f3bcd0d" x="57.6" y="148.339482" style="stroke: #000000; stroke-width: 0.8"/>
      </g>
     </g>
     <g id="text_11">
      <!-- $\mathdefault{0.9}$ -->
      <g transform="translate(31.902948 153.528345) scale(0.15 -0.15)">
       <defs>
        <path id="CMR17-39" d="M 2253 1871 
C 2253 448 1670 25 1190 25 
C 1043 25 685 43 538 281 
C 704 256 826 345 826 505 
C 826 678 685 736 595 736 
C 538 736 365 710 365 492 
C 365 68 742 -128 1203 -128 
C 1939 -128 2688 665 2688 2090 
C 2688 3857 1971 4224 1485 4224 
C 851 4224 243 3664 243 2800 
C 243 2000 762 1408 1414 1408 
C 1952 1408 2189 1910 2253 2122 
L 2253 1871 
z
M 1427 1510 
C 1254 1510 1011 1542 813 1929 
C 678 2181 678 2477 678 2793 
C 678 3174 678 3438 858 3722 
C 947 3857 1114 4076 1485 4076 
C 2240 4076 2240 2909 2240 2651 
C 2240 2193 2035 1510 1427 1510 
z
" transform="scale(0.015625)"/>
       </defs>
       <use xlink:href="#CMR17-30" transform="scale(0.996264)"/>
       <use xlink:href="#CMMI12-3a" transform="translate(45.690477 0) scale(0.996264)"/>
       <use xlink:href="#CMR17-39" transform="translate(72.787654 0) scale(0.996264)"/>
      </g>
     </g>
    </g>
    <g id="ytick_5">
     <g id="line2d_21">
      <path d="M 57.6 99.973472 
L 414.72 99.973472 
" clip-path="url(#p87c0fed08f)" style="fill: none; stroke: #b0b0b0; stroke-width: 0.8; stroke-linecap: square"/>
     </g>
     <g id="line2d_22">
      <g>
       <use xlink:href="#m998f3bcd0d" x="57.6" y="99.973472" style="stroke: #000000; stroke-width: 0.8"/>
      </g>
     </g>
     <g id="text_12">
      <!-- $\mathdefault{1.0}$ -->
      <g transform="translate(31.902948 105.162335) scale(0.15 -0.15)">
       <use xlink:href="#CMR17-31" transform="scale(0.996264)"/>
       <use xlink:href="#CMMI12-3a" transform="translate(45.690477 0) scale(0.996264)"/>
       <use xlink:href="#CMR17-30" transform="translate(72.787654 0) scale(0.996264)"/>
      </g>
     </g>
    </g>
    <g id="ytick_6">
     <g id="line2d_23">
      <path d="M 57.6 51.607462 
L 414.72 51.607462 
" clip-path="url(#p87c0fed08f)" style="fill: none; stroke: #b0b0b0; stroke-width: 0.8; stroke-linecap: square"/>
     </g>
     <g id="line2d_24">
      <g>
       <use xlink:href="#m998f3bcd0d" x="57.6" y="51.607462" style="stroke: #000000; stroke-width: 0.8"/>
      </g>
     </g>
     <g id="text_13">
      <!-- $\mathdefault{1.1}$ -->
      <g transform="translate(31.902948 56.796324) scale(0.15 -0.15)">
       <use xlink:href="#CMR17-31" transform="scale(0.996264)"/>
       <use xlink:href="#CMMI12-3a" transform="translate(45.690477 0) scale(0.996264)"/>
       <use xlink:href="#CMR17-31" transform="translate(72.787654 0) scale(0.996264)"/>
      </g>
     </g>
    </g>
    <g id="text_14">
     <!-- Score (Pt) -->
     <g transform="translate(24.166958 207.551394) rotate(-90) scale(0.15 -0.15)">
      <defs>
       <path id="CMR17-53" d="M 2803 4351 
C 2803 4467 2797 4473 2758 4473 
C 2720 4473 2707 4447 2682 4390 
L 2490 3965 
C 2246 4320 1875 4480 1472 4480 
C 819 4480 294 3958 294 3301 
C 294 3101 339 2817 557 2546 
C 794 2250 1018 2198 1530 2063 
C 1722 2011 2042 1927 2106 1901 
C 2470 1747 2662 1360 2662 999 
C 2662 534 2336 38 1779 38 
C 1094 38 454 425 410 1328 
C 403 1431 397 1437 352 1437 
C 301 1437 294 1431 294 1302 
L 294 0 
C 294 -116 301 -122 339 -122 
C 384 -122 397 -90 486 109 
C 493 128 493 141 614 386 
C 934 -39 1472 -128 1779 -128 
C 2477 -128 2970 457 2970 1141 
C 2970 1476 2848 1734 2778 1850 
C 2509 2263 2221 2340 1914 2417 
C 1869 2437 1856 2437 1498 2527 
C 1152 2617 1005 2662 845 2836 
C 666 3036 602 3243 602 3449 
C 602 3868 934 4326 1478 4326 
C 2157 4326 2579 3842 2675 3036 
C 2694 2920 2701 2914 2746 2914 
C 2803 2914 2803 2933 2803 3043 
L 2803 4351 
z
" transform="scale(0.015625)"/>
       <path id="CMR17-63" d="M 2234 2240 
C 2112 2240 1933 2240 1933 2015 
C 1933 1836 2080 1785 2163 1785 
C 2208 1785 2394 1804 2394 2028 
C 2394 2476 1958 2816 1466 2816 
C 787 2816 211 2201 211 1379 
C 211 521 813 -64 1466 -64 
C 2259 -64 2458 676 2458 747 
C 2458 773 2451 792 2406 792 
C 2362 792 2355 786 2330 702 
C 2163 180 1798 51 1523 51 
C 1114 51 621 431 621 1385 
C 621 2358 1094 2700 1472 2700 
C 1722 2700 2093 2582 2234 2240 
z
" transform="scale(0.015625)"/>
       <path id="CMR17-6f" d="M 2758 1356 
C 2758 2176 2163 2816 1466 2816 
C 768 2816 173 2176 173 1356 
C 173 550 768 -64 1466 -64 
C 2163 -64 2758 550 2758 1356 
z
M 1466 51 
C 1165 51 909 230 762 480 
C 602 768 582 1126 582 1408 
C 582 1676 595 2009 762 2297 
C 890 2508 1139 2713 1466 2713 
C 1754 2713 1997 2553 2150 2329 
C 2349 2028 2349 1606 2349 1408 
C 2349 1158 2336 774 2163 467 
C 1984 172 1709 51 1466 51 
z
" transform="scale(0.015625)"/>
       <path id="CMR17-50" d="M 1267 2048 
L 2291 2048 
C 3117 2048 3718 2583 3718 3187 
C 3718 3791 3130 4352 2291 4352 
L 333 4352 
L 333 4185 
C 774 4185 845 4185 845 3899 
L 845 453 
C 845 166 774 166 333 166 
L 333 0 
C 518 12 858 12 1056 12 
C 1254 12 1594 12 1779 0 
L 1779 166 
C 1338 166 1267 166 1267 453 
L 1267 2048 
z
M 1254 2182 
L 1254 3937 
C 1254 4153 1267 4185 1523 4185 
L 2170 4185 
C 2995 4185 3232 3715 3232 3187 
C 3232 2608 2950 2182 2170 2182 
L 1254 2182 
z
" transform="scale(0.015625)"/>
       <path id="CMR17-74" d="M 966 2585 
L 1862 2585 
L 1862 2752 
L 966 2752 
L 966 3968 
L 851 3968 
C 838 3292 614 2700 70 2687 
L 70 2585 
L 627 2585 
L 627 778 
C 627 655 627 -64 1370 -64 
C 1747 -64 1965 308 1965 784 
L 1965 1151 
L 1850 1151 
L 1850 790 
C 1850 347 1677 51 1408 51 
C 1222 51 966 179 966 765 
L 966 2585 
z
" transform="scale(0.015625)"/>
      </defs>
      <use xlink:href="#CMR17-53" transform="scale(0.996264)"/>
      <use xlink:href="#CMR17-63" transform="translate(50.89537 0) scale(0.996264)"/>
      <use xlink:href="#CMR17-6f" transform="translate(91.38103 0) scale(0.996264)"/>
      <use xlink:href="#CMR17-72" transform="translate(137.071507 0) scale(0.996264)"/>
      <use xlink:href="#CMR17-65" transform="translate(172.352275 0) scale(0.996264)"/>
      <use xlink:href="#CMR17-28" transform="translate(242.913902 0) scale(0.996264)"/>
      <use xlink:href="#CMR17-50" transform="translate(278.19467 0) scale(0.996264)"/>
      <use xlink:href="#CMR17-74" transform="translate(340.78097 0) scale(0.996264)"/>
      <use xlink:href="#CMR17-29" transform="translate(376.061738 0) scale(0.996264)"/>
     </g>
    </g>
   </g>
   <g id="line2d_25">
    <path d="M 104.034875 295.488 
L 105.469052 292.40133 
L 106.863433 289.332842 
L 108.220151 286.281561 
L 109.54117 283.246589 
L 110.828305 280.227098 
L 112.083236 277.22232 
L 113.307519 274.231543 
L 114.502601 271.254108 
L 115.669828 268.289398 
L 116.810454 265.336842 
L 117.925652 262.395902 
L 119.016517 259.46608 
L 120.084075 256.546905 
L 121.12929 253.637939 
L 122.153064 250.738768 
L 123.156248 247.849004 
L 124.139643 244.96828 
L 125.104003 242.096254 
L 126.050041 239.232598 
L 126.978429 236.377005 
L 127.889803 233.529186 
L 128.784766 230.688864 
L 129.663891 227.855778 
L 130.527717 225.029682 
L 131.37676 222.210339 
L 132.211508 219.397527 
L 133.032427 216.591033 
L 133.839959 213.790656 
L 134.634527 210.996201 
L 135.416531 208.207486 
L 136.186357 205.424335 
L 136.944369 202.646581 
L 137.69092 199.874064 
L 138.426342 197.10663 
L 139.150958 194.344134 
L 139.865072 191.586436 
L 140.56898 188.8334 
L 141.262963 186.084899 
L 141.94729 183.340809 
L 142.622222 180.601012 
L 143.288008 177.865393 
L 143.944886 175.133843 
L 144.593087 172.406258 
L 145.232832 169.682537 
L 145.864334 166.962581 
L 146.487797 164.246298 
L 147.10342 161.533596 
L 147.711393 158.824391 
L 148.311898 156.118596 
" clip-path="url(#p87c0fed08f)" style="fill: none; stroke: #1f77b4; stroke-width: 1.5; stroke-linecap: square"/>
   </g>
   <g id="line2d_26">
    <path d="M 104.034875 295.488 
L 106.15965 292.08582 
L 108.226943 288.709903 
L 110.239664 285.358917 
L 112.200511 282.031631 
L 114.111987 278.7269 
L 115.97642 275.443662 
L 117.795977 272.180926 
L 119.57268 268.937769 
L 121.308418 265.713327 
L 123.00496 262.506792 
L 124.663961 259.317408 
L 126.286976 256.144466 
L 127.875464 252.987297 
L 129.430801 249.845274 
L 130.954279 246.717806 
L 132.447118 243.604335 
L 133.910472 240.504336 
L 135.345427 237.417311 
L 136.753014 234.34279 
L 138.134208 231.280326 
L 139.489933 228.229499 
L 140.821066 225.189906 
L 142.12844 222.161168 
L 143.412847 219.142924 
L 144.675038 216.134828 
L 145.915732 213.136554 
L 147.135611 210.14779 
L 148.335326 207.168237 
L 149.515499 204.197613 
L 150.676723 201.235647 
L 151.819564 198.282078 
L 152.944565 195.33666 
L 154.052245 192.399155 
L 155.1431 189.469338 
L 156.217605 186.546989 
L 157.276218 183.631902 
L 158.319374 180.723876 
L 159.347495 177.822719 
L 160.360983 174.928247 
L 161.360225 172.040284 
L 162.345593 169.158659 
L 163.317446 166.283209 
L 164.276128 163.413776 
L 165.22197 160.55021 
L 166.155292 157.692363 
L 167.076401 154.840096 
L 167.985595 151.993273 
L 168.883158 149.151763 
L 169.769368 146.31544 
" clip-path="url(#p87c0fed08f)" style="fill: none; stroke: #ff7f0e; stroke-width: 1.5; stroke-linecap: square"/>
   </g>
   <g id="line2d_27">
    <path d="M 104.034875 295.488 
L 106.793409 291.796279 
L 109.479012 288.137877 
L 112.095121 284.511225 
L 114.644945 280.914856 
L 117.131481 277.347401 
L 119.557536 273.807578 
L 121.925738 270.294185 
L 124.238555 266.806096 
L 126.498303 263.342253 
L 128.707159 259.90166 
L 130.867175 256.48338 
L 132.980282 253.086532 
L 135.048303 249.710281 
L 137.072959 246.353843 
L 139.055878 243.016473 
L 140.998598 239.697468 
L 142.902576 236.396163 
L 144.769196 233.111926 
L 146.599768 229.844157 
L 148.395536 226.59229 
L 150.157684 223.355782 
L 151.887336 220.13412 
L 153.585564 216.926816 
L 155.253386 213.733402 
L 156.891776 210.553435 
L 158.501661 207.38649 
L 160.083926 204.232165 
L 161.639416 201.090071 
L 163.168941 197.959841 
L 164.673272 194.84112 
L 166.153151 191.733572 
L 167.609284 188.636871 
L 169.042352 185.550708 
L 170.453004 182.474786 
L 171.841866 179.40882 
L 173.209536 176.352535 
L 174.55659 173.305669 
L 175.88358 170.267969 
L 177.191039 167.239193 
L 178.479476 164.219106 
L 179.749384 161.207485 
L 181.001237 158.204113 
L 182.235489 155.208782 
L 183.452581 152.221291 
L 184.652936 149.241447 
L 185.836962 146.269063 
L 187.005053 143.303958 
L 188.157589 140.345961 
L 189.294937 137.394902 
" clip-path="url(#p87c0fed08f)" style="fill: none; stroke: #2ca02c; stroke-width: 1.5; stroke-linecap: square"/>
   </g>
   <g id="line2d_28">
    <path d="M 104.034875 295.488 
L 107.23758 291.593353 
L 110.356952 287.736778 
L 113.39667 283.916593 
L 116.360196 280.131218 
L 119.250787 276.379165 
L 122.07151 272.659032 
L 124.825255 268.969499 
L 127.514746 265.309321 
L 130.142556 261.677323 
L 132.711114 258.072395 
L 135.222717 254.493488 
L 137.679536 250.93961 
L 140.083627 247.409821 
L 142.436939 243.903231 
L 144.741319 240.418997 
L 146.99852 236.956317 
L 149.210205 233.514431 
L 151.377958 230.092617 
L 153.503281 226.690188 
L 155.587607 223.306488 
L 157.632298 219.940897 
L 159.638653 216.592819 
L 161.607912 213.26169 
L 163.541255 209.946969 
L 165.439812 206.648141 
L 167.304661 203.364713 
L 169.136832 200.096213 
L 170.937312 196.842193 
L 172.707045 193.60222 
L 174.446933 190.375882 
L 176.157844 187.162783 
L 177.840606 183.962543 
L 179.496017 180.7748 
L 181.124841 177.599203 
L 182.727812 174.435418 
L 184.305634 171.283122 
L 185.858986 168.142006 
L 187.388518 165.011772 
L 188.894858 161.892134 
L 190.378608 158.782816 
L 191.840351 155.683552 
L 193.280645 152.594088 
L 194.70003 149.514177 
L 196.099026 146.44358 
L 197.478134 143.38207 
L 198.837838 140.329424 
L 200.178605 137.28543 
L 201.500887 134.249882 
L 202.805119 131.222579 
" clip-path="url(#p87c0fed08f)" style="fill: none; stroke: #d62728; stroke-width: 1.5; stroke-linecap: square"/>
   </g>
   <g id="line2d_29">
    <path d="M 189.841918 256.285811 
L 191.649329 253.028624 
L 193.401251 249.796788 
L 195.100816 246.588872 
L 196.750902 243.403561 
L 198.354159 240.239645 
L 199.913031 237.096007 
L 201.429779 233.971614 
L 202.906495 230.86551 
L 204.345123 227.776807 
L 205.747469 224.70468 
L 207.115216 221.648359 
L 208.449934 218.607129 
L 209.75309 215.580319 
L 211.026055 212.567301 
L 212.270115 209.567489 
L 213.486476 206.580332 
L 214.676273 203.605311 
L 215.840571 200.64194 
L 216.980374 197.689759 
L 218.096629 194.748337 
L 219.190231 191.817264 
L 220.262022 188.896156 
L 221.312802 185.984647 
L 222.343328 183.082391 
L 223.354316 180.189061 
L 224.346446 177.304347 
L 225.320364 174.427954 
L 226.276684 171.559601 
L 227.215988 168.699021 
L 228.138833 165.845961 
L 229.045746 163.000179 
L 229.937234 160.161445 
L 230.813777 157.329539 
L 231.675834 154.504251 
L 232.523844 151.68538 
L 233.358226 148.872735 
L 234.179383 146.066133 
L 234.987698 143.265398 
L 235.783539 140.470361 
L 236.567258 137.680863 
L 237.339195 134.896747 
L 238.099672 132.117867 
L 238.849002 129.34408 
L 239.587484 126.575249 
L 240.315406 123.811242 
L 241.033042 121.051934 
L 241.740661 118.297204 
L 242.438516 115.546933 
L 243.126855 112.801011 
" clip-path="url(#p87c0fed08f)" style="fill: none; stroke: #1f77b4; stroke-width: 1.5; stroke-linecap: square"/>
   </g>
   <g id="line2d_30">
    <path d="M 189.841918 256.285811 
L 192.517664 252.631912 
L 195.109312 249.016436 
L 197.621498 245.437262 
L 200.058495 241.89244 
L 202.424247 238.380167 
L 204.722403 234.898776 
L 206.956344 231.446722 
L 209.129211 228.022572 
L 211.243926 224.624989 
L 213.303209 221.252731 
L 215.309599 217.904637 
L 217.26547 214.579624 
L 219.173042 211.276677 
L 221.034397 207.994845 
L 222.851488 204.733236 
L 224.626149 201.491011 
L 226.360107 198.267382 
L 228.054988 195.061606 
L 229.712325 191.872983 
L 231.333564 188.700852 
L 232.920073 185.544587 
L 234.473145 182.403599 
L 235.994003 179.277328 
L 237.483809 176.165243 
L 238.943661 173.066844 
L 240.374606 169.981651 
L 241.777635 166.909212 
L 243.153692 163.849095 
L 244.503675 160.800891 
L 245.82844 157.764208 
L 247.128801 154.738674 
L 248.405536 151.723934 
L 249.659387 148.719649 
L 250.891063 145.725495 
L 252.101241 142.741163 
L 253.29057 139.766356 
L 254.459667 136.800792 
L 255.609129 133.844199 
L 256.739522 130.896317 
L 257.851391 127.956898 
L 258.945261 125.025703 
L 260.021631 122.102503 
L 261.080985 119.187077 
L 262.123785 116.279214 
L 263.150475 113.37871 
L 264.161483 110.485372 
L 265.157221 107.599009 
L 266.138084 104.719443 
L 267.104455 101.846498 
" clip-path="url(#p87c0fed08f)" style="fill: none; stroke: #ff7f0e; stroke-width: 1.5; stroke-linecap: square"/>
   </g>
   <g id="line2d_31">
    <path d="M 189.841918 256.285811 
L 193.313397 252.26837 
L 196.673366 248.301875 
L 199.927775 244.383606 
L 203.08213 240.511048 
L 206.141534 236.68187 
L 209.110726 232.893907 
L 211.994114 229.145144 
L 214.795804 225.433707 
L 217.519628 221.757843 
L 220.169164 218.115919 
L 222.74776 214.506405 
L 225.258553 210.927868 
L 227.704485 207.378964 
L 230.088318 203.85843 
L 232.412651 200.36508 
L 234.679927 196.897797 
L 236.892452 193.455528 
L 239.052398 190.037281 
L 241.161819 186.642116 
L 243.222653 183.269149 
L 245.236736 179.917541 
L 247.205807 176.586498 
L 249.131512 173.275267 
L 251.015414 169.983134 
L 252.858997 166.709421 
L 254.66367 163.453485 
L 256.430773 160.214713 
L 258.161584 156.992523 
L 259.857316 153.786358 
L 261.519127 150.59569 
L 263.148122 147.420016 
L 264.745354 144.258852 
L 266.31183 141.11174 
L 267.848511 137.97824 
L 269.356317 134.857932 
L 270.836128 131.750414 
L 272.288785 128.655301 
L 273.715096 125.572226 
L 275.115833 122.500834 
L 276.491737 119.440787 
L 277.84352 116.39176 
L 279.171865 113.353441 
L 280.477427 110.325532 
L 281.760835 107.307743 
L 283.022696 104.299799 
L 284.263591 101.301433 
L 285.484081 98.312389 
L 286.684706 95.332421 
L 287.865985 92.361292 
" clip-path="url(#p87c0fed08f)" style="fill: none; stroke: #2ca02c; stroke-width: 1.5; stroke-linecap: square"/>
   </g>
   <g id="line2d_32">
    <path d="M 189.841918 256.285811 
L 193.870441 252.013877 
L 197.767556 247.801978 
L 201.54007 243.647005 
L 205.194311 239.546068 
L 208.736164 235.496476 
L 212.171114 231.495724 
L 215.504281 227.541474 
L 218.740446 223.63154 
L 221.884081 219.76388 
L 224.939377 215.936579 
L 227.910261 212.147842 
L 230.800421 208.395986 
L 233.613324 204.679426 
L 236.352229 200.996672 
L 239.020207 197.346323 
L 241.620154 193.727054 
L 244.154802 190.137619 
L 246.626731 186.576837 
L 249.038381 183.043595 
L 251.392062 179.536837 
L 253.689959 176.055564 
L 255.934147 172.598829 
L 258.126591 169.165735 
L 260.269159 165.755427 
L 262.363624 162.367095 
L 264.411675 158.999968 
L 266.414916 155.653314 
L 268.374876 152.326432 
L 270.293011 149.018659 
L 272.170712 145.72936 
L 274.009303 142.457928 
L 275.81005 139.203785 
L 277.574162 135.96638 
L 279.302795 132.745184 
L 280.997053 129.539693 
L 282.657996 126.349422 
L 284.286637 123.173909 
L 285.883945 120.012711 
L 287.450852 116.865402 
L 288.98825 113.731574 
L 290.496995 110.610837 
L 291.977909 107.502815 
L 293.431783 104.407147 
L 294.859374 101.323486 
L 296.261413 98.251499 
L 297.638601 95.190866 
L 298.991613 92.141278 
L 300.3211 89.102437 
L 301.627687 86.074059 
" clip-path="url(#p87c0fed08f)" style="fill: none; stroke: #d62728; stroke-width: 1.5; stroke-linecap: square"/>
   </g>
   <g id="line2d_33">
    <path d="M 270.319039 219.518674 
L 272.212069 216.22237 
L 274.04034 212.955653 
L 275.807701 209.716764 
L 277.517681 206.50409 
L 279.173514 203.316153 
L 280.778179 200.151594 
L 282.334422 197.009157 
L 283.84478 193.887683 
L 285.311599 190.786101 
L 286.737057 187.703414 
L 288.123177 184.6387 
L 289.471842 181.591098 
L 290.784805 178.559807 
L 292.063704 175.544078 
L 293.31007 172.543213 
L 294.525336 169.556556 
L 295.710846 166.583494 
L 296.867859 163.623451 
L 297.997562 160.675885 
L 299.101068 157.740287 
L 300.179429 154.816177 
L 301.233633 151.903104 
L 302.264617 149.000639 
L 303.273263 146.108379 
L 304.260406 143.225943 
L 305.226839 140.35297 
L 306.17331 137.489116 
L 307.100531 134.634056 
L 308.009177 131.787483 
L 308.899889 128.949104 
L 309.773276 126.118639 
L 310.62992 123.295824 
L 311.470373 120.480406 
L 312.295162 117.672144 
L 313.104788 114.87081 
L 313.899732 112.076183 
L 314.680452 109.288055 
L 315.447384 106.506226 
L 316.200948 103.730504 
L 316.941543 100.960708 
L 317.669552 98.196661 
L 318.385344 95.438196 
L 319.08927 92.685152 
L 319.781667 89.937376 
L 320.46286 87.194718 
L 321.133158 84.457037 
L 321.792861 81.724198 
L 322.442256 78.996067 
L 323.081619 76.27252 
" clip-path="url(#p87c0fed08f)" style="fill: none; stroke: #1f77b4; stroke-width: 1.5; stroke-linecap: square"/>
   </g>
   <g id="line2d_34">
    <path d="M 270.319039 219.518674 
L 273.119065 215.807996 
L 275.816521 212.144179 
L 278.417515 208.524433 
L 280.927648 204.946197 
L 283.352069 201.40712 
L 285.695521 197.905035 
L 287.962383 194.437942 
L 290.156702 191.00399 
L 292.282229 187.601467 
L 294.342446 184.228782 
L 296.340589 180.884457 
L 298.279671 177.567114 
L 300.162501 174.275471 
L 301.991703 171.008328 
L 303.769732 167.764565 
L 305.498885 164.543132 
L 307.181315 161.343044 
L 308.819046 158.163378 
L 310.413979 155.003265 
L 311.9679 151.861888 
L 313.482497 148.738478 
L 314.959355 145.632309 
L 316.399977 142.542695 
L 317.805777 139.46899 
L 319.178096 136.410581 
L 320.518203 133.366889 
L 321.827298 130.337365 
L 323.106522 127.321488 
L 324.356957 124.318764 
L 325.579628 121.328724 
L 326.775513 118.350921 
L 327.94554 115.384932 
L 329.090594 112.430353 
L 330.211517 109.486798 
L 331.309112 106.553901 
L 332.384145 103.631311 
L 333.437347 100.718696 
L 334.469417 97.815735 
L 335.481021 94.922124 
L 336.472799 92.03757 
L 337.445361 89.161796 
L 338.399293 86.294534 
L 339.335153 83.435528 
L 340.253479 80.584532 
L 341.154786 77.741312 
L 342.039568 74.905641 
L 342.9083 72.077304 
L 343.761436 69.256091 
L 344.599414 66.441804 
" clip-path="url(#p87c0fed08f)" style="fill: none; stroke: #ff7f0e; stroke-width: 1.5; stroke-linecap: square"/>
   </g>
   <g id="line2d_35">
    <path d="M 270.319039 219.518674 
L 273.948813 215.428914 
L 277.437461 211.403629 
L 280.793331 207.439006 
L 284.024099 203.531538 
L 287.136838 199.677994 
L 290.138077 195.875389 
L 293.033857 192.120965 
L 295.82977 188.412167 
L 298.531011 184.746621 
L 301.142403 181.122123 
L 303.668439 177.536622 
L 306.113307 173.988204 
L 308.480913 170.475084 
L 310.774913 166.995592 
L 312.998726 163.548166 
L 315.155555 160.131342 
L 317.248407 156.743748 
L 319.280106 153.384092 
L 321.253306 150.051161 
L 323.170508 146.743815 
L 325.034065 143.460977 
L 326.846199 140.201632 
L 328.609008 136.964823 
L 330.324472 133.749643 
L 331.994466 130.555237 
L 333.620765 127.380794 
L 335.205049 124.225546 
L 336.748911 121.088765 
L 338.253866 117.96976 
L 339.721348 114.867874 
L 341.152724 111.782484 
L 342.549291 108.712998 
L 343.912284 105.658849 
L 345.242882 102.619501 
L 346.542205 99.594442 
L 347.811322 96.583183 
L 349.051254 93.585257 
L 350.262975 90.600219 
L 351.447415 87.627646 
L 352.605465 84.667129 
L 353.737975 81.71828 
L 354.845759 78.780728 
L 355.929598 75.854116 
L 356.990236 72.938102 
L 358.028391 70.032361 
L 359.044749 67.136579 
L 360.039967 64.250454 
L 361.014678 61.373698 
L 361.969489 58.506034 
" clip-path="url(#p87c0fed08f)" style="fill: none; stroke: #2ca02c; stroke-width: 1.5; stroke-linecap: square"/>
   </g>
   <g id="line2d_36">
    <path d="M 270.319039 219.518674 
L 274.528864 215.163909 
L 278.568317 210.886981 
L 282.447391 206.683325 
L 286.175298 202.548732 
L 289.760548 198.479314 
L 293.211013 194.471474 
L 296.533988 190.52188 
L 299.736242 186.627438 
L 302.824068 182.785275 
L 305.803322 178.992715 
L 308.679462 175.247264 
L 311.457581 171.546595 
L 314.14244 167.888533 
L 316.738493 164.271044 
L 319.249909 160.692222 
L 321.680602 157.15028 
L 324.034243 153.64354 
L 326.314283 150.170426 
L 328.52397 146.729453 
L 330.666361 143.319226 
L 332.744338 139.938427 
L 334.760621 136.585814 
L 336.717776 133.260215 
L 338.61823 129.960519 
L 340.46428 126.68568 
L 342.2581 123.434703 
L 344.001747 120.206647 
L 345.697174 117.000621 
L 347.346236 113.815779 
L 348.95069 110.651316 
L 350.512209 107.506468 
L 352.032383 104.380509 
L 353.512725 101.272749 
L 354.954675 98.182528 
L 356.359605 95.10922 
L 357.728825 92.052228 
L 359.063582 89.01098 
L 360.365067 85.984932 
L 361.634419 82.973566 
L 362.872724 79.976383 
L 364.081021 76.99291 
L 365.260306 74.022692 
L 366.411529 71.065294 
L 367.535601 68.1203 
L 368.633396 65.187312 
L 369.705749 62.265947 
L 370.753463 59.355838 
L 371.777307 56.456635 
L 372.77802 53.568 
" clip-path="url(#p87c0fed08f)" style="fill: none; stroke: #d62728; stroke-width: 1.5; stroke-linecap: square"/>
   </g>
   <g id="line2d_37">
    <path d="M 104.034875 295.488 
L 105.714513 294.720633 
L 107.394151 293.953266 
L 109.073789 293.185899 
L 110.753427 292.418532 
L 112.433065 291.651165 
L 114.112703 290.883798 
L 115.792341 290.116431 
L 117.471979 289.349065 
L 119.151617 288.581698 
L 120.831255 287.814331 
L 122.510893 287.046964 
L 124.190531 286.279597 
L 125.870169 285.51223 
L 127.549807 284.744863 
L 129.229445 283.977496 
L 130.909083 283.210129 
L 132.588721 282.442762 
L 134.268359 281.675395 
L 135.947997 280.908028 
L 137.627635 280.140661 
L 139.307273 279.373294 
L 140.986911 278.605927 
L 142.666549 277.838561 
L 144.346187 277.071194 
L 146.025825 276.303827 
L 147.705463 275.53646 
L 149.385101 274.769093 
L 151.064739 274.001726 
L 152.744377 273.234359 
L 154.424015 272.466992 
L 156.103653 271.699625 
L 157.783291 270.932258 
L 159.462929 270.164891 
L 161.142568 269.397524 
L 162.822206 268.630157 
L 164.501844 267.86279 
L 166.181482 267.095423 
L 167.86112 266.328057 
L 169.540758 265.56069 
L 171.220396 264.793323 
L 172.900034 264.025956 
L 174.579672 263.258589 
L 176.25931 262.491222 
L 177.938948 261.723855 
L 179.618586 260.956488 
L 181.298224 260.189121 
L 182.977862 259.421754 
L 184.6575 258.654387 
L 186.337138 257.88702 
L 188.016776 257.119653 
L 189.696414 256.352286 
L 191.376052 255.584919 
L 193.05569 254.817552 
L 194.735328 254.050186 
L 196.414966 253.282819 
L 198.094604 252.515452 
L 199.774242 251.748085 
L 201.45388 250.980718 
L 203.133518 250.213351 
L 204.813156 249.445984 
L 206.492794 248.678617 
L 208.172432 247.91125 
L 209.85207 247.143883 
L 211.531708 246.376516 
L 213.211346 245.609149 
L 214.890984 244.841782 
L 216.570622 244.074415 
L 218.25026 243.307048 
L 219.929898 242.539682 
L 221.609536 241.772315 
L 223.289174 241.004948 
L 224.968812 240.237581 
L 226.64845 239.470214 
L 228.328088 238.702847 
L 230.007726 237.93548 
L 231.687364 237.168113 
L 233.367002 236.400746 
L 235.04664 235.633379 
L 236.726278 234.866012 
L 238.405916 234.098645 
L 240.085554 233.331278 
L 241.765193 232.563911 
L 243.444831 231.796544 
L 245.124469 231.029178 
L 246.804107 230.261811 
L 248.483745 229.494444 
L 250.163383 228.727077 
L 251.843021 227.95971 
L 253.522659 227.192343 
L 255.202297 226.424976 
L 256.881935 225.657609 
L 258.561573 224.890242 
L 260.241211 224.122875 
L 261.920849 223.355508 
L 263.600487 222.588141 
L 265.280125 221.820774 
L 266.959763 221.053407 
L 268.639401 220.28604 
L 270.319039 219.518674 
" clip-path="url(#p87c0fed08f)" style="fill: none; stroke-dasharray: 5.55,2.4; stroke-dashoffset: 0; stroke: #808080; stroke-width: 1.5"/>
   </g>
   <g id="line2d_38">
    <path d="M 148.311898 156.118596 
L 150.579232 155.082731 
L 152.846567 154.046867 
L 155.113901 153.011002 
L 157.381236 151.975138 
L 159.648571 150.939273 
L 161.915905 149.903408 
L 164.18324 148.867544 
L 166.450574 147.831679 
L 168.717909 146.795815 
L 170.985243 145.75995 
L 173.252578 144.724085 
L 175.519913 143.688221 
L 177.787247 142.652356 
L 180.054582 141.616492 
L 182.321916 140.580627 
L 184.589251 139.544762 
L 186.856585 138.508898 
L 189.12392 137.473033 
L 191.391254 136.437169 
L 193.658589 135.401304 
L 195.925924 134.365439 
L 198.193258 133.329575 
L 200.460593 132.29371 
L 202.727927 131.257845 
L 204.995262 130.221981 
L 207.262596 129.186116 
L 209.529931 128.150252 
L 211.797266 127.114387 
L 214.0646 126.078522 
L 216.331935 125.042658 
L 218.599269 124.006793 
L 220.866604 122.970929 
L 223.133938 121.935064 
L 225.401273 120.899199 
L 227.668608 119.863335 
L 229.935942 118.82747 
L 232.203277 117.791606 
L 234.470611 116.755741 
L 236.737946 115.719876 
L 239.00528 114.684012 
L 241.272615 113.648147 
L 243.53995 112.612283 
L 245.807284 111.576418 
L 248.074619 110.540553 
L 250.341953 109.504689 
L 252.609288 108.468824 
L 254.876622 107.43296 
L 257.143957 106.397095 
L 259.411292 105.36123 
L 261.678626 104.325366 
L 263.945961 103.289501 
L 266.213295 102.253637 
L 268.48063 101.217772 
L 270.747964 100.181907 
L 273.015299 99.146043 
L 275.282634 98.110178 
L 277.549968 97.074313 
L 279.817303 96.038449 
L 282.084637 95.002584 
L 284.351972 93.96672 
L 286.619306 92.930855 
L 288.886641 91.89499 
L 291.153976 90.859126 
L 293.42131 89.823261 
L 295.688645 88.787397 
L 297.955979 87.751532 
L 300.223314 86.715667 
L 302.490648 85.679803 
L 304.757983 84.643938 
L 307.025318 83.608074 
L 309.292652 82.572209 
L 311.559987 81.536344 
L 313.827321 80.50048 
L 316.094656 79.464615 
L 318.36199 78.428751 
L 320.629325 77.392886 
L 322.89666 76.357021 
L 325.163994 75.321157 
L 327.431329 74.285292 
L 329.698663 73.249428 
L 331.965998 72.213563 
L 334.233332 71.177698 
L 336.500667 70.141834 
L 338.768002 69.105969 
L 341.035336 68.070104 
L 343.302671 67.03424 
L 345.570005 65.998375 
L 347.83734 64.962511 
L 350.104674 63.926646 
L 352.372009 62.890781 
L 354.639344 61.854917 
L 356.906678 60.819052 
L 359.174013 59.783188 
L 361.441347 58.747323 
L 363.708682 57.711458 
L 365.976016 56.675594 
L 368.243351 55.639729 
L 370.510686 54.603865 
L 372.77802 53.568 
" clip-path="url(#p87c0fed08f)" style="fill: none; stroke-dasharray: 5.55,2.4; stroke-dashoffset: 0; stroke: #808080; stroke-width: 1.5"/>
   </g>
   <g id="patch_3">
    <path d="M 57.6 307.584 
L 57.6 41.472 
" style="fill: none; stroke: #000000; stroke-width: 0.8; stroke-linejoin: miter; stroke-linecap: square"/>
   </g>
   <g id="patch_4">
    <path d="M 414.72 307.584 
L 414.72 41.472 
" style="fill: none; stroke: #000000; stroke-width: 0.8; stroke-linejoin: miter; stroke-linecap: square"/>
   </g>
   <g id="patch_5">
    <path d="M 57.6 307.584 
L 414.72 307.584 
" style="fill: none; stroke: #000000; stroke-width: 0.8; stroke-linejoin: miter; stroke-linecap: square"/>
   </g>
   <g id="patch_6">
    <path d="M 57.6 41.472 
L 414.72 41.472 
" style="fill: none; stroke: #000000; stroke-width: 0.8; stroke-linejoin: miter; stroke-linecap: square"/>
   </g>
   <g id="legend_1">
    <g id="patch_7">
     <path d="M 68.1 137.094979 
L 166.019963 137.094979 
Q 169.019963 137.094979 169.019963 134.094979 
L 169.019963 51.972 
Q 169.019963 48.972 166.019963 48.972 
L 68.1 48.972 
Q 65.1 48.972 65.1 51.972 
L 65.1 134.094979 
Q 65.1 137.094979 68.1 137.094979 
z
" style="fill: #ffffff; opacity: 0.8; stroke: #cccccc; stroke-linejoin: miter"/>
    </g>
    <g id="line2d_39">
     <path d="M 71.1 60.222 
L 86.1 60.222 
L 101.1 60.222 
" style="fill: none; stroke: #1f77b4; stroke-width: 1.5; stroke-linecap: square"/>
    </g>
    <g id="text_15">
     <!-- $z_0$=0.01 -->
     <g transform="translate(113.1 65.472) scale(0.15 -0.15)">
      <defs>
       <path id="CMMI12-7a" d="M 813 486 
C 1088 809 1312 1015 1632 1313 
C 2016 1657 2182 1822 2272 1922 
C 2720 2371 2944 2713 2944 2764 
C 2944 2816 2893 2816 2880 2816 
C 2835 2816 2822 2790 2790 2745 
C 2630 2470 2477 2368 2310 2368 
C 2176 2368 2106 2403 1984 2547 
C 1850 2707 1741 2816 1555 2816 
C 1088 2816 806 2265 806 2127 
C 806 2107 813 2067 870 2067 
C 922 2067 928 2094 947 2140 
C 1056 2387 1363 2415 1485 2415 
C 1619 2415 1747 2387 1882 2342 
C 2125 2239 2227 2239 2291 2239 
C 2336 2239 2362 2239 2394 2246 
C 2182 1988 1837 1670 1549 1399 
L 902 783 
C 512 380 275 32 275 -13 
C 275 -52 307 -64 346 -64 
C 384 -64 390 -58 435 19 
C 538 179 742 384 979 384 
C 1114 384 1178 356 1306 211 
C 1427 70 1536 -64 1741 -64 
C 2368 -64 2726 723 2726 876 
C 2726 902 2720 942 2656 942 
C 2605 942 2598 915 2579 849 
C 2438 460 2061 336 1811 336 
C 1677 336 1549 364 1414 409 
C 1158 512 1088 512 1005 512 
C 941 512 870 512 813 486 
z
" transform="scale(0.015625)"/>
       <path id="CMR17-3d" d="M 4115 2048 
C 4211 2048 4307 2048 4307 2156 
C 4307 2272 4198 2272 4090 2272 
L 512 2272 
C 403 2272 294 2272 294 2156 
C 294 2048 390 2048 486 2048 
L 4115 2048 
z
M 4090 927 
C 4198 927 4307 927 4307 1043 
C 4307 1152 4211 1152 4115 1152 
L 486 1152 
C 390 1152 294 1152 294 1043 
C 294 927 403 927 512 927 
L 4090 927 
z
" transform="scale(0.015625)"/>
       <path id="CMR17-2e" d="M 1062 262 
C 1062 422 934 524 800 524 
C 672 524 538 422 538 262 
C 538 102 666 0 800 0 
C 928 0 1062 102 1062 262 
z
" transform="scale(0.015625)"/>
      </defs>
      <use xlink:href="#CMMI12-7a" transform="scale(0.996264)"/>
      <use xlink:href="#CMR17-30" transform="translate(45.315753 -14.943915) scale(0.697382)"/>
      <use xlink:href="#CMR17-3d" transform="translate(77.797067 0) scale(0.996264)"/>
      <use xlink:href="#CMR17-30" transform="translate(149.511856 0) scale(0.996264)"/>
      <use xlink:href="#CMR17-2e" transform="translate(195.202333 0) scale(0.996264)"/>
      <use xlink:href="#CMR17-30" transform="translate(220.073391 0) scale(0.996264)"/>
      <use xlink:href="#CMR17-31" transform="translate(265.763868 0) scale(0.996264)"/>
     </g>
    </g>
    <g id="line2d_40">
     <path d="M 71.1 81.127745 
L 86.1 81.127745 
L 101.1 81.127745 
" style="fill: none; stroke: #ff7f0e; stroke-width: 1.5; stroke-linecap: square"/>
    </g>
    <g id="text_16">
     <!-- $z_0$=0.1 -->
     <g transform="translate(113.1 86.377745) scale(0.15 -0.15)">
      <use xlink:href="#CMMI12-7a" transform="scale(0.996264)"/>
      <use xlink:href="#CMR17-30" transform="translate(45.315753 -14.943915) scale(0.697382)"/>
      <use xlink:href="#CMR17-3d" transform="translate(77.797067 0) scale(0.996264)"/>
      <use xlink:href="#CMR17-30" transform="translate(149.511856 0) scale(0.996264)"/>
      <use xlink:href="#CMR17-2e" transform="translate(195.202333 0) scale(0.996264)"/>
      <use xlink:href="#CMR17-31" transform="translate(220.073391 0) scale(0.996264)"/>
     </g>
    </g>
    <g id="line2d_41">
     <path d="M 71.1 102.033489 
L 86.1 102.033489 
L 101.1 102.033489 
" style="fill: none; stroke: #2ca02c; stroke-width: 1.5; stroke-linecap: square"/>
    </g>
    <g id="text_17">
     <!-- $z_0$=0.3 -->
     <g transform="translate(113.1 107.283489) scale(0.15 -0.15)">
      <use xlink:href="#CMMI12-7a" transform="scale(0.996264)"/>
      <use xlink:href="#CMR17-30" transform="translate(45.315753 -14.943915) scale(0.697382)"/>
      <use xlink:href="#CMR17-3d" transform="translate(77.797067 0) scale(0.996264)"/>
      <use xlink:href="#CMR17-30" transform="translate(149.511856 0) scale(0.996264)"/>
      <use xlink:href="#CMR17-2e" transform="translate(195.202333 0) scale(0.996264)"/>
      <use xlink:href="#CMR17-33" transform="translate(220.073391 0) scale(0.996264)"/>
     </g>
    </g>
    <g id="line2d_42">
     <path d="M 71.1 122.939234 
L 86.1 122.939234 
L 101.1 122.939234 
" style="fill: none; stroke: #d62728; stroke-width: 1.5; stroke-linecap: square"/>
    </g>
    <g id="text_18">
     <!-- $z_0$=0.5 -->
     <g transform="translate(113.1 128.189234) scale(0.15 -0.15)">
      <use xlink:href="#CMMI12-7a" transform="scale(0.996264)"/>
      <use xlink:href="#CMR17-30" transform="translate(45.315753 -14.943915) scale(0.697382)"/>
      <use xlink:href="#CMR17-3d" transform="translate(77.797067 0) scale(0.996264)"/>
      <use xlink:href="#CMR17-30" transform="translate(149.511856 0) scale(0.996264)"/>
      <use xlink:href="#CMR17-2e" transform="translate(195.202333 0) scale(0.996264)"/>
      <use xlink:href="#CMR17-35" transform="translate(220.073391 0) scale(0.996264)"/>
     </g>
    </g>
   </g>
  </g>
 </g>
 <defs>
  <clipPath id="p87c0fed08f">
   <rect x="57.6" y="41.472" width="357.12" height="266.112"/>
  </clipPath>
 </defs>
</svg>
