<?xml version="1.0" encoding="utf-8" standalone="no"?>
<!DOCTYPE svg PUBLIC "-//W3C//DTD SVG 1.1//EN"
  "http://www.w3.org/Graphics/SVG/1.1/DTD/svg11.dtd">
<svg xmlns:xlink="http://www.w3.org/1999/xlink" width="460.8pt" height="345.6pt" viewBox="0 0 460.8 345.6" xmlns="http://www.w3.org/2000/svg" version="1.1">
 <metadata>
  <rdf:RDF xmlns:dc="http://purl.org/dc/elements/1.1/" xmlns:cc="http://creativecommons.org/ns#" xmlns:rdf="http://www.w3.org/1999/02/22-rdf-syntax-ns#">
   <cc:Work>
    <dc:type rdf:resource="http://purl.org/dc/dcmitype/StillImage"/>
    <dc:date>2025-02-10T10:28:23.275648</dc:date>
    <dc:format>image/svg+xml</dc:format>
    <dc:creator>
     <cc:Agent>
      <dc:title>Matplotlib v3.10.0, https://matplotlib.org/</dc:title>
     </cc:Agent>
    </dc:creator>
   </cc:Work>
  </rdf:RDF>
 </metadata>
 <defs>
  <style type="text/css">*{stroke-linejoin: round; stroke-linecap: butt}</style>
 </defs>
 <g id="figure_1">
  <g id="patch_1">
   <path d="M 0 345.6 
L 460.8 345.6 
L 460.8 0 
L 0 0 
z
" style="fill: #ffffff"/>
  </g>
  <g id="axes_1">
   <g id="patch_2">
    <path d="M 57.6 307.584 
L 414.72 307.584 
L 414.72 41.472 
L 57.6 41.472 
z
" style="fill: #ffffff"/>
   </g>
   <g id="matplotlib.axis_1">
    <g id="xtick_1">
     <g id="line2d_1">
      <path d="M 57.6 307.584 
L 57.6 41.472 
" clip-path="url(#pec28452b7a)" style="fill: none; stroke: #b0b0b0; stroke-width: 0.8; stroke-linecap: square"/>
     </g>
     <g id="line2d_2">
      <defs>
       <path id="m0fab7ffd0d" d="M 0 0 
L 0 3.5 
" style="stroke: #000000; stroke-width: 0.8"/>
      </defs>
      <g>
       <use xlink:href="#m0fab7ffd0d" x="57.6" y="307.584" style="stroke: #000000; stroke-width: 0.8"/>
      </g>
     </g>
     <g id="text_1">
      <!-- $\mathdefault{1}$ -->
      <g transform="translate(53.941881 324.961725) scale(0.15 -0.15)">
       <defs>
        <path id="CMR17-31" d="M 1702 4083 
C 1702 4217 1696 4224 1606 4224 
C 1357 3927 979 3833 621 3820 
C 602 3820 570 3820 563 3808 
C 557 3795 557 3782 557 3648 
C 755 3648 1088 3686 1344 3839 
L 1344 467 
C 1344 243 1331 166 781 166 
L 589 166 
L 589 0 
C 896 6 1216 12 1523 12 
C 1830 12 2150 6 2458 0 
L 2458 166 
L 2266 166 
C 1715 166 1702 236 1702 467 
L 1702 4083 
z
" transform="scale(0.015625)"/>
       </defs>
       <use xlink:href="#CMR17-31" transform="scale(0.996264)"/>
      </g>
     </g>
    </g>
    <g id="xtick_2">
     <g id="line2d_3">
      <path d="M 129.024 307.584 
L 129.024 41.472 
" clip-path="url(#pec28452b7a)" style="fill: none; stroke: #b0b0b0; stroke-width: 0.8; stroke-linecap: square"/>
     </g>
     <g id="line2d_4">
      <g>
       <use xlink:href="#m0fab7ffd0d" x="129.024" y="307.584" style="stroke: #000000; stroke-width: 0.8"/>
      </g>
     </g>
     <g id="text_2">
      <!-- $\mathdefault{2}$ -->
      <g transform="translate(125.365881 324.961725) scale(0.15 -0.15)">
       <defs>
        <path id="CMR17-32" d="M 2669 990 
L 2554 990 
C 2490 537 2438 460 2413 422 
C 2381 371 1920 371 1830 371 
L 602 371 
C 832 620 1280 1073 1824 1596 
C 2214 1966 2669 2400 2669 3033 
C 2669 3788 2067 4224 1395 4224 
C 691 4224 262 3603 262 3027 
C 262 2777 448 2745 525 2745 
C 589 2745 781 2783 781 3007 
C 781 3206 614 3264 525 3264 
C 486 3264 448 3257 422 3244 
C 544 3788 915 4057 1306 4057 
C 1862 4057 2227 3616 2227 3033 
C 2227 2477 1901 1998 1536 1583 
L 262 147 
L 262 0 
L 2515 0 
L 2669 990 
z
" transform="scale(0.015625)"/>
       </defs>
       <use xlink:href="#CMR17-32" transform="scale(0.996264)"/>
      </g>
     </g>
    </g>
    <g id="xtick_3">
     <g id="line2d_5">
      <path d="M 200.448 307.584 
L 200.448 41.472 
" clip-path="url(#pec28452b7a)" style="fill: none; stroke: #b0b0b0; stroke-width: 0.8; stroke-linecap: square"/>
     </g>
     <g id="line2d_6">
      <g>
       <use xlink:href="#m0fab7ffd0d" x="200.448" y="307.584" style="stroke: #000000; stroke-width: 0.8"/>
      </g>
     </g>
     <g id="text_3">
      <!-- $\mathdefault{3}$ -->
      <g transform="translate(196.789881 324.961725) scale(0.15 -0.15)">
       <defs>
        <path id="CMR17-33" d="M 1414 2176 
C 1984 2176 2234 1673 2234 1094 
C 2234 322 1824 25 1453 25 
C 1114 25 563 193 390 691 
C 422 678 454 678 486 678 
C 640 678 755 780 755 947 
C 755 1132 614 1216 486 1216 
C 378 1216 211 1164 211 927 
C 211 335 787 -128 1466 -128 
C 2176 -128 2720 432 2720 1087 
C 2720 1718 2208 2176 1600 2246 
C 2086 2347 2554 2776 2554 3353 
C 2554 3856 2048 4224 1472 4224 
C 890 4224 378 3862 378 3347 
C 378 3123 544 3084 627 3084 
C 762 3084 877 3167 877 3334 
C 877 3500 762 3584 627 3584 
C 602 3584 570 3584 544 3571 
C 730 3999 1235 4076 1459 4076 
C 1683 4076 2106 3966 2106 3347 
C 2106 3167 2080 2851 1862 2574 
C 1670 2329 1453 2316 1242 2297 
C 1210 2297 1062 2284 1037 2284 
C 992 2278 966 2272 966 2227 
C 966 2182 973 2176 1101 2176 
L 1414 2176 
z
" transform="scale(0.015625)"/>
       </defs>
       <use xlink:href="#CMR17-33" transform="scale(0.996264)"/>
      </g>
     </g>
    </g>
    <g id="xtick_4">
     <g id="line2d_7">
      <path d="M 271.872 307.584 
L 271.872 41.472 
" clip-path="url(#pec28452b7a)" style="fill: none; stroke: #b0b0b0; stroke-width: 0.8; stroke-linecap: square"/>
     </g>
     <g id="line2d_8">
      <g>
       <use xlink:href="#m0fab7ffd0d" x="271.872" y="307.584" style="stroke: #000000; stroke-width: 0.8"/>
      </g>
     </g>
     <g id="text_4">
      <!-- $\mathdefault{4}$ -->
      <g transform="translate(268.213881 324.961725) scale(0.15 -0.15)">
       <defs>
        <path id="CMR17-34" d="M 2150 4147 
C 2150 4281 2144 4288 2029 4288 
L 128 1254 
L 128 1088 
L 1779 1088 
L 1779 460 
C 1779 230 1766 166 1318 166 
L 1197 166 
L 1197 0 
C 1402 12 1747 12 1965 12 
C 2182 12 2528 12 2733 0 
L 2733 166 
L 2611 166 
C 2163 166 2150 230 2150 460 
L 2150 1088 
L 2803 1088 
L 2803 1254 
L 2150 1254 
L 2150 4147 
z
M 1798 3723 
L 1798 1254 
L 256 1254 
L 1798 3723 
z
" transform="scale(0.015625)"/>
       </defs>
       <use xlink:href="#CMR17-34" transform="scale(0.996264)"/>
      </g>
     </g>
    </g>
    <g id="xtick_5">
     <g id="line2d_9">
      <path d="M 343.296 307.584 
L 343.296 41.472 
" clip-path="url(#pec28452b7a)" style="fill: none; stroke: #b0b0b0; stroke-width: 0.8; stroke-linecap: square"/>
     </g>
     <g id="line2d_10">
      <g>
       <use xlink:href="#m0fab7ffd0d" x="343.296" y="307.584" style="stroke: #000000; stroke-width: 0.8"/>
      </g>
     </g>
     <g id="text_5">
      <!-- $\mathdefault{5}$ -->
      <g transform="translate(339.637881 324.961725) scale(0.15 -0.15)">
       <defs>
        <path id="CMR17-35" d="M 730 3750 
C 794 3724 1056 3641 1325 3641 
C 1920 3641 2246 3961 2432 4140 
C 2432 4191 2432 4224 2394 4224 
C 2387 4224 2374 4224 2323 4198 
C 2099 4102 1837 4032 1517 4032 
C 1325 4032 1037 4055 723 4191 
C 653 4224 640 4224 634 4224 
C 602 4224 595 4217 595 4090 
L 595 2231 
C 595 2113 595 2080 659 2080 
C 691 2080 704 2093 736 2139 
C 941 2435 1222 2560 1542 2560 
C 1766 2560 2246 2415 2246 1293 
C 2246 1087 2246 716 2054 422 
C 1894 159 1645 25 1370 25 
C 947 25 518 319 403 812 
C 429 806 480 793 506 793 
C 589 793 749 838 749 1036 
C 749 1209 627 1280 506 1280 
C 358 1280 262 1190 262 1011 
C 262 454 704 -128 1382 -128 
C 2042 -128 2669 441 2669 1267 
C 2669 2054 2170 2662 1549 2662 
C 1222 2662 947 2540 730 2304 
L 730 3750 
z
" transform="scale(0.015625)"/>
       </defs>
       <use xlink:href="#CMR17-35" transform="scale(0.996264)"/>
      </g>
     </g>
    </g>
    <g id="xtick_6">
     <g id="line2d_11">
      <path d="M 414.72 307.584 
L 414.72 41.472 
" clip-path="url(#pec28452b7a)" style="fill: none; stroke: #b0b0b0; stroke-width: 0.8; stroke-linecap: square"/>
     </g>
     <g id="line2d_12">
      <g>
       <use xlink:href="#m0fab7ffd0d" x="414.72" y="307.584" style="stroke: #000000; stroke-width: 0.8"/>
      </g>
     </g>
     <g id="text_6">
      <!-- $\mathdefault{6}$ -->
      <g transform="translate(411.061881 324.961725) scale(0.15 -0.15)">
       <defs>
        <path id="CMR17-36" d="M 678 2198 
C 678 3712 1395 4076 1811 4076 
C 1946 4076 2272 4049 2400 3782 
C 2298 3782 2106 3782 2106 3558 
C 2106 3385 2246 3328 2336 3328 
C 2394 3328 2566 3353 2566 3571 
C 2566 3987 2246 4224 1805 4224 
C 1043 4224 243 3411 243 2011 
C 243 257 966 -128 1478 -128 
C 2099 -128 2688 431 2688 1295 
C 2688 2101 2170 2688 1517 2688 
C 1126 2688 838 2430 678 1979 
L 678 2198 
z
M 1478 25 
C 691 25 691 1212 691 1450 
C 691 1914 909 2585 1504 2585 
C 1613 2585 1926 2585 2138 2140 
C 2253 1889 2253 1624 2253 1302 
C 2253 954 2253 696 2118 438 
C 1978 173 1773 25 1478 25 
z
" transform="scale(0.015625)"/>
       </defs>
       <use xlink:href="#CMR17-36" transform="scale(0.996264)"/>
      </g>
     </g>
    </g>
    <g id="text_7">
     <!-- Daily energy need (kWh) -->
     <g transform="translate(154.973977 343.07544) scale(0.15 -0.15)">
      <defs>
       <path id="CMR17-44" d="M 333 4352 
L 333 4185 
C 774 4185 845 4185 845 3898 
L 845 453 
C 845 166 774 166 333 166 
L 333 0 
L 2368 0 
C 3398 0 4224 943 4224 2140 
C 4224 3344 3411 4352 2368 4352 
L 333 4352 
z
M 1523 166 
C 1267 166 1254 198 1254 414 
L 1254 3936 
C 1254 4153 1267 4185 1523 4185 
L 2240 4185 
C 2771 4185 3750 3873 3750 2140 
C 3750 1242 3488 879 3366 707 
C 3213 510 2848 166 2240 166 
L 1523 166 
z
" transform="scale(0.015625)"/>
       <path id="CMR17-61" d="M 2304 1656 
C 2304 2048 2304 2275 2035 2534 
C 1798 2751 1523 2816 1306 2816 
C 800 2816 435 2408 435 1977 
C 435 1740 627 1728 666 1728 
C 749 1728 896 1779 896 1958 
C 896 2118 774 2188 666 2188 
C 640 2188 608 2182 589 2176 
C 723 2594 1069 2713 1293 2713 
C 1613 2713 1965 2421 1965 1875 
L 1965 1632 
C 1587 1619 1133 1568 774 1373 
C 371 1147 256 822 256 576 
C 256 77 832 -64 1171 -64 
C 1523 -64 1850 135 1990 505 
C 2003 219 2182 -39 2464 -39 
C 2598 -39 2938 51 2938 563 
L 2938 926 
L 2822 926 
L 2822 557 
C 2822 161 2650 109 2566 109 
C 2304 109 2304 446 2304 732 
L 2304 1656 
z
M 1965 887 
C 1965 323 1568 38 1216 38 
C 896 38 646 278 646 576 
C 646 771 730 1114 1101 1322 
C 1408 1497 1760 1523 1965 1536 
L 1965 887 
z
" transform="scale(0.015625)"/>
       <path id="CMR17-69" d="M 992 3961 
C 992 4102 877 4224 730 4224 
C 589 4224 467 4108 467 3961 
C 467 3820 582 3699 730 3699 
C 870 3699 992 3814 992 3961 
z
M 243 2745 
L 243 2579 
C 602 2579 653 2540 653 2231 
L 653 443 
C 653 198 627 166 218 166 
L 218 0 
C 371 12 646 12 806 12 
C 960 12 1222 12 1370 0 
L 1370 166 
C 992 166 979 205 979 436 
L 979 2816 
L 243 2745 
z
" transform="scale(0.015625)"/>
       <path id="CMR17-6c" d="M 979 4416 
L 218 4345 
L 218 4179 
C 595 4179 653 4141 653 3835 
L 653 439 
C 653 198 627 166 218 166 
L 218 0 
C 371 12 653 12 813 12 
C 979 12 1261 12 1414 0 
L 1414 166 
C 1005 166 979 191 979 439 
L 979 4416 
z
" transform="scale(0.015625)"/>
       <path id="CMR17-79" d="M 2496 2183 
C 2656 2579 2944 2585 3034 2585 
L 3034 2752 
C 2912 2745 2752 2739 2630 2739 
C 2496 2739 2285 2739 2157 2752 
L 2157 2585 
C 2400 2566 2406 2384 2406 2332 
C 2406 2268 2394 2235 2362 2158 
L 1664 409 
L 902 2300 
C 870 2378 870 2423 870 2430 
C 870 2572 1018 2585 1171 2585 
L 1171 2752 
C 1018 2739 742 2739 582 2739 
C 410 2739 205 2739 64 2752 
L 64 2585 
C 410 2585 448 2553 531 2345 
L 1485 -31 
C 1197 -795 1030 -1242 627 -1242 
C 557 -1242 397 -1223 282 -1106 
C 429 -1093 493 -1002 493 -892 
C 493 -782 416 -685 288 -685 
C 147 -685 77 -782 77 -899 
C 77 -1158 339 -1344 627 -1344 
C 998 -1344 1229 -983 1357 -659 
L 2496 2183 
z
" transform="scale(0.015625)"/>
       <path id="CMR17-65" d="M 2438 1503 
C 2464 1529 2464 1542 2464 1606 
C 2464 2251 2118 2816 1389 2816 
C 710 2816 173 2175 173 1394 
C 173 554 781 -64 1459 -64 
C 2176 -64 2458 619 2458 755 
C 2458 800 2419 800 2406 800 
C 2362 800 2355 787 2330 709 
C 2189 270 1837 51 1504 51 
C 1229 51 954 206 781 490 
C 582 819 582 1200 582 1503 
L 2438 1503 
z
M 589 1600 
C 634 2511 1126 2713 1382 2713 
C 1818 2713 2112 2308 2118 1600 
L 589 1600 
z
" transform="scale(0.015625)"/>
       <path id="CMR17-6e" d="M 2656 1954 
C 2656 2282 2592 2816 1837 2816 
C 1331 2816 1069 2424 973 2166 
L 966 2166 
L 966 2816 
L 211 2745 
L 211 2578 
C 589 2578 646 2540 646 2231 
L 646 443 
C 646 198 621 166 211 166 
L 211 0 
C 365 12 646 12 813 12 
C 979 12 1267 12 1421 0 
L 1421 166 
C 1011 166 986 192 986 443 
L 986 1678 
C 986 2269 1344 2713 1792 2713 
C 2266 2713 2317 2289 2317 1980 
L 2317 443 
C 2317 198 2291 166 1882 166 
L 1882 0 
C 2035 12 2317 12 2483 12 
C 2650 12 2938 12 3091 0 
L 3091 166 
C 2682 166 2656 192 2656 443 
L 2656 1954 
z
" transform="scale(0.015625)"/>
       <path id="CMR17-72" d="M 960 1517 
C 960 2134 1222 2713 1702 2713 
C 1747 2713 1792 2707 1837 2687 
C 1837 2687 1696 2642 1696 2475 
C 1696 2321 1818 2257 1914 2257 
C 1990 2257 2131 2302 2131 2482 
C 2131 2687 1926 2816 1709 2816 
C 1222 2816 1011 2340 947 2115 
L 941 2115 
L 941 2816 
L 198 2745 
L 198 2578 
C 576 2578 634 2540 634 2231 
L 634 443 
C 634 198 608 166 198 166 
L 198 0 
C 352 12 646 12 813 12 
C 998 12 1325 12 1498 0 
L 1498 166 
C 1037 166 960 166 960 455 
L 960 1517 
z
" transform="scale(0.015625)"/>
       <path id="CMR17-67" d="M 710 1165 
C 832 1068 1043 960 1299 960 
C 1805 960 2240 1359 2240 1895 
C 2240 2063 2189 2321 1997 2521 
C 2176 2713 2438 2777 2586 2777 
C 2611 2777 2650 2777 2682 2758 
C 2656 2751 2598 2726 2598 2623 
C 2598 2540 2656 2483 2739 2483 
C 2835 2483 2886 2547 2886 2630 
C 2886 2751 2790 2880 2586 2880 
C 2330 2880 2106 2758 1926 2591 
C 1734 2764 1504 2828 1299 2828 
C 794 2828 358 2431 358 1895 
C 358 1527 570 1294 634 1230 
C 442 1004 442 742 442 710 
C 442 544 506 300 723 166 
C 390 82 128 -184 128 -517 
C 128 -996 736 -1344 1466 -1344 
C 2170 -1344 2803 -1009 2803 -510 
C 2803 384 1856 384 1363 384 
C 1216 384 954 384 922 390 
C 723 422 589 601 589 825 
C 589 883 589 1024 710 1165 
z
M 1299 1068 
C 736 1068 736 1766 736 1895 
C 736 2024 736 2719 1299 2719 
C 1862 2719 1862 2024 1862 1895 
C 1862 1766 1862 1068 1299 1068 
z
M 1466 -1236 
C 826 -1236 384 -883 384 -517 
C 384 -311 493 -118 634 -11 
C 794 102 858 102 1293 102 
C 1818 102 2547 102 2547 -517 
C 2547 -883 2106 -1236 1466 -1236 
z
" transform="scale(0.015625)"/>
       <path id="CMR17-64" d="M 1869 4345 
L 1869 4179 
C 2246 4179 2304 4141 2304 3843 
L 2304 2371 
C 2278 2403 2016 2816 1498 2816 
C 845 2816 211 2228 211 1376 
C 211 529 806 -64 1434 -64 
C 1978 -64 2259 361 2291 406 
L 2291 -64 
L 3066 -13 
L 3066 154 
C 2688 154 2630 193 2630 503 
L 2630 4416 
L 1869 4345 
z
M 2291 762 
C 2291 568 2176 393 2029 264 
C 1811 70 1594 38 1472 38 
C 1286 38 621 135 621 1369 
C 621 2636 1363 2713 1530 2713 
C 1824 2713 2061 2545 2208 2313 
C 2291 2177 2291 2157 2291 2041 
L 2291 762 
z
" transform="scale(0.015625)"/>
       <path id="CMR17-28" d="M 1958 -1562 
C 1958 -1556 1958 -1543 1939 -1524 
C 1645 -1223 858 -403 858 1596 
C 858 3595 1632 4408 1946 4729 
C 1946 4735 1958 4748 1958 4767 
C 1958 4787 1939 4800 1914 4800 
C 1843 4800 1299 4325 986 3620 
C 666 2909 576 2218 576 1603 
C 576 1141 621 360 1005 -467 
C 1312 -1133 1837 -1600 1914 -1600 
C 1946 -1600 1958 -1588 1958 -1562 
z
" transform="scale(0.015625)"/>
       <path id="CMR17-6b" d="M 1670 1679 
C 1664 1692 1632 1730 1632 1749 
C 1632 1762 2086 2175 2144 2226 
C 2509 2532 2739 2563 2906 2570 
L 2906 2735 
C 2867 2735 2854 2735 2848 2729 
L 2534 2722 
C 2355 2722 2080 2722 1907 2735 
L 1907 2570 
C 1997 2563 2061 2513 2061 2423 
C 2061 2296 1933 2175 1926 2175 
L 960 1298 
L 960 4416 
L 198 4345 
L 198 4179 
C 576 4179 634 4141 634 3835 
L 634 439 
C 634 198 608 166 198 166 
L 198 0 
C 352 12 634 12 794 12 
C 954 12 1235 12 1389 0 
L 1389 166 
C 979 166 954 191 954 439 
L 954 1139 
L 1395 1540 
L 2042 586 
C 2118 471 2182 382 2182 299 
C 2182 185 2067 166 1990 166 
L 1990 0 
C 2144 12 2419 12 2579 12 
C 2694 12 2931 6 3040 0 
L 3040 166 
C 2739 166 2669 223 2477 503 
L 1670 1679 
z
" transform="scale(0.015625)"/>
       <path id="CMR17-57" d="M 5523 3775 
C 5581 3948 5677 4173 6048 4185 
L 6048 4352 
C 5939 4345 5715 4339 5600 4339 
C 5440 4339 5158 4339 5005 4352 
L 5005 4185 
C 5293 4179 5414 4019 5414 3865 
C 5414 3820 5408 3794 5382 3724 
L 4390 557 
L 3347 3890 
C 3328 3955 3322 3980 3322 4006 
C 3322 4185 3603 4185 3725 4185 
L 3725 4352 
C 3539 4339 3219 4339 3021 4339 
C 2861 4339 2573 4339 2426 4352 
L 2426 4185 
C 2720 4185 2797 4166 2861 4051 
C 2886 3993 2989 3660 2989 3640 
C 2989 3615 2976 3576 2970 3557 
L 2029 564 
L 986 3890 
C 954 3980 954 3993 954 4006 
C 954 4185 1235 4185 1363 4185 
L 1363 4352 
C 1178 4339 858 4339 659 4339 
C 493 4339 211 4339 58 4352 
L 58 4185 
C 442 4185 467 4147 531 3942 
L 1779 -20 
C 1811 -116 1811 -128 1869 -128 
C 1920 -128 1939 -116 1965 -26 
L 3053 3448 
L 4141 -26 
C 4166 -116 4186 -128 4237 -128 
C 4294 -128 4294 -116 4326 -20 
L 5523 3775 
z
" transform="scale(0.015625)"/>
       <path id="CMR17-68" d="M 2656 1954 
C 2656 2282 2592 2816 1837 2816 
C 1312 2816 1056 2392 979 2179 
L 973 2179 
L 973 4416 
L 211 4345 
L 211 4179 
C 589 4179 646 4141 646 3843 
L 646 443 
C 646 198 621 166 211 166 
L 211 0 
C 365 12 646 12 813 12 
C 979 12 1267 12 1421 0 
L 1421 166 
C 1011 166 986 192 986 443 
L 986 1678 
C 986 2269 1344 2713 1792 2713 
C 2266 2713 2317 2289 2317 1980 
L 2317 443 
C 2317 198 2291 166 1882 166 
L 1882 0 
C 2035 12 2317 12 2483 12 
C 2650 12 2938 12 3091 0 
L 3091 166 
C 2682 166 2656 192 2656 443 
L 2656 1954 
z
" transform="scale(0.015625)"/>
       <path id="CMR17-29" d="M 1683 1596 
C 1683 2057 1638 2839 1254 3665 
C 947 4332 422 4800 346 4800 
C 326 4800 301 4793 301 4761 
C 301 4748 307 4742 314 4729 
C 621 4408 1402 3595 1402 1603 
C 1402 -396 627 -1210 314 -1530 
C 307 -1543 301 -1549 301 -1562 
C 301 -1594 326 -1600 346 -1600 
C 416 -1600 960 -1127 1274 -422 
C 1594 289 1683 981 1683 1596 
z
" transform="scale(0.015625)"/>
      </defs>
      <use xlink:href="#CMR17-44" transform="scale(0.996264)"/>
      <use xlink:href="#CMR17-61" transform="translate(70.393556 0) scale(0.996264)"/>
      <use xlink:href="#CMR17-69" transform="translate(116.084033 0) scale(0.996264)"/>
      <use xlink:href="#CMR17-6c" transform="translate(140.955092 0) scale(0.996264)"/>
      <use xlink:href="#CMR17-79" transform="translate(165.82615 0) scale(0.996264)"/>
      <use xlink:href="#CMR17-65" transform="translate(244.195032 0) scale(0.996264)"/>
      <use xlink:href="#CMR17-6e" transform="translate(284.680693 0) scale(0.996264)"/>
      <use xlink:href="#CMR17-65" transform="translate(335.576062 0) scale(0.996264)"/>
      <use xlink:href="#CMR17-72" transform="translate(376.061723 0) scale(0.996264)"/>
      <use xlink:href="#CMR17-67" transform="translate(411.342491 0) scale(0.996264)"/>
      <use xlink:href="#CMR17-79" transform="translate(457.032968 0) scale(0.996264)"/>
      <use xlink:href="#CMR17-6e" transform="translate(535.40185 0) scale(0.996264)"/>
      <use xlink:href="#CMR17-65" transform="translate(586.29722 0) scale(0.996264)"/>
      <use xlink:href="#CMR17-65" transform="translate(626.78288 0) scale(0.996264)"/>
      <use xlink:href="#CMR17-64" transform="translate(667.268541 0) scale(0.996264)"/>
      <use xlink:href="#CMR17-28" transform="translate(748.239877 0) scale(0.996264)"/>
      <use xlink:href="#CMR17-6b" transform="translate(783.520645 0) scale(0.996264)"/>
      <use xlink:href="#CMR17-57" transform="translate(831.81356 0) scale(0.996264)"/>
      <use xlink:href="#CMR17-68" transform="translate(926.91021 0) scale(0.996264)"/>
      <use xlink:href="#CMR17-29" transform="translate(977.80558 0) scale(0.996264)"/>
     </g>
    </g>
   </g>
   <g id="matplotlib.axis_2">
    <g id="ytick_1">
     <g id="line2d_13">
      <path d="M 57.6 282.018375 
L 414.72 282.018375 
" clip-path="url(#pec28452b7a)" style="fill: none; stroke: #b0b0b0; stroke-width: 0.8; stroke-linecap: square"/>
     </g>
     <g id="line2d_14">
      <defs>
       <path id="m727bdcf116" d="M 0 0 
L -3.5 0 
" style="stroke: #000000; stroke-width: 0.8"/>
      </defs>
      <g>
       <use xlink:href="#m727bdcf116" x="57.6" y="282.018375" style="stroke: #000000; stroke-width: 0.8"/>
      </g>
     </g>
     <g id="text_8">
      <!-- $\mathdefault{1.0}$ -->
      <g transform="translate(31.902948 287.207237) scale(0.15 -0.15)">
       <defs>
        <path id="CMMI12-3a" d="M 1178 307 
C 1178 492 1024 620 870 620 
C 685 620 557 467 557 313 
C 557 128 710 0 864 0 
C 1050 0 1178 153 1178 307 
z
" transform="scale(0.015625)"/>
        <path id="CMR17-30" d="M 2688 2038 
C 2688 2430 2682 3099 2413 3613 
C 2176 4063 1798 4224 1466 4224 
C 1158 4224 768 4082 525 3620 
C 269 3137 243 2539 243 2038 
C 243 1671 250 1112 448 623 
C 723 -39 1216 -128 1466 -128 
C 1760 -128 2208 -7 2470 604 
C 2662 1048 2688 1568 2688 2038 
z
M 1466 -26 
C 1056 -26 813 328 723 816 
C 653 1196 653 1749 653 2109 
C 653 2604 653 3015 736 3407 
C 858 3954 1216 4121 1466 4121 
C 1728 4121 2067 3947 2189 3420 
C 2272 3054 2278 2623 2278 2109 
C 2278 1691 2278 1176 2202 797 
C 2067 96 1690 -26 1466 -26 
z
" transform="scale(0.015625)"/>
       </defs>
       <use xlink:href="#CMR17-31" transform="scale(0.996264)"/>
       <use xlink:href="#CMMI12-3a" transform="translate(45.690477 0) scale(0.996264)"/>
       <use xlink:href="#CMR17-30" transform="translate(72.787654 0) scale(0.996264)"/>
      </g>
     </g>
    </g>
    <g id="ytick_2">
     <g id="line2d_15">
      <path d="M 57.6 243.6716 
L 414.72 243.6716 
" clip-path="url(#pec28452b7a)" style="fill: none; stroke: #b0b0b0; stroke-width: 0.8; stroke-linecap: square"/>
     </g>
     <g id="line2d_16">
      <g>
       <use xlink:href="#m727bdcf116" x="57.6" y="243.6716" style="stroke: #000000; stroke-width: 0.8"/>
      </g>
     </g>
     <g id="text_9">
      <!-- $\mathdefault{1.2}$ -->
      <g transform="translate(31.902948 248.860462) scale(0.15 -0.15)">
       <use xlink:href="#CMR17-31" transform="scale(0.996264)"/>
       <use xlink:href="#CMMI12-3a" transform="translate(45.690477 0) scale(0.996264)"/>
       <use xlink:href="#CMR17-32" transform="translate(72.787654 0) scale(0.996264)"/>
      </g>
     </g>
    </g>
    <g id="ytick_3">
     <g id="line2d_17">
      <path d="M 57.6 205.324824 
L 414.72 205.324824 
" clip-path="url(#pec28452b7a)" style="fill: none; stroke: #b0b0b0; stroke-width: 0.8; stroke-linecap: square"/>
     </g>
     <g id="line2d_18">
      <g>
       <use xlink:href="#m727bdcf116" x="57.6" y="205.324824" style="stroke: #000000; stroke-width: 0.8"/>
      </g>
     </g>
     <g id="text_10">
      <!-- $\mathdefault{1.4}$ -->
      <g transform="translate(31.902948 210.513687) scale(0.15 -0.15)">
       <use xlink:href="#CMR17-31" transform="scale(0.996264)"/>
       <use xlink:href="#CMMI12-3a" transform="translate(45.690477 0) scale(0.996264)"/>
       <use xlink:href="#CMR17-34" transform="translate(72.787654 0) scale(0.996264)"/>
      </g>
     </g>
    </g>
    <g id="ytick_4">
     <g id="line2d_19">
      <path d="M 57.6 166.978049 
L 414.72 166.978049 
" clip-path="url(#pec28452b7a)" style="fill: none; stroke: #b0b0b0; stroke-width: 0.8; stroke-linecap: square"/>
     </g>
     <g id="line2d_20">
      <g>
       <use xlink:href="#m727bdcf116" x="57.6" y="166.978049" style="stroke: #000000; stroke-width: 0.8"/>
      </g>
     </g>
     <g id="text_11">
      <!-- $\mathdefault{1.6}$ -->
      <g transform="translate(31.902948 172.166912) scale(0.15 -0.15)">
       <use xlink:href="#CMR17-31" transform="scale(0.996264)"/>
       <use xlink:href="#CMMI12-3a" transform="translate(45.690477 0) scale(0.996264)"/>
       <use xlink:href="#CMR17-36" transform="translate(72.787654 0) scale(0.996264)"/>
      </g>
     </g>
    </g>
    <g id="ytick_5">
     <g id="line2d_21">
      <path d="M 57.6 128.631274 
L 414.72 128.631274 
" clip-path="url(#pec28452b7a)" style="fill: none; stroke: #b0b0b0; stroke-width: 0.8; stroke-linecap: square"/>
     </g>
     <g id="line2d_22">
      <g>
       <use xlink:href="#m727bdcf116" x="57.6" y="128.631274" style="stroke: #000000; stroke-width: 0.8"/>
      </g>
     </g>
     <g id="text_12">
      <!-- $\mathdefault{1.8}$ -->
      <g transform="translate(31.902948 133.820136) scale(0.15 -0.15)">
       <defs>
        <path id="CMR17-38" d="M 1741 2289 
C 2144 2494 2554 2803 2554 3298 
C 2554 3884 1990 4224 1472 4224 
C 890 4224 378 3800 378 3215 
C 378 3054 416 2777 666 2533 
C 730 2469 998 2276 1171 2154 
C 883 2006 211 1652 211 945 
C 211 282 838 -128 1459 -128 
C 2144 -128 2720 366 2720 1022 
C 2720 1607 2330 1877 2074 2051 
L 1741 2289 
z
M 902 2855 
C 851 2887 595 3086 595 3388 
C 595 3781 998 4076 1459 4076 
C 1965 4076 2336 3716 2336 3298 
C 2336 2700 1670 2359 1638 2359 
C 1632 2359 1626 2359 1574 2398 
L 902 2855 
z
M 2080 1536 
C 2176 1466 2483 1253 2483 861 
C 2483 385 2010 25 1472 25 
C 890 25 448 443 448 951 
C 448 1459 838 1884 1280 2083 
L 2080 1536 
z
" transform="scale(0.015625)"/>
       </defs>
       <use xlink:href="#CMR17-31" transform="scale(0.996264)"/>
       <use xlink:href="#CMMI12-3a" transform="translate(45.690477 0) scale(0.996264)"/>
       <use xlink:href="#CMR17-38" transform="translate(72.787654 0) scale(0.996264)"/>
      </g>
     </g>
    </g>
    <g id="ytick_6">
     <g id="line2d_23">
      <path d="M 57.6 90.284499 
L 414.72 90.284499 
" clip-path="url(#pec28452b7a)" style="fill: none; stroke: #b0b0b0; stroke-width: 0.8; stroke-linecap: square"/>
     </g>
     <g id="line2d_24">
      <g>
       <use xlink:href="#m727bdcf116" x="57.6" y="90.284499" style="stroke: #000000; stroke-width: 0.8"/>
      </g>
     </g>
     <g id="text_13">
      <!-- $\mathdefault{2.0}$ -->
      <g transform="translate(31.902948 95.473361) scale(0.15 -0.15)">
       <use xlink:href="#CMR17-32" transform="scale(0.996264)"/>
       <use xlink:href="#CMMI12-3a" transform="translate(45.690477 0) scale(0.996264)"/>
       <use xlink:href="#CMR17-30" transform="translate(72.787654 0) scale(0.996264)"/>
      </g>
     </g>
    </g>
    <g id="ytick_7">
     <g id="line2d_25">
      <path d="M 57.6 51.937724 
L 414.72 51.937724 
" clip-path="url(#pec28452b7a)" style="fill: none; stroke: #b0b0b0; stroke-width: 0.8; stroke-linecap: square"/>
     </g>
     <g id="line2d_26">
      <g>
       <use xlink:href="#m727bdcf116" x="57.6" y="51.937724" style="stroke: #000000; stroke-width: 0.8"/>
      </g>
     </g>
     <g id="text_14">
      <!-- $\mathdefault{2.2}$ -->
      <g transform="translate(31.902948 57.126586) scale(0.15 -0.15)">
       <use xlink:href="#CMR17-32" transform="scale(0.996264)"/>
       <use xlink:href="#CMMI12-3a" transform="translate(45.690477 0) scale(0.996264)"/>
       <use xlink:href="#CMR17-32" transform="translate(72.787654 0) scale(0.996264)"/>
      </g>
     </g>
    </g>
    <g id="text_15">
     <!-- Score (Pt) -->
     <g transform="translate(24.166958 207.551394) rotate(-90) scale(0.15 -0.15)">
      <defs>
       <path id="CMR17-53" d="M 2803 4351 
C 2803 4467 2797 4473 2758 4473 
C 2720 4473 2707 4447 2682 4390 
L 2490 3965 
C 2246 4320 1875 4480 1472 4480 
C 819 4480 294 3958 294 3301 
C 294 3101 339 2817 557 2546 
C 794 2250 1018 2198 1530 2063 
C 1722 2011 2042 1927 2106 1901 
C 2470 1747 2662 1360 2662 999 
C 2662 534 2336 38 1779 38 
C 1094 38 454 425 410 1328 
C 403 1431 397 1437 352 1437 
C 301 1437 294 1431 294 1302 
L 294 0 
C 294 -116 301 -122 339 -122 
C 384 -122 397 -90 486 109 
C 493 128 493 141 614 386 
C 934 -39 1472 -128 1779 -128 
C 2477 -128 2970 457 2970 1141 
C 2970 1476 2848 1734 2778 1850 
C 2509 2263 2221 2340 1914 2417 
C 1869 2437 1856 2437 1498 2527 
C 1152 2617 1005 2662 845 2836 
C 666 3036 602 3243 602 3449 
C 602 3868 934 4326 1478 4326 
C 2157 4326 2579 3842 2675 3036 
C 2694 2920 2701 2914 2746 2914 
C 2803 2914 2803 2933 2803 3043 
L 2803 4351 
z
" transform="scale(0.015625)"/>
       <path id="CMR17-63" d="M 2234 2240 
C 2112 2240 1933 2240 1933 2015 
C 1933 1836 2080 1785 2163 1785 
C 2208 1785 2394 1804 2394 2028 
C 2394 2476 1958 2816 1466 2816 
C 787 2816 211 2201 211 1379 
C 211 521 813 -64 1466 -64 
C 2259 -64 2458 676 2458 747 
C 2458 773 2451 792 2406 792 
C 2362 792 2355 786 2330 702 
C 2163 180 1798 51 1523 51 
C 1114 51 621 431 621 1385 
C 621 2358 1094 2700 1472 2700 
C 1722 2700 2093 2582 2234 2240 
z
" transform="scale(0.015625)"/>
       <path id="CMR17-6f" d="M 2758 1356 
C 2758 2176 2163 2816 1466 2816 
C 768 2816 173 2176 173 1356 
C 173 550 768 -64 1466 -64 
C 2163 -64 2758 550 2758 1356 
z
M 1466 51 
C 1165 51 909 230 762 480 
C 602 768 582 1126 582 1408 
C 582 1676 595 2009 762 2297 
C 890 2508 1139 2713 1466 2713 
C 1754 2713 1997 2553 2150 2329 
C 2349 2028 2349 1606 2349 1408 
C 2349 1158 2336 774 2163 467 
C 1984 172 1709 51 1466 51 
z
" transform="scale(0.015625)"/>
       <path id="CMR17-50" d="M 1267 2048 
L 2291 2048 
C 3117 2048 3718 2583 3718 3187 
C 3718 3791 3130 4352 2291 4352 
L 333 4352 
L 333 4185 
C 774 4185 845 4185 845 3899 
L 845 453 
C 845 166 774 166 333 166 
L 333 0 
C 518 12 858 12 1056 12 
C 1254 12 1594 12 1779 0 
L 1779 166 
C 1338 166 1267 166 1267 453 
L 1267 2048 
z
M 1254 2182 
L 1254 3937 
C 1254 4153 1267 4185 1523 4185 
L 2170 4185 
C 2995 4185 3232 3715 3232 3187 
C 3232 2608 2950 2182 2170 2182 
L 1254 2182 
z
" transform="scale(0.015625)"/>
       <path id="CMR17-74" d="M 966 2585 
L 1862 2585 
L 1862 2752 
L 966 2752 
L 966 3968 
L 851 3968 
C 838 3292 614 2700 70 2687 
L 70 2585 
L 627 2585 
L 627 778 
C 627 655 627 -64 1370 -64 
C 1747 -64 1965 308 1965 784 
L 1965 1151 
L 1850 1151 
L 1850 790 
C 1850 347 1677 51 1408 51 
C 1222 51 966 179 966 765 
L 966 2585 
z
" transform="scale(0.015625)"/>
      </defs>
      <use xlink:href="#CMR17-53" transform="scale(0.996264)"/>
      <use xlink:href="#CMR17-63" transform="translate(50.89537 0) scale(0.996264)"/>
      <use xlink:href="#CMR17-6f" transform="translate(91.38103 0) scale(0.996264)"/>
      <use xlink:href="#CMR17-72" transform="translate(137.071507 0) scale(0.996264)"/>
      <use xlink:href="#CMR17-65" transform="translate(172.352275 0) scale(0.996264)"/>
      <use xlink:href="#CMR17-28" transform="translate(242.913902 0) scale(0.996264)"/>
      <use xlink:href="#CMR17-50" transform="translate(278.19467 0) scale(0.996264)"/>
      <use xlink:href="#CMR17-74" transform="translate(340.78097 0) scale(0.996264)"/>
      <use xlink:href="#CMR17-29" transform="translate(376.061738 0) scale(0.996264)"/>
     </g>
    </g>
   </g>
   <g id="line2d_27">
    <path d="M 104.034875 295.488 
L 105.469052 293.485136 
L 106.863433 291.511102 
L 108.220151 289.564353 
L 109.54117 287.643466 
L 110.828305 285.747126 
L 112.083236 283.874117 
L 113.307519 282.02331 
L 114.502601 280.193657 
L 115.669828 278.384185 
L 116.810454 276.593982 
L 117.925652 274.822202 
L 119.016517 273.068049 
L 120.084075 271.33078 
L 121.12929 269.609699 
L 122.153064 267.90415 
L 123.156248 266.213517 
L 124.139643 264.53722 
L 125.104003 262.874713 
L 126.050041 261.22548 
L 126.978429 259.589033 
L 127.889803 257.964912 
L 128.784766 256.352679 
L 129.663891 254.751921 
L 130.527717 253.162245 
L 131.37676 251.583279 
L 132.211508 250.014669 
L 133.032427 248.456078 
L 133.839959 246.907184 
L 134.634527 245.367683 
L 135.416531 243.837283 
L 136.186357 242.315706 
L 136.944369 240.802686 
L 137.69092 239.297971 
L 138.426342 237.801317 
L 139.150958 236.312492 
L 139.865072 234.831274 
L 140.56898 233.357451 
L 141.262963 231.890818 
L 141.94729 230.43118 
L 142.622222 228.978348 
L 143.288008 227.532142 
L 143.944886 226.092389 
L 144.593087 224.658922 
L 145.232832 223.231581 
L 145.864334 221.810212 
L 146.487797 220.394667 
L 147.10342 218.984801 
L 147.711393 217.580478 
L 148.311898 216.181564 
" clip-path="url(#pec28452b7a)" style="fill: none; stroke: #1f77b4; stroke-width: 1.5; stroke-linecap: square"/>
   </g>
   <g id="line2d_28">
    <path d="M 104.034875 295.488 
L 106.15965 292.984835 
L 108.226943 290.523313 
L 110.239664 288.101325 
L 112.200511 285.716918 
L 114.111987 283.368276 
L 115.97642 281.053716 
L 117.795977 278.771665 
L 119.57268 276.520659 
L 121.308418 274.299331 
L 123.00496 272.106398 
L 124.663961 269.940661 
L 126.286976 267.800995 
L 127.875464 265.68634 
L 129.430801 263.595703 
L 130.954279 261.528146 
L 132.447118 259.482784 
L 133.910472 257.458783 
L 135.345427 255.455356 
L 136.753014 253.471755 
L 138.134208 251.507275 
L 139.489933 249.561245 
L 140.821066 247.633031 
L 142.12844 245.722029 
L 143.412847 243.827666 
L 144.675038 241.949396 
L 145.915732 240.0867 
L 147.135611 238.239083 
L 148.335326 236.406075 
L 149.515499 234.587223 
L 150.676723 232.782099 
L 151.819564 230.990292 
L 152.944565 229.21141 
L 154.052245 227.445076 
L 155.1431 225.69093 
L 156.217605 223.948629 
L 157.276218 222.217841 
L 158.319374 220.49825 
L 159.347495 218.789552 
L 160.360983 217.091455 
L 161.360225 215.403678 
L 162.345593 213.725952 
L 163.317446 212.058017 
L 164.276128 210.399624 
L 165.22197 208.750532 
L 166.155292 207.110511 
L 167.076401 205.479337 
L 167.985595 203.856795 
L 168.883158 202.242679 
L 169.769368 200.636788 
" clip-path="url(#pec28452b7a)" style="fill: none; stroke: #ff7f0e; stroke-width: 1.5; stroke-linecap: square"/>
   </g>
   <g id="line2d_29">
    <path d="M 104.034875 295.488 
L 106.793409 292.525711 
L 109.479012 289.616257 
L 112.095121 286.757147 
L 114.644945 283.946058 
L 117.131481 281.180817 
L 119.557536 278.459391 
L 121.925738 275.779876 
L 124.238555 273.140485 
L 126.498303 270.53954 
L 128.707159 267.975463 
L 130.867175 265.446768 
L 132.980282 262.952056 
L 135.048303 260.490007 
L 137.072959 258.059373 
L 139.055878 255.658975 
L 140.998598 253.2877 
L 142.902576 250.94449 
L 144.769196 248.628345 
L 146.599768 246.338314 
L 148.395536 244.073497 
L 150.157684 241.833036 
L 151.887336 239.616117 
L 153.585564 237.421962 
L 155.253386 235.249835 
L 156.891776 233.09903 
L 158.501661 230.968875 
L 160.083926 228.85873 
L 161.639416 226.767981 
L 163.168941 224.696043 
L 164.673272 222.642356 
L 166.153151 220.606384 
L 167.609284 218.587614 
L 169.042352 216.585554 
L 170.453004 214.599733 
L 171.841866 212.629697 
L 173.209536 210.675014 
L 174.55659 208.735266 
L 175.88358 206.810053 
L 177.191039 204.89899 
L 178.479476 203.001707 
L 179.749384 201.117847 
L 181.001237 199.247067 
L 182.235489 197.389038 
L 183.452581 195.54344 
L 184.652936 193.709968 
L 185.836962 191.888325 
L 187.005053 190.078227 
L 188.157589 188.279397 
L 189.294937 186.491569 
" clip-path="url(#pec28452b7a)" style="fill: none; stroke: #2ca02c; stroke-width: 1.5; stroke-linecap: square"/>
   </g>
   <g id="line2d_30">
    <path d="M 104.034875 295.488 
L 107.23758 292.203933 
L 110.356952 288.980237 
L 113.39667 285.814245 
L 116.360196 282.703451 
L 119.250787 279.645494 
L 122.07151 276.638152 
L 124.825255 273.679333 
L 127.514746 270.767062 
L 130.142556 267.899476 
L 132.711114 265.074814 
L 135.222717 262.291414 
L 137.679536 259.547701 
L 140.083627 256.842187 
L 142.436939 254.173459 
L 144.741319 251.540181 
L 146.99852 248.941081 
L 149.210205 246.374954 
L 151.377958 243.840654 
L 153.503281 241.337092 
L 155.587607 238.863231 
L 157.632298 236.418083 
L 159.638653 234.000707 
L 161.607912 231.610205 
L 163.541255 229.245723 
L 165.439812 226.90644 
L 167.304661 224.591578 
L 169.136832 222.300389 
L 170.937312 220.032158 
L 172.707045 217.786203 
L 174.446933 215.561868 
L 176.157844 213.358525 
L 177.840606 211.175575 
L 179.496017 209.012439 
L 181.124841 206.868564 
L 182.727812 204.743418 
L 184.305634 202.636491 
L 185.858986 200.547292 
L 187.388518 198.475348 
L 188.894858 196.420206 
L 190.378608 194.381429 
L 191.840351 192.358595 
L 193.280645 190.3513 
L 194.70003 188.359152 
L 196.099026 186.381775 
L 197.478134 184.418806 
L 198.837838 182.469894 
L 200.178605 180.5347 
L 201.500887 178.612899 
L 202.805119 176.704173 
" clip-path="url(#pec28452b7a)" style="fill: none; stroke: #d62728; stroke-width: 1.5; stroke-linecap: square"/>
   </g>
   <g id="line2d_31">
    <path d="M 189.841918 233.325438 
L 191.649329 231.052187 
L 193.401251 228.819134 
L 195.100816 226.624011 
L 196.750902 224.464733 
L 198.354159 222.339379 
L 199.913031 220.246181 
L 201.429779 218.183499 
L 202.906495 216.149818 
L 204.345123 214.14373 
L 205.747469 212.163926 
L 207.115216 210.209187 
L 208.449934 208.278375 
L 209.75309 206.37043 
L 211.026055 204.484355 
L 212.270115 202.619221 
L 213.486476 200.774152 
L 214.676273 198.948329 
L 215.840571 197.140978 
L 216.980374 195.351372 
L 218.096629 193.578825 
L 219.190231 191.82269 
L 220.262022 190.082355 
L 221.312802 188.357241 
L 222.343328 186.646801 
L 223.354316 184.950515 
L 224.346446 183.26789 
L 225.320364 181.598459 
L 226.276684 179.941777 
L 227.215988 178.297422 
L 228.138833 176.664991 
L 229.045746 175.0441 
L 229.937234 173.434386 
L 230.813777 171.835498 
L 231.675834 170.247104 
L 232.523844 168.668887 
L 233.358226 167.100541 
L 234.179383 165.541778 
L 234.987698 163.992317 
L 235.783539 162.451893 
L 236.567258 160.920251 
L 237.339195 159.397144 
L 238.099672 157.882339 
L 238.849002 156.37561 
L 239.587484 154.87674 
L 240.315406 153.38552 
L 241.033042 151.901751 
L 241.740661 150.425239 
L 242.438516 148.955801 
L 243.126855 147.493256 
" clip-path="url(#pec28452b7a)" style="fill: none; stroke: #1f77b4; stroke-width: 1.5; stroke-linecap: square"/>
   </g>
   <g id="line2d_32">
    <path d="M 189.841918 233.325438 
L 192.517664 230.423125 
L 195.109312 227.581736 
L 197.621498 224.797913 
L 200.058495 222.06856 
L 202.424247 219.390821 
L 204.722403 216.762051 
L 206.956344 214.179802 
L 209.129211 211.641796 
L 211.243926 209.14592 
L 213.303209 206.690201 
L 215.309599 204.2728 
L 217.26547 201.891997 
L 219.173042 199.546184 
L 221.034397 197.233853 
L 222.851488 194.953589 
L 224.626149 192.704062 
L 226.360107 190.484023 
L 228.054988 188.292293 
L 229.712325 186.127762 
L 231.333564 183.989382 
L 232.920073 181.876162 
L 234.473145 179.787165 
L 235.994003 177.721506 
L 237.483809 175.678342 
L 238.943661 173.656877 
L 240.374606 171.656355 
L 241.777635 169.676057 
L 243.153692 167.715298 
L 244.503675 165.773428 
L 245.82844 163.849827 
L 247.128801 161.943906 
L 248.405536 160.0551 
L 249.659387 158.182873 
L 250.891063 156.32671 
L 252.101241 154.486121 
L 253.29057 152.660637 
L 254.459667 150.849808 
L 255.609129 149.053206 
L 256.739522 147.270417 
L 257.851391 145.501048 
L 258.945261 143.744718 
L 260.021631 142.001066 
L 261.080985 140.269741 
L 262.123785 138.550409 
L 263.150475 136.842747 
L 264.161483 135.146447 
L 265.157221 133.461208 
L 266.138084 131.786746 
L 267.104455 130.122782 
" clip-path="url(#pec28452b7a)" style="fill: none; stroke: #ff7f0e; stroke-width: 1.5; stroke-linecap: square"/>
   </g>
   <g id="line2d_33">
    <path d="M 189.841918 233.325438 
L 193.313397 229.84666 
L 196.673366 226.448664 
L 199.927775 223.12714 
L 203.08213 219.8781 
L 206.141534 216.697848 
L 209.110726 213.582949 
L 211.994114 210.53021 
L 214.795804 207.536656 
L 217.519628 204.599513 
L 220.169164 201.716188 
L 222.74776 198.884254 
L 225.258553 196.10144 
L 227.704485 193.365615 
L 230.088318 190.674776 
L 232.412651 188.027043 
L 234.679927 185.420644 
L 236.892452 182.853909 
L 239.052398 180.325265 
L 241.161819 177.833223 
L 243.222653 175.37638 
L 245.236736 172.953406 
L 247.205807 170.56304 
L 249.131512 168.204091 
L 251.015414 165.875426 
L 252.858997 163.57597 
L 254.66367 161.304702 
L 256.430773 159.06065 
L 258.161584 156.842892 
L 259.857316 154.650546 
L 261.519127 152.482773 
L 263.148122 150.338774 
L 264.745354 148.217786 
L 266.31183 146.119079 
L 267.848511 144.041956 
L 269.356317 141.985752 
L 270.836128 139.949829 
L 272.288785 137.933577 
L 273.715096 135.936412 
L 275.115833 133.957774 
L 276.491737 131.997125 
L 277.84352 130.053951 
L 279.171865 128.127757 
L 280.477427 126.218068 
L 281.760835 124.324428 
L 283.022696 122.446398 
L 284.263591 120.583557 
L 285.484081 118.735497 
L 286.684706 116.901829 
L 287.865985 115.082177 
" clip-path="url(#pec28452b7a)" style="fill: none; stroke: #2ca02c; stroke-width: 1.5; stroke-linecap: square"/>
   </g>
   <g id="line2d_34">
    <path d="M 189.841918 233.325438 
L 193.870441 229.443111 
L 197.767556 225.655982 
L 201.54007 221.959119 
L 205.194311 218.34794 
L 208.736164 214.818179 
L 212.171114 211.365863 
L 215.504281 207.987284 
L 218.740446 204.678977 
L 221.884081 201.437703 
L 224.939377 198.260426 
L 227.910261 195.144301 
L 230.800421 192.086656 
L 233.613324 189.084981 
L 236.352229 186.136912 
L 239.020207 183.240226 
L 241.620154 180.392825 
L 244.154802 177.592729 
L 246.626731 174.83807 
L 249.038381 172.12708 
L 251.392062 169.458086 
L 253.689959 166.829503 
L 255.934147 164.23983 
L 258.126591 161.687643 
L 260.269159 159.171588 
L 262.363624 156.690381 
L 264.411675 154.242799 
L 266.414916 151.827679 
L 268.374876 149.443914 
L 270.293011 147.090449 
L 272.170712 144.766276 
L 274.009303 142.470436 
L 275.81005 140.202012 
L 277.574162 137.960128 
L 279.302795 135.743947 
L 280.997053 133.552668 
L 282.657996 131.385525 
L 284.286637 129.241783 
L 285.883945 127.120739 
L 287.450852 125.021719 
L 288.98825 122.944078 
L 290.496995 120.887193 
L 291.977909 118.850471 
L 293.431783 116.833338 
L 294.859374 114.835245 
L 296.261413 112.855664 
L 297.638601 110.894085 
L 298.991613 108.950021 
L 300.3211 107.023 
L 301.627687 105.112568 
" clip-path="url(#pec28452b7a)" style="fill: none; stroke: #d62728; stroke-width: 1.5; stroke-linecap: square"/>
   </g>
   <g id="line2d_35">
    <path d="M 270.319039 175.024118 
L 272.212069 172.68884 
L 274.04034 170.400476 
L 275.807701 168.156238 
L 277.517681 165.95357 
L 279.173514 163.790128 
L 280.778179 161.663755 
L 282.334422 159.572461 
L 283.84478 157.514409 
L 285.311599 155.487898 
L 286.737057 153.49135 
L 288.123177 151.523301 
L 289.471842 149.582386 
L 290.784805 147.667335 
L 292.063704 145.776962 
L 293.31007 143.910156 
L 294.525336 142.065882 
L 295.710846 140.243164 
L 296.867859 138.44109 
L 297.997562 136.658802 
L 299.101068 134.895491 
L 300.179429 133.150397 
L 301.233633 131.422803 
L 302.264617 129.712031 
L 303.273263 128.017441 
L 304.260406 126.338429 
L 305.226839 124.67442 
L 306.17331 123.024873 
L 307.100531 121.389271 
L 308.009177 119.767127 
L 308.899889 118.157974 
L 309.773276 116.561372 
L 310.62992 114.976899 
L 311.470373 113.404157 
L 312.295162 111.842762 
L 313.104788 110.292351 
L 313.899732 108.752577 
L 314.680452 107.223108 
L 315.447384 105.703626 
L 316.200948 104.19383 
L 316.941543 102.693429 
L 317.669552 101.202145 
L 318.385344 99.719713 
L 319.08927 98.245876 
L 319.781667 96.780392 
L 320.46286 95.323025 
L 321.133158 93.873549 
L 321.792861 92.43175 
L 322.442256 90.997418 
L 323.081619 89.570355 
" clip-path="url(#pec28452b7a)" style="fill: none; stroke: #1f77b4; stroke-width: 1.5; stroke-linecap: square"/>
   </g>
   <g id="line2d_36">
    <path d="M 270.319039 175.024118 
L 273.119065 172.03177 
L 275.816521 169.113729 
L 278.417515 166.265569 
L 280.927648 163.483234 
L 283.352069 160.762991 
L 285.695521 158.101407 
L 287.962383 155.495308 
L 290.156702 152.941763 
L 292.282229 150.438053 
L 294.342446 147.981657 
L 296.340589 145.57023 
L 298.279671 143.20159 
L 300.162501 140.873702 
L 301.991703 138.584663 
L 303.769732 136.332697 
L 305.498885 134.11614 
L 307.181315 131.93343 
L 308.819046 129.783102 
L 310.413979 127.663779 
L 311.9679 125.574167 
L 313.482497 123.513044 
L 314.959355 121.479259 
L 316.399977 119.471727 
L 317.805777 117.489421 
L 319.178096 115.531369 
L 320.518203 113.596655 
L 321.827298 111.684405 
L 323.106522 109.793797 
L 324.356957 107.924045 
L 325.579628 106.074405 
L 326.775513 104.244171 
L 327.94554 102.432669 
L 329.090594 100.639259 
L 330.211517 98.863331 
L 331.309112 97.104303 
L 332.384145 95.361619 
L 333.437347 93.634751 
L 334.469417 91.923193 
L 335.481021 90.22646 
L 336.472799 88.54409 
L 337.445361 86.875641 
L 338.399293 85.22069 
L 339.335153 83.578829 
L 340.253479 81.949672 
L 341.154786 80.332843 
L 342.039568 78.727986 
L 342.9083 77.134757 
L 343.761436 75.552826 
L 344.599414 73.981876 
" clip-path="url(#pec28452b7a)" style="fill: none; stroke: #ff7f0e; stroke-width: 1.5; stroke-linecap: square"/>
   </g>
   <g id="line2d_37">
    <path d="M 270.319039 175.024118 
L 273.948813 171.430662 
L 277.437461 167.939445 
L 280.793331 164.544419 
L 284.024099 161.240022 
L 287.136838 158.021131 
L 290.138077 154.883015 
L 293.033857 151.8213 
L 295.82977 148.831931 
L 298.531011 145.911148 
L 301.142403 143.055456 
L 303.668439 140.261599 
L 306.113307 137.526545 
L 308.480913 134.847462 
L 310.774913 132.221703 
L 312.998726 129.646791 
L 315.155555 127.120404 
L 317.248407 124.640366 
L 319.280106 122.20463 
L 321.253306 119.811273 
L 323.170508 117.458484 
L 325.034065 115.144557 
L 326.846199 112.867884 
L 328.609008 110.626944 
L 330.324472 108.420303 
L 331.994466 106.246602 
L 333.620765 104.104557 
L 335.205049 101.992949 
L 336.748911 99.910624 
L 338.253866 97.856486 
L 339.721348 95.829494 
L 341.152724 93.828659 
L 342.549291 91.853042 
L 343.912284 89.901747 
L 345.242882 87.973921 
L 346.542205 86.068751 
L 347.811322 84.185465 
L 349.051254 82.323321 
L 350.262975 80.481614 
L 351.447415 78.659671 
L 352.605465 76.856846 
L 353.737975 75.072524 
L 354.845759 73.306114 
L 355.929598 71.557052 
L 356.990236 69.824796 
L 358.028391 68.108829 
L 359.044749 66.408653 
L 360.039967 64.723791 
L 361.014678 63.053785 
L 361.969489 61.398196 
" clip-path="url(#pec28452b7a)" style="fill: none; stroke: #2ca02c; stroke-width: 1.5; stroke-linecap: square"/>
   </g>
   <g id="line2d_38">
    <path d="M 270.319039 175.024118 
L 274.528864 171.010447 
L 278.568317 167.120201 
L 282.447391 163.346142 
L 286.175298 159.681595 
L 289.760548 156.120395 
L 293.211013 152.656839 
L 296.533988 149.285644 
L 299.736242 146.001904 
L 302.824068 142.801061 
L 305.803322 139.678872 
L 308.679462 136.631384 
L 311.457581 133.654907 
L 314.14244 130.745991 
L 316.738493 127.901412 
L 319.249909 125.118146 
L 321.680602 122.393361 
L 324.034243 119.724395 
L 326.314283 117.108749 
L 328.52397 114.54407 
L 330.666361 112.028143 
L 332.744338 109.558881 
L 334.760621 107.134314 
L 336.717776 104.752581 
L 338.61823 102.411924 
L 340.46428 100.11068 
L 342.2581 97.847275 
L 344.001747 95.620217 
L 345.697174 93.428091 
L 347.346236 91.269555 
L 348.95069 89.143335 
L 350.512209 87.048218 
L 352.032383 84.983054 
L 353.512725 82.946747 
L 354.954675 80.938252 
L 356.359605 78.956576 
L 357.728825 77.00077 
L 359.063582 75.069931 
L 360.365067 73.163195 
L 361.634419 71.279738 
L 362.872724 69.418773 
L 364.081021 67.579547 
L 365.260306 65.761338 
L 366.411529 63.96346 
L 367.535601 62.18525 
L 368.633396 60.426077 
L 369.705749 58.685335 
L 370.753463 56.962442 
L 371.777307 55.256843 
L 372.77802 53.568 
" clip-path="url(#pec28452b7a)" style="fill: none; stroke: #d62728; stroke-width: 1.5; stroke-linecap: square"/>
   </g>
   <g id="line2d_39">
    <path d="M 104.034875 295.488 
L 105.714513 294.271193 
L 107.394151 293.054386 
L 109.073789 291.837579 
L 110.753427 290.620772 
L 112.433065 289.403966 
L 114.112703 288.187159 
L 115.792341 286.970352 
L 117.471979 285.753545 
L 119.151617 284.536738 
L 120.831255 283.319931 
L 122.510893 282.103124 
L 124.190531 280.886317 
L 125.870169 279.66951 
L 127.549807 278.452703 
L 129.229445 277.235897 
L 130.909083 276.01909 
L 132.588721 274.802283 
L 134.268359 273.585476 
L 135.947997 272.368669 
L 137.627635 271.151862 
L 139.307273 269.935055 
L 140.986911 268.718248 
L 142.666549 267.501441 
L 144.346187 266.284635 
L 146.025825 265.067828 
L 147.705463 263.851021 
L 149.385101 262.634214 
L 151.064739 261.417407 
L 152.744377 260.2006 
L 154.424015 258.983793 
L 156.103653 257.766986 
L 157.783291 256.550179 
L 159.462929 255.333373 
L 161.142568 254.116566 
L 162.822206 252.899759 
L 164.501844 251.682952 
L 166.181482 250.466145 
L 167.86112 249.249338 
L 169.540758 248.032531 
L 171.220396 246.815724 
L 172.900034 245.598917 
L 174.579672 244.38211 
L 176.25931 243.165304 
L 177.938948 241.948497 
L 179.618586 240.73169 
L 181.298224 239.514883 
L 182.977862 238.298076 
L 184.6575 237.081269 
L 186.337138 235.864462 
L 188.016776 234.647655 
L 189.696414 233.430848 
L 191.376052 232.214042 
L 193.05569 230.997235 
L 194.735328 229.780428 
L 196.414966 228.563621 
L 198.094604 227.346814 
L 199.774242 226.130007 
L 201.45388 224.9132 
L 203.133518 223.696393 
L 204.813156 222.479586 
L 206.492794 221.262779 
L 208.172432 220.045973 
L 209.85207 218.829166 
L 211.531708 217.612359 
L 213.211346 216.395552 
L 214.890984 215.178745 
L 216.570622 213.961938 
L 218.25026 212.745131 
L 219.929898 211.528324 
L 221.609536 210.311517 
L 223.289174 209.094711 
L 224.968812 207.877904 
L 226.64845 206.661097 
L 228.328088 205.44429 
L 230.007726 204.227483 
L 231.687364 203.010676 
L 233.367002 201.793869 
L 235.04664 200.577062 
L 236.726278 199.360255 
L 238.405916 198.143449 
L 240.085554 196.926642 
L 241.765193 195.709835 
L 243.444831 194.493028 
L 245.124469 193.276221 
L 246.804107 192.059414 
L 248.483745 190.842607 
L 250.163383 189.6258 
L 251.843021 188.408993 
L 253.522659 187.192186 
L 255.202297 185.97538 
L 256.881935 184.758573 
L 258.561573 183.541766 
L 260.241211 182.324959 
L 261.920849 181.108152 
L 263.600487 179.891345 
L 265.280125 178.674538 
L 266.959763 177.457731 
L 268.639401 176.240924 
L 270.319039 175.024118 
" clip-path="url(#pec28452b7a)" style="fill: none; stroke-dasharray: 5.55,2.4; stroke-dashoffset: 0; stroke: #808080; stroke-width: 1.5"/>
   </g>
   <g id="line2d_40">
    <path d="M 148.311898 216.181564 
L 150.579232 214.539003 
L 152.846567 212.896442 
L 155.113901 211.25388 
L 157.381236 209.611319 
L 159.648571 207.968758 
L 161.915905 206.326197 
L 164.18324 204.683635 
L 166.450574 203.041074 
L 168.717909 201.398513 
L 170.985243 199.755952 
L 173.252578 198.11339 
L 175.519913 196.470829 
L 177.787247 194.828268 
L 180.054582 193.185707 
L 182.321916 191.543145 
L 184.589251 189.900584 
L 186.856585 188.258023 
L 189.12392 186.615462 
L 191.391254 184.9729 
L 193.658589 183.330339 
L 195.925924 181.687778 
L 198.193258 180.045217 
L 200.460593 178.402655 
L 202.727927 176.760094 
L 204.995262 175.117533 
L 207.262596 173.474972 
L 209.529931 171.83241 
L 211.797266 170.189849 
L 214.0646 168.547288 
L 216.331935 166.904727 
L 218.599269 165.262165 
L 220.866604 163.619604 
L 223.133938 161.977043 
L 225.401273 160.334482 
L 227.668608 158.69192 
L 229.935942 157.049359 
L 232.203277 155.406798 
L 234.470611 153.764237 
L 236.737946 152.121675 
L 239.00528 150.479114 
L 241.272615 148.836553 
L 243.53995 147.193991 
L 245.807284 145.55143 
L 248.074619 143.908869 
L 250.341953 142.266308 
L 252.609288 140.623746 
L 254.876622 138.981185 
L 257.143957 137.338624 
L 259.411292 135.696063 
L 261.678626 134.053501 
L 263.945961 132.41094 
L 266.213295 130.768379 
L 268.48063 129.125818 
L 270.747964 127.483256 
L 273.015299 125.840695 
L 275.282634 124.198134 
L 277.549968 122.555573 
L 279.817303 120.913011 
L 282.084637 119.27045 
L 284.351972 117.627889 
L 286.619306 115.985328 
L 288.886641 114.342766 
L 291.153976 112.700205 
L 293.42131 111.057644 
L 295.688645 109.415083 
L 297.955979 107.772521 
L 300.223314 106.12996 
L 302.490648 104.487399 
L 304.757983 102.844838 
L 307.025318 101.202276 
L 309.292652 99.559715 
L 311.559987 97.917154 
L 313.827321 96.274593 
L 316.094656 94.632031 
L 318.36199 92.98947 
L 320.629325 91.346909 
L 322.89666 89.704348 
L 325.163994 88.061786 
L 327.431329 86.419225 
L 329.698663 84.776664 
L 331.965998 83.134103 
L 334.233332 81.491541 
L 336.500667 79.84898 
L 338.768002 78.206419 
L 341.035336 76.563858 
L 343.302671 74.921296 
L 345.570005 73.278735 
L 347.83734 71.636174 
L 350.104674 69.993613 
L 352.372009 68.351051 
L 354.639344 66.70849 
L 356.906678 65.065929 
L 359.174013 63.423368 
L 361.441347 61.780806 
L 363.708682 60.138245 
L 365.976016 58.495684 
L 368.243351 56.853123 
L 370.510686 55.210561 
L 372.77802 53.568 
" clip-path="url(#pec28452b7a)" style="fill: none; stroke-dasharray: 5.55,2.4; stroke-dashoffset: 0; stroke: #808080; stroke-width: 1.5"/>
   </g>
   <g id="patch_3">
    <path d="M 57.6 307.584 
L 57.6 41.472 
" style="fill: none; stroke: #000000; stroke-width: 0.8; stroke-linejoin: miter; stroke-linecap: square"/>
   </g>
   <g id="patch_4">
    <path d="M 414.72 307.584 
L 414.72 41.472 
" style="fill: none; stroke: #000000; stroke-width: 0.8; stroke-linejoin: miter; stroke-linecap: square"/>
   </g>
   <g id="patch_5">
    <path d="M 57.6 307.584 
L 414.72 307.584 
" style="fill: none; stroke: #000000; stroke-width: 0.8; stroke-linejoin: miter; stroke-linecap: square"/>
   </g>
   <g id="patch_6">
    <path d="M 57.6 41.472 
L 414.72 41.472 
" style="fill: none; stroke: #000000; stroke-width: 0.8; stroke-linejoin: miter; stroke-linecap: square"/>
   </g>
   <g id="legend_1">
    <g id="patch_7">
     <path d="M 68.1 137.094979 
L 166.019963 137.094979 
Q 169.019963 137.094979 169.019963 134.094979 
L 169.019963 51.972 
Q 169.019963 48.972 166.019963 48.972 
L 68.1 48.972 
Q 65.1 48.972 65.1 51.972 
L 65.1 134.094979 
Q 65.1 137.094979 68.1 137.094979 
z
" style="fill: #ffffff; opacity: 0.8; stroke: #cccccc; stroke-linejoin: miter"/>
    </g>
    <g id="line2d_41">
     <path d="M 71.1 60.222 
L 86.1 60.222 
L 101.1 60.222 
" style="fill: none; stroke: #1f77b4; stroke-width: 1.5; stroke-linecap: square"/>
    </g>
    <g id="text_16">
     <!-- $z_0$=0.01 -->
     <g transform="translate(113.1 65.472) scale(0.15 -0.15)">
      <defs>
       <path id="CMMI12-7a" d="M 813 486 
C 1088 809 1312 1015 1632 1313 
C 2016 1657 2182 1822 2272 1922 
C 2720 2371 2944 2713 2944 2764 
C 2944 2816 2893 2816 2880 2816 
C 2835 2816 2822 2790 2790 2745 
C 2630 2470 2477 2368 2310 2368 
C 2176 2368 2106 2403 1984 2547 
C 1850 2707 1741 2816 1555 2816 
C 1088 2816 806 2265 806 2127 
C 806 2107 813 2067 870 2067 
C 922 2067 928 2094 947 2140 
C 1056 2387 1363 2415 1485 2415 
C 1619 2415 1747 2387 1882 2342 
C 2125 2239 2227 2239 2291 2239 
C 2336 2239 2362 2239 2394 2246 
C 2182 1988 1837 1670 1549 1399 
L 902 783 
C 512 380 275 32 275 -13 
C 275 -52 307 -64 346 -64 
C 384 -64 390 -58 435 19 
C 538 179 742 384 979 384 
C 1114 384 1178 356 1306 211 
C 1427 70 1536 -64 1741 -64 
C 2368 -64 2726 723 2726 876 
C 2726 902 2720 942 2656 942 
C 2605 942 2598 915 2579 849 
C 2438 460 2061 336 1811 336 
C 1677 336 1549 364 1414 409 
C 1158 512 1088 512 1005 512 
C 941 512 870 512 813 486 
z
" transform="scale(0.015625)"/>
       <path id="CMR17-3d" d="M 4115 2048 
C 4211 2048 4307 2048 4307 2156 
C 4307 2272 4198 2272 4090 2272 
L 512 2272 
C 403 2272 294 2272 294 2156 
C 294 2048 390 2048 486 2048 
L 4115 2048 
z
M 4090 927 
C 4198 927 4307 927 4307 1043 
C 4307 1152 4211 1152 4115 1152 
L 486 1152 
C 390 1152 294 1152 294 1043 
C 294 927 403 927 512 927 
L 4090 927 
z
" transform="scale(0.015625)"/>
       <path id="CMR17-2e" d="M 1062 262 
C 1062 422 934 524 800 524 
C 672 524 538 422 538 262 
C 538 102 666 0 800 0 
C 928 0 1062 102 1062 262 
z
" transform="scale(0.015625)"/>
      </defs>
      <use xlink:href="#CMMI12-7a" transform="scale(0.996264)"/>
      <use xlink:href="#CMR17-30" transform="translate(45.315753 -14.943915) scale(0.697382)"/>
      <use xlink:href="#CMR17-3d" transform="translate(77.797067 0) scale(0.996264)"/>
      <use xlink:href="#CMR17-30" transform="translate(149.511856 0) scale(0.996264)"/>
      <use xlink:href="#CMR17-2e" transform="translate(195.202333 0) scale(0.996264)"/>
      <use xlink:href="#CMR17-30" transform="translate(220.073391 0) scale(0.996264)"/>
      <use xlink:href="#CMR17-31" transform="translate(265.763868 0) scale(0.996264)"/>
     </g>
    </g>
    <g id="line2d_42">
     <path d="M 71.1 81.127745 
L 86.1 81.127745 
L 101.1 81.127745 
" style="fill: none; stroke: #ff7f0e; stroke-width: 1.5; stroke-linecap: square"/>
    </g>
    <g id="text_17">
     <!-- $z_0$=0.1 -->
     <g transform="translate(113.1 86.377745) scale(0.15 -0.15)">
      <use xlink:href="#CMMI12-7a" transform="scale(0.996264)"/>
      <use xlink:href="#CMR17-30" transform="translate(45.315753 -14.943915) scale(0.697382)"/>
      <use xlink:href="#CMR17-3d" transform="translate(77.797067 0) scale(0.996264)"/>
      <use xlink:href="#CMR17-30" transform="translate(149.511856 0) scale(0.996264)"/>
      <use xlink:href="#CMR17-2e" transform="translate(195.202333 0) scale(0.996264)"/>
      <use xlink:href="#CMR17-31" transform="translate(220.073391 0) scale(0.996264)"/>
     </g>
    </g>
    <g id="line2d_43">
     <path d="M 71.1 102.033489 
L 86.1 102.033489 
L 101.1 102.033489 
" style="fill: none; stroke: #2ca02c; stroke-width: 1.5; stroke-linecap: square"/>
    </g>
    <g id="text_18">
     <!-- $z_0$=0.3 -->
     <g transform="translate(113.1 107.283489) scale(0.15 -0.15)">
      <use xlink:href="#CMMI12-7a" transform="scale(0.996264)"/>
      <use xlink:href="#CMR17-30" transform="translate(45.315753 -14.943915) scale(0.697382)"/>
      <use xlink:href="#CMR17-3d" transform="translate(77.797067 0) scale(0.996264)"/>
      <use xlink:href="#CMR17-30" transform="translate(149.511856 0) scale(0.996264)"/>
      <use xlink:href="#CMR17-2e" transform="translate(195.202333 0) scale(0.996264)"/>
      <use xlink:href="#CMR17-33" transform="translate(220.073391 0) scale(0.996264)"/>
     </g>
    </g>
    <g id="line2d_44">
     <path d="M 71.1 122.939234 
L 86.1 122.939234 
L 101.1 122.939234 
" style="fill: none; stroke: #d62728; stroke-width: 1.5; stroke-linecap: square"/>
    </g>
    <g id="text_19">
     <!-- $z_0$=0.5 -->
     <g transform="translate(113.1 128.189234) scale(0.15 -0.15)">
      <use xlink:href="#CMMI12-7a" transform="scale(0.996264)"/>
      <use xlink:href="#CMR17-30" transform="translate(45.315753 -14.943915) scale(0.697382)"/>
      <use xlink:href="#CMR17-3d" transform="translate(77.797067 0) scale(0.996264)"/>
      <use xlink:href="#CMR17-30" transform="translate(149.511856 0) scale(0.996264)"/>
      <use xlink:href="#CMR17-2e" transform="translate(195.202333 0) scale(0.996264)"/>
      <use xlink:href="#CMR17-35" transform="translate(220.073391 0) scale(0.996264)"/>
     </g>
    </g>
   </g>
  </g>
 </g>
 <defs>
  <clipPath id="pec28452b7a">
   <rect x="57.6" y="41.472" width="357.12" height="266.112"/>
  </clipPath>
 </defs>
</svg>
